<svg width="30" height="30" viewBox="0 0 30 30" fill="none" xmlns="http://www.w3.org/2000/svg">
<path d="M12.6543 11.8765C11.3197 12.9442 10.6524 13.4781 10.4108 14.123C10.199 14.6885 10.199 15.3115 10.4108 15.877C10.6524 16.5219 11.3197 17.0558 12.6543 18.1235L18.0006 22.4005C19.0408 23.2327 19.5609 23.6487 19.9987 23.6492C20.3793 23.6496 20.7394 23.4765 20.9769 23.179C21.25 22.8369 21.25 22.1709 21.25 20.8388V9.16125C21.25 7.82912 21.25 7.16306 20.9769 6.82097C20.7394 6.52345 20.3793 6.35037 19.9987 6.35078C19.5609 6.35125 19.0408 6.76734 18.0006 7.59951L12.6543 11.8765Z" fill="#E5E5E5"/>
<path d="M8.75 6.25V23.75M21.25 9.16125V20.8388C21.25 22.1709 21.25 22.8369 20.9769 23.179C20.7394 23.4765 20.3793 23.6496 19.9987 23.6492C19.5609 23.6487 19.0408 23.2327 18.0006 22.4005L12.6543 18.1235C11.3197 17.0558 10.6524 16.5219 10.4108 15.877C10.199 15.3115 10.199 14.6885 10.4108 14.123C10.6524 13.4781 11.3197 12.9442 12.6543 11.8765L18.0006 7.59951C19.0408 6.76734 19.5609 6.35125 19.9987 6.35078C20.3793 6.35037 20.7394 6.52345 20.9769 6.82097C21.25 7.16306 21.25 7.82912 21.25 9.16125Z" stroke="#E5E5E5" stroke-width="2" stroke-linecap="round" stroke-linejoin="round"/>
</svg>
