<svg width="262" height="239" viewBox="0 0 262 239" fill="none" xmlns="http://www.w3.org/2000/svg">
<path d="M123.668 179.565C125.918 174.141 127.824 168.285 126.918 162.487C125.339 152.373 116.022 145.65 107.922 139.397C98.2635 131.941 89.1448 123.469 78.0086 118.476C66.8723 113.483 52.8338 112.657 43.1973 120.171C37.3854 124.702 33.9522 131.583 31.1175 138.383C28.2757 145.2 25.8397 152.186 23.8275 159.291C22.4705 164.08 21.297 169.026 21.6896 173.986C22.4729 183.881 29.2868 192.198 36.5014 199.008C42.7566 204.913 49.8023 210.368 58.0969 212.661C64.8017 214.514 71.9066 214.186 78.8337 213.512C84.3244 212.977 89.9299 212.225 95.0668 210.104C99.0289 208.467 102.745 207.761 106.648 206.42C114.806 203.617 120.617 186.917 123.668 179.565Z" fill="#C4EED9"/>
<path d="M190.643 187.52C197.073 180.733 203.183 173.256 205.794 163.854C208.407 154.451 206.886 142.694 199.686 134.387C191.701 125.174 179.166 122.461 168.076 122.095C156.984 121.729 145.752 122.956 134.785 118.94C130.665 117.431 126.552 115.081 123.731 111.475C120.632 107.511 119.461 102.522 119.029 97.8105C118.104 87.7012 120.076 78.0397 120.288 68.0757C120.501 58.1118 118.56 46.9958 111.418 38.8911C104.353 30.8722 93.7873 27.5564 83.9829 25.9857C69.326 23.6373 53.6324 24.5634 43.7754 33.8954C34.4253 42.7481 32.1762 57.2176 30.3389 70.8262C29.9489 73.7179 29.5745 76.761 30.6444 79.7159C31.6051 82.37 33.6113 84.6107 35.5564 86.752C65.6428 119.881 95.7292 153.009 125.816 186.138C133.97 195.117 146.187 209.142 158.612 208.793C171.385 208.435 182.969 195.621 190.643 187.52Z" fill="#DCF6E9"/>
<path d="M212.074 201.102C211.612 200.961 211.179 200.741 210.774 200.482C209.884 199.912 209.113 199.179 208.355 198.449C207.523 197.647 206.638 196.905 205.81 196.1C203.879 194.223 202.133 192.136 200.781 189.802C199.455 187.514 198.46 185.044 197.642 182.533C197.236 181.288 196.866 180.03 196.505 178.772C196.143 177.508 195.811 176.232 195.578 174.937C195.465 174.312 195.358 173.678 195.325 173.043C195.293 172.419 195.339 171.794 195.353 171.171C195.367 170.56 195.348 169.951 195.249 169.348C195.143 168.707 194.971 168.079 194.824 167.447C194.568 166.352 194.386 165.227 194.24 164.112C194.097 163.027 194.016 161.919 194.173 160.831C194.244 160.343 194.382 159.872 194.543 159.406C194.595 159.254 194.638 159.117 194.728 159.004C194.706 159.031 194.817 158.938 194.766 158.966C194.821 158.936 194.849 158.931 194.949 158.929L195.007 158.931C195.212 159.013 195.411 159.116 195.604 159.217C196.018 159.434 196.409 159.688 196.786 159.962C197.852 160.74 198.857 161.599 199.84 162.479C200.822 163.358 201.784 164.262 202.737 165.173C203.702 166.095 204.649 167.04 205.526 168.049C206.395 169.051 207.14 170.119 207.839 171.244C208.529 172.355 209.229 173.494 209.669 174.733C210.093 175.923 210.269 177.18 210.593 178.397C210.911 179.593 211.372 180.747 211.666 181.95C211.971 183.199 211.98 184.483 212.087 185.758C212.195 187.054 212.456 188.333 212.517 189.631C212.576 190.906 212.509 192.174 212.679 193.442C212.765 194.082 212.871 194.719 212.92 195.363C212.971 196.035 212.975 196.712 212.987 197.387C213 198.084 213.01 198.782 213.037 199.48C213.054 199.932 213.16 200.416 213.081 200.867C212.994 201.368 212.434 201.212 212.074 201.102ZM197.482 157.686C198.433 157.38 199.423 157.346 200.414 157.393C202.372 157.486 204.305 157.895 206.272 157.858C210.317 157.782 214.219 156.463 218.063 155.323C219.996 154.749 221.867 153.988 223.775 153.34C224.724 153.018 225.683 152.725 226.661 152.502C227.581 152.292 228.51 152.182 229.444 152.058C232.604 151.639 235.939 150.879 239.063 151.897C239.868 152.16 240.587 152.551 241.319 152.968C242.119 153.424 242.934 153.859 243.688 154.391C244.055 154.65 244.413 154.93 244.719 155.261C245.026 155.593 245.264 155.981 245.506 156.362C246.042 157.208 246.532 158.084 246.969 158.986C247.106 159.271 247.237 159.559 247.361 159.85C247.304 159.89 247.243 159.925 247.179 159.956C245.745 160.157 244.256 159.81 242.816 159.895C240.911 160.009 238.981 159.936 237.122 159.475C235.201 158.999 233.354 158.253 231.514 157.536C230.676 157.209 229.846 156.876 228.966 156.68C228.247 156.521 227.514 156.46 226.778 156.477C225.081 156.516 223.393 156.9 221.754 157.316C219.994 157.763 218.253 158.289 216.475 158.668C215.575 158.86 214.664 159.016 213.746 159.099C212.813 159.182 211.878 159.176 210.942 159.142C208.975 159.069 207.016 158.865 205.048 158.809C204.125 158.783 203.202 158.841 202.28 158.808C201.465 158.78 200.655 158.681 199.848 158.572C198.642 158.41 197.423 158.223 196.203 158.22L196.128 158.207C196.574 158.019 197.021 157.834 197.482 157.686ZM228.15 157.896C226.149 158.376 224.205 159.071 222.265 159.752C220.384 160.412 218.493 161.108 216.538 161.517C212.967 162.264 209.287 162.067 205.731 161.34C203.748 160.934 201.801 160.349 199.909 159.633C199.311 159.407 198.722 159.126 198.124 158.867C198.336 158.891 198.547 158.917 198.758 158.945C199.564 159.053 200.369 159.177 201.179 159.256C202.033 159.34 202.876 159.327 203.733 159.32C207.561 159.293 211.387 160.067 215.202 159.476C218.752 158.927 222.134 157.558 225.713 157.171C227.189 157.011 228.608 157.157 229.999 157.648C229.379 157.666 228.759 157.75 228.15 157.896ZM199.528 160.859C200.085 161.247 200.64 161.633 201.192 162.027C202.285 162.807 203.373 163.596 204.419 164.438C205.467 165.282 206.464 166.185 207.371 167.181C208.243 168.138 208.96 169.188 209.666 170.27C212.341 174.37 214.668 178.836 215.337 183.745C215.665 186.145 215.829 188.58 215.495 190.99C215.405 191.639 215.283 192.282 215.196 192.932C215.111 193.567 215.034 194.203 214.924 194.834C214.812 195.481 214.64 196.098 214.417 196.715C214.209 197.287 213.984 197.854 213.814 198.439C213.722 198.757 213.63 199.073 213.535 199.389C213.508 198.828 213.505 198.265 213.494 197.705C213.481 196.98 213.473 196.255 213.435 195.531C213.401 194.885 213.301 194.246 213.211 193.606C213.12 192.955 213.053 192.307 213.049 191.649C213.045 191.005 213.047 190.361 213.022 189.717C212.97 188.363 212.698 187.032 212.585 185.683C212.476 184.38 212.464 183.072 212.145 181.798C211.831 180.544 211.345 179.342 211.03 178.089C210.718 176.852 210.526 175.581 210.076 174.382C209.606 173.133 208.886 171.986 208.184 170.858C207.452 169.685 206.66 168.581 205.743 167.545C204.839 166.525 203.866 165.569 202.877 164.632C200.953 162.808 199.019 160.92 196.822 159.421C196.749 159.371 196.674 159.321 196.598 159.271C197.088 159.423 197.566 159.616 198.017 159.859C198.55 160.148 199.032 160.514 199.528 160.859ZM183.823 168.43C183.735 168.524 183.646 168.617 183.558 168.711C183.676 168.544 183.799 168.379 183.925 168.218C183.892 168.289 183.858 168.36 183.823 168.43ZM173.333 186.772C173.945 186.335 174.572 185.92 175.187 185.487C175.807 185.051 176.434 184.617 177.134 184.318C178.416 183.77 179.853 183.901 181.178 184.207C182.645 184.545 184.07 185.109 185.452 185.695C186.929 186.321 188.372 187.022 189.805 187.74C191.249 188.463 192.693 189.189 194.138 189.911C195.666 190.673 197.178 191.466 198.68 192.279C199.273 192.6 199.881 192.881 200.491 193.169C201.086 193.451 201.684 193.754 202.192 194.178C202.214 194.196 202.235 194.217 202.257 194.236C201.208 194.242 200.159 194.353 199.112 194.268C198.4 194.21 197.69 194.07 196.988 193.94C196.267 193.806 195.549 193.657 194.832 193.504C194.137 193.356 193.444 193.227 192.738 193.137C192.057 193.05 191.374 192.984 190.693 192.899C190.022 192.816 189.353 192.713 188.694 192.557C188.018 192.397 187.344 192.232 186.664 192.087C186.003 191.945 185.337 191.822 184.666 191.736C183.995 191.65 183.327 191.627 182.652 191.598C181.426 191.546 180.216 191.318 179.014 191.088C177.821 190.859 176.624 190.622 175.408 190.567C174.777 190.538 174.139 190.551 173.511 190.629C172.868 190.71 172.232 190.893 171.623 191.113C170.401 191.553 169.237 192.2 168.192 192.969C167.681 193.346 167.196 193.76 166.738 194.2C166.858 194.006 166.979 193.811 167.101 193.617C167.938 192.287 168.752 190.938 169.822 189.778C170.868 188.645 172.081 187.667 173.333 186.772ZM195.273 200.024C194.022 200.783 192.659 201.377 191.246 201.757C190.607 201.929 189.953 202.08 189.289 202.092C188.713 202.104 188.133 202.021 187.578 201.871C186.955 201.702 186.367 201.448 185.766 201.217C185.076 200.951 184.372 200.722 183.686 200.445C182.975 200.158 182.32 199.784 181.65 199.414C180.963 199.035 180.273 198.661 179.578 198.296C178.946 197.962 178.304 197.648 177.698 197.268C177.138 196.917 176.598 196.535 176.055 196.158C174.967 195.401 173.841 194.642 172.574 194.218C171.289 193.788 169.838 193.741 168.534 194.122C167.329 194.474 166.421 195.326 165.552 196.195C165.589 196.129 165.627 196.064 165.665 195.999C165.833 195.809 165.986 195.603 166.141 195.413C166.555 194.902 167.063 194.451 167.564 194.028C168.573 193.174 169.701 192.473 170.918 191.955C172.084 191.458 173.308 191.182 174.578 191.181C175.794 191.181 177.004 191.375 178.196 191.599C179.384 191.821 180.567 192.076 181.771 192.197C182.41 192.261 183.052 192.256 183.692 192.303C184.369 192.353 185.041 192.448 185.709 192.571C187.054 192.818 188.368 193.218 189.718 193.436C191.074 193.655 192.449 193.731 193.802 193.975C194.504 194.102 195.199 194.268 195.898 194.41C196.617 194.557 197.337 194.693 198.061 194.808C198.734 194.916 199.397 194.978 200.079 194.971C200.613 194.965 201.146 194.935 201.68 194.918C199.409 196.438 197.622 198.598 195.273 200.024ZM177.671 168.693C176.854 165.237 174.908 162.152 173.036 159.183C170.875 155.757 168.568 152.419 166.317 149.051C165.235 147.431 164.057 145.873 163.043 144.208C162.151 142.743 161.376 141.178 161.101 139.471C160.639 136.607 161.217 133.616 160.247 130.83C160.206 130.713 160.162 130.598 160.115 130.484C160.164 130.504 160.213 130.526 160.26 130.549C160.721 130.772 161.139 131.095 161.535 131.415C162.016 131.802 162.475 132.217 162.921 132.644C163.671 133.36 164.388 134.109 165.149 134.814C166.725 136.275 168.241 137.787 169.596 139.458C170.908 141.078 172.261 142.668 173.483 144.359C174.697 146.038 175.781 147.831 176.522 149.772C177.184 151.504 177.463 153.346 177.671 155.181C177.774 156.095 177.861 157.011 177.974 157.925C178.087 158.851 178.255 159.761 178.425 160.677C178.78 162.592 178.764 164.553 178.575 166.486C178.48 167.461 178.238 168.409 178.121 169.381C178.007 170.325 178.143 171.269 178.088 172.215C178.067 172.557 178.021 172.896 177.954 173.229C178.111 171.712 178.024 170.182 177.671 168.693ZM177.374 170.631C177.075 169.754 176.684 168.896 176.259 168.073C175.307 166.232 174.031 164.585 172.764 162.954C171.505 161.331 170.301 159.667 169.001 158.076C166.391 154.882 163.561 151.822 161.421 148.276C160.389 146.565 159.469 144.723 158.994 142.774C158.542 140.922 158.424 138.988 158.378 137.088C158.354 136.112 158.5 135.14 158.657 134.18C158.772 133.477 158.87 132.772 158.977 132.068C159.026 131.752 159.079 131.435 159.165 131.127C159.225 130.911 159.292 130.664 159.431 130.479C160.533 132.992 160.126 135.838 160.354 138.513C160.488 140.093 160.916 141.56 161.646 142.97C162.527 144.674 163.658 146.215 164.795 147.753C165.958 149.325 167.026 150.961 168.127 152.576C169.257 154.233 170.396 155.882 171.505 157.553C172.549 159.126 173.575 160.716 174.527 162.347C175.406 163.853 176.216 165.409 176.803 167.055C177.339 168.557 177.663 170.117 177.681 171.709C177.601 171.343 177.494 170.982 177.374 170.631ZM187.183 162.874C187.352 162.492 187.488 162.089 187.544 161.674C187.603 161.232 187.533 160.827 187.405 160.405C187.07 159.295 186.535 158.258 186.063 157.203C185.555 156.068 185.085 154.913 184.599 153.768C184.117 152.63 183.667 151.476 183.145 150.356C182.624 149.238 182.055 148.14 181.636 146.978C181.259 145.933 180.985 144.841 180.717 143.763C180.201 141.682 179.816 139.562 179.691 137.418C179.628 136.333 179.636 135.244 179.727 134.161C179.823 133.015 180.041 131.892 180.274 130.768C180.528 129.547 180.789 128.328 180.973 127.094C181.14 125.977 181.522 124.929 181.933 123.882C182.346 122.832 182.728 121.778 183.021 120.688C183.313 119.604 183.539 118.504 183.728 117.398C184.104 115.193 184.335 112.967 184.696 110.759C184.767 110.327 184.845 109.896 184.927 109.467C186.587 110.657 187.629 112.557 188.926 114.094C189.725 115.041 190.644 115.879 191.41 116.854C192.194 117.851 192.734 119.001 193.264 120.146C194.177 122.119 195.316 124.049 195.81 126.186C196.063 127.281 196.045 128.411 196.127 129.527C196.215 130.731 196.328 131.934 196.375 133.141C196.42 134.269 196.372 135.396 196.341 136.524C196.312 137.573 196.282 138.623 196.235 139.672C196.14 141.776 195.981 143.883 195.625 145.961C195.272 148.021 194.716 150.052 193.856 151.96C192.871 154.143 191.525 156.172 190.214 158.169C189.534 159.206 188.855 160.241 188.189 161.287C187.827 161.855 187.474 162.429 187.123 163.003C187.143 162.96 187.164 162.918 187.183 162.874ZM198.425 155.1C199.529 154.181 200.662 153.297 201.727 152.332C203.718 150.528 205.522 148.536 207.278 146.504C209.229 144.561 211.145 142.583 212.991 140.544C214.161 139.253 215.27 137.923 216.345 136.568C218.463 134.444 220.545 132.285 222.544 130.048C223.707 128.745 224.825 127.404 225.996 126.108C226.571 125.471 227.149 124.837 227.711 124.189C228.17 123.66 228.67 123.156 228.907 122.487C229.005 122.927 229.148 123.364 229.227 123.792C229.42 124.834 229.6 125.878 229.833 126.912C230.059 127.913 230.317 128.907 230.547 129.907C230.772 130.886 231.015 131.87 230.952 132.881C230.897 133.779 230.758 134.654 230.835 135.556C230.873 136.001 230.938 136.447 230.943 136.895C230.948 137.356 230.869 137.814 230.758 138.261C230.349 139.906 229.367 141.24 228.278 142.504C226.905 144.097 225.502 145.667 224.005 147.145C222.543 148.589 220.992 150.003 219.293 151.168C217.808 152.186 216.104 152.972 214.296 153.147C213.357 153.237 212.456 153.054 211.534 152.901C210.567 152.742 209.602 152.755 208.626 152.748C207.727 152.742 206.843 152.671 205.945 152.759C205.088 152.843 204.24 153.013 203.412 153.243C201.706 153.715 200.076 154.416 198.481 155.177C198.442 155.196 198.403 155.215 198.363 155.234C198.385 155.19 198.405 155.145 198.425 155.1ZM199.133 152.757C199.47 151.243 199.724 149.713 199.996 148.187C200.296 146.502 200.653 144.835 201.218 143.216C201.741 141.715 202.398 140.258 203.16 138.863C203.935 137.443 204.812 136.079 205.768 134.775C206.714 133.484 207.696 132.193 208.787 131.02C209.327 130.439 209.885 129.875 210.458 129.326C211.076 128.734 211.701 128.167 212.446 127.736C213.207 127.295 214.025 126.965 214.841 126.644C215.703 126.304 216.558 125.95 217.413 125.593C219.14 124.873 220.882 124.24 222.673 123.697C223.556 123.43 224.453 123.191 225.32 122.875C226.153 122.572 226.949 122.183 227.765 121.841C228.046 121.724 228.329 121.614 228.615 121.514C228.097 122.09 227.481 122.561 226.89 123.065C226.226 123.632 225.636 124.271 225.051 124.917C223.762 126.341 222.467 127.777 221.245 129.258C218.961 132.025 216.945 134.992 214.622 137.727C213.895 138.449 213.173 139.176 212.475 139.926C211.379 141.103 210.324 142.316 209.276 143.535C205.916 146.978 202.403 150.28 198.931 153.6C199.004 153.32 199.071 153.039 199.133 152.757ZM228.136 122.992C227.702 123.66 227.123 124.248 226.595 124.843C225.45 126.132 224.328 127.438 223.194 128.737C221.627 130.532 220.001 132.273 218.342 133.983C218.886 133.262 219.425 132.537 219.963 131.808C221.089 130.285 222.282 128.835 223.512 127.396C224.769 125.923 225.966 124.386 227.422 123.101C227.797 122.77 228.168 122.434 228.506 122.069C228.427 122.397 228.322 122.703 228.136 122.992ZM213.581 201.234C213.552 200.712 213.77 200.177 213.925 199.689C214.096 199.152 214.21 198.6 214.39 198.066C214.594 197.464 214.837 196.875 215.029 196.268C215.222 195.654 215.338 195.022 215.432 194.386C215.533 193.71 215.609 193.031 215.709 192.355C215.804 191.707 215.926 191.065 215.993 190.413C216.119 189.19 216.126 187.957 216.056 186.731C215.914 184.22 215.519 181.725 214.722 179.336C213.918 176.929 212.775 174.648 211.487 172.466C210.854 171.395 210.187 170.344 209.502 169.306C208.746 168.159 207.936 167.069 206.975 166.084C205.057 164.119 202.811 162.564 200.617 160.934C200.192 160.619 199.778 160.298 199.353 159.994C201.016 160.688 202.77 161.211 204.518 161.629C208.076 162.479 211.801 162.846 215.438 162.316C219.429 161.734 223.12 159.944 226.974 158.843C227.884 158.582 228.803 158.334 229.751 158.269C230.598 158.211 231.461 158.295 232.277 158.53C232.692 158.692 233.108 158.852 233.525 159.008C233.985 159.221 234.435 159.459 234.888 159.689C235.74 160.121 236.603 160.468 237.551 160.622C238.79 160.823 240.022 160.699 241.257 160.62C241.356 160.621 241.456 160.624 241.556 160.623C242.03 160.619 242.501 160.593 242.972 160.577L242.999 160.577C244.321 160.625 245.727 160.973 247.036 160.636C247.326 160.609 247.614 160.561 247.896 160.484C248.103 160.428 248.236 160.241 248.15 160.026C247.77 159.083 247.313 158.173 246.81 157.29C246.561 156.852 246.301 156.419 246.03 155.994C245.78 155.602 245.534 155.201 245.216 154.86C244.582 154.179 243.788 153.668 242.989 153.203C242.22 152.756 241.443 152.296 240.647 151.898C237.612 150.376 234.183 150.783 230.945 151.249C229.097 151.515 227.25 151.696 225.446 152.199C223.478 152.747 221.581 153.505 219.653 154.174C217.706 154.849 215.709 155.4 213.726 155.955C211.756 156.506 209.757 156.982 207.716 157.165C206.701 157.256 205.687 157.268 204.671 157.191C203.674 157.117 202.684 156.979 201.689 156.884C200.695 156.789 199.677 156.723 198.681 156.828C197.72 156.931 196.821 157.281 195.94 157.66C195.783 157.727 195.625 157.794 195.468 157.86C196.034 157.32 196.6 156.779 197.165 156.238L197.216 156.19C197.285 156.306 197.42 156.375 197.579 156.296C200.69 154.746 204.063 153.062 207.634 153.26C208.625 153.314 209.62 153.253 210.609 153.337C211.554 153.417 212.473 153.689 213.421 153.741C215.24 153.842 217.094 153.201 218.651 152.302C220.399 151.293 221.953 149.933 223.421 148.559C224.955 147.124 226.388 145.584 227.775 144.007C228.949 142.674 230.204 141.336 230.916 139.685C231.257 138.892 231.518 137.991 231.54 137.125C231.564 136.213 231.355 135.317 231.416 134.403C231.478 133.486 231.64 132.57 231.505 131.651C231.353 130.623 231.086 129.608 230.839 128.601C230.585 127.569 230.335 126.536 230.133 125.492C229.942 124.505 229.787 123.514 229.528 122.542C229.42 122.14 229.335 121.732 229.394 121.314C229.432 121.046 229.137 120.954 228.953 121.075C228.912 121.055 228.865 121.048 228.812 121.064C227.975 121.315 227.178 121.675 226.374 122.017C225.542 122.373 224.7 122.665 223.833 122.926C222.027 123.47 220.225 124.004 218.471 124.705C217.606 125.051 216.749 125.417 215.886 125.769C215.052 126.109 214.203 126.415 213.38 126.782C212.591 127.133 211.824 127.552 211.153 128.099C210.53 128.608 209.956 129.19 209.389 129.76C208.274 130.881 207.149 132.039 206.167 133.28C205.163 134.55 204.231 135.878 203.394 137.265C201.715 140.048 200.445 143.039 199.757 146.22C199.388 147.928 199.13 149.658 198.789 151.372C198.586 152.393 198.408 153.48 198.025 154.468C197.043 155.408 196.059 156.347 195.076 157.286C194.927 157.42 194.78 157.555 194.633 157.692C194.329 157.975 194.029 158.263 193.733 158.555L193.692 158.61C190.811 161.371 187.949 164.152 185.174 167.019C185.247 166.827 185.32 166.635 185.394 166.443C185.469 166.348 185.543 166.253 185.614 166.155C186.328 165.185 186.958 164.157 187.6 163.139C188.276 162.069 188.992 161.027 189.691 159.973C191.08 157.875 192.483 155.78 193.683 153.566C194.707 151.675 195.416 149.659 195.882 147.561C196.808 143.392 196.842 139.072 196.945 134.822C196.974 133.601 196.903 132.38 196.81 131.164C196.718 129.936 196.635 128.71 196.565 127.481C196.441 125.353 195.444 123.363 194.501 121.494C193.932 120.365 193.444 119.193 192.825 118.089C192.188 116.951 191.354 115.997 190.449 115.066C189.655 114.248 188.926 113.397 188.236 112.491C187.554 111.595 186.88 110.68 186.073 109.891C185.712 109.537 185.328 109.207 184.903 108.931C184.76 108.838 184.597 108.923 184.565 109.083C183.67 113.455 183.535 117.993 182.032 122.23C181.655 123.293 181.18 124.321 180.84 125.398C180.491 126.505 180.37 127.662 180.143 128.797C179.905 129.987 179.617 131.167 179.407 132.362C179.221 133.422 179.123 134.498 179.101 135.574C179.057 137.718 179.304 139.857 179.722 141.957C179.931 143.009 180.183 144.052 180.463 145.087C180.764 146.203 181.085 147.304 181.544 148.367C182.023 149.474 182.58 150.546 183.035 151.664C183.516 152.846 184.002 154.025 184.495 155.201C184.951 156.291 185.404 157.379 185.889 158.455C186.129 158.986 186.365 159.519 186.565 160.067C186.717 160.484 186.898 160.929 186.875 161.381C186.836 162.176 186.417 162.92 186.031 163.596C185.574 164.395 185.15 165.18 184.809 166.038C184.688 166.343 184.571 166.651 184.452 166.959C184.35 167.083 184.246 167.207 184.14 167.328C183.397 168.182 182.887 169.181 182.231 170.097C182.185 170.161 182.137 170.225 182.089 170.288C181.862 170.536 181.635 170.785 181.409 171.035C181.306 171.127 181.197 171.214 181.083 171.296C181.023 171.339 181.015 171.399 181.037 171.449C180.845 171.663 180.653 171.877 180.462 172.093C180.217 172.287 179.972 172.481 179.729 172.677C179.595 172.785 179.574 172.93 179.619 173.054C179.05 173.709 178.489 174.371 177.935 175.039C178.254 174.233 178.505 173.382 178.598 172.522C178.704 171.538 178.545 170.548 178.65 169.563C178.755 168.577 179.013 167.616 179.113 166.629C179.213 165.645 179.269 164.657 179.256 163.668C179.244 162.679 179.167 161.693 178.998 160.718C178.833 159.772 178.654 158.834 178.539 157.88C178.316 156.028 178.2 154.161 177.844 152.328C177.455 150.325 176.708 148.451 175.697 146.681C174.651 144.849 173.376 143.165 172.054 141.525C170.696 139.84 169.357 138.13 167.842 136.582C167.073 135.796 166.274 135.039 165.468 134.291C165.367 134.197 165.265 134.103 165.163 134.009L165.075 133.927C165.023 133.877 164.971 133.827 164.92 133.776C164.765 133.622 164.612 133.467 164.458 133.313C163.604 132.454 162.739 131.593 161.788 130.841C161.359 130.502 160.907 130.176 160.407 129.949C160.288 129.895 160.158 129.846 160.024 129.811C159.994 129.78 159.955 129.755 159.905 129.738C159.789 129.697 159.679 129.659 159.559 129.633C159.406 129.602 159.268 129.721 159.224 129.862C158.73 130.13 158.589 130.885 158.485 131.377C158.356 131.986 158.299 132.608 158.2 133.222C158.038 134.225 157.847 135.227 157.788 136.243C157.732 137.223 157.806 138.218 157.869 139.196C157.996 141.144 158.3 143.076 159.026 144.898C160.591 148.826 163.248 152.179 165.93 155.398C167.294 157.035 168.68 158.654 169.974 160.347C170.604 161.171 171.211 162.012 171.845 162.832C172.496 163.674 173.154 164.512 173.78 165.373C174.97 167.01 175.992 168.755 176.687 170.662C176.995 171.505 177.247 172.419 177.133 173.323C177.026 174.175 176.669 174.969 176.416 175.783C176.294 176.171 176.207 176.566 176.114 176.962C176.079 177.111 176.043 177.265 176.016 177.421C173.862 180.177 171.856 183.046 170.069 186.06C168.191 189.228 166.577 192.554 164.974 195.867C164.911 195.998 164.849 196.129 164.786 196.26C164.739 196.283 164.69 196.303 164.639 196.32C164.49 196.369 164.52 196.534 164.622 196.604C164.57 196.71 164.519 196.818 164.468 196.924C164.347 197.151 164.227 197.378 164.111 197.607C164.089 197.649 164.082 197.69 164.083 197.729C162.735 200.555 161.419 203.397 160.119 206.246C159.73 207.101 159.344 207.956 158.968 208.816C158.799 209.204 159.398 209.422 159.577 209.047C161.367 205.303 163.056 201.505 164.815 197.742C165.85 196.811 166.721 195.642 167.966 194.985C169.113 194.38 170.585 194.32 171.829 194.624C173.1 194.935 174.219 195.654 175.286 196.384C175.841 196.763 176.387 197.155 176.949 197.524C177.514 197.896 178.099 198.221 178.699 198.531C179.405 198.895 180.106 199.268 180.804 199.649C181.478 200.017 182.14 200.421 182.839 200.742C183.52 201.054 184.231 201.293 184.934 201.548C185.568 201.778 186.184 202.054 186.823 202.271C187.995 202.668 189.221 202.817 190.444 202.573C191.889 202.284 193.299 201.78 194.608 201.102C195.956 200.405 197.178 199.517 198.329 198.532C199.507 197.524 200.634 196.445 201.925 195.579C202.234 195.371 202.553 195.179 202.881 195.003C202.917 194.984 202.952 194.957 202.984 194.925C203.286 194.932 203.415 194.617 203.266 194.377C202.917 193.817 202.354 193.412 201.791 193.086C201.18 192.732 200.533 192.45 199.895 192.15C199.195 191.822 198.528 191.437 197.836 191.069C197.069 190.661 196.299 190.259 195.525 189.863C194.036 189.102 192.532 188.369 191.037 187.619C189.569 186.882 188.098 186.149 186.596 185.482C185.158 184.844 183.688 184.249 182.177 183.808C180.815 183.411 179.333 183.128 177.919 183.407C176.369 183.714 175.136 184.773 173.859 185.631C172.566 186.501 171.312 187.441 170.181 188.516C169.601 189.066 169.05 189.651 168.558 190.281C168.473 190.39 168.391 190.501 168.31 190.613C168.691 189.883 169.077 189.156 169.473 188.434C171.158 185.361 173.078 182.427 175.164 179.614C175.55 179.259 175.865 178.822 176.151 178.377C176.245 178.431 176.366 178.432 176.471 178.356C176.999 177.974 177.229 177.377 177.361 176.765C178.427 175.435 179.526 174.132 180.652 172.854C181.461 172.221 182.28 171.602 182.992 170.857C183.606 170.215 184.073 169.492 184.46 168.711C187.496 165.53 190.654 162.468 193.83 159.426C193.677 159.907 193.549 160.391 193.485 160.893C193.343 162.017 193.432 163.166 193.581 164.285C193.736 165.443 193.93 166.61 194.202 167.747C194.356 168.39 194.525 169.031 194.615 169.688C194.7 170.313 194.687 170.941 194.665 171.57C194.643 172.198 194.617 172.83 194.676 173.457C194.739 174.127 194.855 174.794 194.984 175.454C195.249 176.801 195.614 178.125 196.006 179.44C196.78 182.044 197.589 184.641 198.716 187.119C199.274 188.345 199.899 189.545 200.619 190.684C201.344 191.832 202.173 192.899 203.066 193.921C204.007 194.997 204.998 196.026 206.057 196.986C206.495 197.384 206.95 197.76 207.383 198.163C207.766 198.521 208.139 198.889 208.521 199.249C209.311 199.994 210.126 200.734 211.095 201.242C211.65 201.533 212.78 201.999 213.313 201.5C213.445 201.502 213.591 201.404 213.581 201.234Z" fill="#394B42"/>
<path d="M79.2135 221.196C77.3773 221.205 75.5485 220.993 73.7143 220.935C72.2826 220.89 70.8504 220.909 69.4184 220.894C66.6955 220.865 63.8451 220.746 61.3175 219.615C60.008 219.03 58.8452 218.184 57.8839 217.113C56.6788 215.771 55.7235 214.142 54.7755 212.612C52.7329 209.315 50.9466 205.861 49.3391 202.33C47.7017 198.733 46.2454 195.055 44.8493 191.357C44.1294 189.451 43.4697 187.521 42.7304 185.623C42.0551 183.889 41.2374 182.215 40.4193 180.546C39.5767 178.827 38.7287 177.107 38.0389 175.318C37.3361 173.495 36.7506 171.621 36.1026 169.777C34.8132 166.109 33.5264 162.422 32.755 158.601C32.3819 156.753 32.0704 154.868 31.7983 153.002C31.5285 151.149 31.502 149.238 32.2523 147.487C32.8394 146.117 34.0038 145.033 35.1112 144.083C36.262 143.095 37.495 142.21 38.6926 141.282C40.1609 140.144 41.7639 139.18 43.3008 138.13C42.3534 138.898 41.4062 139.667 40.5234 140.51C38.6912 142.26 37.2299 144.387 36.9892 146.981C36.9126 147.803 36.9689 148.626 37.0052 149.449C37.052 150.52 37.107 151.59 37.1735 152.659C37.3021 154.726 37.4735 156.791 37.7162 158.848C38.1848 162.823 39.0394 166.687 39.9919 170.568C40.8907 174.231 41.8133 177.89 42.8417 181.518C44.8685 188.67 47.3405 195.766 50.8071 202.35C52.4607 205.49 54.385 208.48 56.4256 211.378C57.2721 212.58 58.2145 213.711 59.3862 214.605C60.7528 215.648 62.3314 216.376 63.9301 216.978C67.2428 218.225 70.7499 218.739 74.2157 219.361C77.214 219.898 80.6606 220.455 83.5663 219.228C84.8299 218.695 85.9028 217.785 86.6084 216.668C86.554 216.919 86.4962 217.169 86.43 217.416C86.1228 218.56 85.5624 219.545 84.5175 220.146C82.9676 221.036 80.9598 221.188 79.2135 221.196ZM49.3083 131.305C50.1441 129.698 51.2414 128.436 52.636 127.304C51.6213 128.672 50.6387 130.063 49.6315 131.437C49.1553 132.086 48.6803 132.743 48.1846 133.382C48.5838 132.714 48.9388 132.015 49.3083 131.305ZM60.9799 119.619C61.5803 119.154 62.1961 118.698 62.8268 118.259C61.8955 118.963 60.9938 119.708 60.112 120.467C59.0557 121.378 58.0232 122.315 56.9894 123.251C58.2246 121.945 59.5469 120.727 60.9799 119.619ZM72.6453 114.569C73.5289 114.698 74.3281 115.124 75.1846 115.355C75.8454 115.533 76.5159 115.543 77.1913 115.608C78.6283 115.745 79.7226 117.014 80.1323 118.342C80.5947 119.841 80.4327 121.459 80.5388 123.005C80.6688 124.903 81.0717 126.807 81.3914 128.68C81.7329 130.681 82.0888 132.679 82.4193 134.681C82.7446 136.653 83.0402 138.631 83.264 140.617C83.4933 142.654 83.5663 144.693 83.7199 146.734C84.0208 150.732 84.8785 154.657 85.4005 158.627C85.6625 160.617 85.753 162.606 85.8853 164.607C86.0189 166.628 86.2323 168.642 86.4675 170.653C86.9412 174.702 87.506 178.748 87.6884 182.825C87.8642 186.758 87.8211 190.715 87.8495 194.652C87.8776 198.607 87.853 202.565 87.6536 206.517C87.5611 208.355 87.4341 210.192 87.241 212.023C87.0567 211.467 86.1929 211.745 86.3734 212.309C86.8787 213.884 86.4881 215.546 85.4398 216.807C84.4629 217.983 83.0783 218.644 81.6042 218.933C78.512 219.538 75.2819 218.764 72.2411 218.201C70.6161 217.899 68.9843 217.663 67.3796 217.258C65.5397 216.793 63.7321 216.178 62.0259 215.338C60.6286 214.65 59.3838 213.767 58.3177 212.623C57.2907 211.521 56.4593 210.252 55.614 209.009C51.5576 203.047 48.4764 196.581 46.1273 189.756C43.7696 182.907 42.0178 175.864 40.3126 168.828C39.3712 164.943 38.6604 161.052 38.2709 157.069C38.076 155.075 37.9401 153.076 37.8383 151.075C37.7537 149.418 37.5299 147.681 37.9018 146.046C38.4622 143.582 40.2437 141.718 42.0907 140.123C44.0034 138.471 46.1049 137.01 47.7788 135.096C50.1138 132.426 51.9996 129.361 54.1701 126.557C54.5128 126.114 54.8631 125.678 55.2201 125.249C55.6868 124.869 56.1481 124.48 56.5978 124.074C57.7677 123.017 58.9288 121.95 60.1185 120.915C62.5133 118.833 65.0584 116.832 67.9569 115.508C68.486 115.266 69.0237 115.052 69.5684 114.865C70.5685 114.584 71.624 114.419 72.6453 114.569ZM80.9133 221.952C82.4521 221.799 84.1873 221.454 85.4306 220.461C86.3623 219.718 86.8681 218.66 87.1545 217.518C87.5732 215.85 87.7074 214.088 87.8755 212.38C88.0717 210.387 88.2231 208.39 88.3233 206.389C88.5275 202.302 88.5467 198.208 88.5229 194.117C88.499 190.038 88.573 185.931 88.3461 181.858C88.1099 177.608 87.4891 173.393 87.0326 169.165C86.5823 164.997 86.5064 160.811 85.8776 156.662C85.5702 154.63 85.2124 152.607 84.9246 150.573C84.6304 148.492 84.4865 146.418 84.3674 144.321C84.1299 140.148 83.4632 136.016 82.7512 131.902C82.3929 129.832 82.0254 127.763 81.6993 125.687C81.5535 124.76 81.3881 123.83 81.3274 122.892C81.2759 122.092 81.2833 121.29 81.2454 120.49C81.1728 118.967 80.901 117.436 79.8702 116.256C79.4076 115.727 78.8124 115.244 78.1481 115.001C77.6198 114.808 77.0614 114.812 76.5082 114.767C75.4816 114.683 74.5424 114.292 73.5746 114.014C74.732 113.915 75.9028 113.94 77.0757 114.097C77.2019 114.114 77.2492 113.92 77.1209 113.9C75.6468 113.667 74.1766 113.642 72.7309 113.813C72.4053 113.755 72.0732 113.72 71.7303 113.727C70.3523 113.754 68.9879 114.15 67.7171 114.662C64.8852 115.804 62.2854 117.55 59.9135 119.464C57.486 121.423 55.4025 123.705 53.4973 126.164C53.0516 126.515 52.6069 126.868 52.1687 127.232C50.8552 128.322 49.8135 129.534 49.0047 131.044C48.5976 131.805 48.2269 132.586 47.7766 133.322C47.2949 134.109 46.6947 134.795 46.0262 135.425C44.7259 136.651 43.2185 137.628 41.7223 138.591C40.3413 139.479 39.0008 140.399 37.6834 141.38C35.3158 143.142 32.4202 144.981 31.4245 147.925C30.8252 149.698 30.9149 151.569 31.1949 153.394C31.482 155.265 31.7661 157.152 32.1398 159.009C32.9425 162.995 34.281 166.84 35.61 170.672C36.2588 172.543 36.8326 174.449 37.5833 176.281C38.324 178.089 39.2022 179.835 40.0555 181.59C41.862 185.307 43.1589 189.206 44.633 193.061C47.4899 200.534 50.6896 207.932 55.0815 214.636C56.0252 216.077 56.9747 217.546 58.2876 218.678C59.3404 219.586 60.556 220.261 61.86 220.726C64.5615 221.691 67.4966 221.726 70.3294 221.737C71.8534 221.743 73.3772 221.738 74.8996 221.823C76.9005 221.936 78.9109 222.151 80.9133 221.952Z" fill="#FFFCF8"/>
<path d="M160.52 93.9466C162.35 92.7064 163.934 91.6033 165.596 90.0952C167.876 88.0261 169.015 86.3514 171.407 84.0988C171.407 84.0988 173.883 81.7176 177.798 79.0621C181.32 76.6724 197.272 68.8516 200.957 71.7011C203.047 73.3167 201.357 78.4969 200.181 80.509C200.052 80.7305 199.206 82.1457 199.366 82.1964C199.487 82.2343 200.048 81.4624 200.166 81.4898C200.67 81.61 192.124 96.2962 192.988 96.5324C193.275 96.6105 194.418 95.0602 194.52 95.1003C194.68 95.1615 192.581 99.1879 188.435 101.818C187.937 102.132 186.178 103.21 186.249 103.288C186.292 103.335 186.939 102.982 187 103.041C187.097 103.136 185.693 104.191 184.218 105.115C183.092 105.821 181.814 106.623 179.939 107.355C178.975 107.73 177.83 108.097 177.851 108.15C177.868 108.196 178.785 107.926 178.81 107.989C178.863 108.108 175.657 109.236 175.72 109.398C175.761 109.5 177.056 109.16 177.075 109.225C177.1 109.312 174.881 109.926 174.913 110.071C174.938 110.183 176.416 109.797 176.473 109.957C176.589 110.295 170.595 113.558 163.247 114.836C161.625 115.118 158.615 115.534 158.63 115.663C158.64 115.747 159.927 115.601 159.946 115.724C159.98 115.928 156.331 116.527 150.733 117.841C149.581 118.111 148.111 118.47 146.023 118.818C144.19 119.124 143.252 119.278 142.09 119.274C140.128 119.267 138.257 119.263 136.606 118.004C136.298 117.77 134.733 116.527 134.334 114.393C133.784 111.461 135.851 109.099 136.627 108.213C138.456 106.123 140.607 105.3 141.925 104.765C148.514 102.082 153.327 98.8188 160.52 93.9466Z" fill="#9A582C"/>
<path d="M194.161 85.4362C193.262 84.7001 187.795 87.2037 184.039 89.2749C176.863 93.2296 177.138 94.9381 169.601 99.8546C166.128 102.12 163.989 103.105 156.852 107.76C152.732 110.445 150.224 112.328 150.769 113.48C150.897 113.752 151.412 114.44 154.774 114.518C162.224 114.688 171.255 111.582 178.011 106.269C181.55 103.487 183.784 100.631 184.84 99.2661C187.304 96.0812 187.165 95.2334 190.293 91.0234C193.091 87.2522 194.718 85.8939 194.161 85.4362Z" fill="#6B3E27"/>
<path d="M199.126 75.4474C199.963 75.671 201.678 73.1674 201.741 71.3598C201.748 71.1531 201.769 69.934 201.769 69.934C200.623 72.252 200.503 72.4228 200.503 72.4228C199.537 73.7917 198.559 74.0996 198.677 74.8315C198.717 75.0741 198.877 75.382 199.126 75.4474Z" fill="#FFDFB5"/>
<path d="M197.465 74.8781C198.047 75.0827 199.392 73.3995 199.626 71.8345C199.677 71.4929 199.757 70.9592 199.578 70.3455C199.481 70.0101 199.232 69.3963 199.232 69.3963C199.232 69.3963 199.036 70.3434 198.918 70.7462C198.454 72.3429 197.186 72.4863 197.098 73.7476C197.072 74.1567 197.163 74.7726 197.465 74.8781Z" fill="#FFDFB5"/>
<path d="M195.317 74.1758C196.222 74.2897 197.576 72.4442 197.576 70.7379C197.576 70.0925 197.382 68.8797 197.382 68.8797C197.382 68.8797 197.253 69.7571 196.897 70.4004C196.715 70.7273 196.593 70.7843 196.066 71.3263C195.013 72.4105 194.488 72.9631 194.598 73.4819C194.665 73.8025 194.973 74.1336 195.317 74.1758Z" fill="#FFDFB5"/>
<path d="M52.825 89.7605C50.0303 87.6113 48.4189 86.0083 48.054 85.6308C45.9385 83.4393 44.9345 81.7077 42.7241 79.3264C42.7241 79.3264 40.0328 76.3694 36.732 73.9375C29.4237 68.5528 16.6927 65.5008 13.5437 68.3545C12.9384 68.9029 12.5608 69.7866 13.9592 74.2707C14.8008 76.9705 15.8005 78.6557 15.5474 78.7127C15.3534 78.757 14.748 77.7931 14.5435 77.8331C14.1954 77.9006 15.1762 80.7902 16.815 83.9244C19.3165 88.7081 22.3622 92.1755 21.9656 92.3401C21.7146 92.4434 20.35 91.102 20.1876 91.1884C19.9619 91.3087 22.417 93.8861 22.1934 94.0042C22.0458 94.0822 20.892 93.0108 20.7887 93.0656C20.5651 93.1858 25.8064 98.2015 28.426 100.709C28.426 100.709 29.7654 101.992 29.9193 101.92C30.0079 101.878 29.5798 101.38 29.6768 101.329C29.8666 101.23 31.4886 103.143 34.317 104.453C35.167 104.847 36.192 105.217 36.23 105.158C36.2679 105.101 35.3357 104.639 35.3652 104.594C35.4095 104.529 37.4786 105.598 40.1172 106.533C42.5618 107.397 44.9113 107.94 44.8839 108.077C44.8713 108.138 44.3777 108.072 44.3777 108.123C44.3756 108.195 45.3902 108.368 45.388 108.42C45.3859 108.475 44.3377 108.304 44.3123 108.404C44.2449 108.669 51.4814 110.669 51.416 110.939C51.3907 111.046 50.0135 110.694 49.9734 110.827C49.8911 111.099 55.491 113.04 60.9474 114.573C64.1492 115.473 66.117 115.9 68.5721 115.75C70.4703 115.634 71.8645 115.22 72.6976 114.967C74.6149 114.387 75.5724 114.096 76.414 113.162C77.9073 111.504 77.7091 109.321 77.6732 109.116C77.3547 107.336 76.1609 105.97 75.6083 105.373C70.6032 99.9795 61.3271 96.2948 52.825 89.7605Z" fill="#9A582C"/>
<path d="M19.3129 80.6199C20.2452 79.9028 25.6278 82.4971 29.3083 84.6295C36.3424 88.7002 35.9965 90.396 43.3533 95.4306C46.7449 97.7507 48.8498 98.7715 55.8164 103.536C59.8365 106.286 62.2747 108.208 61.68 109.343C61.5386 109.611 60.9945 110.285 57.6177 110.3C50.1364 110.334 41.202 107.073 34.6446 101.657C31.2108 98.82 29.0869 95.9368 28.085 94.5595C25.7459 91.343 25.921 90.5014 22.9597 86.2514C20.3106 82.4486 18.735 81.065 19.3129 80.6199Z" fill="#6B3E27"/>
<path d="M16.4686 70.3838C15.6312 70.6074 13.9123 68.108 13.8469 66.3005C13.8385 66.0938 13.8174 64.8747 13.8174 64.8747C14.9648 67.1905 15.0849 67.3614 15.0849 67.3614C16.0531 68.7281 17.0318 69.034 16.9157 69.768C16.8799 70.0084 16.7196 70.3163 16.4686 70.3838Z" fill="#FFDFB5"/>
<path d="M18.1307 69.8122C17.5485 70.0189 16.2008 68.3358 15.9645 66.7708C15.9139 66.4291 15.8338 65.8954 16.0109 65.2817C16.108 64.9463 16.3547 64.3326 16.3547 64.3326C16.3547 64.3326 16.553 65.2775 16.6711 65.6824C17.1372 67.2791 18.4049 67.4204 18.4955 68.6796C18.523 69.0887 18.4344 69.7046 18.1307 69.8122Z" fill="#FFDFB5"/>
<path d="M20.2788 69.1055C19.3739 69.2215 18.0156 67.376 18.0156 65.6696C18.0156 65.0242 18.2075 63.8114 18.2075 63.8114C18.2075 63.8114 18.3362 64.6889 18.6948 65.3322C18.8762 65.6591 18.9985 65.7139 19.5279 66.2581C20.5825 67.3401 21.1077 67.8927 21.0001 68.4116C20.9305 68.73 20.6226 69.0612 20.2788 69.1055Z" fill="#FFDFB5"/>
<path d="M70.4279 145.022C68.7026 161.256 67.2515 176.459 67.8969 176.546C68.2049 176.586 68.9515 173.184 69.1413 173.228C69.4303 173.295 67.9011 181.213 68.0973 181.251C68.1584 181.264 68.3124 180.488 68.4769 180.5C68.6731 180.517 68.6203 181.622 68.827 183.651C69.0063 185.417 69.1645 185.744 69.0232 186.67C68.9136 187.389 68.6815 188.095 68.7849 188.133C68.9093 188.18 69.3459 187.159 69.5041 187.216C69.6454 187.266 69.4978 188.144 69.483 188.237C69.4408 188.479 69.3881 188.684 69.4155 188.694C69.4619 188.711 69.6159 188.159 69.7213 188.167C70.0461 188.197 69.7973 193.602 69.966 193.611C70.0209 193.615 70.0672 193.077 70.1579 193.079C70.352 193.081 70.4575 195.499 70.5967 195.496C70.6536 195.494 70.6726 195.106 70.7211 195.108C70.7822 195.11 70.7654 195.71 70.894 196.458C71.0079 197.125 71.1999 197.713 71.2484 197.705C71.2821 197.698 71.2399 197.388 71.2631 197.384C71.3053 197.378 71.4888 198.363 71.512 198.479C71.8157 200.025 74.1401 201.622 75.1968 202.195C80.6258 205.142 90.9839 205.785 92.1862 203.087C92.2874 202.862 92.7472 201.657 92.8843 201.7C92.9645 201.723 92.8885 202.166 92.956 202.18C93.0615 202.202 93.323 201.149 93.4559 201.17C93.5761 201.189 93.4411 202.069 93.6099 202.115C93.6542 202.128 93.8355 202.119 94.7193 200.088C95.2782 198.804 95.5419 198.034 95.641 198.061C95.7676 198.095 95.4702 199.348 95.5735 199.373C95.6916 199.403 96.2801 198.135 96.4404 196.6C96.5332 195.709 96.4678 194.885 96.5627 194.876C96.6534 194.868 96.7673 195.623 96.839 195.615C96.955 195.6 96.761 193.558 96.8791 193.543C96.9824 193.529 97.1617 195.153 97.3473 195.155C97.7544 195.159 98.5201 187.456 98.3366 181.319C98.172 175.805 97.1153 167.271 92.4034 156.875" fill="#9A582C"/>
<path d="M80.3197 198.241C75.6584 198.848 71.2925 201.9 69.7401 205.959C69.5376 206.488 68.2848 209.766 69.7549 211.362C70.4593 212.128 71.4253 212.115 73.7054 212.183C81.4376 212.415 81.4629 212.898 83.6818 212.364C85.7572 211.866 87.7082 211.398 89.2858 209.647C91.0533 207.686 92.1501 204.343 90.9268 201.747C88.8028 197.233 81.1528 198.133 80.3197 198.241Z" fill="#5E351E"/>
<path d="M70.7463 207.047C69.8436 206.665 67.5256 209.194 67.1692 211.206C67.1291 211.438 66.9119 212.796 66.9119 212.796C68.5612 210.384 68.7215 210.211 68.7215 210.211C70.0208 208.831 71.1639 208.643 71.1492 207.804C71.1471 207.53 71.0163 207.161 70.7463 207.047Z" fill="#FFDFB5"/>
<path d="M73.7128 208.263C73.0927 207.941 71.3189 209.613 70.8106 211.328C70.6988 211.701 70.5258 212.288 70.627 213.003C70.6819 213.393 70.8633 214.121 70.8633 214.121C70.8633 214.121 71.2324 213.093 71.4285 212.659C72.2005 210.944 73.6432 210.986 73.9427 209.588C74.0397 209.134 74.0355 208.432 73.7128 208.263Z" fill="#FFDFB5"/>
<path d="M77.2568 208.985C76.2613 208.713 74.4516 210.565 74.1817 212.476C74.0804 213.197 74.1036 214.587 74.1036 214.587C74.1036 214.587 74.3862 213.625 74.8861 212.961C75.1413 212.623 75.2869 212.579 75.9639 212.056C77.3138 211.01 77.9887 210.474 77.9507 209.875C77.9275 209.508 77.6344 209.088 77.2568 208.985Z" fill="#FFDFB5"/>
<path d="M149.676 144.964C151.873 161.14 153.769 176.296 153.126 176.4C152.82 176.448 151.975 173.071 151.787 173.12C151.5 173.196 153.259 181.065 153.065 181.109C153.004 181.124 152.829 180.352 152.664 180.371C152.47 180.394 152.552 181.497 152.405 183.531C152.276 185.302 152.129 185.631 152.297 186.555C152.428 187.27 152.679 187.97 152.578 188.013C152.455 188.063 151.989 187.055 151.833 187.118C151.694 187.173 151.867 188.046 151.886 188.137C151.934 188.38 151.994 188.582 151.966 188.593C151.92 188.61 151.749 188.061 151.646 188.074C151.321 188.114 151.73 193.509 151.559 193.524C151.506 193.528 151.443 192.995 151.352 192.997C151.158 193.005 151.125 195.424 150.983 195.424C150.926 195.424 150.895 195.038 150.846 195.04C150.785 195.045 150.819 195.644 150.713 196.395C150.62 197.065 150.443 197.658 150.395 197.649C150.361 197.643 150.395 197.333 150.369 197.329C150.327 197.323 150.173 198.314 150.154 198.43C149.895 199.984 147.619 201.648 146.579 202.252C141.239 205.354 130.904 206.301 129.624 203.64C129.516 203.418 129.02 202.226 128.885 202.273C128.805 202.298 128.896 202.739 128.828 202.756C128.723 202.781 128.432 201.735 128.299 201.76C128.179 201.783 128.341 202.657 128.173 202.709C128.13 202.722 127.947 202.72 127.004 200.716C126.407 199.449 126.122 198.687 126.023 198.717C125.899 198.755 126.232 199.997 126.129 200.027C126.011 200.058 125.386 198.81 125.18 197.28C125.059 196.392 125.102 195.568 125.007 195.561C124.916 195.555 124.823 196.312 124.751 196.306C124.633 196.295 124.768 194.249 124.652 194.237C124.549 194.226 124.418 195.852 124.23 195.861C123.823 195.876 122.834 188.2 122.838 182.061C122.843 176.545 123.648 167.984 128.056 157.455" fill="#9A582C"/>
<path d="M142.165 198.464C146.757 199.474 150.84 202.896 152.034 207.072C152.19 207.618 153.154 210.991 151.551 212.454C150.783 213.155 149.821 213.058 147.543 212.929C139.82 212.49 139.752 212.967 137.588 212.243C135.563 211.566 133.661 210.931 132.241 209.05C130.651 206.943 129.848 203.516 131.292 201.035C133.802 196.724 141.345 198.283 142.165 198.464Z" fill="#5E351E"/>
<path d="M150.555 207.831C151.476 207.502 153.647 210.159 153.887 212.188C153.915 212.42 154.052 213.791 154.054 213.791C152.546 211.288 152.394 211.106 152.394 211.106C151.177 209.655 150.044 209.402 150.108 208.565C150.126 208.291 150.278 207.93 150.555 207.831Z" fill="#FFDFB5"/>
<path d="M147.524 208.877C148.161 208.59 149.836 210.361 150.247 212.102C150.336 212.481 150.477 213.076 150.334 213.785C150.256 214.171 150.034 214.888 150.034 214.888C150.034 214.888 149.724 213.839 149.553 213.397C148.88 211.642 147.438 211.6 147.221 210.186C147.149 209.727 147.193 209.024 147.524 208.877Z" fill="#FFDFB5"/>
<path d="M143.945 209.392C144.953 209.176 146.655 211.13 146.815 213.053C146.876 213.779 146.771 215.164 146.771 215.166C146.771 215.166 146.543 214.19 146.081 213.498C145.847 213.146 145.704 213.095 145.058 212.532C143.77 211.41 143.126 210.836 143.2 210.242C143.244 209.877 143.561 209.474 143.945 209.392Z" fill="#FFDFB5"/>
<path d="M79.7912 103.19C79.3103 103.391 78.6311 103.692 77.8529 104.12C70.1164 108.383 67.6086 116.765 66.8303 119.368C64.2191 128.095 66.1006 136.039 66.2862 136.041C66.3684 136.041 66.4021 134.471 66.5582 134.469C66.7333 134.467 66.7628 136.425 67.1636 138.833C67.6993 142.054 68.6885 144.842 68.9205 144.798C69.1019 144.762 68.8488 142.976 68.95 142.965C69.026 142.957 69.1989 143.923 69.3445 144.652C69.3445 144.652 69.6102 145.979 70.3442 148.658C71.3566 152.353 73.2865 155.629 73.5733 155.525C73.7104 155.477 73.4342 154.665 73.6134 154.595C73.8665 154.496 74.6701 155.998 75.5222 157.398C77.6082 160.832 79.5149 162.914 79.2934 163.112C79.1901 163.205 78.5046 162.616 78.4603 162.665C78.4013 162.73 79.5444 163.734 80.7614 164.875C82.4192 166.43 83.5708 167.63 83.6531 167.56C83.7122 167.51 83.187 166.841 83.2228 166.816C83.2566 166.792 83.7227 167.387 83.7902 167.343C83.8366 167.313 83.6299 167.008 83.6679 166.967C83.8493 166.784 89.582 172.403 93.0347 174.765C101.828 180.778 116.902 180.07 126.471 174.037C135.115 168.589 140.329 158.109 140.78 158.48C140.915 158.592 140.417 159.48 140.531 159.552C140.711 159.663 142.305 157.4 143.788 154.707C145.203 152.14 146.239 149.695 146.424 149.78C146.511 149.82 146.357 150.387 146.414 150.404C146.513 150.432 146.979 148.687 147.114 148.721C147.228 148.748 146.945 149.989 147.07 150.031C147.392 150.138 150.411 142.145 150.195 137.618C150.185 137.38 150.122 136.252 150.179 136.245C150.271 136.235 150.596 138.627 150.548 138.637C150.457 138.656 150.624 136.918 150.619 136.631C150.385 120.865 141.563 111.336 141.563 111.336C140.877 110.596 139.7 109.395 138.036 108.067C135.33 104.903 132.668 103.291 130.953 102.441C117.263 95.6499 93.041 102.176 87.7512 102.005C87.6732 102.003 87.5551 101.999 87.3969 101.994C84.6149 101.929 83.2249 101.887 81.9489 102.269C81.5544 102.389 80.9681 102.655 79.7912 103.19Z" fill="#FDCB98"/>
<path d="M77.9912 102.675C77.7275 102.935 78.9784 104.501 78.8218 104.628C78.6572 104.762 77.1249 103.075 74.8669 100.964C72.2502 98.5199 71.9192 98.5536 71.8399 98.621C71.5802 98.8331 72.611 100.441 72.4762 100.526C72.278 100.651 70.0894 97.1084 69.4472 97.3998C69.0705 97.5723 69.4253 98.9719 69.2509 99.0115C68.9615 99.0789 67.885 95.1459 67.6392 95.2034C67.4469 95.247 67.9624 97.6655 67.6888 97.7428C67.4509 97.8102 66.7452 96.0756 65.98 94.1785C65.1434 92.1049 64.6855 90.7748 64.5646 90.8085C64.3961 90.856 65.1454 93.4034 64.858 93.5085C64.5864 93.6076 63.2978 91.5558 62.5941 89.0997C62.2492 87.8964 62.1362 86.9131 61.9102 86.9191C61.5435 86.927 61.4642 89.516 61.1291 89.5239C60.8556 89.5298 60.6038 87.7972 60.3838 86.245C59.6285 80.8986 59.3965 78.8687 59.1963 78.8726C58.9128 78.8786 58.895 82.992 58.6532 82.9959C58.441 82.9999 57.8919 79.7766 58.0188 76.5989C58.4014 66.9388 64.9452 59.1064 64.4595 58.8091C64.3207 58.7238 63.8489 59.3919 63.732 59.3126C63.4465 59.1203 65.6271 54.7591 68.7553 50.9708C70.9101 48.362 73.1026 46.5224 74.7639 45.3032C75.2258 45.0792 76.4588 44.4825 76.3973 44.2803C76.3597 44.1554 75.8601 44.2625 75.8304 44.1495C75.7907 43.9968 76.6768 43.6895 76.6511 43.5984C76.6094 43.4536 74.3892 44.0503 74.3277 43.866C74.2821 43.7292 75.3764 43.2514 75.4161 43.2336C78.1359 42.0462 97.2737 32.2017 103.27 30.3799C103.54 30.2987 104.323 30.0687 104.462 30.2987C104.733 30.7546 102.245 32.5962 102.384 32.7707C102.513 32.9312 103.923 32.0868 105.16 31.1709C107.889 29.1469 109.031 27.3251 109.34 27.5134C109.882 27.8425 106.749 33.6905 107.235 33.9759C107.566 34.1722 109.515 31.5456 109.753 31.716C109.911 31.831 109.063 33.0204 109.426 33.4367C109.646 33.6865 110.197 33.5299 110.443 33.4665C112.726 32.8718 115.371 33.4169 115.387 33.5815C115.404 33.7579 112.391 33.9859 112.387 34.3308C112.383 34.8581 119.415 34.1702 126.841 36.6343C134.096 39.0429 139.304 43.6539 139.213 43.8085C139.155 43.9036 136.869 42.5973 136.774 42.7578C136.671 42.9303 139.375 44.4091 142.262 47.2875C143.822 48.8417 145.166 50.5367 144.989 50.721C144.847 50.8697 143.695 50.0153 143.653 50.0748C143.615 50.1303 144.654 50.8836 144.605 50.9609C144.575 51.0065 144.24 50.7289 144.133 50.7944C143.671 51.0719 148.581 56.8901 150.068 64.5916C150.815 68.4632 150.227 70.3623 151.924 74.1883C152.619 75.7544 153.898 78.0916 153.656 78.2422C153.456 78.3651 152.38 76.8724 152.191 76.9973C151.918 77.1777 153.918 80.5101 153.559 80.7579C153.375 80.8847 152.711 80.0918 152.534 80.2206C152.239 80.4347 153.638 82.9266 153.585 82.9563C153.555 82.9722 153.228 82.2605 152.495 81.6737C152.269 81.4933 151.848 81.1563 151.682 81.2693C151.46 81.42 151.937 82.2089 152.265 83.5411C152.384 84.0268 152.461 84.9625 152.606 86.812C152.746 88.5922 152.744 88.9649 152.606 89.0105C152.241 89.1254 151.384 86.8536 151.043 86.9587C150.722 87.0578 151.392 89.1016 151.24 91.8908C151.121 94.0576 150.538 96.0181 150.262 95.9924C149.884 95.9586 150.032 92.2001 149.725 92.1842C149.571 92.1763 149.424 93.1219 149.188 94.3331C148.639 97.1362 147.864 100.034 147.626 99.9987C147.404 99.965 147.739 97.4177 147.43 97.3622C147.2 97.3205 146.888 98.7062 146.03 100.667C145.08 102.837 143.958 104.576 143.816 104.509C143.659 104.435 144.632 102.173 144.466 102.1C144.399 102.07 144.194 102.421 144.01 102.687C143.35 103.634 142.565 104.011 141.471 104.639C139.169 105.964 138.19 106.854 138.085 106.723C137.922 106.523 140.299 104.473 140.168 104.314C140.063 104.185 138.34 105.894 136.211 106.993C132.37 108.975 130.734 107.153 125.673 108.372C120.947 109.512 116.959 112.404 116.848 112.2C116.816 112.141 117.177 111.921 117.131 111.829C116.982 111.534 112.809 113.372 112.73 113.195C112.7 113.132 113.228 112.848 113.198 112.787C113.139 112.668 111.091 113.635 110.992 113.455C110.926 113.334 111.781 112.815 111.711 112.684C111.652 112.571 110.948 112.846 109.539 113.338C108.294 113.772 107.667 113.966 107.637 113.897C107.602 113.816 108.397 113.453 108.351 113.33C108.292 113.17 106.981 113.877 105.372 113.701C104.083 113.56 103.028 112.902 102.933 113.076C102.88 113.174 103.187 113.405 103.151 113.453C103.046 113.596 100.299 111.623 100.132 111.828C100.043 111.939 100.755 112.62 100.683 112.698C100.578 112.813 98.9567 111.453 98.8833 111.536C98.8318 111.594 99.6386 112.232 99.5494 112.379C99.3611 112.69 94.9642 111.12 91.1323 107.821C90.1114 106.943 88.6444 105.52 88.5631 105.601C88.4918 105.672 89.6138 106.846 89.477 106.994C89.3858 107.096 88.7752 106.673 88.6067 106.558C86.3964 105.078 84.1781 105.962 81.2323 104.628C79.2975 103.739 78.233 102.437 77.9912 102.675Z" fill="#9A582C"/>
<path d="M62.8527 77.4771C62.3373 72.4974 63.5029 68.7784 64.3137 67.6921C64.3137 67.6921 64.952 66.8377 64.8807 66.7782C64.843 66.7465 64.6349 66.9507 64.6051 66.9229C64.5417 66.8635 65.3862 65.904 65.3168 65.8346C65.2633 65.7811 64.7201 66.2945 64.6626 66.241C64.5833 66.1657 65.5804 65.0199 65.519 64.9644C65.4893 64.9386 65.2534 65.1943 65.2078 65.1606C65.0868 65.0694 66.4249 63.087 66.3833 63.0593C66.3694 63.0514 66.2346 63.2417 66.2009 63.2219C66.1454 63.1901 66.4547 62.641 66.3833 62.5895C66.2921 62.5241 65.6756 63.3666 65.5884 63.315C65.4496 63.2318 66.4765 60.732 68.2348 58.2283C71.0577 54.208 74.4555 52.0472 74.1126 51.5457C73.9401 51.292 73.0401 51.8014 72.9132 51.5953C72.6337 51.1393 76.4121 47.6484 81.5306 45.0475C84.3911 43.5924 86.9722 42.7717 86.8731 42.4347C86.7898 42.1532 84.9561 42.5775 84.9403 42.4962C84.9026 42.3059 94.8065 38.6107 99.8794 41.507C103.426 43.531 104.336 44.4092 104.336 44.4092C105.289 45.331 105.735 46.0248 106.578 46.0644C107.644 46.114 108.14 44.9999 109.633 43.8581C110.782 42.9799 111.772 42.6508 113.552 42.0581C117.031 40.9004 122.346 41.4217 127.052 43.1325C127.25 43.2039 129.197 43.7411 129.151 44.0028C129.099 44.2863 126.742 43.9988 126.705 44.2367C126.669 44.4548 128.616 44.9067 129.724 45.2239C135.453 46.8653 139.628 50.9272 139.436 51.2483C139.33 51.4228 137.84 50.614 137.737 50.7983C137.624 50.9986 139.384 51.9719 140.639 53.0622C144.81 56.684 146.069 62.4309 145.72 62.6093C145.591 62.6747 145.178 62.0205 145.058 62.0978C144.913 62.189 145.428 63.1763 146.057 64.6174C146.899 66.5522 147.474 68.2313 147.367 68.2789C147.313 68.3027 147.107 67.922 147.058 67.9478C146.975 67.9914 147.526 69.1511 147.45 69.1888C147.409 69.2106 147.218 68.8617 147.167 68.8835C147.093 68.9172 147.403 69.6804 147.647 70.4515C147.779 70.8738 147.934 71.5954 148.235 73.0207C148.535 74.4321 148.656 75.1022 148.558 75.1319C148.479 75.1557 148.315 74.7533 148.251 74.7771C148.126 74.8227 148.57 76.3154 148.57 76.3154C149.09 78.0579 149.694 84.3063 146.659 90.2732C145.032 93.4708 142.718 95.8834 142.558 95.7783C142.478 95.7267 142.867 95.0448 142.748 94.9675C142.627 94.8902 142.116 95.5464 141.18 96.5356C140.952 96.7754 139.533 98.2781 139.39 98.1631C139.297 98.0877 139.806 97.3681 139.743 97.3206C139.64 97.2452 138.205 99.0254 138.175 99.0631C134.763 103.295 124.253 105.664 124.11 105.246C124.064 105.111 125.113 104.695 125.067 104.592C124.921 104.259 116.527 107.645 116.43 107.409C116.4 107.335 117.203 106.981 117.16 106.868C117.068 106.632 113.252 107.637 110.217 108.162C110.142 108.176 109.242 108.329 109.206 108.2C109.167 108.061 110.166 107.744 110.132 107.581C110.089 107.375 108.431 107.752 106.613 107.742C103.795 107.728 101.438 106.794 100.349 106.362C98.7732 105.738 97.3558 104.941 97.2726 105.086C97.2032 105.202 98.1131 105.797 98.0417 105.92C97.9446 106.085 96.1486 105.212 95.647 104.971C94.0968 104.219 93.1592 103.652 92.9768 103.868C92.8677 103.999 93.1631 104.259 93.064 104.419C92.7785 104.883 89.7138 103.745 87.0554 102.286C86.4806 101.971 85.7927 101.569 85.7491 101.634C85.6678 101.755 87.9535 103.325 87.8662 103.462C87.783 103.591 85.64 102.261 82.0044 100.328C79.7009 99.1027 79.6652 99.1602 78.2597 98.3534C75.6231 96.8408 74.2811 96.0578 73.0341 94.6662C72.4018 93.9585 71.4601 92.7453 71.3511 92.8226C71.2897 92.8662 71.5176 93.2983 71.482 93.3162C71.4542 93.3301 71.3135 93.0624 71.1192 92.7928C70.7881 92.3369 70.354 91.9602 70.2965 92.0058C70.2152 92.0693 70.8972 92.9792 70.8575 93.0109C70.7643 93.0823 66.2128 89.0125 64.0362 82.8532C63.273 80.7202 62.9776 78.833 62.8527 77.4771Z" fill="#FFDFB5"/>
<path d="M59.2389 74.7431C59.5144 73.6846 60.1904 72.0333 67.1505 67.1249C73.0481 62.9659 75.9978 60.8844 79.3599 60.3868C81.2432 60.1073 86.6947 59.2965 90.4949 62.9263C93.8094 66.0941 93.7262 70.596 93.7182 70.8379C93.6508 72.8282 92.9768 74.2773 92.3504 75.6233C91.5733 77.2984 90.3819 79.8636 87.8901 81.1244C87.2022 81.4733 86.0266 81.9173 82.617 81.7112C76.2417 81.3246 74.9056 79.4394 69.7256 79.6277C65.6578 79.7764 64.3038 81.0174 63.8003 81.5803C62.7616 82.746 62.821 83.864 62.2382 83.9235C60.9695 84.0543 58.1208 79.0607 59.2389 74.7431Z" fill="#9A582C"/>
<path d="M150.459 86.6575C150.422 83.2339 148.812 80.8828 146.554 77.5822C143.923 73.7384 141.346 70.069 136.442 67.9796C134.69 67.2322 129.619 65.0734 125.028 67.6267C121.021 69.8549 119.965 74.232 119.911 74.4679C119.427 76.6188 119.802 78.387 120.026 79.4436C120.298 80.7203 120.867 83.4064 122.982 85.2916C123.802 86.0231 124.831 86.6119 128.061 87.3751C131.994 88.3048 134.68 88.4277 140.302 89.1989C144.274 89.744 145.965 90.0989 146.748 91.4786C147.656 93.0803 146.713 94.9616 147.069 95.0806C147.607 95.257 150.513 91.3319 150.459 86.6575Z" fill="#9A582C"/>
<path d="M69.8487 76.2402C69.6663 75.7803 69.6961 75.4452 70.2392 73.114C70.9549 70.0413 71.4841 68.6061 71.8013 67.9697C71.9817 67.6089 72.5844 67.1966 72.4515 66.7982C72.3504 66.4889 71.9678 66.5484 71.4306 66.1598C70.6159 65.5711 70.3859 64.6334 70.3324 64.4134C70.2967 64.2706 70.1837 63.7651 70.2967 63.1803C70.3264 63.0297 70.38 62.8235 70.4057 62.8255C70.4335 62.8295 70.4038 63.0495 70.4295 63.3389C70.4414 63.4717 70.4791 63.781 70.6119 64.0962C70.7467 64.4134 70.9231 64.6076 71.1134 64.8158C71.2681 64.9863 71.276 64.9645 72.0174 65.5612C72.4238 65.8882 72.5586 66.0052 72.7985 66.025C73.0225 66.0429 73.1969 65.9636 73.2742 65.9279C73.5339 65.807 73.8729 65.5156 73.861 65.2083C73.8491 64.899 73.4982 64.8753 73.1771 64.4272C72.9194 64.0684 72.8797 63.7116 72.8104 63.1209C72.8104 63.1209 72.733 62.4548 72.9075 61.644C72.963 61.3903 72.9868 61.3863 72.9927 61.3883C73.0264 61.3922 73.0205 61.6519 73.0304 61.8878C73.0463 62.3259 73.0601 62.7085 73.2009 63.0713C73.2802 63.2735 73.2782 63.1625 73.9205 64.0486C74.1544 64.3717 74.2317 64.4927 74.3962 64.5244C74.4795 64.5402 74.5667 64.5283 75.1039 64.2429C75.4449 64.0625 75.6154 63.9713 75.6531 63.9019C75.8017 63.6323 75.5202 63.4103 75.4449 62.8156C75.3914 62.3953 75.4766 62.0662 75.5797 61.6678C75.7264 61.1008 75.9425 60.746 76.0079 60.6429C76.1288 60.4526 76.2934 60.2345 76.3251 60.2524C76.3687 60.2781 76.0258 60.6925 75.9346 61.3149C75.8711 61.755 76.0099 61.7669 76.0694 62.7799C76.0932 63.1942 76.0773 63.3171 76.1784 63.4024C76.4698 63.6462 77.229 63.1665 77.5086 63.0118C79.2293 62.0643 81.7409 62.988 82.966 63.44C83.8918 63.781 85.7532 64.4927 87.1786 66.3818C88.4691 68.0926 88.701 69.8351 88.8517 70.9591C89.1708 73.3598 88.6495 75.2748 88.2649 76.6248C87.805 78.2463 87.7653 79.1721 87.0081 79.8104C86.3916 80.3298 85.6997 80.4547 85.1149 80.5379C82.7103 80.8849 80.5773 81.1941 77.6275 80.5062C75.8632 80.0939 74.6381 79.4615 72.1899 78.1948C70.8458 77.497 70.1679 77.045 69.8487 76.2402Z" fill="#231F1C"/>
<path d="M71.8348 72.8881C71.8031 72.0318 71.9557 71.2686 72.0786 70.6421C72.2115 69.9681 72.3344 69.3536 72.6654 68.6399C73.2026 67.4802 73.9599 66.7785 74.3009 66.4672C74.5507 66.2393 75.7262 65.2005 77.6213 64.7089C78.2775 64.5384 80.6385 63.9655 83.1878 65.1966C85.3962 66.2631 86.4528 68.0591 86.8512 68.86C87.2041 69.5697 88.1041 71.6452 87.5114 74.2064C87.4083 74.6505 87.0019 76.2265 85.6559 77.7231C85.2098 78.2187 83.5962 79.9573 80.8467 80.3359C80.3986 80.3974 78.0515 80.6789 75.744 79.2615C74.4595 78.4725 73.7498 77.5031 73.4009 77.0154C72.937 76.3731 71.9062 74.8943 71.8348 72.8881Z" fill="#5E351E"/>
<path d="M75.4952 75.255C75.2831 74.9636 74.504 73.8535 74.5437 72.3013C74.5714 71.1991 74.9996 70.4022 75.2038 70.0315C75.8977 68.7707 76.8987 68.1462 77.1822 67.9797C77.547 67.7656 78.8474 67.0282 80.576 67.2958C81.9677 67.5119 82.8934 68.2632 83.3117 68.6636C83.5238 68.8678 85.0245 70.3546 84.9234 72.6442C84.8401 74.5453 83.6785 76.4008 81.823 77.1858C79.3371 78.2365 76.6965 76.9103 75.4952 75.255Z" fill="#1E2021"/>
<path d="M79.0155 71.4232C78.9679 70.9197 79.1483 70.547 79.186 70.4717C79.4536 69.9364 79.9294 69.7045 80.1633 69.6173C80.312 69.5618 80.8928 69.3655 81.5311 69.6411C81.5787 69.6609 82.4232 70.0435 82.5818 70.9355C82.7384 71.8197 82.1298 72.6899 81.3369 72.9615C80.5637 73.2272 79.8917 72.8287 79.8481 72.8029C79.1186 72.3549 79.0274 71.5481 79.0155 71.4232Z" fill="#FFFBFA"/>
<path d="M82.3732 75.1343C82.3177 74.821 82.4684 74.5633 82.508 74.4999C82.7182 74.155 83.069 74.0638 83.1582 74.044C83.2296 74.0281 83.4615 73.9805 83.7192 74.0757C84.082 74.2124 84.4646 74.6268 84.3873 75.1343C84.314 75.612 83.8719 75.9094 83.4596 75.9391C82.9382 75.9768 82.4525 75.5882 82.3732 75.1343Z" fill="#FFFBFA"/>
<path d="M71.9331 69.8589C71.8439 69.8371 71.6635 70.4695 70.6307 73.7007C70.6307 73.7007 70.6148 73.7483 70.1589 76.256C70.1212 76.4661 70.0855 76.6664 70.1589 76.9062C70.2857 77.3245 70.6128 77.4553 71.713 78.1591C72.504 78.6646 72.508 78.7082 72.958 78.956C73.174 79.0749 73.2851 79.1265 74.0958 79.5269C74.7956 79.8718 75.1049 80.0324 75.1802 80.0621C76.8692 80.756 78.2192 80.8491 80.9172 81.0395C85.55 81.3646 86.2874 80.637 86.5094 80.3793C86.7255 80.1296 86.8861 79.5091 87.2171 78.28C87.5304 77.1223 87.6414 76.2738 87.7841 75.1954C87.9407 74.0139 87.8812 73.9763 87.8674 73.9743C87.8019 73.9604 87.6632 74.571 87.3143 75.4393C87.3143 75.4393 87.0249 76.1609 86.6641 76.823C85.8553 78.3058 84.1821 79.2474 83.8313 79.4437C83.1929 79.8025 81.3295 80.8154 78.8179 80.5181C76.4251 80.2346 74.8987 78.9342 74.3734 78.4743C73.406 77.6258 72.8886 76.7734 72.7459 76.5296C72.5694 76.2282 71.9826 75.1776 71.7606 73.6155C71.4534 71.4488 72.0738 69.8946 71.9331 69.8589Z" fill="#F9F4F8"/>
<path d="M140.466 84.9957C140.767 84.6032 140.83 84.2722 140.947 81.8834C141.102 78.7334 140.987 77.207 140.858 76.5092C140.785 76.1128 140.317 75.5517 140.555 75.2028C140.737 74.9332 141.088 75.0958 141.712 74.8698C142.658 74.5269 143.136 73.6903 143.249 73.4921C143.322 73.3652 143.57 72.9092 143.623 72.3165C143.637 72.1639 143.641 71.9498 143.616 71.9458C143.588 71.9418 143.554 72.1619 143.451 72.4315C143.403 72.5564 143.282 72.8438 143.066 73.1095C142.85 73.3771 142.626 73.5159 142.386 73.6645C142.19 73.7874 142.188 73.7617 141.314 74.1324C140.834 74.3346 140.672 74.4119 140.436 74.3643C140.216 74.3207 140.069 74.1958 140.006 74.1403C139.79 73.952 139.544 73.5813 139.641 73.2859C139.738 72.9925 140.081 73.0639 140.513 72.7229C140.86 72.4474 140.997 72.1163 141.225 71.5672C141.225 71.5672 141.481 70.9467 141.536 70.1201C141.554 69.8604 141.53 69.8504 141.524 69.8504C141.49 69.8445 141.425 70.0963 141.352 70.3222C141.217 70.7385 141.098 71.1033 140.862 71.4145C140.731 71.587 140.763 71.48 139.901 72.1559C139.585 72.4018 139.478 72.4969 139.312 72.483C139.227 72.4751 139.147 72.4414 138.707 72.0192C138.43 71.7515 138.291 71.6167 138.273 71.5394C138.204 71.2381 138.535 71.1013 138.771 70.5522C138.937 70.1637 138.945 69.8247 138.957 69.4123C138.973 68.8275 138.862 68.4271 138.828 68.3082C138.765 68.0921 138.666 67.8364 138.63 67.8463C138.582 67.8582 138.796 68.3518 138.713 68.9742C138.654 69.4143 138.517 69.3886 138.182 70.346C138.045 70.7385 138.025 70.8615 137.904 70.915C137.557 71.0696 136.959 70.3996 136.733 70.1736C135.339 68.7899 132.669 68.9881 131.368 69.0853C130.383 69.1586 128.401 69.333 126.51 70.7584C124.799 72.0489 124.097 73.6606 123.645 74.7013C122.678 76.9235 122.656 78.9059 122.654 80.3094C122.652 81.9964 122.434 82.8964 122.989 83.7191C123.439 84.3872 124.069 84.6964 124.609 84.9383C126.825 85.9334 128.793 86.8156 131.818 86.9622C133.628 87.0515 134.98 86.7779 137.68 86.2327C139.161 85.9294 139.938 85.6816 140.466 84.9957Z" fill="#231F1C"/>
<path d="M139.475 81.2254C139.74 80.4087 139.804 79.6355 139.857 78.9992C139.915 78.3153 139.966 77.6908 139.844 76.9137C139.645 75.651 139.11 74.7668 138.868 74.3743C138.692 74.0869 137.845 72.7647 136.158 71.7715C135.574 71.4266 133.462 70.2272 130.671 70.7129C128.255 71.1332 126.746 72.5684 126.143 73.2285C125.61 73.8133 124.173 75.5618 124.04 78.1884C124.016 78.6424 123.975 80.2699 124.859 82.0798C125.152 82.6785 126.227 84.7937 128.766 85.9137C129.18 86.0961 131.359 87.0119 133.968 86.2824C135.421 85.876 136.368 85.1406 136.838 84.7659C137.457 84.2743 138.854 83.1364 139.475 81.2254Z" fill="#5E351E"/>
<path d="M135.305 82.498C135.588 82.276 136.643 81.4236 137.032 79.9189C137.307 78.8504 137.115 77.9663 137.022 77.554C136.701 76.1505 135.91 75.2762 135.684 75.0384C135.392 74.7331 134.345 73.6666 132.609 73.4485C131.211 73.274 130.115 73.7419 129.604 74.0115C129.342 74.1503 127.492 75.1672 126.961 77.3954C126.519 79.2469 127.128 81.3482 128.696 82.613C130.795 84.3099 133.697 83.7608 135.305 82.498Z" fill="#1E2021"/>
<path d="M132.978 77.8453C133.162 77.3755 133.091 76.9651 133.075 76.8819C132.964 76.2951 132.57 75.9402 132.371 75.7916C132.245 75.6984 131.739 75.3495 131.049 75.4387C130.998 75.4446 130.082 75.5814 129.683 76.3942C129.289 77.201 129.638 78.2061 130.324 78.6838C130.994 79.1517 131.751 78.9534 131.801 78.9396C132.623 78.7156 132.932 77.9642 132.978 77.8453Z" fill="#FFFBFA"/>
<path d="M128.73 80.4918C128.869 80.2064 128.796 79.915 128.776 79.8436C128.669 79.4531 128.355 79.2707 128.274 79.2271C128.209 79.1914 127.999 79.0824 127.725 79.1042C127.339 79.1359 126.857 79.4293 126.793 79.9388C126.734 80.4185 127.077 80.8269 127.463 80.9676C127.955 81.148 128.528 80.9081 128.73 80.4918Z" fill="#FFFBFA"/>
<path d="M140.213 78.2874C140.304 78.2894 140.304 78.9495 140.411 82.3394C140.411 82.3394 140.413 82.389 140.163 84.9264C140.141 85.1385 140.12 85.3407 139.985 85.5528C139.749 85.9195 139.398 85.9572 138.145 86.3319C137.245 86.6015 137.231 86.6411 136.73 86.7561C136.488 86.8116 136.369 86.8314 135.479 86.992C134.712 87.1308 134.369 87.2002 134.29 87.2101C132.474 87.4143 131.151 87.1328 128.503 86.5737C123.959 85.6143 123.45 84.7123 123.307 84.405C123.166 84.1037 123.184 83.4634 123.202 82.1907C123.22 80.9914 123.345 80.1449 123.503 79.0705C123.678 77.8929 123.745 77.8711 123.759 77.8731C123.827 77.8791 123.791 78.5015 123.89 79.4332C123.89 79.4332 123.971 80.2064 124.136 80.9418C124.507 82.5912 125.857 83.955 126.14 84.2405C126.655 84.7599 128.17 86.2466 130.666 86.651C133.045 87.0356 134.868 86.205 135.501 85.9077C136.664 85.3585 137.396 84.6806 137.6 84.4843C137.852 84.2425 138.704 83.392 139.347 81.9528C140.239 79.9487 140.066 78.2835 140.213 78.2874Z" fill="#F9F4F8"/>
<path d="M97.0934 79.3661C96.8594 80.3394 97.3431 81.1978 97.6801 81.7747C97.9121 82.1731 98.4077 82.9165 100.154 84.1832C101.564 85.2061 102.267 85.7176 103.149 86.007C105.338 86.7246 107.332 85.9852 108.163 85.6819C109.319 85.2597 112.122 84.2387 112.689 81.8084C112.726 81.6438 113.057 80.1253 112.201 78.7813C111.6 77.8377 110.728 77.4709 109.467 76.9416C108.746 76.6383 107.469 76.1864 105.762 76.0298C103.318 75.8057 101.516 76.3291 100.531 76.6245C99.2938 76.9972 98.5187 77.4115 97.8942 78.0656C97.6088 78.357 97.2401 78.7515 97.0934 79.3661Z" fill="#5E351E"/>
<path d="M98.1009 79.1381C98.0216 78.9973 99.2904 77.9744 100.69 77.3321C102.446 76.5233 104.026 76.4936 104.76 76.4856C105.731 76.4757 108.713 76.448 110.863 78.3748C111.565 79.0032 112.344 79.9885 112.231 80.1173C112.17 80.1847 111.87 79.9905 111.498 79.7922C110.806 79.4255 110.223 79.259 109.056 78.9299C106.213 78.1251 102.254 78.3411 100.803 78.5711C99.4926 78.7812 98.8979 78.9458 98.8979 78.9458C98.3686 79.0905 98.1327 79.1936 98.1009 79.1381Z" fill="#6E4F3F"/>
<path d="M104.89 86.5251C104.716 86.5171 104.424 89.3598 104.28 91.3482C104.109 93.6893 104.018 96.5004 104.157 96.5122C104.24 96.5182 104.385 95.5131 104.506 94.6746C104.682 93.4416 104.658 93.1719 104.853 91.0786C104.983 89.6731 105.079 88.892 105.023 87.661C105.003 87.1931 104.974 86.529 104.89 86.5251Z" fill="#5E351E"/>
<path d="M92.6445 84.4118C92.6405 84.4375 92.5097 84.4316 92.4007 84.4355C91.7544 84.4653 91.2529 84.9074 91.0566 85.0818C90.9079 85.2126 90.341 85.7142 90.2042 86.4635C90.1745 86.6281 90.1606 86.8283 90.1189 86.8303C90.0634 86.8322 89.9762 86.4814 89.9841 86.1582C90 85.5278 90.3826 85.0739 90.5095 84.9252C90.6879 84.7171 91.0526 84.2928 91.6573 84.2175C92.1687 84.1521 92.6524 84.3622 92.6445 84.4118Z" fill="#5E351E"/>
<path d="M116.461 86.6419C116.467 86.6617 116.574 86.6379 116.665 86.626C117.2 86.5586 117.676 86.85 117.863 86.965C118.003 87.0522 118.542 87.3813 118.763 87.978C118.81 88.1088 118.852 88.2714 118.885 88.2674C118.931 88.2615 118.953 87.9602 118.899 87.6965C118.796 87.1811 118.416 86.86 118.291 86.7569C118.114 86.6122 117.753 86.3148 117.246 86.3386C116.816 86.3604 116.449 86.6022 116.461 86.6419Z" fill="#5E351E"/>
<path d="M91.0243 85.3555C91.1333 86.8303 91.7558 88.1466 91.8549 88.3508C92.3366 89.3499 92.9135 90.5453 94.0692 91.8834C96.452 94.6448 99.3364 95.747 100.335 96.1158C101.523 96.5539 104.286 97.5351 107.839 96.9781C109.062 96.7858 111.441 96.3834 113.764 94.5537C113.764 94.5537 116.93 92.0579 117.866 88.2061C117.907 88.0317 118.175 86.9057 118.109 86.8878C118.05 86.87 117.743 87.7977 117.622 88.1407C117.622 88.1407 116.744 90.6345 114.87 92.829C112.384 95.7411 108.299 96.3794 107.577 96.4924C101.513 97.44 97.0071 93.8123 96.232 93.1878C95.6928 92.7537 93.9403 91.3442 92.7807 89.2151C91.8926 87.5856 91.4941 86.2356 91.4941 86.2356C91.3117 85.6152 91.1194 84.7885 91.0382 84.8024C90.9846 84.8123 91.0144 85.2286 91.0243 85.3555Z" fill="#5E351E"/>
</svg>
