<svg width="152" height="155" viewBox="0 0 152 155" fill="none" xmlns="http://www.w3.org/2000/svg">
<circle cx="76" cy="79" r="76" fill="#FFE9AA"/>
<path d="M151.333 77.75C151.333 59.0441 143.675 41.0777 129.99 27.6796C116.305 14.2815 97.6765 6.51112 78.0731 6.02433C58.4698 5.53754 39.4422 12.3728 25.0452 25.0736C10.6482 37.7744 2.02029 55.3363 1 74.0169H22.4805C23.1935 60.9618 30.3632 49.8127 40.4246 40.9366C50.4861 32.0606 63.7837 27.2837 77.4837 27.6238C91.1837 27.964 104.203 33.3945 113.766 42.7578C123.33 52.1212 129.99 64.6772 129.99 77.75H151.333Z" fill="#F6D169" fill-opacity="0.3"/>
<path d="M151.333 75.167C151.333 56.4611 143.675 38.4947 129.99 25.0966C116.305 11.6985 97.6765 3.92811 78.0731 3.44132C58.4698 2.95453 39.4422 9.78983 25.0452 22.4906C10.6482 35.1914 2.02029 52.7533 1 71.4339H22.4805C23.1935 58.3788 30.3632 47.2297 40.4246 38.3536C50.4861 29.4776 63.7837 24.7006 77.4837 25.0408C91.1837 25.381 104.203 30.8114 113.766 40.1748C123.33 49.5382 129.99 62.0942 129.99 75.167H151.333Z" fill="#F6D169" fill-opacity="0.5"/>
<path d="M151.333 74.3125C151.333 115.354 117.68 148.625 76.1667 148.625C34.6533 148.625 1 115.354 1 74.3125C1 33.2708 34.6533 0 76.1667 0C117.68 0 151.333 33.2708 151.333 74.3125ZM22.4436 74.3125C22.4436 103.646 46.4962 127.425 76.1667 127.425C105.837 127.425 129.89 103.646 129.89 74.3125C129.89 44.9792 105.837 21.1999 76.1667 21.1999C46.4962 21.1999 22.4436 44.9792 22.4436 74.3125Z" fill="#F6D169"/>
<path d="M49.1666 69.4997C51.4444 66.9214 57.3666 63.3118 62.8333 69.4997" stroke="#F6D169" stroke-width="2" stroke-linecap="round"/>
<path d="M86.5 95C83.0833 98.8674 74.2 104.282 66 95" stroke="#F6D169" stroke-width="2" stroke-linecap="round"/>
<path d="M90.1666 69.4997C92.4444 66.9214 98.3666 63.3118 103.833 69.4997" stroke="#F6D169" stroke-width="2" stroke-linecap="round"/>
<path d="M49 68.4167C51.2778 65.8384 57.2 62.2288 62.6667 68.4167" stroke="#493500" stroke-linecap="round"/>
<path d="M86.5 94C83.0833 97.8674 74.2 103.282 66 94" stroke="#493500" stroke-linecap="round"/>
<path d="M90 68.4167C92.2778 65.8384 98.2 62.2288 103.667 68.4167" stroke="#493500" stroke-linecap="round"/>
</svg>
