<svg width="198" height="186" viewBox="0 0 198 186" fill="none" xmlns="http://www.w3.org/2000/svg">
<g filter="url(#filter0_f_614_9886)">
<path d="M101.074 182.025C135.044 182.025 162.582 178.071 162.582 173.193C162.582 168.314 135.044 164.36 101.074 164.36C67.1039 164.36 39.5659 168.314 39.5659 173.193C39.5659 178.071 67.1039 182.025 101.074 182.025Z" fill="#363A4E" fill-opacity="0.64"/>
</g>
<g clip-path="url(#clip0_614_9886)">
<ellipse cx="72.043" cy="39.3017" rx="10.8036" ry="10.9965" fill="#F6D169"/>
<path d="M82.9962 39.1088C82.9962 45.2885 77.9865 50.2982 71.8067 50.2982C65.627 50.2982 60.6173 45.2885 60.6173 39.1088C60.6173 32.929 65.627 27.9193 71.8067 27.9193C77.9865 27.9193 82.9962 32.929 82.9962 39.1088ZM63.8094 39.1088C63.8094 43.5256 67.3899 47.1061 71.8067 47.1061C76.2235 47.1061 79.804 43.5256 79.804 39.1088C79.804 34.692 76.2235 31.1114 71.8067 31.1114C67.3899 31.1114 63.8094 34.692 63.8094 39.1088Z" fill="#FFE9AA"/>
<path d="M67.8315 38.3284C68.1726 37.9423 69.0596 37.4017 69.8783 38.3284" stroke="#F6D169" stroke-width="0.5" stroke-linecap="round"/>
<path d="M73.4225 42.148C72.9107 42.7272 71.5803 43.5382 70.3522 42.148" stroke="#F6D169" stroke-width="0.5" stroke-linecap="round"/>
<path d="M73.9715 38.3284C74.3126 37.9423 75.1995 37.4017 76.0183 38.3284" stroke="#F6D169" stroke-width="0.5" stroke-linecap="round"/>
<path d="M67.8062 38.166C68.1474 37.7799 69.0343 37.2393 69.8531 38.166" stroke="#493500" stroke-width="0.5" stroke-linecap="round"/>
<path d="M73.4225 41.998C72.9107 42.5773 71.5803 43.3882 70.3522 41.998" stroke="#493500" stroke-width="0.5" stroke-linecap="round"/>
<path d="M73.947 38.166C74.2881 37.7799 75.1751 37.2393 75.9938 38.166" stroke="#493500" stroke-width="0.5" stroke-linecap="round"/>
<ellipse cx="95.043" cy="24.3017" rx="10.8036" ry="10.9965" fill="#F6D169"/>
<path d="M105.996 24.1088C105.996 30.2885 100.986 35.2982 94.8067 35.2982C88.627 35.2982 83.6173 30.2885 83.6173 24.1088C83.6173 17.929 88.627 12.9193 94.8067 12.9193C100.986 12.9193 105.996 17.929 105.996 24.1088ZM86.8094 24.1088C86.8094 28.5256 90.3899 32.1061 94.8067 32.1061C99.2235 32.1061 102.804 28.5256 102.804 24.1088C102.804 19.692 99.2235 16.1114 94.8067 16.1114C90.3899 16.1114 86.8094 19.692 86.8094 24.1088Z" fill="#FFE9AA"/>
<path d="M90.8315 23.3284C91.1726 22.9423 92.0596 22.4017 92.8783 23.3284" stroke="#F6D169" stroke-width="0.5" stroke-linecap="round"/>
<path d="M96.4225 27.148C95.9107 27.7272 94.5803 28.5382 93.3522 27.148" stroke="#F6D169" stroke-width="0.5" stroke-linecap="round"/>
<path d="M96.9715 23.3284C97.3126 22.9423 98.1995 22.4017 99.0183 23.3284" stroke="#F6D169" stroke-width="0.5" stroke-linecap="round"/>
<path d="M90.8062 23.166C91.1474 22.7799 92.0343 22.2393 92.8531 23.166" stroke="#493500" stroke-width="0.5" stroke-linecap="round"/>
<path d="M96.4225 26.998C95.9107 27.5773 94.5803 28.3882 93.3522 26.998" stroke="#493500" stroke-width="0.5" stroke-linecap="round"/>
<path d="M96.947 23.166C97.2881 22.7799 98.1751 22.2393 98.9938 23.166" stroke="#493500" stroke-width="0.5" stroke-linecap="round"/>
<ellipse cx="114.043" cy="47.3017" rx="10.8036" ry="10.9965" fill="#F6D169"/>
<path d="M124.996 47.1088C124.996 53.2885 119.986 58.2982 113.807 58.2982C107.627 58.2982 102.617 53.2885 102.617 47.1088C102.617 40.929 107.627 35.9193 113.807 35.9193C119.986 35.9193 124.996 40.929 124.996 47.1088ZM105.809 47.1088C105.809 51.5256 109.39 55.1061 113.807 55.1061C118.224 55.1061 121.804 51.5256 121.804 47.1088C121.804 42.692 118.224 39.1114 113.807 39.1114C109.39 39.1114 105.809 42.692 105.809 47.1088Z" fill="#FFE9AA"/>
<path d="M109.831 46.3284C110.173 45.9423 111.06 45.4017 111.878 46.3284" stroke="#F6D169" stroke-width="0.5" stroke-linecap="round"/>
<path d="M115.422 50.148C114.911 50.7272 113.58 51.5382 112.352 50.148" stroke="#F6D169" stroke-width="0.5" stroke-linecap="round"/>
<path d="M115.971 46.3284C116.313 45.9423 117.2 45.4017 118.018 46.3284" stroke="#F6D169" stroke-width="0.5" stroke-linecap="round"/>
<path d="M109.806 46.166C110.147 45.7799 111.034 45.2393 111.853 46.166" stroke="#493500" stroke-width="0.5" stroke-linecap="round"/>
<path d="M115.422 49.998C114.911 50.5773 113.58 51.3882 112.352 49.998" stroke="#493500" stroke-width="0.5" stroke-linecap="round"/>
<path d="M115.947 46.166C116.288 45.7799 117.175 45.2393 117.994 46.166" stroke="#493500" stroke-width="0.5" stroke-linecap="round"/>
<rect x="118.407" y="25.3802" width="2.39647" height="3.92149" transform="rotate(127.1 118.407 25.3802)" fill="#EEC143"/>
<rect x="105.417" y="42.728" width="2.44534" height="3.83755" transform="rotate(127.1 105.417 42.728)" fill="#EEC143"/>
<ellipse cx="108.366" cy="32.9137" rx="12.0974" ry="4.67754" transform="rotate(126.719 108.366 32.9137)" fill="#EEC143"/>
<ellipse cx="111.401" cy="35.1919" rx="12.0929" ry="4.25084" transform="rotate(126.692 111.401 35.1919)" fill="#FFE9AA"/>
<ellipse cx="111.374" cy="35.2382" rx="9.5836" ry="2.33706" transform="rotate(126.719 111.374 35.2382)" fill="#F6D169"/>
<path d="M102.188 39.4327L101.636 40.256L100.286 39.3352L100.485 38.2707L102.188 39.4327Z" fill="#D39900"/>
<path d="M103.443 35.7446L102.883 36.5622L101.429 35.5481L101.851 34.6142L103.443 35.7446Z" fill="#D39900"/>
<path d="M105.214 32.4541L104.648 33.2676L103.177 32.2258L103.728 31.3628L105.214 32.4541Z" fill="#D39900"/>
<path d="M107.65 29.3963L107.07 30.2005L105.481 29.0365L106.129 28.2434L107.65 29.3963Z" fill="#D39900"/>
<path d="M110.191 26.6891L109.583 27.4719L108.05 26.2617L108.794 25.5857L110.191 26.6891Z" fill="#D39900"/>
<path d="M113.252 24.4648L112.605 25.2168L111.107 23.9088L112.05 23.3978L113.252 24.4648Z" fill="#D39900"/>
<path d="M114.48 31.6316C114.524 32.033 114.35 32.9607 113.295 33.4597" stroke="#FFE9AA" stroke-width="0.5" stroke-linecap="round"/>
<path d="M114.524 31.7507C114.568 32.1522 114.393 33.0799 113.339 33.5788" stroke="black" stroke-width="0.5" stroke-linecap="round"/>
<path d="M111.065 37.0422C111.109 37.4436 110.934 38.3713 109.879 38.8703" stroke="#FFE9AA" stroke-width="0.5" stroke-linecap="round"/>
<path d="M111.133 37.2156C111.178 37.617 111.003 38.5447 109.948 39.0437" stroke="black" stroke-width="0.5" stroke-linecap="round"/>
<path d="M110.91 33.3352C110.521 33.4549 109.723 34.0281 109.647 35.3634" stroke="#FFE9AA" stroke-width="0.5" stroke-linecap="round"/>
<path d="M111.239 33.4661C110.849 33.5715 110.05 34.0732 109.971 35.2372" stroke="black" stroke-width="0.5" stroke-linecap="round"/>
<rect x="81.0373" y="27.8734" width="2.39647" height="3.92149" transform="rotate(65.4335 81.0373 27.8734)" fill="#EEC143"/>
<rect x="90.1418" y="47.5407" width="2.44534" height="3.83755" transform="rotate(65.4335 90.1418 47.5407)" fill="#EEC143"/>
<ellipse cx="82.9031" cy="40.2866" rx="12.0974" ry="4.67754" transform="rotate(65.0519 82.9031 40.2866)" fill="#EEC143"/>
<ellipse cx="86.3483" cy="38.6972" rx="12.0929" ry="4.25084" transform="rotate(65.0249 86.3483 38.6972)" fill="#FFE9AA"/>
<ellipse cx="86.3764" cy="38.7428" rx="9.5836" ry="2.33706" transform="rotate(65.0519 86.3764 38.7428)" fill="#F6D169"/>
<path d="M85.7091 48.8184L86.1716 49.6954L84.7205 50.4464L83.8779 49.7662L85.7091 48.8184Z" fill="#D39900"/>
<path d="M83.0584 45.9633L83.5119 46.845L81.9293 47.6435L81.3075 46.8289L83.0584 45.9633Z" fill="#D39900"/>
<path d="M81.0026 42.843L81.4496 43.728L79.8347 44.528L79.3363 43.6337L81.0026 42.843Z" fill="#D39900"/>
<path d="M79.4671 39.2477L79.8998 40.1397L78.1211 40.9861L77.7302 40.0397L79.4671 39.2477Z" fill="#D39900"/>
<path d="M78.2901 35.7263L78.6904 36.6333L76.8977 37.4083L76.6556 36.4328L78.2901 35.7263Z" fill="#D39900"/>
<path d="M77.7848 31.9769L78.1401 32.9025L76.2776 33.6005L76.2753 32.5282L77.7848 31.9769Z" fill="#D39900"/>
<path d="M84.6761 34.2968C85.0505 34.4483 85.7841 35.0425 85.7228 36.2075" stroke="#FFE9AA" stroke-width="0.5" stroke-linecap="round"/>
<path d="M84.8017 34.3148C85.1762 34.4663 85.9097 35.0605 85.8484 36.2255" stroke="black" stroke-width="0.5" stroke-linecap="round"/>
<path d="M87.8175 39.8711C88.1919 40.0226 88.9255 40.6168 88.8642 41.7818" stroke="#FFE9AA" stroke-width="0.5" stroke-linecap="round"/>
<path d="M88.0028 39.8927C88.3773 40.0442 89.1108 40.6384 89.0495 41.8034" stroke="black" stroke-width="0.5" stroke-linecap="round"/>
<path d="M84.4814 38.2475C84.4019 38.6472 84.5276 39.6217 85.6672 40.3217" stroke="#FFE9AA" stroke-width="0.5" stroke-linecap="round"/>
<path d="M84.7528 38.02C84.6605 38.4132 84.7227 39.3552 85.7096 39.9772" stroke="black" stroke-width="0.5" stroke-linecap="round"/>
<path d="M149.498 164.662C150.687 167.009 151.455 169.742 150.338 172.018C149.271 174.2 146.697 175.395 144.263 175.271C142.199 175.105 140.238 174.303 138.652 172.978C138.37 172.755 138.038 172.603 137.685 172.531C137.332 172.46 136.967 172.473 136.62 172.569C119.287 177.458 101.906 177.48 88.656 176.244C81.19 175.577 73.7868 174.338 66.5124 172.538C66.1692 172.453 65.8108 172.449 65.4658 172.527C65.1208 172.604 64.7985 172.76 64.5246 172.982C62.935 174.314 60.9676 175.121 58.896 175.289C56.4614 175.413 53.8839 174.218 52.8162 172.036C51.7486 169.853 52.4186 167.209 53.5399 164.925C53.7461 164.494 53.8096 164.009 53.7213 163.541C53.633 163.072 53.3974 162.643 53.0485 162.316C47.1742 156.76 43.7077 148.889 42.4748 140.894C41.3446 133.579 42.9528 126.126 45.0389 119.024C49.6669 103.246 61.4155 89.2466 72.9004 76.4692C73.1734 76.1643 73.3532 75.7882 73.4189 75.3852C73.4846 74.9821 73.4333 74.5688 73.2712 74.1937L61.7147 47.39C61.5508 47.0085 61.5016 46.5879 61.5729 46.1791C61.6442 45.7703 61.8331 45.3908 62.1167 45.0866C62.4002 44.7824 62.7663 44.5665 63.1707 44.4649C63.575 44.3634 64.0003 44.3806 64.395 44.5145C65.8379 45.0167 67.2495 45.6745 68.6299 46.2611C70.1833 46.9603 71.7746 47.573 73.3963 48.0966C74.1775 48.3391 74.9745 48.5277 75.7817 48.6611C76.5105 48.787 77.2488 48.8509 77.9885 48.8522C81.7409 48.8522 85.2655 47.1233 88.4371 45.1234C91.6088 43.1234 94.6107 40.8124 98.0817 39.3991C101.553 37.9858 105.703 37.6213 108.937 39.4969C109.504 39.8302 110.037 40.2188 110.527 40.6568C113.654 43.4167 115.414 47.8655 119.198 49.7144C120.179 50.1854 121.239 50.4731 122.325 50.5632C125.715 50.8966 129.401 49.7188 132.948 49.6432C133.312 49.637 133.672 49.7225 133.994 49.8919C134.316 50.0614 134.589 50.3091 134.789 50.6122C134.989 50.9152 135.108 51.2637 135.136 51.625C135.164 51.9864 135.1 52.3489 134.949 52.6787L125.121 74.0915C124.941 74.4905 124.886 74.9349 124.966 75.3653C125.046 75.7958 125.256 76.1917 125.568 76.5003C133.238 84.0823 142.186 93.5576 147.801 103.1C153.68 113.086 157.807 124.366 157.785 135.939C157.785 144.854 155.069 155.169 149.704 162.342C149.457 162.672 149.307 163.064 149.271 163.474C149.235 163.883 149.314 164.295 149.498 164.662Z" fill="#B4BDE9"/>
<path d="M88.656 176.245C81.19 175.578 73.7868 174.338 66.5124 172.538C66.1692 172.453 65.8108 172.45 65.4658 172.527C65.1208 172.604 64.7985 172.76 64.5246 172.982C62.935 174.315 60.9676 175.121 58.896 175.289C56.4614 175.413 53.8839 174.218 52.8162 172.036C51.7486 169.854 52.4186 167.209 53.5399 164.925C53.7461 164.494 53.8096 164.01 53.7213 163.541C53.633 163.072 53.3974 162.643 53.0485 162.316C47.1742 156.761 43.7077 148.89 42.4748 140.894C41.3446 133.579 42.9528 126.126 45.0389 119.024C49.6669 103.246 61.4155 89.2468 72.9005 76.4694C73.1734 76.1645 73.3532 75.7884 73.4189 75.3854C73.4846 74.9823 73.4333 74.569 73.2712 74.1939L61.7147 47.3902C61.5508 47.0087 61.5016 46.5881 61.5729 46.1793C61.6442 45.7705 61.8331 45.391 62.1167 45.0868C62.4002 44.7826 62.7663 44.5667 63.1707 44.4651C63.575 44.3636 64.0003 44.3808 64.395 44.5147C65.8379 45.0169 67.2495 45.6747 68.6299 46.2613H68.679C70.1567 46.8948 71.4641 47.8646 72.4961 49.0928C73.528 50.321 74.2556 51.7731 74.6203 53.3322C76.5471 61.5809 78.471 69.8266 80.3918 78.0694C67.7007 87.5313 60.0976 103.455 57.7926 119.068C55.4876 134.681 60.0753 151.29 70.5284 163.156C75.5305 168.791 81.7199 173.26 88.656 176.245Z" fill="#7E8ED9"/>
<path d="M107.285 77.3C107.061 82.6945 108.16 88.0622 110.488 92.9396C111.095 94.2062 112.033 95.6062 113.44 95.6506C114.597 95.6906 115.607 94.7306 115.964 93.6329C116.322 92.5351 116.17 91.3485 115.964 90.2152C115.105 85.8449 113.283 81.7181 110.63 78.1311" fill="#7E8ED9"/>
<path d="M114.57 78.6462C115.588 81.8987 117.389 84.8551 119.814 87.2593C120.444 87.8815 121.297 88.5126 122.146 88.2415C122.483 88.1004 122.768 87.8577 122.959 87.5477C123.151 87.2376 123.24 86.8757 123.214 86.5127C123.144 85.7854 122.888 85.088 122.472 84.486C121.03 82.0712 119.066 80.0052 116.723 78.4373" fill="#7E8ED9"/>
<path d="M88.3752 78.3087C83.822 84.7068 80.8582 92.0877 79.7269 99.8459C79.4186 101.988 79.432 104.57 81.201 105.824C82.7645 106.93 85.0695 106.37 86.4499 105.046C87.8302 103.721 88.4958 101.828 89.0185 99.9926C90.9807 93.1415 91.7022 85.9978 91.1493 78.8953" fill="#7E8ED9"/>
<path d="M88.906 73.4029C86.5473 67.8208 85.0419 61.6209 86.3642 55.7055C86.4686 55.0931 86.6932 54.5072 87.0253 53.9812C87.1935 53.7186 87.4232 53.5005 87.6948 53.3457C87.9663 53.1909 88.2716 53.1039 88.5843 53.0923C88.9326 53.1271 89.2654 53.2533 89.5487 53.4578C89.832 53.6624 90.0557 53.9381 90.197 54.2567C90.4815 54.9429 90.6752 55.663 90.7732 56.3989C91.89 62.6209 91.89 66.2875 90.3846 74.7984" fill="#7E8ED9"/>
<path d="M120.458 53.5984C116.053 61.2231 112.99 69.5413 111.403 78.1933L101.517 74.3223C101.614 63.9125 104.037 53.6546 108.611 44.2919C108.823 43.8672 109.14 43.5033 109.532 43.2347C109.925 42.966 110.38 42.8017 110.854 42.7572C111.329 42.7127 111.807 42.7894 112.243 42.9803C112.679 43.1711 113.059 43.4696 113.346 43.8475C115.066 46.1097 116.683 48.4785 119.194 49.7051H119.225C119.572 49.8701 119.882 50.1043 120.134 50.3934C120.387 50.6824 120.577 51.02 120.692 51.3851C120.808 51.7503 120.847 52.1352 120.807 52.516C120.766 52.8967 120.648 53.2652 120.458 53.5984Z" fill="#7E8ED9"/>
<path d="M71.1139 82.1572C70.1588 82.1502 69.2426 81.7802 68.5527 81.123C67.8628 80.4658 67.4515 79.5712 67.403 78.6222C67.3545 77.6731 67.6724 76.7416 68.2917 76.0181C68.911 75.2947 69.7848 74.8341 70.7342 74.7307L126.797 68.9531C127.78 68.859 128.761 69.1554 129.526 69.7779C130.29 70.4003 130.777 71.2982 130.879 72.2759C130.981 73.2536 130.69 74.2317 130.07 74.9971C129.45 75.7624 128.551 76.253 127.57 76.3618L71.5026 82.1394C71.3734 82.152 71.2437 82.1579 71.1139 82.1572Z" fill="#CBD1F0"/>
<path d="M71.1179 82.1581C70.1445 82.1459 69.2142 81.757 68.5242 81.0738C67.8343 80.3906 67.439 79.4669 67.4221 78.4986C67.4052 77.5302 67.7682 76.5934 68.434 75.8869C69.0997 75.1803 70.016 74.7596 70.9883 74.7139L125.729 72.8295C126.723 72.7953 127.691 73.1556 128.418 73.8311C129.146 74.5067 129.574 75.4421 129.608 76.4316C129.643 77.4211 129.28 78.3837 128.601 79.1076C127.922 79.8315 126.982 80.2573 125.988 80.2915L71.2474 82.1759L71.1179 82.1581Z" fill="#CBD1F0"/>
<path d="M72.8738 80.1937C71.9004 80.1815 70.9701 79.7926 70.2802 79.1094C69.5902 78.4262 69.1949 77.5025 69.178 76.5341C69.1612 75.5658 69.5241 74.629 70.1899 73.9224C70.8557 73.2159 71.7719 72.7952 72.7443 72.7495L125.903 70.8917C126.874 70.8904 127.807 71.2644 128.506 71.9348C129.205 72.6052 129.615 73.5196 129.649 74.4849C129.684 75.4502 129.339 76.391 128.69 77.1087C128.04 77.8264 127.135 78.2648 126.167 78.3315L73.0078 80.1937H72.8738Z" fill="#939ED3"/>
<path d="M125.854 80.2907H125.694L73.3432 78.0685C72.3683 78.0037 71.4575 77.5623 70.8053 76.8385C70.1531 76.1147 69.8112 75.1659 69.8526 74.1946C69.894 73.2234 70.3154 72.3068 71.0269 71.6405C71.7383 70.9743 72.6835 70.6111 73.6604 70.6287L126.015 72.8198C127.011 72.841 127.957 73.2549 128.647 73.9704C129.336 74.686 129.711 75.6445 129.689 76.6352C129.668 77.6259 129.252 78.5676 128.533 79.2532C127.814 79.9387 126.85 80.3119 125.854 80.2907Z" fill="#CBD1F0"/>
<path d="M112.779 81.309C115.818 81.309 118.282 78.8576 118.282 75.8336C118.282 72.8096 115.818 70.3582 112.779 70.3582C109.739 70.3582 107.275 72.8096 107.275 75.8336C107.275 78.8576 109.739 81.309 112.779 81.309Z" fill="#939ED3"/>
<path d="M117.313 75.1225C117.312 76.4696 116.811 77.7689 115.907 78.772C115.004 79.775 113.76 80.4114 112.414 80.5594C111.068 80.7073 109.715 80.3565 108.613 79.5741C107.51 78.7916 106.737 77.6323 106.44 76.318C106.394 76.1187 106.36 75.9169 106.337 75.7136C106.337 75.5181 106.306 75.3225 106.306 75.1225C106.304 74.1949 106.539 73.2821 106.99 72.4698C107.44 71.6574 108.09 70.9721 108.879 70.4782C109.052 70.3715 109.231 70.2751 109.415 70.1893C110.158 69.8295 110.974 69.644 111.8 69.6471C112.524 69.6453 113.241 69.7857 113.91 70.0601C114.579 70.3346 115.187 70.7377 115.699 71.2464C116.211 71.755 116.617 72.3593 116.894 73.0244C117.171 73.6896 117.313 74.4026 117.313 75.1225Z" fill="#CBD1F0"/>
<rect x="87.753" y="171.569" width="2.39647" height="3.92149" transform="rotate(-1.20042 87.753 171.569)" fill="#EEC143"/>
<rect x="109.418" y="171.011" width="2.44534" height="3.83755" transform="rotate(-1.20042 109.418 171.011)" fill="#EEC143"/>
<ellipse cx="99.888" cy="174.78" rx="12.0974" ry="4.67754" transform="rotate(-1.58202 99.888 174.78)" fill="#EEC143"/>
<ellipse cx="99.7952" cy="170.987" rx="12.0929" ry="4.25084" transform="rotate(-1.60906 99.7952 170.987)" fill="#FFE9AA"/>
<ellipse cx="99.8486" cy="170.979" rx="9.5836" ry="2.33706" transform="rotate(-1.58202 99.8486 170.979)" fill="#F6D169"/>
<path d="M108.833 175.588L109.821 175.511L109.935 177.141L108.976 177.645L108.833 175.588Z" fill="#D39900"/>
<path d="M105.161 176.889L106.15 176.822L106.255 178.592L105.261 178.839L105.161 176.889Z" fill="#D39900"/>
<path d="M101.481 177.538L102.47 177.478L102.564 179.278L101.546 179.381L101.481 177.538Z" fill="#D39900"/>
<path d="M97.5714 177.521L98.5618 177.478L98.6333 179.446L97.6095 179.43L97.5714 177.521Z" fill="#D39900"/>
<path d="M93.8724 177.206L94.8639 177.198L94.8642 179.151L93.8728 178.986L93.8724 177.206Z" fill="#D39900"/>
<path d="M90.2302 176.181L91.2208 176.222L91.123 178.209L90.1377 177.786L90.2302 176.181Z" fill="#D39900"/>
<path d="M102.137 170.202C102.445 169.941 103.312 169.567 104.315 170.163" stroke="#FFE9AA" stroke-width="0.5" stroke-linecap="round"/>
<path d="M102.137 170.069C102.445 169.807 103.312 169.434 104.315 170.029" stroke="black" stroke-width="0.5" stroke-linecap="round"/>
<path d="M97.3887 171.483C97.6968 171.744 98.5636 172.118 99.567 171.523" stroke="#FFE9AA" stroke-width="0.5" stroke-linecap="round"/>
<path d="M97.3887 171.276C97.6968 171.537 98.5636 171.911 99.567 171.316" stroke="black" stroke-width="0.5" stroke-linecap="round"/>
<rect x="92.753" y="167.569" width="2.39647" height="3.92149" transform="rotate(-1.20042 92.753 167.569)" fill="#EEC143"/>
<rect x="114.418" y="167.011" width="2.44534" height="3.83755" transform="rotate(-1.20042 114.418 167.011)" fill="#EEC143"/>
<ellipse cx="104.888" cy="170.78" rx="12.0974" ry="4.67754" transform="rotate(-1.58202 104.888 170.78)" fill="#EEC143"/>
<ellipse cx="104.795" cy="166.987" rx="12.0929" ry="4.25084" transform="rotate(-1.60906 104.795 166.987)" fill="#FFE9AA"/>
<ellipse cx="104.849" cy="166.979" rx="9.5836" ry="2.33706" transform="rotate(-1.58202 104.849 166.979)" fill="#F6D169"/>
<path d="M113.833 171.588L114.821 171.511L114.935 173.141L113.976 173.645L113.833 171.588Z" fill="#D39900"/>
<path d="M110.161 172.889L111.15 172.822L111.255 174.592L110.261 174.839L110.161 172.889Z" fill="#D39900"/>
<path d="M106.481 173.538L107.47 173.478L107.564 175.278L106.546 175.381L106.481 173.538Z" fill="#D39900"/>
<path d="M102.571 173.521L103.562 173.478L103.633 175.446L102.61 175.43L102.571 173.521Z" fill="#D39900"/>
<path d="M98.8724 173.206L99.8639 173.198L99.8642 175.151L98.8728 174.986L98.8724 173.206Z" fill="#D39900"/>
<path d="M95.2302 172.181L96.2208 172.222L96.123 174.209L95.1377 173.786L95.2302 172.181Z" fill="#D39900"/>
<path d="M107.137 166.202C107.445 165.941 108.312 165.567 109.315 166.163" stroke="#FFE9AA" stroke-width="0.5" stroke-linecap="round"/>
<path d="M107.137 166.069C107.445 165.807 108.312 165.434 109.315 166.029" stroke="black" stroke-width="0.5" stroke-linecap="round"/>
<path d="M102.389 167.483C102.697 167.744 103.564 168.118 104.567 167.523" stroke="#FFE9AA" stroke-width="0.5" stroke-linecap="round"/>
<path d="M102.389 167.276C102.697 167.537 103.564 167.911 104.567 167.316" stroke="black" stroke-width="0.5" stroke-linecap="round"/>
<rect x="86.753" y="163.569" width="2.39647" height="3.92149" transform="rotate(-1.20042 86.753 163.569)" fill="#EEC143"/>
<rect x="108.418" y="163.011" width="2.44534" height="3.83755" transform="rotate(-1.20042 108.418 163.011)" fill="#EEC143"/>
<ellipse cx="98.888" cy="166.78" rx="12.0974" ry="4.67754" transform="rotate(-1.58202 98.888 166.78)" fill="#EEC143"/>
<ellipse cx="98.7952" cy="162.987" rx="12.0929" ry="4.25084" transform="rotate(-1.60906 98.7952 162.987)" fill="#FFE9AA"/>
<ellipse cx="98.8486" cy="162.979" rx="9.5836" ry="2.33706" transform="rotate(-1.58202 98.8486 162.979)" fill="#F6D169"/>
<path d="M107.833 167.588L108.821 167.511L108.935 169.141L107.976 169.645L107.833 167.588Z" fill="#D39900"/>
<path d="M104.161 168.889L105.15 168.822L105.255 170.592L104.261 170.839L104.161 168.889Z" fill="#D39900"/>
<path d="M100.481 169.538L101.47 169.478L101.564 171.278L100.546 171.381L100.481 169.538Z" fill="#D39900"/>
<path d="M96.5714 169.521L97.5618 169.478L97.6333 171.446L96.6095 171.43L96.5714 169.521Z" fill="#D39900"/>
<path d="M92.8724 169.206L93.8639 169.198L93.8642 171.151L92.8728 170.986L92.8724 169.206Z" fill="#D39900"/>
<path d="M89.2302 168.181L90.2208 168.222L90.123 170.209L89.1377 169.786L89.2302 168.181Z" fill="#D39900"/>
<path d="M101.137 162.202C101.445 161.941 102.312 161.567 103.315 162.163" stroke="#FFE9AA" stroke-width="0.5" stroke-linecap="round"/>
<path d="M101.137 162.069C101.445 161.807 102.312 161.434 103.315 162.029" stroke="black" stroke-width="0.5" stroke-linecap="round"/>
<path d="M96.3887 163.483C96.6968 163.744 97.5636 164.118 98.567 163.523" stroke="#FFE9AA" stroke-width="0.5" stroke-linecap="round"/>
<path d="M96.3887 163.276C96.6968 163.537 97.5636 163.911 98.567 163.316" stroke="black" stroke-width="0.5" stroke-linecap="round"/>
<rect x="88.6749" y="155.684" width="2.39647" height="3.92149" transform="rotate(-1.20042 88.6749 155.684)" fill="#EEC143"/>
<rect x="110.34" y="155.127" width="2.44534" height="3.83755" transform="rotate(-1.20042 110.34 155.127)" fill="#EEC143"/>
<ellipse cx="100.81" cy="158.895" rx="12.0974" ry="4.67754" transform="rotate(-1.58202 100.81 158.895)" fill="#EEC143"/>
<ellipse cx="100.717" cy="155.102" rx="12.0929" ry="4.25084" transform="rotate(-1.60906 100.717 155.102)" fill="#FFE9AA"/>
<ellipse cx="100.77" cy="155.094" rx="9.5836" ry="2.33706" transform="rotate(-1.58202 100.77 155.094)" fill="#F6D169"/>
<path d="M109.754 159.703L110.743 159.626L110.857 161.256L109.898 161.76L109.754 159.703Z" fill="#D39900"/>
<path d="M106.082 161.004L107.072 160.937L107.177 162.707L106.183 162.955L106.082 161.004Z" fill="#D39900"/>
<path d="M102.402 161.653L103.392 161.594L103.486 163.394L102.467 163.496L102.402 161.653Z" fill="#D39900"/>
<path d="M98.4932 161.637L99.4837 161.593L99.5552 163.562L98.5314 163.545L98.4932 161.637Z" fill="#D39900"/>
<path d="M94.7943 161.321L95.7857 161.313L95.7861 163.266L94.7946 163.102L94.7943 161.321Z" fill="#D39900"/>
<path d="M91.1521 160.297L92.1427 160.338L92.0449 162.324L91.0596 161.901L91.1521 160.297Z" fill="#D39900"/>
<path d="M103.059 154.318C103.367 154.056 104.234 153.683 105.237 154.278" stroke="#FFE9AA" stroke-width="0.5" stroke-linecap="round"/>
<path d="M103.059 154.184C103.367 153.923 104.234 153.549 105.237 154.144" stroke="black" stroke-width="0.5" stroke-linecap="round"/>
<path d="M98.3106 155.598C98.6186 155.86 99.4855 156.233 100.489 155.638" stroke="#FFE9AA" stroke-width="0.5" stroke-linecap="round"/>
<path d="M98.3106 155.391C98.6186 155.653 99.4855 156.026 100.489 155.431" stroke="black" stroke-width="0.5" stroke-linecap="round"/>
<rect x="82.4013" y="154.278" width="2.39647" height="3.92149" transform="rotate(-32.7217 82.4013 154.278)" fill="#EEC143"/>
<rect x="100.578" y="142.476" width="2.44534" height="3.83755" transform="rotate(-32.7217 100.578 142.476)" fill="#EEC143"/>
<ellipse cx="94.4243" cy="150.671" rx="12.0974" ry="4.67754" transform="rotate(-33.1033 94.4243 150.671)" fill="#EEC143"/>
<ellipse cx="92.3623" cy="147.486" rx="12.0929" ry="4.25084" transform="rotate(-33.1303 92.3623 147.486)" fill="#FFE9AA"/>
<ellipse cx="92.4035" cy="147.451" rx="9.5836" ry="2.33706" transform="rotate(-33.1033 92.4035 147.451)" fill="#F6D169"/>
<path d="M102.472 146.683L103.274 146.1L104.224 147.43L103.67 148.361L102.472 146.683Z" fill="#D39900"/>
<path d="M100.022 149.712L100.83 149.138L101.845 150.591L101.127 151.322L100.022 149.712Z" fill="#D39900"/>
<path d="M97.2244 152.189L98.0371 151.621L99.0581 153.106L98.2435 153.726L97.2244 152.189Z" fill="#D39900"/>
<path d="M93.8834 154.219L94.705 153.664L95.7951 155.305L94.9137 155.826L93.8834 154.219Z" fill="#D39900"/>
<path d="M90.5645 155.884L91.4056 155.359L92.427 157.024L91.4957 157.402L90.5645 155.884Z" fill="#D39900"/>
<path d="M86.9247 156.916L87.7905 156.433L88.7457 158.177L87.6846 158.332L86.9247 156.916Z" fill="#D39900"/>
<path d="M88.2436 149.765C88.3404 149.373 88.8246 148.563 89.9865 148.458" stroke="#FFE9AA" stroke-width="0.5" stroke-linecap="round"/>
<path d="M88.2436 149.638C88.3404 149.246 88.8246 148.436 89.9865 148.331" stroke="black" stroke-width="0.5" stroke-linecap="round"/>
<path d="M93.3159 145.865C93.4127 145.473 93.8968 144.662 95.0588 144.558" stroke="#FFE9AA" stroke-width="0.5" stroke-linecap="round"/>
<path d="M93.311 145.678C93.4078 145.286 93.892 144.476 95.0539 144.371" stroke="black" stroke-width="0.5" stroke-linecap="round"/>
<path d="M92.1819 149.397C92.5889 149.42 93.5357 149.157 94.067 147.929" stroke="#FFE9AA" stroke-width="0.5" stroke-linecap="round"/>
<path d="M91.9182 149.161C92.3206 149.197 93.2442 149.002 93.7199 147.936" stroke="black" stroke-width="0.5" stroke-linecap="round"/>
<rect x="72.6389" y="178.938" width="2.39647" height="3.92149" transform="rotate(-58.1764 72.6389 178.938)" fill="#EEC143"/>
<rect x="83.9788" y="160.469" width="2.44534" height="3.83755" transform="rotate(-58.1764 83.9788 160.469)" fill="#EEC143"/>
<ellipse cx="81.9443" cy="170.513" rx="12.0974" ry="4.67754" transform="rotate(-58.558 81.9443 170.513)" fill="#EEC143"/>
<ellipse cx="78.7135" cy="168.523" rx="12.0929" ry="4.25084" transform="rotate(-58.585 78.7135 168.523)" fill="#FFE9AA"/>
<ellipse cx="78.736" cy="168.474" rx="9.5836" ry="2.33706" transform="rotate(-58.558 78.736 168.474)" fill="#F6D169"/>
<path d="M87.4965 163.453L87.9709 162.582L89.3996 163.375L89.2995 164.453L87.4965 163.453Z" fill="#D39900"/>
<path d="M86.586 167.241L87.0693 166.375L88.6103 167.251L88.2761 168.22L86.586 167.241Z" fill="#D39900"/>
<path d="M85.1253 170.68L85.6149 169.818L87.1751 170.72L86.7061 171.63L85.1253 170.68Z" fill="#D39900"/>
<path d="M82.981 173.949L83.4844 173.095L85.1738 174.108L84.602 174.957L82.981 173.949Z" fill="#D39900"/>
<path d="M80.6997 176.879L81.2336 176.043L82.8714 177.107L82.1929 177.849L80.6997 176.879Z" fill="#D39900"/>
<path d="M77.8568 179.375L78.4311 178.567L80.0434 179.731L79.1516 180.327L77.8568 179.375Z" fill="#D39900"/>
<path d="M75.9744 172.352C75.8933 171.956 75.9821 171.016 76.9863 170.422" stroke="#FFE9AA" stroke-width="0.5" stroke-linecap="round"/>
<path d="M75.9199 172.237C75.8387 171.841 75.9276 170.901 76.9317 170.308" stroke="black" stroke-width="0.5" stroke-linecap="round"/>
<path d="M78.8779 166.65C78.7968 166.254 78.8856 165.314 79.8898 164.72" stroke="#FFE9AA" stroke-width="0.5" stroke-linecap="round"/>
<path d="M78.7934 166.483C78.7122 166.088 78.801 165.148 79.8052 164.554" stroke="black" stroke-width="0.5" stroke-linecap="round"/>
<path d="M79.3723 170.327C79.7493 170.172 80.4913 169.528 80.4435 168.191" stroke="#FFE9AA" stroke-width="0.5" stroke-linecap="round"/>
<path d="M79.0327 170.227C79.4113 170.086 80.1614 169.513 80.1331 168.346" stroke="black" stroke-width="0.5" stroke-linecap="round"/>
<rect x="72.0644" y="129.857" width="0.871442" height="3.48577" fill="#EEC143"/>
<rect x="70.7573" y="131.164" width="3.48577" height="0.871442" fill="#EEC143"/>
<rect x="96.0293" y="137.263" width="0.871442" height="3.48577" fill="#EEC143"/>
<rect x="94.7221" y="138.571" width="3.48577" height="0.871442" fill="#EEC143"/>
<rect x="72.0644" y="152.297" width="0.871442" height="3.48577" fill="#EEC143"/>
<rect x="70.7573" y="153.604" width="3.48577" height="0.871442" fill="#EEC143"/>
<rect x="30.7076" y="95.1957" width="2.39647" height="3.92149" transform="rotate(-32.7217 30.7076 95.1957)" fill="#EEC143"/>
<rect x="48.8846" y="83.3934" width="2.44534" height="3.83755" transform="rotate(-32.7217 48.8846 83.3934)" fill="#EEC143"/>
<ellipse cx="42.7306" cy="91.5879" rx="12.0974" ry="4.67754" transform="rotate(-33.1033 42.7306 91.5879)" fill="#EEC143"/>
<ellipse cx="40.6685" cy="88.403" rx="12.0929" ry="4.25084" transform="rotate(-33.1303 40.6685 88.403)" fill="#FFE9AA"/>
<ellipse cx="40.7098" cy="88.3687" rx="9.5836" ry="2.33706" transform="rotate(-33.1033 40.7098 88.3687)" fill="#F6D169"/>
<path d="M50.7781 87.6L51.5806 87.0177L52.5299 88.3477L51.976 89.2782L50.7781 87.6Z" fill="#D39900"/>
<path d="M48.3279 90.6289L49.1363 90.0549L50.1512 91.5082L49.4331 92.2393L48.3279 90.6289Z" fill="#D39900"/>
<path d="M45.5307 93.1065L46.3433 92.5385L47.3644 94.0236L46.5498 94.6438L45.5307 93.1065Z" fill="#D39900"/>
<path d="M42.1896 95.1365L43.0112 94.5816L44.1014 96.2223L43.22 96.7435L42.1896 95.1365Z" fill="#D39900"/>
<path d="M38.8708 96.8011L39.7119 96.2762L40.7333 97.9409L39.802 98.3188L38.8708 96.8011Z" fill="#D39900"/>
<path d="M35.2309 97.8332L36.0968 97.3502L37.052 99.0948L35.9909 99.2492L35.2309 97.8332Z" fill="#D39900"/>
<path d="M36.5499 90.6825C36.6467 90.2904 37.1309 89.4799 38.2928 89.3754" stroke="#FFE9AA" stroke-width="0.5" stroke-linecap="round"/>
<path d="M36.5499 90.5556C36.6467 90.1634 37.1309 89.353 38.2928 89.2484" stroke="black" stroke-width="0.5" stroke-linecap="round"/>
<path d="M41.6222 86.7821C41.719 86.39 42.2031 85.5795 43.365 85.475" stroke="#FFE9AA" stroke-width="0.5" stroke-linecap="round"/>
<path d="M41.6173 86.5956C41.7141 86.2035 42.1982 85.393 43.3602 85.2885" stroke="black" stroke-width="0.5" stroke-linecap="round"/>
<path d="M40.4882 90.3148C40.8952 90.3368 41.842 90.0741 42.3733 88.8467" stroke="#FFE9AA" stroke-width="0.5" stroke-linecap="round"/>
<path d="M40.2245 90.0784C40.6269 90.114 41.5505 89.9188 42.0262 88.8536" stroke="black" stroke-width="0.5" stroke-linecap="round"/>
<ellipse cx="148.043" cy="121.302" rx="10.8036" ry="10.9965" fill="#F6D169"/>
<path d="M158.996 121.109C158.996 127.289 153.986 132.298 147.807 132.298C141.627 132.298 136.617 127.289 136.617 121.109C136.617 114.929 141.627 109.919 147.807 109.919C153.986 109.919 158.996 114.929 158.996 121.109ZM139.809 121.109C139.809 125.526 143.39 129.106 147.807 129.106C152.224 129.106 155.804 125.526 155.804 121.109C155.804 116.692 152.224 113.111 147.807 113.111C143.39 113.111 139.809 116.692 139.809 121.109Z" fill="#FFE9AA"/>
<path d="M143.831 120.328C144.173 119.942 145.06 119.402 145.878 120.328" stroke="#F6D169" stroke-width="0.5" stroke-linecap="round"/>
<path d="M149.422 124.148C148.911 124.727 147.58 125.538 146.352 124.148" stroke="#F6D169" stroke-width="0.5" stroke-linecap="round"/>
<path d="M149.971 120.328C150.313 119.942 151.2 119.402 152.018 120.328" stroke="#F6D169" stroke-width="0.5" stroke-linecap="round"/>
<path d="M143.806 120.166C144.147 119.78 145.034 119.239 145.853 120.166" stroke="#493500" stroke-width="0.5" stroke-linecap="round"/>
<path d="M149.422 123.998C148.911 124.577 147.58 125.388 146.352 123.998" stroke="#493500" stroke-width="0.5" stroke-linecap="round"/>
<path d="M149.947 120.166C150.288 119.78 151.175 119.239 151.994 120.166" stroke="#493500" stroke-width="0.5" stroke-linecap="round"/>
<rect x="127.174" y="59.3414" width="2.39647" height="3.92149" transform="rotate(43.4273 127.174 59.3414)" fill="#EEC143"/>
<rect x="142.985" y="74.1644" width="2.44534" height="3.83755" transform="rotate(43.4273 142.985 74.1644)" fill="#EEC143"/>
<ellipse cx="133.555" cy="70.1511" rx="12.0974" ry="4.67754" transform="rotate(43.0457 133.555 70.1511)" fill="#EEC143"/>
<ellipse cx="136.154" cy="67.3866" rx="12.0929" ry="4.25084" transform="rotate(43.0187 136.154 67.3866)" fill="#FFE9AA"/>
<ellipse cx="136.197" cy="67.4184" rx="9.5836" ry="2.33706" transform="rotate(43.0457 136.197 67.4184)" fill="#F6D169"/>
<path d="M139.354 77.0099L140.111 77.6497L139.047 78.8898L138.011 78.5748L139.354 77.0099Z" fill="#D39900"/>
<path d="M135.826 75.3561L136.577 76.0036L135.409 77.3369L134.527 76.8147L135.826 75.3561Z" fill="#D39900"/>
<path d="M132.751 73.2334L133.497 73.8864L132.3 75.2333L131.503 74.5909L132.751 73.2334Z" fill="#D39900"/>
<path d="M129.98 70.4754L130.716 71.1403L129.384 72.5915L128.667 71.8605L129.98 70.4754Z" fill="#D39900"/>
<path d="M127.57 67.6516L128.281 68.3426L126.909 69.7328L126.319 68.9191L127.57 67.6516Z" fill="#D39900"/>
<path d="M125.696 64.3647L126.372 65.0897L124.907 66.4348L124.503 65.4415L125.696 64.3647Z" fill="#D39900"/>
<path d="M132.955 63.9334C133.359 63.9335 134.261 64.2096 134.641 65.3127" stroke="#FFE9AA" stroke-width="0.5" stroke-linecap="round"/>
<path d="M133.078 63.903C133.482 63.9032 134.385 64.1792 134.764 65.2823" stroke="black" stroke-width="0.5" stroke-linecap="round"/>
<path d="M137.956 67.9244C138.36 67.9246 139.263 68.2006 139.642 69.3037" stroke="#FFE9AA" stroke-width="0.5" stroke-linecap="round"/>
<path d="M138.136 67.8751C138.54 67.8752 139.443 68.1512 139.822 69.2543" stroke="black" stroke-width="0.5" stroke-linecap="round"/>
<path d="M134.255 67.6691C134.331 68.0696 134.812 68.9259 136.131 69.148" stroke="#FFE9AA" stroke-width="0.5" stroke-linecap="round"/>
<path d="M134.421 67.3566C134.483 67.7557 134.893 68.6058 136.041 68.8126" stroke="black" stroke-width="0.5" stroke-linecap="round"/>
</g>
<g filter="url(#filter1_d_614_9886)">
<circle cx="61.8784" cy="89.809" r="2.34252" fill="#F9CA47"/>
</g>
<g filter="url(#filter2_d_614_9886)">
<circle cx="151.48" cy="109.136" r="1.75689" fill="#F9CA47"/>
</g>
<g filter="url(#filter3_d_614_9886)">
<circle cx="158.506" cy="157.156" r="2.92815" fill="#F9CA47"/>
</g>
<g filter="url(#filter4_d_614_9886)">
<path d="M57.7775 64.0415L58.8847 67.0337L61.8769 68.1409L58.8847 69.2481L57.7775 72.2403L56.6702 69.2481L53.678 68.1409L56.6702 67.0337L57.7775 64.0415Z" fill="#F9CA47"/>
</g>
<g filter="url(#filter5_d_614_9886)">
<path d="M119.306 7.67858L121.365 10.4326L124.796 10.6621L122.042 12.7212L121.812 16.1523L119.753 13.3983L116.322 13.1688L119.076 11.1096L119.306 7.67858Z" fill="#F9CA47"/>
</g>
<g filter="url(#filter6_d_614_9886)">
<path d="M24.9907 158.472L27.6046 160.301L30.6948 159.508L28.8654 162.122L29.6589 165.212L27.045 163.383L23.9548 164.176L25.7842 161.562L24.9907 158.472Z" fill="#F9CA47"/>
</g>
<g filter="url(#filter7_d_614_9886)">
<path d="M182.776 144.414L185.952 147.01L189.99 146.289L187.393 149.465L188.114 153.503L184.939 150.907L180.9 151.628L183.497 148.452L182.776 144.414Z" fill="#F9CA47"/>
</g>
<g filter="url(#filter8_d_614_9886)">
<path d="M16.1988 80.4398L18.4132 86.4242L24.3976 88.6387L18.4132 90.8531L16.1988 96.8375L13.9844 90.8531L8 88.6387L13.9844 86.4242L16.1988 80.4398Z" fill="#F9CA47"/>
</g>
<g filter="url(#filter9_d_614_9886)">
<path d="M177.248 65.2124L178.355 68.2046L181.347 69.3118L178.355 70.4191L177.248 73.4113L176.14 70.4191L173.148 69.3118L176.14 68.2046L177.248 65.2124Z" fill="#F9CA47"/>
</g>
<defs>
<filter id="filter0_f_614_9886" x="37.4659" y="162.26" width="127.216" height="21.8655" filterUnits="userSpaceOnUse" color-interpolation-filters="sRGB">
<feFlood flood-opacity="0" result="BackgroundImageFix"/>
<feBlend mode="normal" in="SourceGraphic" in2="BackgroundImageFix" result="shape"/>
<feGaussianBlur stdDeviation="1.05" result="effect1_foregroundBlur_614_9886"/>
</filter>
<filter id="filter1_d_614_9886" x="51.5359" y="80.4665" width="20.685" height="20.685" filterUnits="userSpaceOnUse" color-interpolation-filters="sRGB">
<feFlood flood-opacity="0" result="BackgroundImageFix"/>
<feColorMatrix in="SourceAlpha" type="matrix" values="0 0 0 0 0 0 0 0 0 0 0 0 0 0 0 0 0 0 127 0" result="hardAlpha"/>
<feOffset dy="1"/>
<feGaussianBlur stdDeviation="4"/>
<feComposite in2="hardAlpha" operator="out"/>
<feColorMatrix type="matrix" values="0 0 0 0 0.976471 0 0 0 0 0.792157 0 0 0 0 0.278431 0 0 0 1 0"/>
<feBlend mode="normal" in2="BackgroundImageFix" result="effect1_dropShadow_614_9886"/>
<feBlend mode="normal" in="SourceGraphic" in2="effect1_dropShadow_614_9886" result="shape"/>
</filter>
<filter id="filter2_d_614_9886" x="141.723" y="100.379" width="19.5138" height="19.5138" filterUnits="userSpaceOnUse" color-interpolation-filters="sRGB">
<feFlood flood-opacity="0" result="BackgroundImageFix"/>
<feColorMatrix in="SourceAlpha" type="matrix" values="0 0 0 0 0 0 0 0 0 0 0 0 0 0 0 0 0 0 127 0" result="hardAlpha"/>
<feOffset dy="1"/>
<feGaussianBlur stdDeviation="4"/>
<feComposite in2="hardAlpha" operator="out"/>
<feColorMatrix type="matrix" values="0 0 0 0 0.976471 0 0 0 0 0.792157 0 0 0 0 0.278431 0 0 0 1 0"/>
<feBlend mode="normal" in2="BackgroundImageFix" result="effect1_dropShadow_614_9886"/>
<feBlend mode="normal" in="SourceGraphic" in2="effect1_dropShadow_614_9886" result="shape"/>
</filter>
<filter id="filter3_d_614_9886" x="147.578" y="147.228" width="21.8563" height="21.8563" filterUnits="userSpaceOnUse" color-interpolation-filters="sRGB">
<feFlood flood-opacity="0" result="BackgroundImageFix"/>
<feColorMatrix in="SourceAlpha" type="matrix" values="0 0 0 0 0 0 0 0 0 0 0 0 0 0 0 0 0 0 127 0" result="hardAlpha"/>
<feOffset dy="1"/>
<feGaussianBlur stdDeviation="4"/>
<feComposite in2="hardAlpha" operator="out"/>
<feColorMatrix type="matrix" values="0 0 0 0 0.976471 0 0 0 0 0.792157 0 0 0 0 0.278431 0 0 0 1 0"/>
<feBlend mode="normal" in2="BackgroundImageFix" result="effect1_dropShadow_614_9886"/>
<feBlend mode="normal" in="SourceGraphic" in2="effect1_dropShadow_614_9886" result="shape"/>
</filter>
<filter id="filter4_d_614_9886" x="45.678" y="57.0415" width="24.1988" height="24.1988" filterUnits="userSpaceOnUse" color-interpolation-filters="sRGB">
<feFlood flood-opacity="0" result="BackgroundImageFix"/>
<feColorMatrix in="SourceAlpha" type="matrix" values="0 0 0 0 0 0 0 0 0 0 0 0 0 0 0 0 0 0 127 0" result="hardAlpha"/>
<feOffset dy="1"/>
<feGaussianBlur stdDeviation="4"/>
<feComposite in2="hardAlpha" operator="out"/>
<feColorMatrix type="matrix" values="0 0 0 0 0.976471 0 0 0 0 0.792157 0 0 0 0 0.278431 0 0 0 1 0"/>
<feBlend mode="normal" in2="BackgroundImageFix" result="effect1_dropShadow_614_9886"/>
<feBlend mode="normal" in="SourceGraphic" in2="effect1_dropShadow_614_9886" result="shape"/>
</filter>
<filter id="filter5_d_614_9886" x="108.322" y="0.678589" width="24.4737" height="24.4737" filterUnits="userSpaceOnUse" color-interpolation-filters="sRGB">
<feFlood flood-opacity="0" result="BackgroundImageFix"/>
<feColorMatrix in="SourceAlpha" type="matrix" values="0 0 0 0 0 0 0 0 0 0 0 0 0 0 0 0 0 0 127 0" result="hardAlpha"/>
<feOffset dy="1"/>
<feGaussianBlur stdDeviation="4"/>
<feComposite in2="hardAlpha" operator="out"/>
<feColorMatrix type="matrix" values="0 0 0 0 0.976471 0 0 0 0 0.792157 0 0 0 0 0.278431 0 0 0 1 0"/>
<feBlend mode="normal" in2="BackgroundImageFix" result="effect1_dropShadow_614_9886"/>
<feBlend mode="normal" in="SourceGraphic" in2="effect1_dropShadow_614_9886" result="shape"/>
</filter>
<filter id="filter6_d_614_9886" x="15.9548" y="151.472" width="22.7401" height="22.7401" filterUnits="userSpaceOnUse" color-interpolation-filters="sRGB">
<feFlood flood-opacity="0" result="BackgroundImageFix"/>
<feColorMatrix in="SourceAlpha" type="matrix" values="0 0 0 0 0 0 0 0 0 0 0 0 0 0 0 0 0 0 127 0" result="hardAlpha"/>
<feOffset dy="1"/>
<feGaussianBlur stdDeviation="4"/>
<feComposite in2="hardAlpha" operator="out"/>
<feColorMatrix type="matrix" values="0 0 0 0 0.976471 0 0 0 0 0.792157 0 0 0 0 0.278431 0 0 0 1 0"/>
<feBlend mode="normal" in2="BackgroundImageFix" result="effect1_dropShadow_614_9886"/>
<feBlend mode="normal" in="SourceGraphic" in2="effect1_dropShadow_614_9886" result="shape"/>
</filter>
<filter id="filter7_d_614_9886" x="172.9" y="137.414" width="25.0894" height="25.0894" filterUnits="userSpaceOnUse" color-interpolation-filters="sRGB">
<feFlood flood-opacity="0" result="BackgroundImageFix"/>
<feColorMatrix in="SourceAlpha" type="matrix" values="0 0 0 0 0 0 0 0 0 0 0 0 0 0 0 0 0 0 127 0" result="hardAlpha"/>
<feOffset dy="1"/>
<feGaussianBlur stdDeviation="4"/>
<feComposite in2="hardAlpha" operator="out"/>
<feColorMatrix type="matrix" values="0 0 0 0 0.976471 0 0 0 0 0.792157 0 0 0 0 0.278431 0 0 0 1 0"/>
<feBlend mode="normal" in2="BackgroundImageFix" result="effect1_dropShadow_614_9886"/>
<feBlend mode="normal" in="SourceGraphic" in2="effect1_dropShadow_614_9886" result="shape"/>
</filter>
<filter id="filter8_d_614_9886" x="0" y="73.4398" width="32.3976" height="32.3976" filterUnits="userSpaceOnUse" color-interpolation-filters="sRGB">
<feFlood flood-opacity="0" result="BackgroundImageFix"/>
<feColorMatrix in="SourceAlpha" type="matrix" values="0 0 0 0 0 0 0 0 0 0 0 0 0 0 0 0 0 0 127 0" result="hardAlpha"/>
<feOffset dy="1"/>
<feGaussianBlur stdDeviation="4"/>
<feComposite in2="hardAlpha" operator="out"/>
<feColorMatrix type="matrix" values="0 0 0 0 0.976471 0 0 0 0 0.792157 0 0 0 0 0.278431 0 0 0 1 0"/>
<feBlend mode="normal" in2="BackgroundImageFix" result="effect1_dropShadow_614_9886"/>
<feBlend mode="normal" in="SourceGraphic" in2="effect1_dropShadow_614_9886" result="shape"/>
</filter>
<filter id="filter9_d_614_9886" x="165.148" y="58.2124" width="24.1988" height="24.1988" filterUnits="userSpaceOnUse" color-interpolation-filters="sRGB">
<feFlood flood-opacity="0" result="BackgroundImageFix"/>
<feColorMatrix in="SourceAlpha" type="matrix" values="0 0 0 0 0 0 0 0 0 0 0 0 0 0 0 0 0 0 127 0" result="hardAlpha"/>
<feOffset dy="1"/>
<feGaussianBlur stdDeviation="4"/>
<feComposite in2="hardAlpha" operator="out"/>
<feColorMatrix type="matrix" values="0 0 0 0 0.976471 0 0 0 0 0.792157 0 0 0 0 0.278431 0 0 0 1 0"/>
<feBlend mode="normal" in2="BackgroundImageFix" result="effect1_dropShadow_614_9886"/>
<feBlend mode="normal" in="SourceGraphic" in2="effect1_dropShadow_614_9886" result="shape"/>
</filter>
<clipPath id="clip0_614_9886">
<rect width="144.065" height="173.347" fill="white" transform="translate(27.9122 12.5062)"/>
</clipPath>
</defs>
</svg>
