<svg width="59" height="58" viewBox="0 0 59 58" fill="none" xmlns="http://www.w3.org/2000/svg">
<ellipse cx="30" cy="29.5" rx="28" ry="28.5" fill="#F6D169"/>
<path d="M58.3877 29C58.3877 45.0163 45.404 58 29.3877 58C13.3714 58 0.387695 45.0163 0.387695 29C0.387695 12.9837 13.3714 0 29.3877 0C45.404 0 58.3877 12.9837 58.3877 29ZM8.66084 29C8.66084 40.4471 17.9406 49.7269 29.3877 49.7269C40.8348 49.7269 50.1145 40.4471 50.1145 29C50.1145 17.5529 40.8348 8.27315 29.3877 8.27315C17.9406 8.27315 8.66084 17.5529 8.66084 29Z" fill="#FFE9AA"/>
<path d="M19.0848 26.9774C19.9689 25.9766 22.2677 24.5755 24.3896 26.9774" stroke="#FFE9AA" stroke-width="2" stroke-linecap="round"/>
<path d="M33.5753 36.8767C32.2491 38.3778 28.801 40.4795 25.6181 36.8767" stroke="#FFE9AA" stroke-width="2" stroke-linecap="round"/>
<path d="M34.9984 26.9774C35.8825 25.9766 38.1813 24.5755 40.3032 26.9774" stroke="#FFE9AA" stroke-width="2" stroke-linecap="round"/>
<path d="M19.0196 26.5566C19.9037 25.5559 22.2025 24.1548 24.3244 26.5566" stroke="#493500" stroke-linecap="round"/>
<path d="M33.5753 36.4886C32.2491 37.9897 28.801 40.0914 25.6181 36.4886" stroke="#493500" stroke-linecap="round"/>
<path d="M34.9343 26.5566C35.8184 25.5559 38.1172 24.1548 40.2391 26.5566" stroke="#493500" stroke-linecap="round"/>
</svg>
