<svg width="32" height="31" viewBox="0 0 32 31" fill="none" xmlns="http://www.w3.org/2000/svg">
<rect x="4.4519" y="1.65112" width="0.712424" height="2.8497" fill="#EEC143"/>
<rect x="3.3833" y="2.71973" width="2.8497" height="0.712424" fill="#EEC143"/>
<rect x="24.0439" y="7.70657" width="0.712424" height="2.8497" fill="#EEC143"/>
<rect x="22.9753" y="8.77518" width="2.8497" height="0.712424" fill="#EEC143"/>
<rect x="4.4519" y="19.9964" width="0.712424" height="2.8497" fill="#EEC143"/>
<rect x="3.3833" y="21.065" width="2.8497" height="0.712424" fill="#EEC143"/>
<rect x="7.6543" y="15.8565" width="1.95917" height="3.20591" transform="rotate(-1.20042 7.6543 15.8565)" fill="#EEC143"/>
<rect x="25.366" y="15.4007" width="1.99912" height="3.13729" transform="rotate(-1.20042 25.366 15.4007)" fill="#EEC143"/>
<ellipse cx="17.5752" cy="18.4813" rx="9.88992" ry="3.82399" transform="rotate(-1.58202 17.5752 18.4813)" fill="#EEC143"/>
<ellipse cx="17.4992" cy="15.3804" rx="9.88622" ry="3.47516" transform="rotate(-1.60906 17.4992 15.3804)" fill="#FFE9AA"/>
<ellipse cx="17.5425" cy="15.3741" rx="7.83482" ry="1.9106" transform="rotate(-1.58202 17.5425 15.3741)" fill="#F6D169"/>
<path d="M24.8871 19.1418L25.6952 19.079L25.7883 20.4116L25.0046 20.8234L24.8871 19.1418Z" fill="#D39900"/>
<path d="M21.8853 20.2057L22.694 20.1512L22.7801 21.5978L21.9671 21.8003L21.8853 20.2057Z" fill="#D39900"/>
<path d="M18.8772 20.7362L19.6863 20.6877L19.7631 22.1591L18.9303 22.2431L18.8772 20.7362Z" fill="#D39900"/>
<path d="M15.6814 20.7227L16.4911 20.6872L16.5496 22.2965L15.7126 22.283L15.6814 20.7227Z" fill="#D39900"/>
<path d="M12.6568 20.4646L13.4673 20.4583L13.4676 22.055L12.657 21.9203L12.6568 20.4646Z" fill="#D39900"/>
<path d="M9.67928 19.6272L10.4891 19.6607L10.4091 21.2848L9.60364 20.9389L9.67928 19.6272Z" fill="#D39900"/>
<rect x="2.52588" y="14.7066" width="1.95917" height="3.20591" transform="rotate(-32.7217 2.52588 14.7066)" fill="#EEC143"/>
<rect x="17.386" y="5.05792" width="1.99912" height="3.13729" transform="rotate(-32.7217 17.386 5.05792)" fill="#EEC143"/>
<ellipse cx="12.3548" cy="11.7571" rx="9.88992" ry="3.82399" transform="rotate(-33.1033 12.3548 11.7571)" fill="#EEC143"/>
<ellipse cx="10.6693" cy="9.15336" rx="9.88622" ry="3.47516" transform="rotate(-33.1303 10.6693 9.15336)" fill="#FFE9AA"/>
<ellipse cx="10.7028" cy="9.12537" rx="7.83482" ry="1.9106" transform="rotate(-33.1033 10.7028 9.12537)" fill="#F6D169"/>
<path d="M18.9334 8.49696L19.5895 8.02094L20.3656 9.10819L19.9128 9.86895L18.9334 8.49696Z" fill="#D39900"/>
<path d="M16.9307 10.9731L17.5916 10.5039L18.4213 11.692L17.8342 12.2897L16.9307 10.9731Z" fill="#D39900"/>
<path d="M14.644 12.9986L15.3083 12.5343L16.143 13.7484L15.4771 14.2554L14.644 12.9986Z" fill="#D39900"/>
<path d="M11.9126 14.6582L12.5843 14.2046L13.4755 15.5459L12.755 15.9719L11.9126 14.6582Z" fill="#D39900"/>
<path d="M9.19928 16.019L9.88691 15.5899L10.722 16.9509L9.9606 17.2598L9.19928 16.019Z" fill="#D39900"/>
<path d="M6.22323 16.8628L6.9311 16.4679L7.71199 17.8942L6.8445 18.0204L6.22323 16.8628Z" fill="#D39900"/>
</svg>
