<svg width="31" height="22" viewBox="0 0 31 22" fill="none" xmlns="http://www.w3.org/2000/svg">
<path d="M6.23661 15.337C5.94698 15.4818 5.5415 15.8583 6.23661 16.2059C7.1055 16.6403 8.40898 15.7715 7.97453 14.4681C7.54009 13.1648 6.23676 12.2959 4.49898 13.1648C2.7612 14.0337 2.32646 18.8124 6.23661 18.8124C7.80544 18.8124 8.95461 18.2529 9.71222 17.4707M14.0567 12.73L17.9667 8.38562C18.4011 7.80636 18.8552 6.29135 18.4011 4.47562C17.9667 2.73828 15.36 0.565542 12.7533 1.43451C10.91 2.04901 10.5811 2.73776 9.27778 4.04178L2.86918 11.6064M14.0567 12.73L29.2622 12.7301L21.0078 21.4189H12.3188C11.4499 21.4189 6.23667 21.8534 3.63002 20.5501C1.36691 19.4185 0.878538 16.4953 1.02335 14.9023C1.12966 14.1581 1.64181 12.7272 2.86918 11.6064M14.0567 12.73L9.71222 17.4707M2.86918 11.6064C3.31373 11.2005 3.85209 10.8352 4.49898 10.558C7.54016 9.25462 9.71224 11.8613 10.5811 13.5991C11.1014 14.6396 10.8429 16.3032 9.71222 17.4707" stroke="#394B42" stroke-linecap="round" stroke-linejoin="round"/>
<g clip-path="url(#clip0_900_2176)">
<path d="M29.6965 6.21334C29.6965 8.37278 27.9459 10.1233 25.7865 10.1233M29.6965 6.21334C29.6965 4.05391 27.9459 2.30334 25.7865 2.30334M29.6965 6.21334H28.8276M25.7865 10.1233C23.627 10.1233 21.8765 8.37278 21.8765 6.21334M25.7865 10.1233V9.25446M21.8765 6.21334C21.8765 4.05391 23.627 2.30334 25.7865 2.30334M21.8765 6.21334H22.7454M25.7865 2.30334V3.17223M24.9176 4.47557L25.7865 6.21334L26.8726 6.86501" stroke="#394B42" stroke-linecap="round" stroke-linejoin="round"/>
</g>
<defs>
<clipPath id="clip0_900_2176">
<rect width="10.4267" height="10.4267" fill="white" transform="translate(20.5732 1)"/>
</clipPath>
</defs>
</svg>
