<svg width="22" height="36" viewBox="0 0 22 36" fill="none" xmlns="http://www.w3.org/2000/svg">
<path d="M3.63393 19.0492C4.48997 24.2033 5.52435 29.3038 6.75491 34.3866C6.84408 34.7254 7.34343 34.5827 7.2721 34.2439C6.04154 29.179 4.98933 24.0606 4.15112 18.9065C4.07979 18.5677 3.5626 18.7103 3.63393 19.0492Z" fill="#F9CA47"/>
<path d="M20.9164 19.7629C19.9534 24.3284 19.133 28.9475 18.4731 33.5665C18.4196 33.9054 18.9368 34.0481 18.9903 33.7092C19.6502 29.0723 20.4705 24.4711 21.4336 19.9056C21.5049 19.5667 20.9877 19.4241 20.9164 19.7629Z" fill="#F9CA47"/>
<path d="M3.79628 18.9953C5.11601 19.6017 6.48924 19.7265 7.91597 19.8157C9.52104 19.9049 11.1261 19.9584 12.7312 19.9762C15.6917 20.0297 18.7591 20.1724 21.5591 19.0132C21.8801 18.8883 21.7374 18.3711 21.4164 18.496C18.777 19.6017 15.8878 19.4947 13.0879 19.459C11.5898 19.4412 10.1096 19.3877 8.6115 19.3163C7.05993 19.245 5.49052 19.2093 4.06379 18.5495C3.74278 18.389 3.47526 18.8527 3.79628 18.9953Z" fill="#F9CA47"/>
<path d="M21.0406 18.8355C19.9884 23.7577 19.061 28.7156 18.2942 33.6913C18.2407 34.0302 18.7578 34.1728 18.8113 33.834C19.5782 28.8583 20.4878 23.9004 21.5578 18.9781C21.6291 18.6393 21.112 18.4966 21.0406 18.8355Z" fill="#F9CA47"/>
<path d="M3.99233 19.4412C6.39994 25.1303 9.48524 30.4984 13.1947 35.4385C13.3909 35.706 13.8724 35.4385 13.6584 35.1709C9.94893 30.2309 6.86362 24.8628 4.45601 19.1737C4.33117 18.8527 3.86749 19.1202 3.99233 19.4412Z" fill="#F9CA47"/>
<path d="M8.10889 19.6735C10.2312 24.9702 12.9419 29.9816 16.2234 34.6363C16.4196 34.9217 16.8833 34.6542 16.6871 34.3688C13.4235 29.7498 10.7127 24.7741 8.62608 19.5308C8.50124 19.2276 7.98405 19.3525 8.10889 19.6735Z" fill="#F9CA47"/>
<path d="M11.5889 19.7803C13.4615 24.2388 15.7442 28.519 18.4015 32.5674C18.5977 32.8527 19.0614 32.5852 18.8652 32.2999C16.2257 28.2872 13.9608 24.0605 12.1061 19.6376C11.9812 19.3344 11.464 19.4771 11.5889 19.7803Z" fill="#F9CA47"/>
<path d="M14.8689 20.173C16.0103 23.0086 17.4013 25.7194 19.0421 28.3053C19.2204 28.5907 19.6841 28.3232 19.5058 28.0378C17.8829 25.5054 16.5096 22.8302 15.3861 20.0481C15.2612 19.7093 14.7441 19.8519 14.8689 20.173Z" fill="#F9CA47"/>
<path d="M17.6166 19.9231C18.2765 21.4747 19.0255 22.9727 19.8815 24.4173C20.0599 24.7205 20.5236 24.453 20.3452 24.1498C19.4892 22.7052 18.7401 21.2072 18.0803 19.6556C17.9554 19.3346 17.4918 19.6021 17.6166 19.9231Z" fill="#F9CA47"/>
<path d="M19.791 19.4946C20.0407 20.0832 20.326 20.6539 20.6827 21.1889C20.8789 21.4742 21.3426 21.2067 21.1464 20.9214C20.8254 20.422 20.54 19.9048 20.3082 19.352C20.1655 19.031 19.6483 19.1736 19.791 19.4946Z" fill="#F9CA47"/>
<path d="M11.0549 19.3345C10.7874 17.5689 10.7161 15.7855 10.8053 13.9843C10.6983 14.0734 10.5734 14.1626 10.4664 14.234C10.8409 14.3766 11.5365 14.8046 11.9466 14.6085C12.3033 14.4301 12.232 13.8951 12.2498 13.5563C12.3212 12.5754 12.4282 11.7015 12.9454 10.8455C13.3912 10.1143 13.9797 9.47224 14.5148 8.79455C16.6549 6.11942 18.6166 3.30163 20.4179 0.376828C20.2574 0.376828 20.1147 0.376828 19.9542 0.376828C20.8459 1.9284 21.1491 3.99716 21.3452 5.76274C21.5414 7.51049 21.4701 9.27607 20.9886 10.9703C20.5427 12.5397 19.8115 14.0021 18.9376 15.3753C18.0638 16.7129 17.0294 18.211 15.7632 19.2097C15.4956 19.4237 15.8702 19.7982 16.1377 19.5842C17.4752 18.532 18.581 16.9447 19.4905 15.518C20.4179 14.0735 21.1669 12.504 21.5949 10.8455C22.0586 9.07989 22.0943 7.24298 21.8624 5.44173C21.6306 3.67615 21.3274 1.67873 20.4357 0.127156C20.3287 -0.0511853 20.079 -0.0333511 19.972 0.127156C18.2599 2.90928 16.4052 5.60223 14.3721 8.17035C13.5696 9.1869 12.553 10.1856 12.0893 11.4162C11.8753 11.969 11.804 12.5397 11.7683 13.1282C11.7505 13.2887 11.8218 14.0199 11.6791 14.1091C11.5721 14.1805 10.7696 13.7881 10.6269 13.7346C10.4486 13.6811 10.3059 13.8238 10.2881 13.9843C10.1811 15.8212 10.2881 17.6403 10.5556 19.4594C10.5913 19.816 11.1084 19.6734 11.0549 19.3345Z" fill="#F9CA47"/>
<path d="M0.120333 1.98216C0.637523 5.22798 1.44006 8.43813 2.52794 11.5413C3.50882 14.3234 4.65021 16.945 6.6298 19.1564C6.86164 19.4061 7.23616 19.0316 7.00431 18.7819C4.93555 16.4813 3.79417 13.6635 2.81329 10.7566C1.83241 7.8496 1.10121 4.85347 0.619687 1.82166C0.584019 1.50065 0.0668306 1.64331 0.120333 1.98216Z" fill="#F9CA47"/>
<path d="M0.175137 1.64339C1.22735 2.62426 2.52924 3.15928 3.93814 3.35546C4.45533 3.4268 6.04257 3.24846 6.25658 3.78348C6.36359 4.05099 6.14958 4.78219 6.11391 5.08537C6.06041 5.6204 6.00691 6.17325 5.93557 6.70828C5.91773 6.90445 6.11391 6.99363 6.27442 6.95796C6.89861 6.86879 7.52281 6.77962 8.147 6.69045C8.96737 6.58344 9.34189 7.15413 9.91258 7.67132C10.8935 8.58086 11.8565 9.50823 12.8374 10.4178C13.0871 10.6496 13.4616 10.2751 13.2119 10.0433C11.9635 8.86621 10.7508 7.52865 9.39539 6.4586C8.52152 5.76307 7.16613 6.29809 6.13175 6.44076C6.23875 6.52993 6.36359 6.61911 6.47059 6.69045C6.5776 5.7274 6.89861 4.55034 6.7916 3.5873C6.7381 3.12361 6.41709 2.98094 5.98907 2.94528C3.97381 2.78477 2.11906 2.7491 0.531819 1.26886C0.299976 1.01918 -0.0923757 1.39371 0.175137 1.64339Z" fill="#F9CA47"/>
<path d="M0.210641 1.35778C0.513822 7.95642 3.52779 13.9309 6.86277 19.4951C7.04112 19.7983 7.5048 19.5129 7.32646 19.2276C4.04498 13.7347 1.04885 7.86724 0.745665 1.35778C0.727831 1.0011 0.192807 1.0011 0.210641 1.35778Z" fill="#F9CA47"/>
<path d="M4.02484 18.8526C4.86304 18.8882 5.68341 18.8704 6.52162 18.7812C6.86047 18.7456 6.86047 18.2105 6.52162 18.2462C5.68341 18.3354 4.86304 18.3532 4.02484 18.3176C3.66815 18.2997 3.66815 18.8347 4.02484 18.8526Z" fill="#F9CA47"/>
<path d="M4.6704 19.0853C5.38376 19.0674 6.07929 19.1923 6.73916 19.4598C7.06017 19.5846 7.32768 19.1388 7.00667 18.9961C6.25764 18.6751 5.49077 18.5146 4.6704 18.5324C4.33155 18.5681 4.33155 19.1031 4.6704 19.0853Z" fill="#F9CA47"/>
<path d="M15.7939 19.8158C17.5595 19.0846 19.3964 18.7992 21.3047 18.9954C21.6435 19.0311 21.6435 18.496 21.3047 18.4604C19.3607 18.282 17.4525 18.5495 15.6512 19.3164C15.3481 19.4234 15.4729 19.9406 15.7939 19.8158Z" fill="#F9CA47"/>
<path d="M16.9752 19.602C18.0809 19.1562 19.2936 19.3702 20.435 19.174C20.7739 19.1205 20.6312 18.6033 20.2923 18.6568C19.1331 18.853 17.9382 18.6212 16.8325 19.0849C16.5293 19.2275 16.672 19.7447 16.9752 19.602Z" fill="#F9CA47"/>
<path d="M17.1174 18.8531C18.4728 18.9958 19.8282 19.0136 21.2014 18.9066C21.5403 18.8888 21.5403 18.3538 21.2014 18.3716C19.8282 18.4608 18.4728 18.443 17.1174 18.3181C16.7786 18.2824 16.7786 18.8175 17.1174 18.8531Z" fill="#F9CA47"/>
<path d="M20.1493 1.69643C18.8474 8.13456 13.7825 13.0211 12.4093 19.4414C12.3558 19.6911 12.7481 19.7981 12.8016 19.5484C14.1749 13.1281 19.2398 8.24156 20.5417 1.80343C20.5952 1.55375 20.2028 1.44675 20.1493 1.69643Z" fill="#F9CA47"/>
<path d="M0.0861801 1.26798C0.532034 5.61951 1.76259 9.81053 3.76001 13.6984C3.88485 13.9302 4.2237 13.734 4.09886 13.5022C2.15494 9.6857 0.924388 5.54817 0.496369 1.26798C0.4607 1.0183 0.0505118 1.00047 0.0861801 1.26798Z" fill="#F9CA47"/>
<path d="M0.424673 1.39398C1.83357 2.4997 3.43864 3.21307 5.22206 3.48058C5.47173 3.51625 5.57874 3.1239 5.32906 3.08823C3.63482 2.83855 2.06541 2.17869 0.710015 1.10864C0.496005 0.948136 0.210663 1.23348 0.424673 1.39398Z" fill="#F9CA47"/>
<path d="M13.9578 9.13327C14.4394 10.7027 14.6534 12.2899 14.582 13.9128C14.5642 14.1625 14.9744 14.1625 14.9922 13.9128C15.0457 12.2364 14.8317 10.6135 14.3502 9.02626C14.2789 8.77658 13.8865 8.88359 13.9578 9.13327Z" fill="#F9CA47"/>
<path d="M19.986 0.787196C20.2 1.50056 20.1465 2.23177 19.8077 2.90946C19.6828 3.14131 20.0395 3.33748 20.1465 3.10563C20.5389 2.33877 20.6102 1.50057 20.3605 0.680196C20.307 0.430518 19.9147 0.537518 19.986 0.787196Z" fill="#F9CA47"/>
<path d="M16.7245 10.4708C18.5257 9.09754 20.3269 7.72432 21.7537 5.92307C21.9142 5.72689 21.6288 5.44154 21.4683 5.63771C20.0773 7.40329 18.3117 8.77653 16.5283 10.1141C16.3321 10.2746 16.5283 10.6313 16.7245 10.4708Z" fill="#F9CA47"/>
<path d="M0.530069 2.08903C2.02814 4.78199 3.66888 7.36794 5.47013 9.86472C7.16437 12.2188 9.3223 14.4124 10.2497 17.1945C10.3388 17.4442 10.7134 17.3372 10.642 17.0875C9.71465 14.3589 7.68156 12.2188 6.00515 9.91822C4.13257 7.3501 2.42049 4.65715 0.868922 1.87502C0.761917 1.66101 0.40523 1.87502 0.530069 2.08903Z" fill="#F9CA47"/>
<path d="M4.32961 3.21296C4.2226 5.03205 4.38311 6.8333 4.7933 8.59888C4.8468 8.84855 5.23915 8.74154 5.18565 8.49186C4.77546 6.74412 4.63279 4.99638 4.73979 3.21296C4.75763 2.94545 4.34744 2.94545 4.32961 3.21296Z" fill="#F9CA47"/>
<path d="M9.73364 7.72457C9.19862 9.77549 8.8776 11.8443 8.75276 13.9487C8.73493 14.1984 9.14512 14.1984 9.16295 13.9487C9.28779 11.8799 9.6088 9.82899 10.126 7.83157C10.1973 7.58189 9.80498 7.47489 9.73364 7.72457Z" fill="#F9CA47"/>
<path d="M4.45503 15.1429C5.15056 15.6244 6.27411 15.7314 7.09448 15.8384C7.96836 15.9633 8.80656 15.9454 9.64476 15.7492C9.89444 15.6957 9.78744 15.3034 9.53776 15.3569C8.62822 15.5531 7.77218 15.5352 6.86264 15.3926C6.18494 15.2856 5.20406 15.1786 4.6512 14.7862C4.43719 14.6614 4.24102 15.0002 4.45503 15.1429Z" fill="#F9CA47"/>
</svg>
