<svg width="30" height="41" viewBox="0 0 30 41" fill="none" xmlns="http://www.w3.org/2000/svg">
<path d="M3.28417 34.6914C2.49116 34.6412 2.94892 27.9505 3.05507 27.3546C3.44133 25.0039 4.24583 22.7415 5.4172 20.641C5.23991 20.5845 5.06261 20.528 4.86 20.4635C5.00228 21.7681 5.55838 22.9123 6.54639 24.0142C6.79827 24.2744 7.20044 23.9752 6.94856 23.7151C6.06116 22.7352 5.56156 21.6765 5.4244 20.5308C5.40696 20.3229 4.99591 20.1244 4.8672 20.3533C3.44492 22.8912 2.56029 25.6678 2.2777 28.5687C2.1263 30.0947 2.13987 31.6283 2.33723 33.1979C2.39674 33.7116 2.29671 35.1639 3.28651 35.2094C3.68011 35.1999 3.67126 34.7023 3.28417 34.6914Z" fill="#96A8FF"/>
<path d="M7.12998 23.6821C7.2955 21.1486 8.97992 19.1891 10.8721 17.4531C12.566 15.9013 14.3859 14.4796 16.2311 13.066C19.8131 10.3167 23.471 7.59155 26.4791 4.36701C26.3018 4.31052 26.1245 4.25403 25.9219 4.18948C26.2655 8.1895 26.0701 12.1302 25.2662 15.967C24.8646 17.8406 24.3045 19.6861 23.6749 21.487C23.3634 22.3773 23.146 23.4099 22.6383 24.2152C22.0533 25.1758 20.89 25.4123 19.6825 25.6123C19.4474 25.6498 19.4141 25.8417 19.5589 26.0002C19.8231 26.3093 20.0887 26.4389 20.5128 26.5965C20.7407 26.6691 21.0641 26.7047 21.2791 26.8181C22.3472 27.4058 21.9422 28.0639 21.6841 28.6113C21.0711 29.9228 20.306 31.1857 19.4273 32.3676C17.696 34.6495 15.5037 36.6272 12.927 38.2351C12.6464 38.4155 13.056 38.7934 13.3367 38.613C16.4045 36.6893 18.9367 34.2577 20.7865 31.4288C21.2103 30.7992 21.5899 30.133 21.9188 29.4507C22.2088 28.8909 22.6709 28.2286 22.6063 27.5558C22.4582 26.1818 20.7349 26.5998 19.9611 25.7011C19.9221 25.8236 19.8765 25.9665 19.8375 26.089C21.5218 25.7935 22.8262 25.377 23.3893 23.9597C24.2502 21.7827 24.9911 19.545 25.5416 17.2916C26.5834 13.0584 26.8966 8.66042 26.4992 4.21601C26.4695 3.95916 26.1084 3.86661 25.9421 4.0385C22.6202 7.6353 18.4464 10.5784 14.4811 13.6554C11.1032 16.2898 6.8086 19.2619 6.51494 23.5986C6.51868 23.9371 7.1149 23.9921 7.12998 23.6821Z" fill="#96A8FF"/>
</svg>
