<svg width="30" height="27" viewBox="0 0 30 27" fill="none" xmlns="http://www.w3.org/2000/svg">
<g clip-path="url(#clip0_614_9636)">
<path d="M4.0509 6.6972C4.83423 6.21616 6.01506 6.30841 6.7184 6.81874L5.91173 5.78857C5.26256 4.97513 5.49506 4.09505 6.42173 3.52396C7.3484 2.95506 9.97423 4.48457 9.97423 4.48457C9.31923 3.66307 9.44173 2.62192 10.3767 2.0457C11.3117 1.47167 12.6017 1.67009 13.2567 2.49305L21.9401 13.2707L20.8334 22.6974L11.5976 19.738L3.54173 9.2437C2.8809 8.41708 3.10923 7.27708 4.0509 6.6972Z" fill="#05091A"/>
<path d="M2.24589 12.693C2.24589 12.693 1.30255 11.4849 2.67839 10.6568C4.05255 9.8287 4.99505 11.0361 4.99505 11.0361L9.37089 16.643C9.52172 16.4219 9.68672 16.2037 9.87089 15.9885L3.79755 8.20767C3.79755 8.20767 2.85505 7.00031 4.23005 6.17223C5.60422 5.34414 6.54672 6.55149 6.54672 6.55149L12.2592 13.871C12.4717 13.7187 12.6892 13.5657 12.9134 13.4156L6.29089 4.92899C6.29089 4.92899 5.34839 3.72164 6.72339 2.89355C8.09755 2.06546 9.04005 3.27282 9.04005 3.27282L15.6626 11.758C15.9059 11.6269 16.1467 11.5134 16.3884 11.3934L10.1984 3.46245C10.1984 3.46245 9.25589 2.25509 10.6301 1.427C12.0042 0.598916 12.9467 1.80627 12.9467 1.80627L19.4917 10.1926L20.4867 11.468C16.3634 13.953 15.9709 18.628 18.3267 21.6467C18.7976 22.2508 19.4851 21.8371 19.4851 21.8371C16.6576 18.2136 17.5209 14.1419 21.6451 11.6577L20.4292 6.31134C20.4292 6.31134 19.9751 4.90264 21.5776 4.50287C23.1809 4.10383 23.6359 5.51254 23.6359 5.51254L25.0401 9.17634C25.5967 10.629 26.1892 12.0765 26.9734 13.4456C29.1876 17.3115 27.8651 22.1161 23.6901 24.6325C19.1359 27.376 12.9101 26.3561 9.78672 22.3555L2.24589 12.693Z" fill="#394B42"/>
<path d="M9.99992 23.4603C6.66659 23.4603 3.29826 20.5009 3.29826 17.5722C3.29826 17.1673 2.96076 16.84 2.49993 16.84C2.03909 16.84 1.63159 17.1673 1.63159 17.5722C1.63159 21.9652 4.99992 24.9247 9.99992 24.9247C10.4608 24.9247 10.8333 24.5667 10.8333 24.1618C10.8333 23.7569 10.4608 23.4603 9.99992 23.4603Z" fill="#394B42"/>
<path d="M5.83333 24.8939C3.33333 24.8939 1.66667 23.4296 1.66667 21.2331C1.66667 20.8282 1.29417 20.5009 0.833333 20.5009C0.3725 20.5009 0 20.8282 0 21.2331C0 24.1618 2.5 26.3583 5.83333 26.3583C6.29417 26.3583 6.66667 26.031 6.66667 25.6261C6.66667 25.2212 6.29417 24.8939 5.83333 24.8939ZM20 1.46436C19.54 1.46436 19.1667 1.79237 19.1667 2.19653C19.1667 2.60069 19.54 2.9287 20 2.9287C23.3333 2.9287 26.6667 5.55648 26.6667 8.7861C26.6667 9.19026 27.04 9.51827 27.5 9.51827C27.96 9.51827 28.3333 9.19026 28.3333 8.7861C28.3333 4.74889 25 1.46436 20 1.46436Z" fill="#394B42"/>
<path d="M24.1666 0.0307617C23.7066 0.0307617 23.3333 0.328024 23.3333 0.732185C23.3333 1.13634 23.7066 1.49511 24.1666 1.49511C26.6666 1.49511 28.2983 3.1242 28.2983 5.12523C28.2983 5.52939 28.7058 5.8574 29.1666 5.8574C29.6274 5.8574 29.9649 5.52939 29.9649 5.12523C29.9649 2.31588 27.4999 0.0307617 24.1666 0.0307617Z" fill="#394B42"/>
</g>
<g clip-path="url(#clip1_614_9636)">
<path d="M4.0509 6.6972C4.83423 6.21616 6.01506 6.30841 6.7184 6.81874L5.91173 5.78857C5.26256 4.97513 5.49506 4.09505 6.42173 3.52396C7.3484 2.95506 9.97423 4.48457 9.97423 4.48457C9.31923 3.66307 9.44173 2.62192 10.3767 2.0457C11.3117 1.47167 12.6017 1.67009 13.2567 2.49305L21.9401 13.2707L20.8334 22.6974L11.5976 19.738L3.54173 9.2437C2.8809 8.41708 3.10923 7.27708 4.0509 6.6972Z" fill="#FFE9AA"/>
<path d="M2.24589 12.693C2.24589 12.693 1.30255 11.4849 2.67839 10.6568C4.05255 9.8287 4.99505 11.0361 4.99505 11.0361L9.37089 16.643C9.52172 16.4219 9.68672 16.2037 9.87089 15.9885L3.79755 8.20767C3.79755 8.20767 2.85505 7.00031 4.23005 6.17223C5.60422 5.34414 6.54672 6.55149 6.54672 6.55149L12.2592 13.871C12.4717 13.7187 12.6892 13.5657 12.9134 13.4156L6.29089 4.92899C6.29089 4.92899 5.34839 3.72164 6.72339 2.89355C8.09755 2.06546 9.04005 3.27282 9.04005 3.27282L15.6626 11.758C15.9059 11.6269 16.1467 11.5134 16.3884 11.3934L10.1984 3.46245C10.1984 3.46245 9.25589 2.25509 10.6301 1.427C12.0042 0.598916 12.9467 1.80627 12.9467 1.80627L19.4917 10.1926L20.4867 11.468C16.3634 13.953 15.9709 18.628 18.3267 21.6467C18.7976 22.2508 19.4851 21.8371 19.4851 21.8371C16.6576 18.2136 17.5209 14.1419 21.6451 11.6577L20.4292 6.31134C20.4292 6.31134 19.9751 4.90264 21.5776 4.50287C23.1809 4.10383 23.6359 5.51254 23.6359 5.51254L25.0401 9.17634C25.5967 10.629 26.1892 12.0765 26.9734 13.4456C29.1876 17.3115 27.8651 22.1161 23.6901 24.6325C19.1359 27.376 12.9101 26.3561 9.78672 22.3555L2.24589 12.693Z" fill="#F6D169"/>
<path d="M9.99992 23.4603C6.66659 23.4603 3.29826 20.5009 3.29826 17.5722C3.29826 17.1673 2.96076 16.84 2.49993 16.84C2.03909 16.84 1.63159 17.1673 1.63159 17.5722C1.63159 21.9652 4.99992 24.9247 9.99992 24.9247C10.4608 24.9247 10.8333 24.5667 10.8333 24.1618C10.8333 23.7569 10.4608 23.4603 9.99992 23.4603Z" fill="#394B42"/>
<path d="M5.83333 24.8939C3.33333 24.8939 1.66667 23.4296 1.66667 21.2331C1.66667 20.8282 1.29417 20.5009 0.833333 20.5009C0.3725 20.5009 0 20.8282 0 21.2331C0 24.1618 2.5 26.3583 5.83333 26.3583C6.29417 26.3583 6.66667 26.031 6.66667 25.6261C6.66667 25.2212 6.29417 24.8939 5.83333 24.8939ZM20 1.46436C19.54 1.46436 19.1667 1.79237 19.1667 2.19653C19.1667 2.60069 19.54 2.9287 20 2.9287C23.3333 2.9287 26.6667 5.55648 26.6667 8.7861C26.6667 9.19026 27.04 9.51827 27.5 9.51827C27.96 9.51827 28.3333 9.19026 28.3333 8.7861C28.3333 4.74889 25 1.46436 20 1.46436Z" fill="#394B42"/>
<path d="M24.1666 0.0307617C23.7066 0.0307617 23.3333 0.328024 23.3333 0.732185C23.3333 1.13634 23.7066 1.49511 24.1666 1.49511C26.6666 1.49511 28.2983 3.1242 28.2983 5.12523C28.2983 5.52939 28.7058 5.8574 29.1666 5.8574C29.6274 5.8574 29.9649 5.52939 29.9649 5.12523C29.9649 2.31588 27.4999 0.0307617 24.1666 0.0307617Z" fill="#394B42"/>
</g>
<defs>
<clipPath id="clip0_614_9636">
<rect width="30" height="26.3583" fill="white"/>
</clipPath>
<clipPath id="clip1_614_9636">
<rect width="30" height="26.3583" fill="white"/>
</clipPath>
</defs>
</svg>
