<svg width="81" height="86" viewBox="0 0 81 86" fill="none" xmlns="http://www.w3.org/2000/svg">
<ellipse cx="40.5" cy="40.64" rx="40.5" ry="40.64" fill="#96A8FF" fill-opacity="0.52"/>
<ellipse cx="40.501" cy="45.9081" rx="36" ry="36.1244" fill="#96A8FF"/>
<ellipse cx="39.75" cy="52.6814" rx="28.5" ry="28.5985" fill="#D7DEFF" fill-opacity="0.66"/>
<path d="M8.19569 82.5346C7.05221 80.6918 20.818 78.7872 26.3387 78.2065L54.8596 77.9672C62.1139 77.9425 80.2657 81.3952 68.9395 83.6771C57.9097 85.8993 9.62504 84.838 8.19569 82.5346Z" fill="#96A8FF"/>
<path d="M31.2858 51.0832C31.1404 51.1459 30.9349 51.242 30.6995 51.377C28.3595 52.7233 27.6009 55.3711 27.3655 56.1931C26.5757 58.9496 27.1448 61.4598 27.2009 61.4598C27.2258 61.4598 27.236 60.9636 27.2832 60.9636C27.3362 60.963 27.3451 61.5814 27.4663 62.3425C27.6284 63.3598 27.9276 64.2413 27.9977 64.2266C28.0526 64.2157 27.976 63.6511 28.0067 63.6472C28.029 63.6447 28.0819 63.95 28.126 64.1805C28.126 64.1805 28.2064 64.5998 28.4284 65.4461C28.7346 66.6131 29.3183 67.6477 29.4051 67.615C29.4466 67.5996 29.363 67.3429 29.4172 67.3212C29.4938 67.2904 29.7368 67.7642 29.9946 68.2065C30.6255 69.291 31.2022 69.9491 31.1353 70.0112C31.104 70.0406 30.8967 69.8543 30.8833 69.8703C30.8654 69.8908 31.2112 70.2083 31.5793 70.5688C32.0807 71.0598 32.429 71.4394 32.4539 71.417C32.4718 71.401 32.3129 71.1897 32.3238 71.182C32.334 71.1744 32.475 71.3626 32.4954 71.3491C32.5094 71.3395 32.4469 71.2429 32.4584 71.2307C32.5133 71.1731 34.2473 72.9476 35.2916 73.6941C37.9513 75.5941 42.5108 75.37 45.4053 73.4643C48.0197 71.7435 49.5967 68.4325 49.7333 68.5497C49.7741 68.5849 49.6235 68.8659 49.658 68.8883C49.7128 68.9235 50.1945 68.2084 50.643 67.3577C51.0711 66.5466 51.3843 65.7745 51.4405 65.8014C51.4666 65.8136 51.42 65.9935 51.4373 65.9986C51.4673 66.0075 51.6083 65.4563 51.6491 65.4666C51.6835 65.4749 51.598 65.8673 51.6357 65.8801C51.7333 65.9147 52.6462 63.3892 52.5811 61.9591C52.578 61.8835 52.5588 61.527 52.576 61.5251C52.6041 61.5219 52.7024 62.2773 52.6877 62.2805C52.6602 62.2862 52.7107 61.7376 52.7094 61.6473C52.6386 56.6668 49.9699 53.6561 49.9699 53.6561C49.7626 53.4224 49.4066 53.0434 48.9033 52.6228C48.0848 51.6235 47.2796 51.1146 46.761 50.8457C42.6199 48.6999 35.2935 50.7618 33.6935 50.7081C33.6705 50.7074 33.6342 50.7061 33.5863 50.7049C32.7448 50.6837 32.3244 50.6709 31.9384 50.7919C31.8198 50.8303 31.6418 50.9148 31.2858 51.0832Z" fill="#FDCB98"/>
<path d="M34.2133 74.7618C35.763 74.5864 37.814 74.4199 37.8102 74.3674C37.8096 74.3553 37.696 74.3482 37.6966 74.3348C37.6979 74.3117 38.0284 74.3168 38.029 74.3021C38.0297 74.2855 37.5927 74.2676 37.5927 74.2483C37.5927 74.2029 40.022 74.1568 40.0214 74.1094C40.0214 74.0998 39.9263 74.0896 39.9276 74.0768C39.9289 74.0614 40.0718 74.0653 40.0724 74.0537C40.0724 74.0473 40.0278 74.0429 39.9614 74.0256C39.9008 74.0096 39.8287 73.9852 39.83 73.9776C39.8332 73.9622 40.1401 74.0217 40.1445 74.0006C40.1471 73.9884 40.0476 73.959 40.0514 73.9449C40.0539 73.9353 40.1037 73.9398 40.1069 73.9404C40.2708 73.9551 42.0846 73.6223 42.7238 73.5301C43.8741 73.3643 44.6715 73.4974 44.6735 73.4436C44.6747 73.4078 44.3155 73.331 43.936 73.3444C43.6731 73.354 43.5136 73.4027 43.5053 73.3758C43.4913 73.3303 43.9372 73.1658 44.4387 72.9392C44.4387 72.9392 44.7902 72.7804 45.5277 72.3848C46.2352 72.0058 47.6145 71.0872 49.3127 69.7659C49.8231 69.5764 52.6232 68.538 54.9396 70.1C55.2752 70.326 56.6921 71.3432 57.0494 73.2202C57.4596 75.3738 56.1658 77.0325 55.8519 77.4076C54.6334 78.8633 52.7112 79.4593 52.7182 79.4734C52.7188 79.4747 53.0748 79.2999 53.064 79.2756C53.0461 79.2359 52.086 79.6207 52.0771 79.5976C52.0745 79.5912 52.1562 79.5592 52.2685 79.4741C52.3476 79.4133 52.4299 79.3351 52.4228 79.3255C52.4062 79.3031 51.9463 79.6251 51.9335 79.6072C51.9259 79.5963 52.1013 79.4715 52.0892 79.4523C52.0751 79.4293 51.8117 79.6444 51.4206 79.7737C50.9683 79.9235 50.7105 79.8383 50.2454 79.9952C50.2218 80.0029 50.1211 80.0374 50.1153 80.0246C50.1026 79.9971 50.53 79.7788 50.5223 79.7647C50.5147 79.75 50.0675 79.9734 50.047 79.9382C50.0336 79.9151 50.2321 79.7865 50.2225 79.7711C50.211 79.7525 49.9233 79.9145 49.9233 79.9145C49.1711 80.337 47.2126 80.3998 47.2081 80.3421C47.2062 80.3178 47.55 80.2788 47.5481 80.2602C47.5449 80.2365 46.9752 80.296 46.8062 80.3127C45.0894 80.483 43.298 80.3357 43.2974 80.2788C43.2974 80.2647 43.4039 80.2685 43.5844 80.1949C43.7663 80.1206 43.9181 80.0112 43.9085 79.9907C43.8913 79.9555 43.4039 80.1693 43.3905 80.1392C43.3796 80.1155 43.6878 79.99 43.6725 79.9254C43.6527 79.8409 43.0983 79.9196 42.5292 79.9721C41.2744 80.088 40.2944 80.0464 40.2925 80.0157C40.2919 80.0086 40.3416 80.0048 40.4705 79.9619C40.5503 79.935 40.6587 79.8934 40.6568 79.8857C40.6511 79.8659 39.8849 80.0918 39.8734 80.056C39.867 80.0374 40.0737 79.9587 40.068 79.9414C40.0616 79.9228 39.8179 79.9939 39.8179 79.9939C39.5512 80.072 37.978 79.8703 33.6538 79.0477C30.7549 78.4831 28.7811 77.7674 28.6968 77.4268C28.642 77.2066 28.6758 76.9563 28.8155 76.6714C28.8257 76.6509 28.8359 76.6304 28.8461 76.6099C29.5377 75.2771 34.2133 74.7618 34.2133 74.7618Z" fill="#9A582C"/>
<path d="M29.4035 77.9552C29.4035 77.9552 28.6852 78.08 28.3445 77.8445C28.0038 77.6089 27.4717 77.2433 27.4826 77.1057C27.4934 76.9687 28.0408 77.3759 28.4153 77.3931C28.7898 77.4111 29.3531 77.2485 29.5866 77.4405C29.8201 77.6326 29.4035 77.9552 29.4035 77.9552Z" fill="#9A582C"/>
<path d="M29.4523 77.3175C29.4523 77.3175 28.734 77.4423 28.3933 77.2067C28.0526 76.9712 27.5206 76.6056 27.5314 76.468C27.5423 76.3303 28.0896 76.7381 28.4641 76.7554C28.8386 76.7733 29.4019 76.6107 29.6354 76.8028C29.8689 76.9948 29.4523 77.3175 29.4523 77.3175Z" fill="#9A582C"/>
<path d="M29.5002 76.7139C29.5002 76.7139 28.7818 76.8387 28.4412 76.6031C28.1005 76.3676 27.5684 76.002 27.5793 75.8644C27.5901 75.7274 28.1375 76.1345 28.512 76.1518C28.8865 76.1691 29.4498 76.0071 29.6833 76.1992C29.9168 76.3919 29.5002 76.7139 29.5002 76.7139Z" fill="#9A582C"/>
<path d="M40.9226 75.1196C40.9506 75.0133 39.6377 74.6337 39.669 74.4903C39.6881 74.4007 40.2131 74.5031 41.158 74.5166C42.2731 74.5319 42.5896 74.4033 43.3781 74.5556C43.5542 74.5896 43.9095 74.6677 44.2661 74.8111C45.6467 75.3654 46.8365 76.8065 46.5781 77.2386C46.3568 77.6086 45.2371 76.9672 42.6655 76.5069C39.6052 75.9589 37.5936 76.2226 37.5458 75.8251C37.5152 75.5741 38.2916 75.2381 38.8721 75.1055C39.9675 74.8565 40.8983 75.2099 40.9226 75.1196Z" fill="#774420"/>
<path d="M37.0955 80.2567C38.0856 80.7554 40.0187 79.2132 40.7077 79.0756C41.0184 79.0135 41.2742 78.9725 41.4618 78.9437C41.8248 78.888 46.6427 78.1512 46.813 78.8413C46.9164 79.2593 45.3227 80.2183 43.8465 80.6165C42.5495 80.966 41.1575 80.9327 41.1536 80.8962C41.1536 80.8943 41.1574 80.893 41.257 80.8572C41.4803 80.7771 41.5249 80.7618 41.5236 80.7586C41.5204 80.7471 40.723 80.9807 40.709 80.9385C40.7019 80.9173 40.9035 80.836 40.8965 80.8175C40.8908 80.8015 40.7479 80.8546 40.5992 80.8828C40.3842 80.9237 40.3281 80.8808 39.8139 80.8392C39.4822 80.8124 39.4069 80.822 39.3067 80.7483C39.1619 80.6414 39.1262 80.4788 39.1013 80.4078C38.8659 79.7433 36.841 79.4994 36.7306 79.8246C36.6917 79.9404 36.8856 80.1511 37.0955 80.2567Z" fill="#774420"/>
<path d="M42.8958 74.7613C42.9041 74.7345 43.0164 74.7389 43.0157 74.7268C43.0144 74.7024 42.6642 74.7076 42.6636 74.6922C42.6629 74.6743 43.1254 74.6557 43.1254 74.6352C43.1254 74.5872 40.5544 74.5386 40.5544 74.488C40.5544 74.4777 40.6552 74.4669 40.654 74.4534C40.6527 74.4374 40.5009 74.4413 40.5002 74.4291C40.4996 74.422 40.5474 74.4176 40.6176 74.3996C40.682 74.383 40.758 74.3567 40.7567 74.3491C40.7535 74.3331 40.4288 74.3958 40.4236 74.3734C40.4211 74.3606 40.5264 74.3292 40.5225 74.3145C40.52 74.3043 40.467 74.3094 40.4638 74.3094C40.2903 74.3254 38.3707 73.9726 37.6944 73.8753C36.4772 73.6999 35.6332 73.8408 35.6306 73.7838C35.6287 73.7454 36.0096 73.6647 36.4108 73.6788C36.689 73.6891 36.858 73.7403 36.867 73.7115C36.8823 73.6634 36.4096 73.4893 35.8788 73.2493C35.8788 73.2493 35.5068 73.0809 34.726 72.6629C33.977 72.2615 32.5167 71.289 30.7195 69.8909C30.1792 69.6905 27.2158 68.5914 24.7641 70.2449C24.4094 70.4844 22.9095 71.5605 22.5306 73.5476C22.0961 75.8266 23.4659 77.5826 23.7982 77.9795C25.0882 79.5204 27.1227 80.1509 27.115 80.1657C27.1144 80.1676 26.738 79.9819 26.7495 79.9557C26.768 79.9134 27.7849 80.3206 27.7945 80.2963C27.797 80.2892 27.7109 80.2559 27.5922 80.165C27.508 80.101 27.4212 80.0184 27.4289 80.0075C27.4461 79.9839 27.9335 80.3244 27.9463 80.3059C27.9546 80.2943 27.7689 80.1625 27.7811 80.142C27.7957 80.1177 28.0745 80.3456 28.4892 80.4826C28.9677 80.6413 29.2407 80.5504 29.7332 80.7169C29.7581 80.7252 29.8647 80.7617 29.871 80.7482C29.8844 80.7188 29.4321 80.4883 29.4398 80.473C29.4474 80.4576 29.9214 80.6938 29.9425 80.6567C29.9565 80.6324 29.7466 80.496 29.7562 80.48C29.7683 80.4608 30.0726 80.6317 30.0726 80.6317C30.8688 81.0792 32.9416 81.1451 32.9467 81.0843C32.9486 81.0587 32.5843 81.0171 32.5869 80.9973C32.5901 80.9723 33.1929 81.035 33.3722 81.053C35.1891 81.2335 37.0858 81.0773 37.0865 81.0171C37.0865 81.0024 36.9735 81.0062 36.7828 80.9288C36.5901 80.8507 36.4293 80.7341 36.4402 80.7124C36.458 80.6752 36.9748 80.9012 36.9888 80.8699C37.0003 80.8449 36.6737 80.7124 36.6903 80.6439C36.7113 80.5549 37.2983 80.6375 37.8999 80.6932C39.2281 80.8154 40.2654 80.7719 40.2673 80.7393C40.268 80.7316 40.215 80.7277 40.0792 80.6823C39.9943 80.6535 39.8795 80.61 39.882 80.6016C39.8884 80.5811 40.6992 80.8199 40.7114 80.7815C40.7178 80.7617 40.4989 80.6785 40.5059 80.6605C40.513 80.6407 40.7707 80.7162 40.7707 80.7162C41.4846 80.7758 42.6125 80.7783 43.8897 80.3577C44.8403 80.0447 45.5759 79.8027 45.9363 79.1171C46.4888 78.0646 45.8815 76.4898 44.957 75.7357C44.1494 75.0776 42.8677 74.8529 42.8958 74.7613Z" fill="#9A582C"/>
<path d="M45.7223 76.5579C45.9546 76.467 46.2117 76.5521 46.7163 76.7256C47.6254 77.038 48.0803 77.1942 48.2481 77.5642C48.4382 77.9835 48.0892 78.1288 48.0235 79.2376C48.0165 79.3522 47.9986 79.559 47.8602 79.68C47.7562 79.7702 47.6484 79.7606 47.3211 79.7914C47.0723 79.8144 47.0257 79.8304 46.9128 79.8464C46.9128 79.8464 46.8254 79.8586 46.7386 79.8663C46.0668 79.9226 45.5935 79.5724 45.5935 79.5724C45.4244 79.3625 45.0129 78.7908 45.0372 78.0085C45.0403 77.9022 45.0869 76.8056 45.7223 76.5579Z" fill="#5E351E"/>
<path d="M47.2353 79.3121C47.2353 79.3121 47.7361 79.3992 47.9741 79.2347C48.212 79.0702 48.5827 78.8154 48.575 78.7193C48.5674 78.6233 48.1859 78.9076 47.9243 78.9204C47.6627 78.9325 47.2697 78.8192 47.1071 78.953C46.9444 79.0874 47.2353 79.3121 47.2353 79.3121Z" fill="#FFDFB5"/>
<path d="M47.1813 78.6768C47.1813 78.6768 47.6821 78.7638 47.9201 78.5993C48.158 78.4348 48.5287 78.18 48.5211 78.084C48.5134 77.988 48.1319 78.2722 47.8703 78.285C47.6088 78.2972 47.2158 78.1839 47.0531 78.3176C46.891 78.4514 47.1813 78.6768 47.1813 78.6768Z" fill="#FFDFB5"/>
<path d="M47.1813 78.1074C47.1813 78.1074 47.6821 78.1944 47.9201 78.0299C48.158 77.8654 48.5287 77.6106 48.5211 77.5146C48.5134 77.4185 48.1319 77.7028 47.8703 77.7156C47.6088 77.7277 47.2158 77.6144 47.0531 77.7482C46.891 77.882 47.1813 78.1074 47.1813 78.1074Z" fill="#FFDFB5"/>
<path d="M55.8734 60.2006C56.3538 61.1135 56.7628 61.6705 56.861 61.7978C57.4294 62.5366 57.9494 62.945 58.5765 63.7248C58.5765 63.7248 59.2432 64.5346 59.8901 65.7477C60.4719 66.8386 62.0005 71.595 60.639 72.4068C59.8671 72.8671 58.1038 72.0956 57.4626 71.6558C57.3924 71.6078 56.9427 71.2942 56.9108 71.3338C56.8872 71.3639 57.1232 71.5617 57.1034 71.5912C57.0167 71.7192 52.334 68.5241 52.1745 68.7411C52.1215 68.8128 52.5956 69.2149 52.5726 69.2398C52.5362 69.2789 51.2322 68.4684 50.6153 67.1951C50.5413 67.0428 50.2938 66.5044 50.2593 66.5191C50.2389 66.5274 50.3135 66.7227 50.2861 66.7355C50.2434 66.756 49.9741 66.3143 49.7585 65.8623C49.5939 65.5172 49.407 65.1248 49.2966 64.5775C49.2398 64.2958 49.2022 63.9667 49.1811 63.9687C49.1626 63.9706 49.1843 64.2324 49.1588 64.2363C49.111 64.2427 48.9668 63.3144 48.9024 63.3215C48.8622 63.3259 48.8768 63.6934 48.8513 63.6953C48.8175 63.6972 48.7792 63.0641 48.7231 63.0641C48.6772 63.0641 48.6855 63.4828 48.6331 63.4892C48.4188 63.5141 48.0934 56.4422 48.1464 56.1272C48.1808 55.9191 48.2236 55.7175 48.2236 55.7175V55.7169C48.2752 55.4774 48.3543 55.1554 48.5062 54.7028C48.6261 54.3437 48.7658 53.9263 49.007 53.4257C49.3687 52.6754 49.5544 52.3022 49.9142 52.0531C50.3314 51.7638 50.9483 51.6038 51.4989 51.783C52.1471 51.9936 52.4807 52.6018 52.6491 52.9199C53.9608 55.3974 54.6938 57.9594 55.8734 60.2006Z" fill="#9A582C"/>
<path d="M55.5727 70.1061C56.0799 69.8039 55.345 67.6446 55.1689 67.1056C54.4346 64.8611 53.7871 64.7696 52.7395 62.3395C52.2566 61.2192 52.1079 60.5688 51.1159 58.2674C50.5436 56.9397 50.1053 56.1074 49.6339 56.1388C49.5222 56.1465 49.2224 56.215 48.8658 57.083C47.9918 59.2084 48.7758 61.5514 49.5886 63.9182C50.1092 65.4341 50.5685 66.29 51.1714 67.0396C51.7991 67.82 52.4582 68.3277 52.5794 68.4205C52.684 68.4999 52.8244 68.6029 53.8751 69.2393C55.3488 70.131 55.4687 70.1682 55.5727 70.1061Z" fill="#6B3E27"/>
<path d="M59.6564 71.9568C59.6411 72.2954 60.7378 72.7429 61.4319 72.6161C61.5116 72.6014 61.9773 72.508 61.9773 72.508C60.9981 72.264 60.9234 72.232 60.9234 72.232C60.3212 71.9766 60.1228 71.6284 59.8529 71.734C59.7649 71.7686 59.6609 71.8556 59.6564 71.9568Z" fill="#FFDFB5"/>
<path d="M60.0045 71.1957C59.9247 71.43 60.6016 71.962 61.2262 72.0497C61.3621 72.0689 61.5758 72.099 61.8201 72.0254C61.9535 71.985 62.1978 71.8839 62.1978 71.8839C62.1978 71.8839 61.8195 71.809 61.6587 71.7635C61.0201 71.5836 60.9582 71.0766 60.4555 71.0459C60.2915 71.0356 60.0459 71.0741 60.0045 71.1957Z" fill="#FFDFB5"/>
<path d="M60.406 70.4716C60.3651 70.8205 61.079 71.3359 61.7342 71.3301C61.9818 71.3275 62.4468 71.2488 62.4468 71.2488C62.4468 71.2488 62.1093 71.2027 61.8612 71.0676C61.7349 70.9991 61.7132 70.9517 61.5026 70.7507C61.0829 70.3487 60.8691 70.149 60.6701 70.1925C60.547 70.2187 60.4213 70.3391 60.406 70.4716Z" fill="#FFDFB5"/>
<path d="M25.1446 59.996C24.6138 60.9185 24.1698 61.4767 24.0639 61.6047C23.4489 62.3441 22.897 62.7449 22.2202 63.524C22.2202 63.524 21.3742 64.4766 20.7873 65.5584C19.4865 67.954 19.6064 71.667 20.9953 72.3238C21.2619 72.4499 21.6332 72.4889 23.1835 71.7803C24.1168 71.3533 24.6521 70.957 24.6986 71.0223C24.7344 71.0722 24.4313 71.3078 24.4671 71.3616C24.527 71.4525 25.5178 70.973 26.5354 70.2964C28.0882 69.2631 29.0917 68.1761 29.1925 68.2734C29.2569 68.3349 28.8876 68.8067 28.936 68.8451C29.0043 68.8982 29.7303 68.0378 29.7973 68.0903C29.8413 68.1249 29.5523 68.5192 29.5836 68.5436C29.6512 68.5967 31.0184 66.7946 31.7016 65.8939C31.7016 65.8939 32.0512 65.4336 32.0085 65.3965C31.9842 65.3754 31.8394 65.5284 31.8107 65.5053C31.7546 65.4605 32.3134 64.8767 32.5252 64.006C32.589 63.7442 32.626 63.4363 32.5999 63.4305C32.5744 63.4241 32.4933 63.7135 32.4736 63.709C32.4442 63.7013 32.6407 63.0567 32.73 62.2654C32.8123 61.5324 32.7823 60.8481 32.8366 60.8461C32.8614 60.8449 32.8857 60.9851 32.9042 60.9819C32.9316 60.9767 32.8953 60.6861 32.9157 60.6829C32.9361 60.6797 32.9763 60.9799 33.0165 60.9793C33.123 60.9787 33.1549 58.8488 33.2634 58.8469C33.3106 58.8462 33.331 59.2521 33.3648 59.2508C33.442 59.2476 33.4088 57.1671 33.2736 56.0986C33.2461 55.8835 33.2117 55.6832 33.2098 55.6729C33.1658 55.4239 33.0969 55.0891 32.9578 54.616C32.8481 54.2409 32.7205 53.8055 32.4908 53.2793C32.1297 52.4503 31.9485 52.0361 31.6091 51.8287C30.966 51.4363 30.1705 51.7058 29.9593 51.7768C29.3201 51.9932 28.9245 52.4202 28.7548 52.6148C27.2231 54.3785 26.7599 57.1901 25.1446 59.996Z" fill="#9A582C"/>
<path d="M21.7185 71.5125C21.8091 71.8505 20.8024 72.5458 20.0751 72.5726C19.9916 72.5758 19.5016 72.5848 19.501 72.5848C20.4337 72.1207 20.5019 72.072 20.5019 72.072C21.0525 71.6809 21.175 71.2846 21.4704 71.332C21.5674 71.3474 21.6918 71.412 21.7185 71.5125Z" fill="#FFDFB5"/>
<path d="M21.1961 70.823C21.3282 71.0413 20.7642 71.7282 20.1537 71.9561C20.0203 72.0054 19.8124 72.0835 19.5502 72.0636C19.4066 72.0528 19.1387 72.0047 19.1387 72.0047C19.1387 72.0047 19.5029 71.8447 19.6554 71.7628C20.2589 71.4395 20.2092 70.9145 20.7093 70.7718C20.872 70.7257 21.1272 70.7097 21.1961 70.823Z" fill="#FFDFB5"/>
<path d="M20.6326 70.1827C20.7513 70.5252 20.1458 71.2038 19.4843 71.3433C19.2342 71.3958 18.748 71.4202 18.748 71.4202C18.748 71.4202 19.0772 71.2985 19.298 71.1071C19.4103 71.0098 19.4218 70.9573 19.5889 70.7076C19.9232 70.209 20.0942 69.9599 20.3041 69.9593C20.4336 69.9599 20.5873 70.0521 20.6326 70.1827Z" fill="#FFDFB5"/>
<path d="M25.5923 70.1766C25.0692 69.8648 25.8271 67.6364 26.0089 67.0801C26.7668 64.7639 27.4348 64.6698 28.5161 62.1616C29.0144 61.0055 29.1675 60.3339 30.1914 57.9595C30.7822 56.5889 31.2345 55.7305 31.7206 55.7631C31.8355 55.7708 32.1449 55.8418 32.5136 56.7374C33.4157 58.9307 32.6068 61.3486 31.7672 63.7909C31.2294 65.3554 30.756 66.2389 30.134 67.0122C29.4858 67.8169 28.8064 68.3412 28.6814 68.4372C28.5735 68.5192 28.4281 68.6261 27.3442 69.2822C25.8239 70.2022 25.6995 70.2406 25.5923 70.1766Z" fill="#6B3E27"/>
<path d="M30.5692 51.8029C30.4799 51.8906 30.9029 52.4213 30.8493 52.4642C30.7931 52.5097 30.277 51.9386 29.514 51.2236C28.631 50.3958 28.5194 50.4073 28.492 50.4297C28.4046 50.5021 28.7523 51.0462 28.7063 51.075C28.6393 51.1173 27.9012 49.917 27.6843 50.0162C27.5574 50.0744 27.6767 50.5488 27.6186 50.5623C27.5204 50.5847 27.158 49.2531 27.075 49.2723C27.0106 49.287 27.1841 50.1065 27.0916 50.1321C27.0113 50.1545 26.7733 49.5674 26.5149 48.9247C26.2323 48.2224 26.0785 47.7717 26.0371 47.7833C25.9803 47.7993 26.2336 48.6622 26.1366 48.6974C26.0447 48.7307 25.6096 48.0361 25.3723 47.2039C25.2562 46.7961 25.2179 46.4632 25.1414 46.4652C25.0176 46.4677 24.9908 47.3448 24.8779 47.3473C24.7854 47.3492 24.7005 46.7622 24.6265 46.2366C24.3714 44.4262 24.2929 43.738 24.2259 43.7399C24.1302 43.7419 24.1238 45.1349 24.0428 45.1368C23.9707 45.1381 23.7863 44.0466 23.8284 42.9698C23.9573 39.6985 26.1666 37.045 26.002 36.9445C25.9554 36.9157 25.7959 37.1417 25.7564 37.1148C25.66 37.0495 26.3963 35.5726 27.4521 34.2897C28.1794 33.4063 28.9194 32.7834 29.4802 32.3699C29.6359 32.2943 30.0524 32.092 30.0314 32.0235C30.0186 31.9813 29.8502 32.0171 29.84 31.9794C29.8266 31.9281 30.1258 31.8238 30.1169 31.7924C30.1028 31.7431 29.3539 31.9454 29.3328 31.8833C29.3175 31.8372 29.6863 31.6753 29.7003 31.6695C30.6183 31.2675 37.0777 27.9328 39.102 27.3163C39.1932 27.2888 39.4574 27.2107 39.5039 27.2895C39.5958 27.4437 38.7556 28.0673 38.8028 28.1262C38.8462 28.1806 39.3221 27.8951 39.7393 27.5839C40.6606 26.8983 41.0459 26.2812 41.1505 26.3452C41.3336 26.4566 40.2759 28.4373 40.4398 28.5339C40.5515 28.5999 41.2098 27.7107 41.2896 27.7683C41.3432 27.8067 41.0561 28.21 41.1792 28.3509C41.2532 28.4354 41.4395 28.3822 41.5225 28.3605C42.2931 28.1594 43.1856 28.3438 43.1907 28.3995C43.1965 28.4597 42.1796 28.5365 42.1789 28.653C42.1776 28.8316 44.5509 28.5986 47.0575 29.4334C49.5066 30.249 51.2642 31.811 51.2329 31.8628C51.2138 31.8948 50.4419 31.4531 50.41 31.5069C50.3749 31.5652 51.2878 32.0664 52.262 33.0408C52.7883 33.5676 53.2419 34.1412 53.1832 34.2033C53.1354 34.2539 52.7462 33.9645 52.7328 33.9844C52.7201 34.0036 53.0709 34.2584 53.0537 34.284C53.0435 34.2993 52.9306 34.2059 52.8942 34.2276C52.7386 34.3211 54.3953 36.2922 54.8974 38.9002C55.1501 40.212 54.9504 40.8547 55.5239 42.1504C55.7587 42.6811 56.1899 43.473 56.1089 43.5229C56.0413 43.5645 55.6783 43.0588 55.6145 43.1011C55.522 43.1625 56.197 44.2905 56.0757 44.3744C56.0132 44.4179 55.7899 44.149 55.7293 44.1925C55.6298 44.2649 56.1026 45.1086 56.0834 45.1189C56.0738 45.124 55.9628 44.8833 55.7153 44.6848C55.6394 44.624 55.4971 44.5101 55.441 44.5478C55.3657 44.5991 55.5271 44.8666 55.6381 45.3173C55.6783 45.4819 55.7038 45.7987 55.7536 46.4255C55.8014 47.0285 55.8008 47.1546 55.7536 47.17C55.6304 47.209 55.3414 46.4396 55.226 46.4754C55.1175 46.5093 55.344 47.2014 55.2917 48.1456C55.2515 48.8792 55.055 49.5431 54.9619 49.5348C54.8343 49.5233 54.884 48.25 54.7807 48.2448C54.7284 48.2423 54.6792 48.5624 54.5995 48.9727C54.4145 49.9221 54.1523 50.9035 54.0719 50.8913C53.9973 50.8798 54.1102 50.0175 54.0062 49.9983C53.929 49.9842 53.8231 50.4534 53.5334 51.1173C53.2125 51.8528 52.8342 52.4412 52.7864 52.4181C52.7334 52.3931 53.062 51.6275 53.0059 51.6019C52.9829 51.5917 52.914 51.7107 52.8521 51.8003C52.6294 52.1211 52.3641 52.2491 51.9947 52.4616C51.2176 52.9098 50.8872 53.2113 50.8521 53.1671C50.7972 53.0993 51.5998 52.4053 51.5551 52.3509C51.5194 52.3074 50.9382 52.8854 50.2198 53.258C48.9235 53.9296 48.3717 53.3124 46.6632 53.7253C45.0683 54.1114 43.7215 55.0915 43.6845 55.0217C43.6737 55.0012 43.7955 54.9269 43.7802 54.8962C43.7298 54.7964 42.3218 55.4186 42.2944 55.3591C42.2848 55.3373 42.4628 55.2413 42.4526 55.2208C42.4328 55.1805 41.7413 55.5082 41.7081 55.4468C41.6858 55.4058 41.9748 55.2297 41.9512 55.1856C41.9308 55.1472 41.6934 55.2406 41.2181 55.4071C40.7984 55.5543 40.5866 55.6203 40.5763 55.5966C40.5642 55.569 40.8328 55.4461 40.8175 55.4045C40.7977 55.3501 40.3556 55.5895 39.8121 55.53C39.377 55.4826 39.021 55.2592 38.9891 55.3187C38.9712 55.3514 39.0746 55.4301 39.0625 55.4468C39.0267 55.4948 38.0998 54.8271 38.0436 54.8962C38.013 54.9333 38.2541 55.1645 38.2299 55.1913C38.1942 55.2297 37.6474 54.7695 37.6226 54.7983C37.6053 54.8181 37.8771 55.0339 37.8471 55.0838C37.784 55.1888 36.2994 54.6574 35.0063 53.5397C34.6618 53.242 34.166 52.7606 34.1393 52.7875C34.115 52.8118 34.494 53.2087 34.448 53.2593C34.4168 53.2932 34.2114 53.1505 34.1539 53.1121C33.4082 52.6102 32.6592 52.9104 31.6652 52.4584C31.01 52.1633 30.6509 51.7222 30.5692 51.8029Z" fill="#9A582C"/>
<path d="M25.457 43.2687C25.2829 41.5819 25.6765 40.3226 25.9502 39.9545C25.9502 39.9545 26.1652 39.6652 26.1416 39.6447C26.1288 39.6338 26.0586 39.7036 26.0484 39.694C26.0267 39.6741 26.3126 39.3489 26.2883 39.3252C26.2698 39.3073 26.0867 39.4808 26.0676 39.4629C26.0408 39.4373 26.377 39.0487 26.3566 39.0301C26.347 39.0212 26.2666 39.1082 26.2513 39.0967C26.2105 39.066 26.6622 38.3944 26.6481 38.3848C26.6437 38.3816 26.5984 38.4469 26.5869 38.4399C26.5684 38.429 26.6724 38.2434 26.6481 38.2261C26.6169 38.2043 26.4089 38.4892 26.3802 38.4719C26.3336 38.4437 26.68 37.5968 27.2733 36.7486C28.2258 35.3869 29.3729 34.6546 29.2574 34.4856C29.1993 34.3998 28.8957 34.572 28.8529 34.5022C28.7585 34.3479 30.0338 33.1655 31.7614 32.2846C32.7273 31.7917 33.5981 31.5139 33.5643 31.3999C33.5362 31.3045 32.9174 31.4479 32.9117 31.4204C32.8989 31.3558 36.2419 30.1049 37.9535 31.085C39.1504 31.7706 39.4579 32.0683 39.4579 32.0683C39.7794 32.38 39.9299 32.615 40.2145 32.6284C40.5749 32.6457 40.7414 32.2674 41.2461 31.8813C41.634 31.5843 41.9676 31.4723 42.5686 31.2719C43.7431 30.8795 45.5364 31.0568 47.1249 31.6355C47.1919 31.6598 47.849 31.8416 47.8331 31.93C47.8159 32.026 47.0203 31.9281 47.0069 32.0087C46.9948 32.0823 47.6525 32.2353 48.0258 32.3429C49.9594 32.8992 51.3687 34.2749 51.3036 34.3831C51.2679 34.442 50.7652 34.1687 50.7301 34.2308C50.6924 34.2986 51.2858 34.6283 51.7094 34.9977C53.1167 36.2243 53.5422 38.171 53.4242 38.2312C53.3808 38.2536 53.2411 38.0321 53.2003 38.0577C53.1518 38.0884 53.3253 38.4226 53.5371 38.9111C53.821 39.566 54.0156 40.1351 53.9792 40.1517C53.9614 40.16 53.8912 40.0307 53.8753 40.0397C53.8472 40.0544 54.0329 40.4468 54.0073 40.4603C53.9933 40.4673 53.9289 40.3495 53.9116 40.3572C53.8868 40.3687 53.9914 40.6267 54.073 40.8879C54.1177 41.0307 54.17 41.2752 54.2714 41.7579C54.3722 42.2361 54.4131 42.4627 54.3805 42.473C54.3537 42.4813 54.2982 42.3449 54.2766 42.3526C54.2344 42.368 54.3844 42.8737 54.3844 42.8737C54.5598 43.464 54.7639 45.5804 53.7394 47.6007C53.1901 48.6839 52.4092 49.5008 52.355 49.4656C52.3282 49.4483 52.459 49.2165 52.4194 49.1909C52.3786 49.1647 52.2063 49.3868 51.8905 49.7216C51.814 49.8029 51.3342 50.3119 51.2864 50.2728C51.2551 50.2472 51.4274 50.0033 51.4057 49.9873C51.3713 49.9617 50.8864 50.5647 50.8768 50.5775C49.7253 52.0109 46.1776 52.813 46.1297 52.6715C46.1138 52.6255 46.4685 52.4853 46.4532 52.4501C46.4034 52.3374 43.5708 53.4839 43.5383 53.4039C43.5281 53.3789 43.7992 53.2586 43.7846 53.2208C43.7539 53.1408 42.4652 53.4807 41.4413 53.6593C41.4158 53.6638 41.1121 53.7157 41.1 53.6721C41.0866 53.6254 41.4234 53.5172 41.4119 53.4628C41.3973 53.393 40.8378 53.5204 40.2241 53.5172C39.2722 53.5127 38.4767 53.1959 38.1098 53.0499C37.5784 52.838 37.0993 52.5685 37.0712 52.6171C37.0483 52.6568 37.3551 52.8585 37.3309 52.8995C37.2977 52.9551 36.6916 52.66 36.5226 52.5774C35.9994 52.3227 35.6824 52.1306 35.6211 52.2036C35.5841 52.2478 35.6843 52.3355 35.6505 52.3905C35.5541 52.5474 34.5194 52.162 33.6224 51.6678C33.4284 51.5609 33.1962 51.4245 33.1815 51.4463C33.1541 51.4872 33.9254 52.0192 33.8961 52.0653C33.868 52.1095 33.1445 51.6588 31.9177 51.0039C31.1407 50.5891 31.1279 50.6083 30.6539 50.3356C29.764 49.8234 29.311 49.5578 28.8899 49.0866C28.6762 48.8472 28.3585 48.4355 28.3215 48.4624C28.3005 48.4771 28.3776 48.6237 28.3655 48.6295C28.356 48.634 28.3087 48.5431 28.243 48.4528C28.1308 48.2985 27.9853 48.1705 27.9655 48.1859C27.9381 48.2076 28.1684 48.5156 28.155 48.5264C28.1237 48.5508 26.5869 47.1718 25.8526 45.0862C25.5993 44.3666 25.4998 43.7271 25.457 43.2687Z" fill="#FFDFB5"/>
<path d="M24.2394 42.3425C24.3319 41.9834 24.5603 41.4245 26.9093 39.7626C28.9004 38.3536 29.8957 37.6494 31.03 37.4804C31.666 37.3856 33.5059 37.111 34.7882 38.3401C35.9072 39.4124 35.8785 40.938 35.876 41.0193C35.853 41.6934 35.6252 42.1837 35.4147 42.6402C35.1525 43.2074 34.75 44.0767 33.9091 44.5037C33.6769 44.6215 33.2807 44.7726 32.1292 44.7022C29.9773 44.5709 29.5263 43.9327 27.7776 43.9967C26.4047 44.0466 25.9473 44.4672 25.7776 44.658C25.4267 45.0523 25.4471 45.4313 25.25 45.4518C24.8232 45.496 23.8618 43.8053 24.2394 42.3425Z" fill="#9A582C"/>
<path d="M55.0285 46.378C55.0157 45.2186 54.4728 44.4223 53.7105 43.3045C52.823 42.0031 51.9529 40.7598 50.2973 40.0524C49.7059 39.7996 47.9943 39.0679 46.4447 39.9327C45.0922 40.6875 44.7362 42.1701 44.7183 42.2495C44.555 42.978 44.6813 43.5772 44.7572 43.9351C44.8485 44.3672 45.0411 45.2769 45.755 45.9151C46.0319 46.1629 46.379 46.362 47.4692 46.6206C48.7968 46.9356 49.7034 46.9765 51.6007 47.2384C52.9417 47.4227 53.5127 47.5431 53.7762 48.0104C54.083 48.5533 53.764 49.1903 53.8846 49.2306C54.0652 49.2901 55.0457 47.9605 55.0285 46.378Z" fill="#9A582C"/>
<path d="M28.6683 40.1782C28.6217 40.1954 28.6721 40.6045 28.7391 40.9048C28.7659 41.0258 28.794 41.1199 28.7506 41.2248C28.7391 41.2524 28.6995 41.3375 28.4233 41.4854C28.2491 41.5782 28.0003 41.7082 27.7273 41.6922C27.6156 41.6858 27.5474 41.657 27.5263 41.648C27.3911 41.5885 27.3407 41.495 27.3254 41.5052C27.2998 41.5225 27.3668 41.8336 27.6239 41.9578C27.8077 42.0462 28.0048 41.9988 28.1139 41.9431C28.1215 41.9393 28.1732 41.9047 28.2753 41.8349C28.4386 41.7242 28.5203 41.6691 28.5349 41.6582C28.6727 41.5533 28.7014 41.5072 28.7665 41.5123C28.8284 41.5168 28.8718 41.5635 28.905 41.6C28.9113 41.607 29.0281 41.7376 29.0038 41.8983C28.9955 41.9559 28.97 42.0084 28.7991 42.1742C28.5707 42.3957 28.4533 42.5071 28.2746 42.5628C28.216 42.5807 28.1215 42.6095 28.0003 42.5974C27.7847 42.5756 27.6571 42.4431 27.6526 42.4501C27.6456 42.4604 27.9142 42.7805 28.26 42.76C28.3895 42.7523 28.4852 42.6992 28.5343 42.6716C28.8335 42.5026 28.9471 42.1525 29.0919 42.18C29.0964 42.1806 29.1008 42.1819 29.104 42.1832C29.1295 42.1921 29.1653 42.221 29.282 42.3541C29.4032 42.4924 29.3975 42.4745 29.4147 42.5282C29.4504 42.6403 29.3917 42.7491 29.3133 42.8938C29.2673 42.9783 29.2137 43.0743 29.1027 43.1543C29.074 43.1748 29.0179 43.2145 28.9362 43.2382C28.7582 43.2894 28.623 43.2177 28.6179 43.2331C28.6102 43.2561 28.8916 43.4072 29.0983 43.356C29.1576 43.3413 29.2208 43.3118 29.2208 43.3118C29.2622 43.2977 29.3196 43.2708 29.3675 43.2183C29.4128 43.169 29.4255 43.1223 29.4753 42.9821C29.5499 42.7715 29.5621 42.7581 29.5774 42.7523C29.6699 42.7171 29.837 42.9591 29.8944 43.0327C30.2919 43.5474 31.2208 43.5461 31.6686 43.5499C32.0016 43.5525 32.6741 43.5493 33.3497 43.1217C33.9819 42.7216 34.2671 42.1723 34.4234 41.8714C34.6696 41.3977 34.8004 40.8881 34.7373 40.8587C34.6754 40.8299 34.4936 41.2812 34.0674 41.7485C33.9002 41.9316 33.4237 42.4482 32.653 42.71C32.3825 42.8016 31.3854 43.1409 30.4648 42.6377C30.0686 42.4213 29.8536 42.1211 29.5346 41.6864C28.9637 40.9054 28.7333 40.1538 28.6683 40.1782Z" fill="#231F1C"/>
<path d="M52.0035 42.6653C52.0463 42.6909 51.9244 43.084 51.8058 43.3682C51.7579 43.4821 51.7139 43.5698 51.7381 43.6812C51.7445 43.71 51.7681 43.8016 52.0144 43.9956C52.1694 44.1178 52.3914 44.29 52.6625 44.322C52.7735 44.3355 52.8463 44.3195 52.868 44.3144C53.0115 44.2798 53.0779 44.1972 53.0906 44.2094C53.1123 44.2305 52.9917 44.525 52.7168 44.6018C52.5203 44.6562 52.3346 44.5743 52.237 44.5007C52.23 44.4955 52.186 44.452 52.0967 44.3656C51.955 44.2279 51.8849 44.1588 51.8721 44.1454C51.7547 44.0173 51.7349 43.9674 51.6699 43.9604C51.608 43.954 51.5576 43.9924 51.518 44.0224C51.5104 44.0282 51.3726 44.1364 51.3681 44.2984C51.3662 44.3566 51.3821 44.413 51.5212 44.6063C51.7069 44.8643 51.8032 44.9955 51.9691 45.0813C52.0239 45.1095 52.112 45.1543 52.2332 45.1639C52.4488 45.1805 52.5981 45.073 52.6013 45.0807C52.6064 45.0922 52.2855 45.3598 51.9487 45.2778C51.823 45.2471 51.7381 45.178 51.6941 45.1421C51.4294 44.9225 51.379 44.5576 51.2322 44.5589C51.2278 44.5589 51.2227 44.5596 51.2195 44.5596C51.1927 44.5634 51.1525 44.5858 51.014 44.6959C50.8699 44.8105 50.8794 44.7939 50.8526 44.8438C50.7978 44.9475 50.836 45.0653 50.8877 45.2215C50.9177 45.3124 50.9534 45.4167 51.0491 45.5153C51.0734 45.5403 51.1219 45.5896 51.1984 45.6274C51.3649 45.7093 51.5104 45.6626 51.5129 45.6792C51.5161 45.7029 51.2131 45.8021 51.0185 45.7151C50.9624 45.6901 50.9056 45.6498 50.9056 45.6498C50.8673 45.6286 50.8156 45.5922 50.7773 45.532C50.7416 45.475 50.7372 45.427 50.7129 45.2804C50.6765 45.0602 50.667 45.0448 50.6529 45.0358C50.5681 44.9846 50.3608 45.1933 50.2912 45.2554C49.8089 45.6914 48.8953 45.5256 48.4539 45.45C48.1253 45.3937 47.4644 45.2714 46.8749 44.7305C46.3237 44.2241 46.1393 43.6332 46.0379 43.3093C45.879 42.7991 45.8401 42.2748 45.9078 42.2569C45.9735 42.2396 46.073 42.7159 46.4105 43.2517C46.5425 43.4617 46.9208 44.0551 47.6334 44.4494C47.8835 44.5877 48.8054 45.0986 49.8 44.7663C50.2281 44.6236 50.4928 44.3662 50.8833 43.9949C51.585 43.3279 51.9442 42.6294 52.0035 42.6653Z" fill="#231F1C"/>
<path d="M37.0121 43.9085C36.933 44.2381 37.0963 44.5288 37.2099 44.7247C37.2883 44.8597 37.4555 45.1113 38.0449 45.5409C38.5202 45.8872 38.7582 46.0607 39.0561 46.1587C39.7949 46.4013 40.4679 46.151 40.748 46.0485C41.1378 45.9058 42.0839 45.5595 42.2753 44.7362C42.2881 44.6805 42.3997 44.1664 42.1107 43.7106C41.9078 43.3912 41.6137 43.267 41.1876 43.0878C40.9439 42.9853 40.5132 42.8317 39.9372 42.7785C39.1123 42.703 38.5036 42.8797 38.1713 42.9802C37.754 43.1063 37.4925 43.2465 37.2813 43.468C37.1862 43.5666 37.0618 43.7004 37.0121 43.9085Z" fill="#5E351E"/>
<path d="M37.3518 43.8313C37.325 43.7839 37.7537 43.4369 38.2252 43.2193C38.8185 42.9459 39.3512 42.9351 39.5987 42.9325C39.9266 42.9293 40.9327 42.9197 41.6587 43.572C41.896 43.7852 42.1589 44.1187 42.1199 44.1616C42.0995 44.1847 41.9981 44.1181 41.8724 44.0515C41.6389 43.9273 41.4418 43.871 41.0482 43.7596C40.0887 43.4869 38.7528 43.5599 38.2628 43.6386C37.82 43.7097 37.6197 43.7654 37.6197 43.7654C37.4417 43.8153 37.362 43.8505 37.3518 43.8313Z" fill="#6E4F3F"/>
<path d="M39.6388 46.3325C39.5801 46.3293 39.4819 47.2928 39.4328 47.9656C39.3747 48.7588 39.3441 49.7107 39.3913 49.7146C39.42 49.7171 39.4685 49.3759 39.5087 49.0923C39.568 48.6743 39.5604 48.5834 39.6261 47.8747C39.6701 47.3991 39.702 47.134 39.6835 46.7166C39.6771 46.5592 39.6669 46.3338 39.6388 46.3325Z" fill="#5E351E"/>
<path d="M35.5053 45.6169C35.504 45.6252 35.46 45.6233 35.423 45.6252C35.2048 45.6355 35.0357 45.7853 34.9694 45.8435C34.9196 45.8877 34.7276 46.0573 34.6817 46.3115C34.6714 46.3672 34.667 46.435 34.653 46.4357C34.6344 46.4363 34.6045 46.3179 34.6077 46.2084C34.6134 45.9952 34.7416 45.841 34.785 45.791C34.845 45.7206 34.9687 45.5772 35.1722 45.551C35.3445 45.5292 35.5078 45.6003 35.5053 45.6169Z" fill="#5E351E"/>
<path d="M43.546 46.3722C43.5486 46.3793 43.5843 46.371 43.6149 46.3671C43.7961 46.3441 43.9562 46.4427 44.0194 46.4817C44.0666 46.5112 44.2491 46.6225 44.3231 46.8248C44.339 46.869 44.353 46.9241 44.3645 46.9228C44.3798 46.9209 44.3875 46.8191 44.369 46.7295C44.3339 46.5547 44.2063 46.4465 44.1636 46.4113C44.1042 46.362 43.9818 46.2615 43.8108 46.2698C43.6653 46.2769 43.5415 46.3588 43.546 46.3722Z" fill="#5E351E"/>
<path d="M34.9579 45.937C34.9949 46.4363 35.2048 46.8825 35.238 46.9516C35.4006 47.2896 35.5952 47.6949 35.985 48.1481C36.7888 49.0834 37.7624 49.4566 38.1005 49.5815C38.5012 49.73 39.4339 50.0622 40.6332 49.8734C41.046 49.8087 41.8492 49.6724 42.6333 49.052C42.6333 49.052 43.7019 48.207 44.0177 46.9017C44.0323 46.8422 44.1223 46.4613 44.0999 46.4549C44.0795 46.4491 43.9762 46.7628 43.9354 46.8793C43.9354 46.8793 43.6393 47.7237 43.0071 48.4669C42.1682 49.4534 40.7889 49.6692 40.5458 49.7076C38.4992 50.0283 36.9777 48.7998 36.7168 48.5886C36.5349 48.442 35.9435 47.9637 35.5518 47.2436C35.252 46.6917 35.118 46.2346 35.118 46.2346C35.0561 46.024 34.9911 45.7449 34.9643 45.7494C34.9438 45.7526 34.9547 45.8934 34.9579 45.937Z" fill="#5E351E"/>
</svg>
