<svg width="80" height="79" viewBox="0 0 80 79" fill="none" xmlns="http://www.w3.org/2000/svg">
<path d="M75.4293 21.8007C84.4817 40.3128 76.8132 62.6583 58.3011 71.7108C39.789 80.7632 17.4434 73.0947 8.39096 54.5826C-0.661518 36.0705 7.00704 13.7249 25.5192 4.67246C44.0313 -4.38002 66.3768 3.28853 75.4293 21.8007ZM20.0684 48.8723C25.9671 60.9351 40.5279 65.9321 52.5908 60.0334C64.6536 54.1346 69.6506 39.5738 63.7519 27.5109C57.8531 15.4481 43.2923 10.4511 31.2294 16.3499C19.1666 22.2486 14.1696 36.8094 20.0684 48.8723Z" fill="#49AF7C" fill-opacity="0.16"/>
<path d="M27.2842 56.3796C20.7506 57.2138 14.6466 58.0594 14.6733 58.3207C14.6863 58.4453 16.0909 58.421 16.0917 58.5003C16.0925 58.6201 12.8415 58.7568 12.8447 58.8377C12.8455 58.8628 13.1644 58.8507 13.1741 58.917C13.1854 58.9955 12.7468 59.078 11.9701 59.3483C11.2937 59.5837 11.1804 59.6752 10.8033 59.7067C10.5112 59.731 10.2119 59.7059 10.2062 59.7496C10.1997 59.803 10.6407 59.8791 10.6326 59.9462C10.6262 60.0061 10.2677 60.0304 10.2297 60.0328C10.1302 60.0393 10.0452 60.0368 10.0444 60.049C10.0428 60.0684 10.2734 60.0781 10.2799 60.1202C10.2985 60.2505 8.15348 60.6558 8.16562 60.7238C8.16966 60.7456 8.3841 60.7133 8.39219 60.7497C8.40918 60.8257 7.46978 61.0919 7.48435 61.1469C7.49001 61.1688 7.64457 61.1405 7.64862 61.1599C7.65347 61.1834 7.4164 61.2335 7.13482 61.3533C6.88319 61.4601 6.67038 61.5903 6.67847 61.6081C6.68414 61.6211 6.80225 61.575 6.80549 61.5839C6.81196 61.6 6.4422 61.7635 6.39931 61.7829C5.8208 62.0467 5.41061 63.1066 5.28358 63.5751C4.63224 65.9806 5.34426 70.1071 6.51586 70.3272C6.61376 70.3458 7.12917 70.4145 7.12593 70.472C7.12432 70.506 6.94308 70.5165 6.94388 70.5448C6.94469 70.5885 7.38323 70.5925 7.38728 70.6468C7.39051 70.6961 7.03287 70.7244 7.03045 70.7948C7.02964 70.8126 7.04985 70.8838 7.92936 71.0416C8.48522 71.1411 8.8121 71.1735 8.81129 71.2148C8.80967 71.2674 8.29022 71.2673 8.29022 71.3102C8.29022 71.3596 8.84203 71.4721 9.4602 71.3928C9.81864 71.3466 10.1358 71.2439 10.1479 71.2803C10.1601 71.3151 9.87448 71.43 9.88419 71.4575C9.90038 71.502 10.6844 71.2358 10.7014 71.2803C10.7168 71.3199 10.0962 71.5408 10.1132 71.6145C10.1496 71.7747 13.2445 71.358 15.637 70.7147C17.786 70.137 21.0378 68.9274 24.6796 66.1092" fill="#9A582C"/>
<path d="M7.22188 64.8981C6.34803 63.2143 4.58904 61.9813 2.8365 61.9521C2.60752 61.9481 1.19238 61.9254 0.790248 62.703C0.597679 63.0752 0.7352 63.4401 1.02405 64.3139C2.00308 67.2777 1.82347 67.3538 2.3316 68.1216C2.80735 68.8401 3.25399 69.5149 4.13511 69.8717C5.12223 70.2714 6.54224 70.2261 7.35782 69.4041C8.77458 67.9752 7.37804 65.1991 7.22188 64.8981Z" fill="#5E351E"/>
<path d="M2.69406 62.6075C2.72642 62.2135 1.4642 61.6463 0.647803 61.7644C0.553946 61.7782 0.00618021 61.8672 0.00537109 61.8672C1.13894 62.1932 1.22469 62.2337 1.22469 62.2337C1.91729 62.5565 2.13494 62.9708 2.45373 62.8591C2.55973 62.8227 2.68435 62.7256 2.69406 62.6075Z" fill="#FFDFB5"/>
<path d="M2.60374 63.8984C2.64905 63.62 1.78328 63.1524 1.06236 63.1742C0.905389 63.1791 0.658613 63.1863 0.398078 63.3166C0.255674 63.3878 0 63.5488 0 63.5488C0 63.5488 0.440991 63.5601 0.631133 63.5804C1.38523 63.6589 1.55269 64.2163 2.12555 64.154C2.31164 64.1338 2.58028 64.0432 2.60374 63.8984Z" fill="#FFDFB5"/>
<path d="M2.77647 65.3465C2.75462 64.9307 1.81602 64.4727 1.04979 64.6111C0.760127 64.6636 0.230957 64.8489 0.230957 64.8489C0.230957 64.8489 0.635528 64.8352 0.95351 64.9428C1.11533 64.9978 1.15014 65.048 1.43657 65.2405C2.00861 65.6257 2.29906 65.8158 2.52318 65.7252C2.66073 65.6702 2.78456 65.5051 2.77647 65.3465Z" fill="#FFDFB5"/>
<path d="M23.9077 66.2653C22.8725 65.7764 21.8449 66.0348 19.7906 66.5516C18.5595 66.8611 17.0487 67.2603 16.7523 68.2669C16.7523 68.2669 16.6467 68.6244 16.7497 68.9865C17.3217 70.9981 24.4688 72.335 25.8012 70.4317C26.5549 69.3547 25.5768 67.0538 23.9077 66.2653Z" fill="#5E351E"/>
<path d="M17.1899 59.6138C18.0775 57.9098 18.3024 56.3264 18.4109 55.1985C18.7297 51.8601 18.1333 51.3196 18.313 48.9796C18.6536 44.5303 21.1869 41.5714 20.75 41.2995C20.4992 41.1425 19.5922 42.0811 18.9708 42.8854C18.1261 43.9785 17.3178 45.4576 16.4334 49.7782C15.7659 53.0414 15.4317 54.6726 15.3994 56.6104C15.3589 58.9746 15.672 60.3137 14.6752 61.5533C13.9284 62.4821 12.569 63.2006 11.8036 62.8122C11.2089 62.5104 11.1062 61.6099 11.0253 61.6358C10.9363 61.6641 10.9047 62.792 11.5188 63.2435C12.4825 63.9515 14.7148 62.7613 16.011 61.3639C16.6081 60.7199 16.9262 60.1195 17.1899 59.6138Z" fill="#774420"/>
<path d="M13.8244 39.9265C13.8123 39.848 13.7792 39.6336 13.6448 39.5834C13.5081 39.5317 13.3349 39.6789 13.2767 39.7283C11.8842 40.9128 11.1495 43.1258 11.1495 43.1258C10.9238 43.8062 10.5824 44.8767 9.63407 48.5792C9.46982 49.2216 9.34033 49.7322 9.23758 50.449C9.03287 51.8715 9.09116 52.9783 9.38972 54.014C9.51675 54.4558 9.58067 54.6759 9.67291 54.7058C10.9667 55.1265 13.9571 40.7793 13.8244 39.9265Z" fill="#774420"/>
<path d="M21.2873 40.9711C21.3334 40.9994 21.0535 41.4484 21.1247 41.5018C21.2412 41.5892 22.17 40.5212 22.6078 40.0236C25.3612 36.8907 25.7601 36.7531 26.6533 35.3299C27.5911 33.8363 28.0596 33.0895 27.8225 32.4009C27.3274 30.9647 24.3628 30.4558 22.1045 31.0052C21.7089 31.1015 20.2444 31.4955 17.7636 33.9261C13.6744 37.932 11.7414 42.6548 11.9121 42.7592C11.976 42.798 12.3693 42.2171 12.4461 42.2672C12.5505 42.3368 11.8822 43.4057 11.1176 45.0903C10.6256 46.1737 10.2122 47.253 10.2971 47.2943C10.3699 47.3299 10.768 46.579 10.8409 46.6154C10.9323 46.6599 10.3416 47.838 9.84807 49.4765C9.416 50.9102 9.24122 52.0899 9.29058 52.1028C9.31566 52.1093 9.40141 51.8059 9.45319 51.8164C9.54381 51.8342 9.40385 52.7663 9.48638 52.7825C9.5503 52.7954 9.66601 52.2436 9.73559 52.2509C9.88528 52.2663 9.48639 54.819 9.76554 57.3127C9.90147 58.528 10.3457 62.4951 12.2366 63.0008C13.6954 63.3908 15.5305 61.5913 16.4359 60.1479C18.4101 57.0012 17.6851 52.8019 17.8923 52.8027C17.9611 52.8027 18.012 53.272 18.0395 53.2688C18.1196 53.2591 17.317 49.2459 18.2345 45.8476C18.3988 45.2391 18.7338 44.2221 18.8211 44.2431C18.8762 44.2561 18.792 44.6711 18.8737 44.697C18.9854 44.7318 19.2718 44.002 19.6262 43.311C20.3423 41.9201 21.2153 40.9257 21.2873 40.9711Z" fill="#9A582C"/>
<path d="M12.4742 62.5826C12.1846 62.8245 12.6442 64.064 13.2721 64.5406C13.3441 64.5956 13.7721 64.9088 13.7721 64.9088C13.2348 63.9192 13.2041 63.8334 13.2041 63.8334C12.9597 63.1457 13.0965 62.7201 12.806 62.5777C12.7105 62.5308 12.5608 62.5105 12.4742 62.5826Z" fill="#FFDFB5"/>
<path d="M13.1947 62.342C12.9496 62.4674 13.0798 63.4181 13.5135 63.9739C13.6082 64.0953 13.7554 64.2847 14.0087 64.4157C14.1471 64.4869 14.4214 64.5962 14.4214 64.5962C14.4214 64.5962 14.1762 64.2426 14.0823 64.0808C13.7093 63.4407 14.0524 62.9876 13.6729 62.5726C13.5491 62.4374 13.3226 62.2772 13.1947 62.342Z" fill="#FFDFB5"/>
<path d="M14.0547 62.1697C13.7513 62.4165 13.9245 63.3834 14.4553 63.8875C14.6559 64.0776 15.0896 64.3762 15.0896 64.3762C15.0896 64.3762 14.855 64.0768 14.7603 63.7758C14.7117 63.6229 14.7312 63.5679 14.7182 63.2443C14.6931 62.597 14.6761 62.2709 14.4828 62.1511C14.3646 62.0775 14.1704 62.0759 14.0547 62.1697Z" fill="#FFDFB5"/>
<path d="M44.1533 34.9435C44.3532 35.0308 44.6357 35.1631 44.9594 35.35C48.1764 37.2104 49.2188 40.8693 49.5425 42.0057C50.6286 45.8155 49.846 49.2834 49.7691 49.2834C49.7351 49.2834 49.7206 48.5984 49.6558 48.5976C49.583 48.5968 49.5709 49.4507 49.4042 50.503C49.1816 51.9087 48.7705 53.1267 48.6742 53.1071C48.5981 53.0916 48.7041 52.312 48.6612 52.3071C48.6304 52.303 48.5584 52.7251 48.4977 53.0434C48.4977 53.0434 48.3876 53.623 48.0825 54.792C47.6617 56.4051 46.8588 57.8346 46.7391 57.7897C46.6816 57.7684 46.7973 57.4133 46.7221 57.3831C46.6169 57.3398 46.2826 57.9954 45.929 58.6068C45.0614 60.1056 44.269 61.015 44.3605 61.1007C44.4042 61.1416 44.6883 60.8836 44.7069 60.9056C44.7312 60.9342 44.2569 61.3726 43.7503 61.8706C43.0608 62.5489 42.5816 63.0739 42.5476 63.0428C42.5234 63.0208 42.7419 62.7285 42.7265 62.7179C42.7127 62.7073 42.5185 62.9669 42.4902 62.9481C42.4708 62.9351 42.5573 62.8012 42.5412 62.7849C42.4659 62.7049 40.0825 65.158 38.6459 66.189C34.9895 68.8144 28.7213 68.505 24.7419 65.8715C21.1478 63.4934 18.9796 58.9178 18.7927 59.0803C18.7368 59.1293 18.9432 59.517 18.8963 59.5481C18.821 59.597 18.159 58.6084 17.5415 57.4329C16.9531 56.3121 16.5226 55.2451 16.4449 55.2818C16.4084 55.299 16.4724 55.5472 16.4489 55.5545C16.4076 55.5668 16.2134 54.8051 16.1575 54.819C16.1106 54.8304 16.2279 55.3725 16.1761 55.3904C16.0418 55.4378 14.7866 51.9479 14.8764 49.9724C14.8813 49.8679 14.9072 49.3756 14.8837 49.3732C14.8457 49.3691 14.7097 50.4132 14.7299 50.4173C14.768 50.4254 14.6984 49.667 14.7 49.5421C14.7971 42.6595 18.4657 38.4995 18.4657 38.4995C18.7506 38.1762 19.2402 37.6529 19.9322 37.0717C21.0571 35.6904 22.1643 34.9867 22.8773 34.6153C28.57 31.6503 38.6411 34.4994 40.8408 34.4251C40.8732 34.4243 40.9225 34.4226 40.9881 34.4202C42.1446 34.3916 42.7225 34.3728 43.2534 34.5402C43.4193 34.5933 43.6637 34.71 44.1533 34.9435Z" fill="#FDCB98"/>
<path d="M43.2955 37.5299C43.3934 37.6626 42.7316 38.2646 42.7923 38.3317C42.8554 38.4021 43.6483 37.767 44.7924 36.9959C46.1169 36.1026 46.2601 36.1414 46.2909 36.1762C46.3904 36.2879 45.8232 36.9239 45.8766 36.9708C45.9559 37.0404 47.168 35.6325 47.4309 35.8065C47.5847 35.9084 47.3306 36.5007 47.4034 36.5298C47.5264 36.5792 48.2764 34.9229 48.3808 34.965C48.4625 34.9974 48.0653 36.0274 48.181 36.08C48.2813 36.1261 48.7134 35.4116 49.1843 34.6292C49.6989 33.774 49.9934 33.2205 50.0452 33.244C50.1164 33.2772 49.6066 34.3468 49.7256 34.4132C49.838 34.4755 50.55 33.6623 51.0323 32.6299C51.2685 32.1242 51.3875 31.6986 51.487 31.7172C51.648 31.7463 51.5016 32.8929 51.648 32.9196C51.7686 32.9414 52.0008 32.1954 52.2063 31.5271C52.9151 29.2251 53.1602 28.3464 53.2476 28.3626C53.3714 28.3853 53.0915 30.1985 53.1967 30.2171C53.2905 30.2341 53.7582 28.8521 53.9257 27.4435C54.4362 23.1608 52.1036 19.2504 52.3382 19.1533C52.4054 19.1258 52.5664 19.4527 52.623 19.426C52.7622 19.3604 52.1076 17.2867 50.9959 15.3982C50.2305 14.0979 49.393 13.1335 48.7465 12.4789C48.5588 12.3478 48.0572 11.9983 48.0992 11.9133C48.1251 11.8615 48.3371 11.9433 48.3582 11.8955C48.3865 11.8316 48.0175 11.6334 48.0353 11.5945C48.0636 11.5339 48.9998 11.953 49.0394 11.8761C49.0694 11.8195 48.6211 11.5322 48.6041 11.5217C47.4892 10.8073 39.7492 5.12566 37.2361 3.90228C37.1228 3.84726 36.7943 3.6911 36.7166 3.78334C36.5645 3.96539 37.5314 4.9509 37.4586 5.01805C37.3906 5.08035 36.8291 4.60945 36.3485 4.11832C35.2885 3.03491 34.9131 2.15217 34.7634 2.21285C34.5013 2.31966 35.4714 5.11596 35.2368 5.2082C35.0766 5.27131 34.4026 3.97672 34.2861 4.03498C34.2076 4.07382 34.4988 4.658 34.3087 4.81577C34.1946 4.91044 33.9624 4.80283 33.8588 4.75752C32.8944 4.33516 31.6912 4.38937 31.6726 4.46057C31.6524 4.53744 32.964 4.84976 32.9413 5.00106C32.9057 5.23328 29.8561 4.4363 26.4117 5.00025C23.0458 5.55126 20.4275 7.21723 20.4575 7.29167C20.4761 7.33778 21.5749 6.92271 21.6056 6.99957C21.6388 7.08291 20.3434 7.54411 18.87 8.6089C18.0738 9.18418 17.3626 9.83633 17.4265 9.92938C17.4791 10.0054 18.0463 9.7093 18.0601 9.73843C18.073 9.76594 17.5617 10.024 17.5786 10.0621C17.5884 10.0839 17.755 9.98601 17.7979 10.0216C17.9816 10.1762 15.4102 12.3947 14.2135 15.683C13.6116 17.3368 13.7386 18.2147 12.7215 19.7803C12.3049 20.422 11.5775 21.3614 11.6729 21.4439C11.7522 21.5127 12.3315 20.9301 12.406 20.9981C12.5136 21.0968 11.3986 22.4245 11.5394 22.5588C11.6122 22.6284 11.9594 22.325 12.0289 22.3946C12.1438 22.5095 11.3517 23.5087 11.3743 23.5257C11.3857 23.5346 11.5807 23.2442 11.9448 23.0378C12.0564 22.9739 12.2652 22.8558 12.3307 22.9173C12.4181 22.9998 12.1519 23.3137 11.9141 23.8769C11.8275 24.0824 11.7279 24.4894 11.5338 25.2945C11.3468 26.0688 11.3209 26.233 11.3792 26.263C11.5321 26.339 12.0686 25.3988 12.2118 25.4692C12.3469 25.5356 11.9075 26.3892 11.7789 27.6288C11.6794 28.5916 11.7975 29.4962 11.9213 29.5043C12.0904 29.5156 12.2887 27.8496 12.4254 27.8642C12.4942 27.8715 12.4918 28.2979 12.5112 28.8489C12.5557 30.1224 12.694 31.4534 12.8016 31.4542C12.9012 31.4551 12.9335 30.3094 13.0727 30.3061C13.1771 30.3037 13.2167 30.9364 13.457 31.8604C13.7232 32.8839 14.0946 33.7279 14.1626 33.7084C14.2362 33.6866 13.9668 32.6226 14.0452 32.6016C14.0768 32.5927 14.1424 32.7626 14.2047 32.892C14.4288 33.3557 14.7484 33.5774 15.1861 33.9309C16.1077 34.6753 16.4758 35.1365 16.5317 35.0872C16.6174 35.0103 15.7136 33.9407 15.7832 33.8792C15.8391 33.8298 16.4775 34.7037 17.3384 35.3372C18.8919 36.4805 19.7398 35.7927 21.8839 36.686C23.8857 37.5202 25.44 39.0753 25.5031 38.9928C25.5217 38.9685 25.3785 38.8463 25.4044 38.8099C25.491 38.6902 27.1998 39.793 27.2476 39.721C27.2646 39.6951 27.0526 39.5333 27.0704 39.5082C27.1052 39.4596 27.9394 40.03 27.9952 39.9572C28.0324 39.9087 27.6926 39.6198 27.7322 39.5672C27.7662 39.5219 28.0575 39.6926 28.6433 40.0082C29.1611 40.2865 29.4233 40.4168 29.4419 40.3877C29.4629 40.3545 29.1385 40.1393 29.1668 40.0875C29.204 40.0211 29.7316 40.4241 30.4533 40.4605C31.031 40.4896 31.5415 40.2728 31.5715 40.3569C31.5876 40.4039 31.4364 40.484 31.4493 40.5082C31.4857 40.5786 32.8345 39.9022 32.8936 40.0042C32.9251 40.0592 32.5634 40.31 32.5893 40.3488C32.6274 40.4063 33.4373 39.9216 33.464 39.9637C33.4826 39.9928 33.0829 40.217 33.1112 40.2882C33.1719 40.4378 35.2198 40.0559 37.1398 38.8714C37.6512 38.5558 38.398 38.0323 38.4279 38.0736C38.4546 38.11 37.8777 38.5478 37.9271 38.623C37.9603 38.674 38.2588 38.5308 38.3413 38.4927C39.4191 37.9951 40.3342 38.5413 41.7258 38.1602C42.645 37.9069 43.2057 37.4085 43.2955 37.5299Z" fill="#9A582C"/>
<path d="M51.736 27.492C52.3129 25.3341 52.0612 23.6139 51.7797 23.0782C51.7797 23.0782 51.5588 22.6575 51.5944 22.6357C51.613 22.6243 51.6907 22.7295 51.7061 22.719C51.7384 22.6972 51.4334 22.2149 51.469 22.189C51.4965 22.1696 51.6996 22.4334 51.7279 22.414C51.7684 22.3856 51.4099 21.8112 51.4407 21.7909C51.4552 21.7812 51.5418 21.9115 51.5645 21.8994C51.6243 21.8678 51.1737 20.9001 51.1939 20.8912C51.2004 20.888 51.2465 20.9818 51.2627 20.9762C51.2894 20.9665 51.1922 20.7027 51.227 20.6849C51.2724 20.663 51.4844 21.0773 51.5264 21.0603C51.5928 21.0336 51.3168 19.8596 50.7181 18.633C49.7569 16.6628 48.4122 15.4726 48.5982 15.276C48.6921 15.1764 49.053 15.4637 49.1226 15.3819C49.2779 15.2007 47.8579 13.3972 45.7866 11.8914C44.6279 11.0499 43.5494 10.5062 43.6165 10.3646C43.6732 10.2465 44.4507 10.5621 44.4637 10.5273C44.4936 10.4455 40.3898 8.12258 37.9519 9.04173C36.2471 9.68417 35.7843 10.0078 35.7843 10.0078C35.2996 10.3468 35.0545 10.6211 34.6799 10.579C34.2057 10.5265 34.0665 9.99972 33.4888 9.39207C33.0446 8.9244 32.632 8.70999 31.8884 8.32404C30.4369 7.56914 28.0589 7.42593 25.8654 7.84828C25.7723 7.86608 24.8774 7.96561 24.8799 8.08455C24.8823 8.2132 25.9406 8.25122 25.9414 8.35883C25.9422 8.45755 25.0522 8.51985 24.5417 8.58134C21.9023 8.90256 19.7776 10.3986 19.8399 10.5532C19.8739 10.6373 20.5875 10.3857 20.6199 10.4739C20.6555 10.5701 19.8116 10.8752 19.1829 11.2676C17.0913 12.5703 16.1325 15.0138 16.2741 15.1174C16.3259 15.1554 16.5541 14.8965 16.6018 14.9386C16.6593 14.9887 16.3623 15.3876 15.9853 15.9783C15.4788 16.7712 15.1074 17.4711 15.1503 17.4994C15.1721 17.514 15.2903 17.361 15.3097 17.3756C15.3428 17.4007 15.0192 17.8724 15.05 17.8951C15.0669 17.9072 15.1754 17.7672 15.1964 17.781C15.2263 17.8004 15.037 18.1151 14.8752 18.438C14.787 18.6144 14.6688 18.9218 14.4358 19.5287C14.2052 20.1298 14.1041 20.4154 14.1453 20.4365C14.1785 20.4527 14.2797 20.2868 14.3056 20.3014C14.3573 20.3305 14.0572 20.9567 14.0572 20.9567C13.706 21.6874 13.0004 24.3979 13.918 27.2403C14.4099 28.7639 15.2595 29.9889 15.338 29.9541C15.376 29.9371 15.2538 29.6086 15.3105 29.5835C15.3687 29.5576 15.5483 29.8829 15.8906 30.3845C15.9739 30.5067 16.4942 31.2681 16.5646 31.2268C16.6107 31.2001 16.4368 30.8465 16.4683 30.8304C16.5193 30.8045 17.0258 31.6896 17.0363 31.7083C18.2419 33.8128 22.7058 35.5944 22.7988 35.4213C22.8288 35.3646 22.3959 35.1082 22.4226 35.0661C22.5108 34.9293 25.9705 37.0104 26.0296 36.9133C26.0482 36.8834 25.7197 36.6706 25.7464 36.6236C25.8031 36.5257 27.414 37.2369 28.7143 37.6819C28.7466 37.6933 29.1318 37.8235 29.1577 37.7693C29.1852 37.7111 28.7677 37.5007 28.7936 37.4319C28.8275 37.3445 29.5307 37.6261 30.3325 37.7499C31.5753 37.9417 32.6797 37.6957 33.1895 37.5824C33.9274 37.4182 34.6078 37.1665 34.6345 37.2361C34.6564 37.2928 34.2138 37.491 34.2373 37.5493C34.2688 37.6285 35.1216 37.3704 35.3587 37.2992C36.095 37.0767 36.5481 36.8931 36.6128 37.0007C36.6525 37.0662 36.5028 37.1593 36.536 37.2377C36.6298 37.4619 38.0595 37.1763 39.3331 36.7199C39.6082 36.6212 39.9399 36.4917 39.9545 36.5241C39.982 36.5832 38.8646 37.1148 38.8937 37.1803C38.9212 37.2434 39.9593 36.8081 41.6965 36.2118C42.7969 35.8339 42.809 35.8614 43.4855 35.605C44.7533 35.1243 45.3998 34.8727 46.0471 34.3476C46.3756 34.0806 46.8756 33.6113 46.9185 33.6534C46.9428 33.6768 46.8117 33.8516 46.8263 33.8613C46.8376 33.8694 46.9177 33.761 47.0229 33.6566C47.2009 33.4786 47.4186 33.3435 47.4404 33.3677C47.472 33.4017 47.107 33.7545 47.1224 33.7715C47.158 33.8095 49.4502 32.3361 50.8411 29.7753C51.3233 28.8909 51.5855 28.0802 51.736 27.492Z" fill="#FFDFB5"/>
<path d="M53.5199 26.5412C53.4737 26.055 53.2909 25.2806 50.5698 22.6292C48.2639 20.3823 47.1109 19.2584 45.665 18.8021C44.8551 18.5464 42.5103 17.8068 40.5813 19.1386C38.8984 20.3013 38.6192 22.2902 38.6055 22.3978C38.4954 23.2789 38.6904 23.965 38.8717 24.6026C39.0966 25.3955 39.4413 26.6092 40.4503 27.3398C40.7286 27.5413 41.2149 27.8204 42.7328 27.9685C45.5687 28.246 46.2904 27.5097 48.5592 27.9564C50.3409 28.3075 50.8506 28.95 51.0327 29.2332C51.4089 29.8198 51.3037 30.3085 51.5561 30.3756C52.1031 30.5221 53.7092 28.5228 53.5199 26.5412Z" fill="#9A582C"/>
<path d="M12.4941 25.381C12.7514 23.8753 13.6253 22.9529 14.8527 21.6575C16.2816 20.1493 17.6749 18.7131 19.9825 18.1379C20.8069 17.9323 23.1922 17.3368 25.0362 18.7843C26.6447 20.0474 26.8025 22.0499 26.809 22.1575C26.8713 23.1398 26.5816 23.8923 26.4084 24.3413C26.1997 24.8842 25.7595 26.0275 24.6955 26.7096C24.2829 26.9742 23.7877 27.1611 22.3119 27.2703C20.514 27.4038 19.3214 27.2687 16.7913 27.2137C15.0024 27.1749 14.2329 27.2121 13.7911 27.7647C13.2781 28.4063 13.5621 29.302 13.3963 29.3287C13.1471 29.3692 12.143 27.4362 12.4941 25.381Z" fill="#9A582C"/>
<path d="M17.3635 25.7028C17.2414 25.5191 17.2228 25.3703 17.243 24.3031C17.2689 22.896 17.366 22.2204 17.4453 21.9129C17.4898 21.739 17.7147 21.5027 17.6201 21.3409C17.5464 21.2155 17.3862 21.277 17.1152 21.1572C16.7049 20.976 16.5172 20.5892 16.4727 20.4978C16.4444 20.4387 16.3473 20.2283 16.3416 19.963C16.34 19.8942 16.3441 19.7995 16.3562 19.7979C16.3684 19.7971 16.3764 19.8958 16.4145 20.0196C16.4323 20.0762 16.4776 20.2081 16.565 20.3327C16.6532 20.4581 16.7486 20.5269 16.8506 20.6005C16.9347 20.6604 16.9355 20.6499 17.3142 20.8408C17.5213 20.9452 17.5917 20.9841 17.6985 20.9703C17.7981 20.9574 17.8668 20.9064 17.8968 20.8829C17.9987 20.8052 18.1193 20.6475 18.0853 20.514C18.0513 20.3805 17.896 20.4023 17.7139 20.2364C17.5683 20.1037 17.5173 19.9516 17.4323 19.7008C17.4323 19.7008 17.3369 19.4176 17.3369 19.047C17.3369 18.9313 17.3482 18.9273 17.3506 18.9273C17.366 18.9257 17.3879 19.039 17.4129 19.1425C17.4607 19.3319 17.5019 19.4977 17.5982 19.6434C17.6516 19.7243 17.6403 19.6757 18.0036 20.0026C18.1363 20.1215 18.1816 20.1677 18.256 20.166C18.2941 20.1652 18.3304 20.1523 18.5384 19.9775C18.6703 19.8667 18.7358 19.8108 18.7464 19.7769C18.786 19.645 18.6428 19.5746 18.5546 19.3221C18.4923 19.1441 18.4987 18.9928 18.506 18.8092C18.5165 18.5478 18.578 18.373 18.5967 18.3221C18.6315 18.2274 18.6832 18.1174 18.6986 18.1222C18.7196 18.1295 18.6088 18.3415 18.6274 18.6223C18.6403 18.8197 18.7018 18.8124 18.8224 19.2485C18.8718 19.4273 18.8766 19.4823 18.9284 19.5099C19.0781 19.5892 19.3645 19.3092 19.4729 19.2153C20.1348 18.6417 21.3169 18.8108 21.8938 18.8933C22.3299 18.9556 23.2078 19.0932 24.0056 19.7841C24.7281 20.4096 24.9919 21.1491 25.1618 21.6257C25.5251 22.6436 25.4757 23.5271 25.4345 24.1517C25.3851 24.9026 25.4539 25.3096 25.1828 25.6591C24.9628 25.9431 24.6723 26.0621 24.4255 26.1535C23.4093 26.5289 22.5063 26.8631 21.1559 26.8372C20.3476 26.8218 19.7545 26.66 18.5683 26.3355C17.9154 26.1583 17.5772 26.0248 17.3635 25.7028Z" fill="#231F1C"/>
<path d="M17.917 24.0547C17.824 23.6833 17.8183 23.337 17.8142 23.0522C17.8094 22.7463 17.8054 22.4664 17.883 22.1241C18.0093 21.5683 18.2738 21.1912 18.3944 21.0237C18.4818 20.9015 18.8976 20.3384 19.6792 19.9468C19.9503 19.8109 20.9261 19.3408 22.1535 19.6409C23.2167 19.9007 23.8454 20.5852 24.093 20.8975C24.3131 21.1742 24.8988 21.9955 24.8794 23.1687C24.8762 23.3718 24.8454 24.0975 24.3972 24.8759C24.2491 25.134 23.707 26.0427 22.5419 26.4642C22.3517 26.533 21.3549 26.8744 20.2157 26.4715C19.5813 26.2474 19.1816 25.8905 18.9834 25.7101C18.7237 25.473 18.1355 24.9245 17.917 24.0547Z" fill="#5E351E"/>
<path d="M19.7353 24.7463C19.6155 24.6387 19.1721 24.2277 19.0443 23.5464C18.9537 23.0626 19.0653 22.675 19.1203 22.4946C19.3056 21.8797 19.6843 21.5139 19.7919 21.4152C19.931 21.2882 20.4295 20.8448 21.2087 20.8003C21.8357 20.7647 22.3098 21.0058 22.5291 21.1417C22.6408 21.2113 23.4337 21.7203 23.6028 22.7276C23.7436 23.565 23.4095 24.4826 22.6732 24.998C21.6885 25.689 20.4133 25.3572 19.7353 24.7463Z" fill="#1E2021"/>
<path d="M19.6601 22.5115C19.5662 22.2137 19.6269 21.9645 19.6406 21.9136C19.7337 21.5559 19.991 21.3537 20.1204 21.2703C20.203 21.2177 20.529 21.0235 20.9506 21.1085C20.9821 21.115 21.542 21.2371 21.7524 21.755C21.962 22.2696 21.7055 22.8748 21.2613 23.141C20.8284 23.4015 20.3696 23.2478 20.3397 23.2373C19.8429 23.0633 19.6835 22.5867 19.6601 22.5115Z" fill="#FFFBFA"/>
<path d="M19.2233 23.6977C19.1659 23.5561 19.2112 23.4194 19.2225 23.3854C19.2864 23.2018 19.4426 23.1241 19.483 23.1055C19.5154 23.0909 19.6198 23.0448 19.75 23.0642C19.9345 23.0917 20.1562 23.2479 20.17 23.4947C20.1829 23.7269 20.0049 23.9113 19.8148 23.9664C19.5745 24.0376 19.3075 23.9033 19.2233 23.6977Z" fill="#FFFBFA"/>
<path d="M20.3304 24.196C20.2957 24.1102 20.3232 24.0277 20.3304 24.0083C20.3693 23.8974 20.4631 23.8505 20.4874 23.84C20.5068 23.8311 20.57 23.8036 20.6484 23.8149C20.7601 23.8319 20.8936 23.9257 20.9017 24.0746C20.9098 24.2146 20.8022 24.3254 20.6873 24.3594C20.5416 24.4007 20.3814 24.3198 20.3304 24.196Z" fill="#FFFBFA"/>
<path d="M17.6779 22.7253C17.6367 22.7237 17.6173 23.0174 17.4676 24.5223C17.4676 24.5223 17.4651 24.5442 17.4999 25.681C17.5032 25.7765 17.5064 25.8671 17.5606 25.965C17.6545 26.1357 17.8098 26.1624 18.356 26.3671C18.7484 26.5144 18.754 26.5322 18.9733 26.5993C19.0793 26.6317 19.1319 26.6438 19.5227 26.7425C19.8601 26.8275 20.0098 26.8688 20.0454 26.8752C20.8472 27.0209 21.4452 26.9351 22.6394 26.7668C24.6905 26.4772 24.9446 26.0904 25.0174 25.9577C25.0886 25.8282 25.0999 25.5426 25.1307 24.9754C25.159 24.4414 25.129 24.0611 25.091 23.5773C25.0489 23.0473 25.0198 23.0368 25.0133 23.0368C24.9834 23.0368 24.9802 23.3159 24.9082 23.7278C24.9082 23.7278 24.8491 24.0692 24.7528 24.3921C24.5384 25.1146 23.896 25.681 23.7617 25.7991C23.5173 26.0151 22.798 26.6309 21.6741 26.7353C20.6037 26.8348 19.8164 26.41 19.5446 26.2579C19.0429 25.9779 18.7379 25.6543 18.6529 25.5612C18.5477 25.4463 18.1941 25.0418 17.9514 24.3815C17.6164 23.4632 17.7435 22.7277 17.6779 22.7253Z" fill="#F9F4F8"/>
<path d="M47.9714 26.3931C48.0904 26.2078 48.1058 26.0581 48.0661 24.9909C48.0135 23.5846 47.9043 22.9107 47.8193 22.6056C47.7716 22.4325 47.5426 22.2003 47.634 22.0368C47.7052 21.9098 47.8671 21.9688 48.1357 21.8442C48.5427 21.6549 48.7231 21.2649 48.7652 21.1735C48.7927 21.1144 48.8857 20.9016 48.8865 20.6362C48.8865 20.5675 48.8809 20.4728 48.8688 20.472C48.8566 20.4712 48.8502 20.5707 48.8146 20.6945C48.7984 20.7519 48.7555 20.8838 48.6697 21.01C48.584 21.1371 48.4901 21.2075 48.3889 21.2827C48.3064 21.3442 48.3048 21.3337 47.9302 21.5319C47.7247 21.6403 47.6551 21.6808 47.5483 21.6687C47.4487 21.6573 47.3784 21.608 47.3484 21.5853C47.2449 21.5101 47.1211 21.3539 47.1534 21.2204C47.185 21.0861 47.3411 21.1047 47.5191 20.9364C47.6624 20.8013 47.7109 20.6484 47.791 20.3951C47.791 20.3951 47.8816 20.1095 47.8735 19.7397C47.8711 19.624 47.8606 19.6208 47.8582 19.62C47.8428 19.6184 47.8234 19.7325 47.7991 19.836C47.7554 20.0262 47.7166 20.1928 47.6235 20.3401C47.5717 20.4218 47.5814 20.3733 47.2246 20.7066C47.0943 20.828 47.0498 20.8749 46.9754 20.8749C46.9374 20.8749 46.901 20.8628 46.689 20.6921C46.5555 20.5836 46.4883 20.5294 46.4778 20.4954C46.4357 20.3644 46.5773 20.2907 46.6615 20.0375C46.7205 19.8587 46.7116 19.7066 46.7003 19.5237C46.6849 19.2632 46.6202 19.0892 46.6008 19.0382C46.5644 18.9444 46.5102 18.8351 46.4948 18.84C46.4738 18.8473 46.5886 19.0577 46.5757 19.3384C46.5668 19.5367 46.5045 19.5302 46.392 19.9687C46.3459 20.1483 46.3427 20.2034 46.2909 20.2317C46.1428 20.3142 45.8507 20.0391 45.7415 19.9477C45.0691 19.3862 43.8903 19.5771 43.315 19.6702C42.8805 19.7405 42.005 19.8943 41.2202 20.6006C40.509 21.2398 40.2598 21.9834 40.0979 22.4632C39.7532 23.4876 39.8196 24.3703 39.8722 24.9941C39.9361 25.7434 39.8738 26.152 40.1522 26.4966C40.3779 26.7766 40.67 26.8899 40.9192 26.9765C41.9427 27.3333 42.8506 27.6496 44.201 27.5995C45.0093 27.5695 45.5991 27.3964 46.7788 27.0501C47.4277 26.8583 47.7635 26.7183 47.9714 26.3931Z" fill="#231F1C"/>
<path d="M47.3869 24.7554C47.4735 24.3824 47.4719 24.0361 47.4711 23.7505C47.4703 23.4439 47.4686 23.1647 47.3845 22.8241C47.2477 22.2707 46.9759 21.8985 46.8529 21.7334C46.7631 21.6129 46.3367 21.0578 45.5486 20.6808C45.2751 20.5505 44.2904 20.0982 43.0687 20.421C42.0111 20.7002 41.3954 21.3968 41.1535 21.7132C40.9391 21.9939 40.3678 22.8257 40.4099 23.9989C40.4172 24.202 40.4609 24.927 40.9237 25.6964C41.0766 25.9513 41.6357 26.8502 42.8081 27.2499C42.9991 27.3155 44.0024 27.6383 45.1343 27.2135C45.7646 26.9773 46.1571 26.6132 46.3521 26.4295C46.6069 26.1876 47.1846 25.6285 47.3869 24.7554Z" fill="#5E351E"/>
<path d="M45.5807 25.4812C45.698 25.3712 46.1341 24.952 46.249 24.2683C46.3308 23.7829 46.2118 23.3977 46.1535 23.2181C45.9569 22.6064 45.5718 22.2488 45.4618 22.1517C45.321 22.0271 44.8137 21.5934 44.0337 21.5635C43.4058 21.5392 42.9365 21.7892 42.7197 21.9292C42.6088 22.0004 41.8256 22.5247 41.6751 23.5353C41.5497 24.3751 41.9009 25.2862 42.6469 25.7879C43.6453 26.4594 44.9148 26.1042 45.5807 25.4812Z" fill="#1E2021"/>
<path d="M44.3561 23.3037C44.4443 23.0044 44.3788 22.756 44.365 22.7058C44.2655 22.3498 44.0041 22.1524 43.8731 22.0723C43.7897 22.0213 43.4604 21.8328 43.0405 21.9258C43.0097 21.9323 42.4522 22.0658 42.2508 22.5877C42.0509 23.1063 42.3187 23.7059 42.7678 23.9648C43.2055 24.2172 43.6611 24.0554 43.691 24.0441C44.1838 23.8588 44.3342 23.3798 44.3561 23.3037Z" fill="#FFFBFA"/>
<path d="M42.6809 24.5383C42.7359 24.3951 42.6882 24.2599 42.676 24.2259C42.6089 24.0439 42.4511 23.9686 42.4107 23.9508C42.3783 23.9371 42.2731 23.8926 42.1429 23.9144C41.9584 23.9452 41.7407 24.1062 41.731 24.353C41.7221 24.5852 41.9034 24.7664 42.0951 24.8182C42.3362 24.8846 42.6008 24.7454 42.6809 24.5383Z" fill="#FFFBFA"/>
<path d="M43.3969 25.108C43.43 25.0214 43.4009 24.9397 43.3936 24.9203C43.3532 24.8102 43.2577 24.7649 43.2334 24.7544C43.214 24.7463 43.1501 24.7196 43.0716 24.7326C42.9607 24.7512 42.8289 24.8483 42.8232 24.9971C42.8175 25.1371 42.9276 25.2463 43.0425 25.2779C43.1889 25.3167 43.3483 25.2334 43.3969 25.108Z" fill="#FFFBFA"/>
<path d="M47.6023 23.4212C47.6436 23.4188 47.6686 23.7117 47.8458 25.2142C47.8458 25.2142 47.8483 25.2361 47.8353 26.3737C47.8345 26.4692 47.8321 26.5598 47.7803 26.6585C47.6897 26.8308 47.5352 26.8608 46.993 27.0752C46.6039 27.2297 46.5982 27.2475 46.3797 27.3187C46.2745 27.3527 46.2219 27.3657 45.8328 27.4716C45.497 27.5631 45.3481 27.6068 45.3125 27.614C44.5139 27.7743 43.9144 27.6998 42.7169 27.5534C40.6601 27.3017 40.3995 26.9198 40.3243 26.7888C40.2507 26.6609 40.2337 26.3753 40.1932 25.8089C40.1544 25.2757 40.1779 24.8946 40.207 24.41C40.2394 23.8792 40.2685 23.8679 40.2742 23.8679C40.3041 23.8679 40.313 24.1462 40.3915 24.5564C40.3915 24.5564 40.457 24.897 40.559 25.2175C40.7871 25.9359 41.4401 26.4902 41.576 26.6059C41.8244 26.8171 42.555 27.4191 43.6805 27.5032C44.7526 27.5825 45.5318 27.1431 45.8004 26.987C46.2964 26.6981 46.5957 26.368 46.6791 26.2733C46.7818 26.156 47.1282 25.7458 47.3579 25.0807C47.6775 24.1583 47.5376 23.4245 47.6023 23.4212Z" fill="#F9F4F8"/>
<path d="M35.8567 26.4691C35.8915 26.9141 35.618 27.258 35.4295 27.4894C35.2992 27.6488 35.029 27.9409 34.1705 28.377C33.4779 28.7289 33.1316 28.9045 32.723 28.9701C31.7084 29.1319 30.8815 28.6658 30.5368 28.4741C30.057 28.2071 28.8943 27.5598 28.8158 26.4497C28.8101 26.3744 28.7721 25.6826 29.2438 25.1502C29.5747 24.7764 29.985 24.6769 30.5781 24.5321C30.9179 24.4495 31.5109 24.3395 32.2748 24.3905C33.3671 24.4633 34.1252 24.8201 34.5379 25.02C35.0565 25.2708 35.3688 25.5079 35.5986 25.8396C35.6997 25.9885 35.8349 26.1883 35.8567 26.4691Z" fill="#5E351E"/>
<path d="M35.4273 26.2975C35.4718 26.2409 34.9847 25.7012 34.4143 25.3193C33.6966 24.8395 33.0032 24.7149 32.6812 24.6607C32.2531 24.5878 30.9424 24.3661 29.859 25.0636C29.5054 25.2918 29.0927 25.6704 29.134 25.7352C29.1558 25.7692 29.3015 25.7044 29.4795 25.6429C29.8096 25.5297 30.0782 25.4981 30.6155 25.4342C31.9246 25.2796 33.6537 25.6526 34.2767 25.8565C34.8398 26.041 35.0899 26.1551 35.0899 26.1551C35.3132 26.2579 35.4095 26.3202 35.4273 26.2975Z" fill="#6E4F3F"/>
<path d="M31.9719 27.7051C32.0496 27.7132 31.9776 28.9868 31.9023 29.8727C31.8133 30.9165 31.6555 32.1617 31.5932 32.1561C31.556 32.1528 31.5625 31.6997 31.569 31.3227C31.5779 30.7668 31.607 30.6495 31.6685 29.7142C31.7097 29.0863 31.7227 28.7351 31.8335 28.1963C31.8748 27.9924 31.9347 27.7011 31.9719 27.7051Z" fill="#5E351E"/>
<path d="M33.3073 32.0623C32.7943 32.1529 31.6736 32.3374 30.4567 31.9053C28.6176 31.2532 27.7688 29.6244 27.7001 29.6811C27.6345 29.7353 28.3223 31.2661 29.9243 32.1246C31.3362 32.8811 32.7117 32.7144 33.088 32.657C35.2305 32.3301 36.5574 30.7006 36.5024 30.6205C36.4531 30.5501 35.2944 31.7111 33.3073 32.0623Z" fill="#5E351E"/>
<path d="M38.7306 58.5853C38.165 58.7464 37.6868 58.9284 37.5452 58.9956C36.5039 59.4924 35.8882 60.2279 33.7084 61.5046C29.8748 63.7491 26.3536 64.3543 26.449 64.7168C26.5081 64.9409 27.8707 64.7637 27.8747 64.8244C27.8812 64.9442 24.6423 65.246 24.6487 65.3261C24.6512 65.3512 24.9692 65.3228 24.9821 65.3884C24.9975 65.4661 24.5638 65.5712 23.8016 65.8803C23.1382 66.1498 23.0297 66.2469 22.6543 66.2978C22.3638 66.3367 22.0636 66.327 22.0604 66.3706C22.0564 66.4241 22.5006 66.4783 22.4965 66.5454C22.4925 66.6053 22.1364 66.6474 22.0984 66.6522C21.9997 66.6635 21.9148 66.666 21.914 66.6781C21.9131 66.6975 22.1446 66.6951 22.1527 66.7372C22.1777 66.8666 20.0562 67.3796 20.0716 67.4468C20.0765 67.4678 20.2892 67.4257 20.2998 67.4613C20.3208 67.5366 19.396 67.8505 19.4138 67.9039C19.4203 67.9258 19.5732 67.8893 19.578 67.9088C19.5845 67.9322 19.3499 67.9945 19.0748 68.128C18.8288 68.247 18.6233 68.3886 18.6322 68.4056C18.6387 68.4185 18.7535 68.3667 18.7576 68.3756C18.7649 68.3918 18.404 68.5731 18.362 68.5949C17.7972 68.8878 17.4412 69.9672 17.3384 70.4413C16.8101 72.8767 17.7308 76.9619 18.9113 77.1221C19.0101 77.1359 19.5287 77.178 19.5279 77.2354C19.5279 77.2694 19.3475 77.2896 19.3499 77.3171C19.3531 77.3608 19.7908 77.3422 19.7981 77.3964C19.8046 77.4458 19.4486 77.4919 19.4494 77.5631C19.4494 77.5809 19.4737 77.6513 20.3597 77.7638C20.9204 77.835 21.248 77.8504 21.2488 77.8924C21.2497 77.945 20.731 77.9717 20.7335 78.0146C20.7359 78.064 21.2934 78.1481 21.9059 78.0373C22.2611 77.9733 22.5734 77.8544 22.5871 77.89C22.6009 77.9248 22.321 78.0534 22.3331 78.0801C22.3517 78.1238 23.1203 77.818 23.1398 77.8617C23.1567 77.9005 22.5483 78.153 22.5685 78.225C22.6219 78.4135 27.3391 77.2217 28.039 77.0461C37.0574 74.7773 39.6587 74.9416 41.8886 73.855C42.3449 73.6324 42.8134 73.3331 43.4162 72.8816C44.235 72.2683 47.9464 69.4857 48.1576 65.1003C48.1867 64.4992 48.3663 60.77 45.8767 58.9737C43.4712 57.2374 39.8925 58.2552 38.7306 58.5853Z" fill="#9A582C"/>
<path d="M19.3401 71.6639C18.3821 70.027 16.5624 68.8838 14.8107 68.9444C14.5817 68.9525 13.1673 69.0011 12.8049 69.7981C12.6309 70.18 12.7879 70.5368 13.1204 71.3953C14.2483 74.3056 14.0736 74.3906 14.6197 75.1317C15.1311 75.8252 15.6117 76.4765 16.509 76.788C17.5155 77.1375 18.9307 77.0194 19.7034 76.1577C21.0465 74.6576 19.5108 71.956 19.3401 71.6639Z" fill="#5E351E"/>
<path d="M14.7026 69.6065C14.7148 69.2117 13.425 68.7084 12.6159 68.8686C12.5229 68.8872 11.98 69.0037 11.98 69.0037C13.1281 69.2715 13.2163 69.308 13.2163 69.3071C13.9243 69.5944 14.1621 69.9973 14.4761 69.8695C14.5788 69.8274 14.6994 69.7247 14.7026 69.6065Z" fill="#FFDFB5"/>
<path d="M14.6776 70.8996C14.7084 70.6196 13.8208 70.1964 13.1015 70.2547C12.9445 70.2676 12.6993 70.2879 12.4453 70.4303C12.3061 70.5079 12.0593 70.6819 12.0593 70.6819C12.0593 70.6819 12.5003 70.6714 12.6912 70.6811C13.4485 70.7216 13.6435 71.2701 14.2132 71.1787C14.3976 71.1496 14.6614 71.0452 14.6776 70.8996Z" fill="#FFDFB5"/>
<path d="M14.9238 72.3383C14.8809 71.924 13.9197 71.5138 13.1616 71.691C12.8752 71.7581 12.3557 71.9701 12.3557 71.9701C12.3557 71.9701 12.7586 71.9361 13.0815 72.0276C13.2457 72.0737 13.2829 72.123 13.5791 72.301C14.1697 72.6562 14.4699 72.8318 14.6892 72.7299C14.8251 72.6668 14.94 72.4952 14.9238 72.3383Z" fill="#FFDFB5"/>
<path d="M43.9756 49.1145C43.9958 49.4511 44.0379 50.1793 44.4667 50.4058C45.0784 50.7286 46.2257 49.905 46.1529 49.7075C46.0881 49.5328 43.3938 50.3087 38.0051 51.859C33.4441 53.1714 32.2507 53.614 31.2458 54.898C30.342 56.0526 29.5086 57.9929 30.2522 59.0949C30.6656 59.7082 31.478 59.9291 33.4474 59.9873C36.9395 60.0909 39.3296 59.5431 41.7643 59.1888C46.8131 58.4533 46.7904 59.315 48.1069 58.5892C53.4106 55.6651 54.0102 41.5768 47.945 36.8434C47.386 36.4065 46.8698 36.1387 46.5566 35.9914C46.1254 35.9235 45.7418 36.027 45.4586 36.1541C45.4012 36.18 45.1763 36.2819 44.9635 36.4623C44.3971 36.943 44.2401 37.6995 44.1835 37.9867C43.4626 41.6779 43.8591 47.175 43.9756 49.1145Z" fill="#9A582C"/>
<path d="M47.1585 51.9466C47.1731 51.9118 46.8284 51.5008 46.4951 51.186C45.6034 50.343 44.9052 50.1569 44.5702 50.1026C44.5395 50.0978 44.1648 50.0379 44.1559 50.0978C44.1414 50.1941 45.1261 50.3251 46.2208 51.1731C46.6998 51.5429 47.1432 51.9846 47.1585 51.9466Z" fill="#6B3E27"/>
<path d="M30.7159 56.9545C30.4076 56.8 29.5694 57.6471 29.4189 58.3527C29.4019 58.4336 29.3088 58.911 29.3088 58.911C29.9132 58.0905 29.9715 58.0331 29.9715 58.0331C30.4408 57.5719 30.8405 57.529 30.8462 57.2321C30.8486 57.135 30.8081 57.0007 30.7159 56.9545Z" fill="#FFDFB5"/>
<path d="M30.9606 57.6666C30.7502 57.5388 30.1094 58.0914 29.9079 58.6869C29.8642 58.8171 29.7955 59.0202 29.8205 59.2759C29.8343 59.4159 29.8861 59.6772 29.8861 59.6772C29.8861 59.6772 30.0293 59.3212 30.1037 59.1724C30.3966 58.5825 30.8967 58.6294 31.0213 58.1407C31.0609 57.983 31.0698 57.7337 30.9606 57.6666Z" fill="#FFDFB5"/>
<path d="M31.4721 58.5791C31.3216 58.4206 30.9891 58.5177 30.8022 58.6309C30.379 58.8874 30.3143 59.4627 30.2852 59.7184C30.2536 59.9999 30.3046 60.237 30.4057 60.712C30.4187 60.7727 30.4437 60.8851 30.4745 60.8851C30.5295 60.8851 30.4899 60.517 30.6565 60.0995C30.7221 59.936 30.8459 59.6245 31.1404 59.4174C31.2642 59.33 31.3208 59.3292 31.4001 59.2321C31.5449 59.0525 31.6137 58.728 31.4721 58.5791Z" fill="#FFDFB5"/>
</svg>
