<svg width="98" height="98" viewBox="0 0 98 98" fill="none" xmlns="http://www.w3.org/2000/svg">
<path fill-rule="evenodd" clip-rule="evenodd" d="M46.5359 17.6233C57.3495 16.0082 63.0493 -0.423559 73.9264 0.69569C83.2289 1.65292 86.9465 13.8434 91.0514 22.204C94.991 30.2278 99.4301 39.2289 97.0763 47.8459C94.7537 56.3488 83.4307 58.9474 78.9404 66.542C74.449 74.1383 77.8187 85.4091 71.3238 91.4021C64.8414 97.3836 54.6517 98.1322 45.8771 97.0504C37.473 96.0144 31.2108 89.5183 23.7474 85.5369C15.9396 81.3718 3.27758 81.5041 0.846314 73.0284C-1.81566 63.7484 11.9968 56.7686 12.735 47.1464C13.3934 38.5643 2.30157 31.3382 4.67954 23.0628C6.95368 15.1488 15.7338 9.22792 23.9374 8.1618C32.1814 7.09045 38.3141 18.8513 46.5359 17.6233Z" fill="#FFD359"/>
<path d="M27.3805 40.9802C27.18 41.0664 26.8969 41.1982 26.5725 41.3837C23.3478 43.2326 22.3025 46.8687 21.9781 47.9976C20.8897 51.7832 21.6739 55.2303 21.7512 55.2303C21.7855 55.2303 21.7996 54.549 21.8647 54.549C21.9376 54.5481 21.95 55.3974 22.117 56.4427C22.3403 57.8396 22.7526 59.0502 22.8493 59.03C22.9249 59.0151 22.8194 58.2397 22.8616 58.2344C22.8933 58.2309 22.9654 58.6502 23.026 58.9667C23.026 58.9667 23.1368 59.5426 23.4428 60.7048C23.8647 62.3075 24.6692 63.7282 24.7887 63.6833C24.8459 63.6622 24.7307 63.3097 24.8054 63.2798C24.9109 63.2376 25.2459 63.8882 25.601 64.4957C26.4705 65.985 27.2653 66.8887 27.173 66.974C27.1299 67.0144 26.8442 66.7586 26.8257 66.7806C26.8011 66.8087 27.2776 67.2448 27.7849 67.7397C28.4759 68.414 28.9559 68.9354 28.9902 68.9046C29.0148 68.8826 28.7959 68.5925 28.8108 68.582C28.8249 68.5714 29.0192 68.8299 29.0473 68.8114C29.0667 68.7982 28.9805 68.6655 28.9963 68.6488C29.0719 68.5696 31.4615 71.0066 32.9006 72.0317C36.5658 74.641 42.8491 74.3333 46.8378 71.7161C50.4405 69.353 52.6137 64.806 52.8019 64.9669C52.8582 65.0152 52.6507 65.4012 52.6982 65.432C52.7729 65.4803 53.4375 64.4983 54.0556 63.3299C54.6455 62.216 55.0771 61.1558 55.1545 61.1927C55.1906 61.2094 55.1264 61.4565 55.1501 61.4635C55.1914 61.4758 55.3857 60.7189 55.442 60.7329C55.4895 60.7443 55.3717 61.2833 55.4235 61.3008C55.558 61.3483 56.8161 57.8801 56.7264 55.9161C56.722 55.8123 56.6956 55.3226 56.7194 55.32C56.7581 55.3156 56.8934 56.353 56.8732 56.3574C56.8354 56.3653 56.9049 55.6119 56.9031 55.4879C56.8056 48.6481 53.128 44.5135 53.128 44.5135C52.8423 44.1926 52.3518 43.6722 51.6581 43.0946C50.5302 41.7222 49.4207 41.0233 48.7059 40.654C42.9994 37.7071 32.9032 40.5389 30.6983 40.465C30.6658 40.4641 30.6166 40.4624 30.5507 40.4606C29.3911 40.4316 28.8117 40.414 28.2798 40.5802C28.1163 40.6329 27.871 40.7481 27.3805 40.9802Z" fill="#FDCB98"/>
<path d="M32.1392 42.8385C32.431 44.1906 32.9207 45.184 33.2847 45.8038C34.9841 48.7033 37.6989 49.8901 38.6124 50.2743C39.3676 50.5926 39.7447 50.7508 40.2739 50.8299C44.1264 51.4031 47.3748 47.1577 47.8548 46.5318C48.5353 45.6421 49.5059 44.1203 50.0686 41.9039" stroke="#F7941D" stroke-width="2" stroke-miterlimit="10"/>
<path d="M41.0538 52.1743C40.9861 52.0758 40.7004 51.6811 40.2477 51.6424C39.6815 51.5949 39.198 52.1356 39.0784 52.5347C38.8445 53.3137 39.721 54.4653 41.336 55.3049C42.7954 54.0996 43.4882 52.7967 43.1154 52.1136C42.9097 51.7382 42.435 51.4525 41.9295 51.529C41.3483 51.6169 41.0802 52.1233 41.0538 52.1743Z" fill="#F8AB56" stroke="#F7941D" stroke-width="2" stroke-miterlimit="10"/>
<path d="M40.7236 50.9277C40.6129 51.0209 40.6973 51.2697 40.8661 51.7691C40.9162 51.9168 40.9601 52.0266 41.0199 52.0275C41.0744 52.0284 41.1184 51.9361 41.1457 51.8746C41.3109 51.5044 41.5254 51.0227 41.3672 50.904C41.3391 50.8829 41.3258 50.8934 41.0683 50.9031C40.772 50.9136 40.7562 50.9005 40.7236 50.9277Z" stroke="#F7941D" stroke-miterlimit="10"/>
<path d="M39.7209 52.3103C39.7218 52.3129 39.6989 52.3235 39.6927 52.3261C39.6242 52.3569 39.5107 52.4765 39.4659 52.64C39.4176 52.8141 39.4615 52.989 39.5187 53.062C39.5248 53.0699 39.5398 53.0875 39.538 53.0892C39.5345 53.0928 39.4457 53.0356 39.3938 52.9451C39.3217 52.8185 39.3534 52.6839 39.364 52.6409C39.3719 52.6083 39.4202 52.4202 39.5802 52.3464C39.64 52.32 39.7191 52.3059 39.7209 52.3103Z" fill="#FCD2A9"/>
<path d="M26.3921 41.9674C26.269 42.0878 26.8519 42.8166 26.778 42.8755C26.7006 42.938 25.9894 42.1538 24.938 41.1717C23.7212 40.035 23.5674 40.0508 23.5296 40.0816C23.4091 40.1809 23.8883 40.9282 23.825 40.9678C23.7326 41.0258 22.7155 39.3774 22.4166 39.5137C22.2416 39.5937 22.406 40.2451 22.326 40.2636C22.1906 40.2944 21.6913 38.4657 21.577 38.4921C21.4882 38.5123 21.7273 39.6376 21.5998 39.6728C21.4891 39.7036 21.1611 38.8974 20.8051 38.0147C20.4156 37.0503 20.2029 36.4314 20.1466 36.4472C20.0684 36.4692 20.4174 37.6543 20.2838 37.7026C20.1572 37.7483 19.5576 36.7945 19.2306 35.6516C19.0705 35.0916 19.0178 34.6344 18.9123 34.637C18.7417 34.6406 18.7048 35.845 18.5492 35.8485C18.4217 35.8511 18.3048 35.045 18.2028 34.3232C17.8512 31.837 17.743 30.8919 17.6507 30.8945C17.5188 30.8971 17.51 32.8102 17.3984 32.8128C17.299 32.8146 17.045 31.3156 17.103 29.8369C17.2806 25.3444 20.3251 21.7004 20.0982 21.5623C20.0341 21.5228 19.8143 21.8331 19.7598 21.7962C19.627 21.7065 20.6415 19.6783 22.0965 17.9165C23.0988 16.7033 24.1186 15.8479 24.8914 15.28C25.1059 15.1762 25.68 14.8984 25.651 14.8043C25.6334 14.7463 25.4013 14.7955 25.3872 14.7437C25.3687 14.6733 25.7811 14.53 25.7687 14.487C25.7494 14.4193 24.7173 14.6971 24.6883 14.6118C24.6672 14.5485 25.1753 14.3261 25.1947 14.3182C26.4598 13.7661 35.3612 9.18658 38.1507 8.33996C38.2764 8.30215 38.6404 8.1949 38.7045 8.30303C38.8311 8.51491 37.6733 9.3712 37.7384 9.45208C37.7982 9.52681 38.454 9.13471 39.0289 8.70744C40.2984 7.76587 40.8295 6.91837 40.9736 7.00629C41.2259 7.15926 39.7683 9.87934 39.9942 10.0121C40.149 10.1026 41.0554 8.88151 41.1653 8.96063C41.2391 9.01338 40.8444 9.56725 41.0132 9.76066C41.1152 9.87671 41.3719 9.80374 41.4862 9.77385C42.5482 9.49779 43.7781 9.75099 43.7851 9.82659C43.7931 9.90923 42.3917 10.0147 42.3908 10.1747C42.3891 10.42 45.6595 10.1 49.1137 11.2464C52.4887 12.3665 54.9108 14.5116 54.8677 14.5828C54.8413 14.6267 53.7776 14.0201 53.7336 14.094C53.6852 14.174 54.9433 14.8624 56.2858 16.2004C57.0111 16.924 57.6361 17.7117 57.5552 17.797C57.4893 17.8664 56.953 17.469 56.9346 17.4963C56.917 17.5227 57.4005 17.8726 57.3768 17.9077C57.3627 17.9288 57.2071 17.8005 57.157 17.8304C56.9425 17.9587 59.2256 20.6656 59.9175 24.2473C60.2657 26.0486 59.9905 26.9313 60.7808 28.7107C61.1044 29.4395 61.6987 30.527 61.587 30.5956C61.4939 30.6527 60.9936 29.9582 60.9057 30.0162C60.7782 30.1006 61.7084 31.6497 61.5413 31.7649C61.4552 31.8246 61.1474 31.4554 61.0648 31.5152C60.9276 31.6145 61.5791 32.7732 61.5527 32.7873C61.5396 32.7943 61.3866 32.4638 61.0455 32.1912C60.9409 32.1077 60.7448 31.9512 60.6674 32.0031C60.5637 32.0734 60.7861 32.4409 60.9391 33.0598C60.9945 33.2858 61.0297 33.721 61.0982 34.5817C61.1642 35.4098 61.1633 35.583 61.0982 35.6041C60.9286 35.6577 60.5303 34.601 60.3712 34.6502C60.2217 34.6968 60.5338 35.6472 60.4617 36.9439C60.4063 37.9514 60.1356 38.8631 60.0072 38.8517C59.8314 38.8359 59.9 37.0872 59.7575 37.0802C59.6854 37.0767 59.6177 37.5162 59.5078 38.0798C59.2529 39.3836 58.8915 40.7313 58.7808 40.7146C58.6779 40.6988 58.8335 39.5146 58.6902 39.4882C58.5839 39.4688 58.4379 40.1133 58.0388 41.0249C57.5966 42.0351 57.0752 42.843 57.0093 42.8114C56.9363 42.7771 57.3891 41.7256 57.3117 41.6904C57.2801 41.6764 57.1851 41.8399 57.0999 41.963C56.793 42.4034 56.4273 42.5793 55.9183 42.8711C54.8475 43.4865 54.3921 43.9006 54.3437 43.84C54.2681 43.7468 55.3741 42.7938 55.3125 42.719C55.2633 42.6593 54.4624 43.4531 53.4725 43.9648C51.686 44.887 50.9256 44.0395 48.5712 44.6066C46.3734 45.1367 44.5175 46.4827 44.4665 46.3869C44.4515 46.3587 44.6195 46.2567 44.5984 46.2145C44.5289 46.0774 42.5886 46.9319 42.5508 46.8502C42.5376 46.8203 42.7829 46.6884 42.7688 46.6603C42.7416 46.6049 41.7886 47.055 41.7429 46.9706C41.7121 46.9143 42.1104 46.6726 42.0778 46.6119C42.0497 46.5592 41.7227 46.6875 41.0677 46.9161C40.4892 47.1183 40.1973 47.2089 40.1833 47.1763C40.1666 47.1385 40.5367 46.9697 40.5156 46.9126C40.4883 46.8379 39.8791 47.1667 39.13 47.0849C38.5305 47.0198 38.0399 46.713 37.9959 46.7948C37.9713 46.8396 38.1137 46.9478 38.097 46.9706C38.0478 47.0365 36.7704 46.1196 36.6931 46.2145C36.6509 46.2655 36.9832 46.5829 36.9498 46.6198C36.9005 46.6726 36.1471 46.0405 36.1128 46.08C36.0891 46.1073 36.4636 46.4036 36.4223 46.4721C36.3352 46.6163 34.2895 45.8866 32.5075 44.3516C32.0327 43.9428 31.3496 43.2817 31.3127 43.3186C31.2793 43.352 31.8015 43.8971 31.7382 43.9666C31.6951 44.0132 31.412 43.8171 31.3329 43.7644C30.3052 43.0751 29.2731 43.4874 27.9033 42.8667C27.0005 42.4632 26.5046 41.8575 26.3921 41.9674Z" fill="#9A582C"/>
<path d="M19.351 30.2474C19.111 27.9309 19.6534 26.2016 20.0306 25.6961C20.0306 25.6961 20.3268 25.2987 20.2943 25.2706C20.2767 25.2556 20.18 25.3514 20.1659 25.3383C20.1361 25.311 20.5299 24.8644 20.4965 24.8319C20.471 24.8073 20.2187 25.0455 20.1923 25.0209C20.1554 24.9857 20.6187 24.4521 20.5906 24.4266C20.5765 24.4143 20.4666 24.5338 20.4455 24.518C20.3893 24.4758 21.0117 23.5536 20.9924 23.5404C20.9862 23.536 20.9238 23.6257 20.9079 23.616C20.8824 23.6011 21.0258 23.3461 20.9924 23.3224C20.9493 23.2925 20.6627 23.6837 20.6222 23.66C20.558 23.6213 21.0354 22.4582 21.853 21.2933C23.1656 19.4233 24.7463 18.4176 24.5872 18.1855C24.5072 18.0677 24.0887 18.3042 24.0298 18.2084C23.8997 17.9965 25.6571 16.3727 28.0378 15.163C29.3689 14.486 30.5689 14.1045 30.5223 13.948C30.4837 13.817 29.6309 14.0139 29.623 13.9761C29.6054 13.8873 34.2121 12.1695 36.5718 13.5155C38.221 14.457 38.6448 14.8658 38.6448 14.8658C39.0878 15.294 39.2954 15.6166 39.6875 15.6351C40.1842 15.6588 40.4136 15.1393 41.109 14.6091C41.6436 14.2012 42.1033 14.0474 42.9315 13.7722C44.55 13.2333 47.0213 13.4768 49.2104 14.2715C49.3027 14.3049 50.2082 14.5546 50.1862 14.6759C50.1625 14.8078 49.0662 14.6733 49.0477 14.7841C49.031 14.8852 49.9374 15.0953 50.4517 15.243C53.1164 16.007 55.0585 17.8963 54.9688 18.0448C54.9196 18.1257 54.2268 17.7503 54.1785 17.8356C54.1266 17.9288 54.9442 18.3816 55.5279 18.8888C57.4673 20.5733 58.0537 23.2468 57.8911 23.3294C57.8313 23.3602 57.6388 23.056 57.5825 23.0912C57.5157 23.1334 57.7548 23.5923 58.0467 24.2631C58.4379 25.1624 58.7061 25.944 58.6559 25.9668C58.6313 25.9783 58.5346 25.8007 58.5126 25.813C58.474 25.8332 58.7298 26.3721 58.6946 26.3906C58.6753 26.4003 58.5865 26.2385 58.5627 26.2491C58.5285 26.2649 58.6727 26.6192 58.7852 26.9779C58.8467 27.1739 58.9188 27.5098 59.0586 28.1726C59.1975 28.8294 59.2538 29.1406 59.2089 29.1546C59.172 29.1661 59.0955 28.9788 59.0656 28.9894C59.0076 29.0105 59.2142 29.705 59.2142 29.705C59.456 30.5156 59.7373 33.422 58.3254 36.1966C57.5685 37.6841 56.4924 38.8059 56.4176 38.7576C56.3807 38.7338 56.561 38.4156 56.5065 38.3804C56.4502 38.3444 56.2128 38.6494 55.7776 39.1092C55.6721 39.2209 55.011 39.9198 54.9451 39.8662C54.902 39.831 55.1394 39.4961 55.1095 39.4741C55.062 39.4389 54.3938 40.2671 54.3807 40.2847C52.7938 42.2531 47.9048 43.3546 47.8389 43.1604C47.8169 43.0971 48.3058 42.9045 48.2847 42.8562C48.2161 42.7014 44.3127 44.276 44.2678 44.1661C44.2538 44.1318 44.6274 43.9665 44.6072 43.9147C44.565 43.8048 42.7891 44.2716 41.3781 44.5169C41.3438 44.523 40.9244 44.5942 40.9077 44.5345C40.8892 44.4703 41.3534 44.3217 41.3376 44.247C41.3174 44.1512 40.5464 44.3261 39.7006 44.3217C38.3889 44.3156 37.2926 43.8804 36.7871 43.6799C36.0548 43.3889 35.3946 43.0188 35.3559 43.0856C35.3242 43.1401 35.7471 43.4171 35.7137 43.4733C35.668 43.5498 34.8328 43.1445 34.5998 43.0311C33.8789 42.6812 33.442 42.4175 33.3576 42.5177C33.3066 42.5784 33.4446 42.6988 33.398 42.7744C33.2653 42.9898 31.8393 42.4606 30.6032 41.7819C30.336 41.635 30.0159 41.4478 29.9957 41.4777C29.9579 41.5339 31.0208 42.2645 30.9804 42.3278C30.9417 42.3885 29.9447 41.7695 28.2541 40.8702C27.1833 40.3005 27.1657 40.3269 26.5125 39.9523C25.2861 39.249 24.6619 38.8842 24.0817 38.2371C23.7872 37.9083 23.3494 37.343 23.2984 37.38C23.2694 37.4002 23.3757 37.6015 23.359 37.6094C23.3459 37.6156 23.2808 37.4907 23.1902 37.3668C23.0355 37.1549 22.8351 36.9791 22.8078 37.0002C22.77 37.0301 23.0874 37.4529 23.0689 37.4679C23.0258 37.5013 20.908 35.6076 19.8961 32.7433C19.547 31.756 19.4099 30.8778 19.351 30.2474Z" fill="#FFDFB5"/>
<path d="M17.6701 28.9754C17.7976 28.4821 18.1123 27.7147 21.3493 25.4324C24.0932 23.4974 25.4647 22.5303 27.0278 22.2982C27.9043 22.1681 30.4397 21.7909 32.2068 23.4789C33.7489 24.9515 33.7093 27.0465 33.7058 27.1582C33.6741 28.0839 33.3612 28.7573 33.0702 29.3842C32.7088 30.1631 32.1541 31.357 30.9954 31.9434C30.6754 32.1051 30.1294 32.3126 28.5426 32.2159C25.5772 32.0357 24.9556 31.1592 22.5459 31.2471C20.654 31.3156 20.0236 31.8932 19.7898 32.1552C19.3062 32.6968 19.3344 33.2172 19.0627 33.2454C18.4754 33.3069 17.1497 30.9842 17.6701 28.9754Z" fill="#9A582C"/>
<path d="M60.1006 34.5173C60.083 32.9251 59.3349 31.8315 58.2843 30.2965C57.0614 28.5092 55.8623 26.8019 53.5809 25.8304C52.7659 25.4832 50.4071 24.4783 48.2717 25.666C46.4079 26.7025 45.9173 28.7386 45.8927 28.8477C45.6677 29.8481 45.8417 30.671 45.9463 31.1625C46.0721 31.7559 46.3376 33.0051 47.3213 33.8817C47.7029 34.2219 48.1812 34.4953 49.6836 34.8505C51.5131 35.283 52.7624 35.3393 55.377 35.6989C57.2249 35.9521 58.0118 36.1173 58.3749 36.7591C58.7977 37.5046 58.3582 38.3794 58.5243 38.4348C58.7731 38.5165 60.1244 36.6914 60.1006 34.5173Z" fill="#9A582C"/>
<path d="M35.2795 31.1253C35.1705 31.578 35.3955 31.9771 35.552 32.2462C35.6602 32.4317 35.8905 32.7772 36.7028 33.3671C37.3578 33.8427 37.6857 34.081 38.0963 34.2155C39.1143 34.5487 40.0418 34.2049 40.4278 34.0642C40.9649 33.8682 42.2687 33.3926 42.5325 32.262C42.55 32.1855 42.7039 31.4795 42.3056 30.8536C42.0261 30.4149 41.6208 30.2443 41.0335 29.9982C40.6977 29.8575 40.1043 29.6465 39.3104 29.5736C38.1736 29.4698 37.3349 29.7125 36.8769 29.8505C36.3019 30.0237 35.9415 30.2162 35.6505 30.5204C35.5195 30.6567 35.3481 30.8404 35.2795 31.1253Z" fill="#5E351E"/>
<path d="M35.7487 31.0198C35.7118 30.9547 36.3026 30.4783 36.9523 30.1793C37.7699 29.8039 38.504 29.789 38.8451 29.7855C39.297 29.7811 40.6834 29.7679 41.6839 30.6638C42.0109 30.9565 42.3731 31.4145 42.3195 31.4734C42.2914 31.5051 42.1516 31.4137 41.9784 31.3222C41.6566 31.1517 41.385 31.0743 40.8425 30.9213C39.5203 30.5468 37.6793 30.647 37.0042 30.7552C36.394 30.8528 36.118 30.9293 36.118 30.9293C35.8727 30.997 35.7628 31.0453 35.7487 31.0198Z" fill="#6E4F3F"/>
<path d="M41.1942 38.8064C40.9683 39.1889 41.2039 39.8377 41.6795 40.0856C42.1322 40.3212 42.7134 40.148 42.9499 39.8254C43.022 39.7269 43.0483 39.6346 43.0545 39.61C43.1486 39.2495 42.8927 38.8653 42.6316 38.6675C42.5771 38.6262 42.2307 38.3713 41.7762 38.4609C41.6769 38.4803 41.3489 38.5445 41.1942 38.8064Z" fill="#5E351E"/>
<path opacity="0.76" d="M27.3902 34.1377C30.6952 34.1377 33.3745 31.4584 33.3745 28.1534C33.3745 24.8483 30.6952 22.169 27.3902 22.169C24.0851 22.169 21.4058 24.8483 21.4058 28.1534C21.4058 31.4584 24.0851 34.1377 27.3902 34.1377Z" fill="#FBF060" stroke="#6C3F27" stroke-miterlimit="10"/>
<path opacity="0.76" d="M52.1916 37.2394C55.4967 37.2394 58.176 34.5601 58.176 31.255C58.176 27.9499 55.4967 25.2706 52.1916 25.2706C48.8866 25.2706 46.2073 27.9499 46.2073 31.255C46.2073 34.5601 48.8866 37.2394 52.1916 37.2394Z" fill="#FBF060" stroke="#6C3F27" stroke-miterlimit="10"/>
<path d="M33.5054 28.1919C33.7867 28.0793 34.1867 27.9299 34.6746 27.7795C35.7832 27.4376 38.0427 26.7413 40.7416 27.1483C43.4626 27.5589 45.395 28.9031 46.3629 29.6978" stroke="#6C3F27" stroke-miterlimit="10"/>
<path d="M23.7775 26.004C23.7133 26.0277 23.7827 26.5895 23.875 27.0018C23.912 27.168 23.9507 27.2972 23.8909 27.4414C23.8751 27.4792 23.8206 27.5961 23.4399 27.7992C23.1999 27.9267 22.857 28.1051 22.4807 28.0831C22.3269 28.0744 22.2328 28.0348 22.2038 28.0225C22.0174 27.9407 21.948 27.8124 21.9269 27.8264C21.8917 27.8502 21.984 28.2774 22.3383 28.448C22.5915 28.5693 22.8632 28.5043 23.0135 28.4278C23.024 28.4225 23.0953 28.375 23.2359 28.2792C23.461 28.1271 23.5735 28.0515 23.5937 28.0366C23.7836 27.8924 23.8232 27.8291 23.9129 27.8361C23.9981 27.8423 24.0579 27.9064 24.1036 27.9566C24.1124 27.9662 24.2733 28.1456 24.2399 28.3662C24.2285 28.4454 24.1933 28.5174 23.9577 28.7451C23.643 29.0493 23.4812 29.2023 23.235 29.2788C23.1542 29.3034 23.0241 29.343 22.857 29.3263C22.5599 29.2964 22.384 29.1144 22.3779 29.1241C22.3682 29.1381 22.7383 29.5777 23.2148 29.5496C23.3933 29.539 23.5251 29.4661 23.5928 29.4282C24.0052 29.1962 24.1617 28.7153 24.3612 28.7531C24.3674 28.7539 24.3735 28.7557 24.3779 28.7575C24.4131 28.7698 24.4623 28.8093 24.6232 28.9922C24.7903 29.1821 24.7824 29.1575 24.8061 29.2313C24.8553 29.3852 24.7744 29.5346 24.6663 29.7333C24.603 29.8494 24.5291 29.9812 24.3762 30.0911C24.3366 30.1193 24.2593 30.1738 24.1467 30.2063C23.9014 30.2766 23.715 30.1782 23.708 30.1993C23.6975 30.2309 24.0852 30.4384 24.37 30.3681C24.4518 30.3478 24.5388 30.3074 24.5388 30.3074C24.596 30.2881 24.6751 30.2511 24.741 30.179C24.8034 30.1113 24.821 30.0472 24.8896 29.8546C24.9924 29.5654 25.0092 29.5469 25.0303 29.539C25.1577 29.4907 25.3881 29.823 25.4672 29.9241C26.0149 30.6309 27.295 30.6292 27.9121 30.6344C28.371 30.638 29.2976 30.6336 30.2287 30.0463C31.0999 29.4968 31.4929 28.7425 31.7083 28.3293C32.0476 27.6787 32.2278 26.9789 32.1408 26.9385C32.0555 26.8989 31.805 27.5187 31.2177 28.1605C30.9874 28.412 30.3306 29.1214 29.2686 29.481C28.8959 29.6067 27.5218 30.0727 26.2532 29.3817C25.7072 29.0845 25.4109 28.6722 24.9714 28.0752C24.1845 27.0018 23.8671 25.9706 23.7775 26.004Z" fill="#231F1C"/>
<path d="M55.9274 29.4183C55.9863 29.4535 55.8184 29.9933 55.6549 30.3836C55.589 30.5401 55.5283 30.6606 55.5617 30.8135C55.5705 30.8531 55.603 30.9788 55.9424 31.2452C56.156 31.4131 56.462 31.6496 56.8356 31.6936C56.9886 31.712 57.0888 31.6901 57.1187 31.683C57.3165 31.6355 57.4079 31.5221 57.4255 31.5388C57.4554 31.5679 57.2892 31.9723 56.9103 32.0778C56.6396 32.1525 56.3837 32.04 56.2492 31.9389C56.2395 31.9318 56.1789 31.872 56.0558 31.7534C55.8606 31.5643 55.7639 31.4694 55.7463 31.4509C55.5846 31.2751 55.5573 31.2065 55.4676 31.1969C55.3824 31.1881 55.3129 31.2408 55.2584 31.2821C55.2479 31.29 55.058 31.4386 55.0518 31.661C55.0492 31.741 55.0711 31.8184 55.2628 32.0839C55.5186 32.4382 55.6514 32.6184 55.88 32.7362C55.9556 32.7749 56.0769 32.8365 56.2439 32.8497C56.5411 32.8725 56.7468 32.7248 56.7512 32.7354C56.7582 32.7512 56.316 33.1187 55.8518 33.0061C55.6786 32.9639 55.5617 32.869 55.501 32.8198C55.1362 32.5182 55.0668 32.0171 54.8646 32.0189C54.8584 32.0189 54.8514 32.0197 54.847 32.0197C54.81 32.025 54.7547 32.0558 54.5639 32.207C54.3652 32.3644 54.3784 32.3415 54.3414 32.4101C54.2658 32.5525 54.3186 32.7143 54.3898 32.9288C54.4311 33.0536 54.4804 33.1969 54.6122 33.3323C54.6456 33.3666 54.7125 33.4343 54.818 33.4862C55.0474 33.5987 55.2479 33.5345 55.2514 33.5574C55.2558 33.5899 54.8382 33.7262 54.57 33.6066C54.4927 33.5723 54.4144 33.5169 54.4144 33.5169C54.3617 33.4879 54.2905 33.4378 54.2377 33.3552C54.1885 33.2769 54.1823 33.211 54.1489 33.0097C54.0988 32.7072 54.0856 32.6861 54.0663 32.6738C53.9494 32.6035 53.6636 32.8901 53.5678 32.9754C52.9032 33.5741 51.6443 33.3464 51.0359 33.2426C50.5831 33.1653 49.6723 32.9973 48.86 32.2545C48.1004 31.5591 47.8463 30.7476 47.7065 30.3028C47.4876 29.6021 47.434 28.8821 47.5272 28.8574C47.6177 28.8337 47.7549 29.4878 48.2199 30.2236C48.4019 30.512 48.9233 31.327 49.9053 31.8685C50.2499 32.0584 51.5203 32.76 52.8909 32.3037C53.4808 32.1077 53.8456 31.7542 54.3836 31.2443C55.3507 30.3291 55.8457 29.3691 55.9274 29.4183Z" fill="#231F1C"/>
<path d="M37.1123 8.81899C36.2807 8.84537 35.1281 8.91658 33.7681 9.11439C32.3887 9.31483 29.0822 9.89331 25.112 11.7703C25.112 11.7703 21.5409 13.4583 19.4722 15.8038C18.9544 16.3911 18.7628 16.7779 18.6529 17.1155C18.2327 18.4043 18.9755 19.0602 18.587 20.2303C18.2854 21.1385 17.67 21.0207 17.2753 22.0009C16.8955 22.9451 16.6634 24.6208 17.2753 25.2142C18.5878 26.4872 22.6662 22.182 31.8014 17.4188C33.5439 16.5098 37.2442 14.6601 38.061 11.1883C38.104 11.0046 38.1304 10.8525 38.1462 10.754C38.6192 10.2318 39.0544 9.84936 39.3692 9.59176C40.1173 8.979 41.1371 8.30293 42.229 8.04886C42.6994 7.93985 43.1547 7.97149 43.1547 7.97149C43.7886 8.01633 44.3267 8.25722 44.5895 8.44184C45.5786 9.13812 45.757 11.2076 44.9342 12.6222C43.9469 14.3207 41.5907 14.9511 39.9661 14.1959C39.8711 14.1519 38.2298 13.3598 38.0478 11.8354C38.0073 11.4969 38.0487 11.2059 38.097 10.9993" fill="#E1AC50"/>
<path d="M48.9164 10.688C50.5015 10.7205 51.7121 11.2603 52.2607 11.5407C54.092 12.4761 54.9852 13.8107 56.6222 16.3277C58.6803 19.4926 59.7766 22.2391 60.0974 25.1482C60.2258 26.3104 60.137 26.6542 59.9664 26.7219C59.3255 26.9777 58.0921 23.113 54.3926 19.344C53.11 18.0376 50.709 15.591 48.5235 14.6881C47.7779 14.3795 47.0641 13.903 45.6381 12.95C44.9471 12.4885 44.7475 12.3188 44.7528 12.0972C44.7686 11.3693 46.9849 10.6493 48.9164 10.688Z" fill="#E1AC50"/>
<path opacity="0.51" d="M22.4729 17.6114C22.974 17.6114 23.3802 17.2052 23.3802 16.7041C23.3802 16.203 22.974 15.7968 22.4729 15.7968C21.9719 15.7968 21.5657 16.203 21.5657 16.7041C21.5657 17.2052 21.9719 17.6114 22.4729 17.6114Z" fill="white"/>
<path opacity="0.51" d="M32.586 13.9102C33.0871 13.9102 33.4933 13.504 33.4933 13.0029C33.4933 12.5018 33.0871 12.0956 32.586 12.0956C32.0849 12.0956 31.6787 12.5018 31.6787 13.0029C31.6787 13.504 32.0849 13.9102 32.586 13.9102Z" fill="white"/>
<path opacity="0.51" d="M29.0647 17.3893C29.5658 17.3893 29.972 16.9831 29.972 16.482C29.972 15.981 29.5658 15.5748 29.0647 15.5748C28.5637 15.5748 28.1575 15.981 28.1575 16.482C28.1575 16.9831 28.5637 17.3893 29.0647 17.3893Z" fill="white"/>
<path opacity="0.51" d="M26.5362 13.2458C27.0372 13.2458 27.4434 12.8396 27.4434 12.3386C27.4434 11.8375 27.0372 11.4313 26.5362 11.4313C26.0351 11.4313 25.6289 11.8375 25.6289 12.3386C25.6289 12.8396 26.0351 13.2458 26.5362 13.2458Z" fill="white"/>
<path opacity="0.51" d="M40.002 13.9102C40.5031 13.9102 40.9093 13.504 40.9093 13.0029C40.9093 12.5018 40.5031 12.0956 40.002 12.0956C39.501 12.0956 39.0947 12.5018 39.0947 13.0029C39.0947 13.504 39.501 13.9102 40.002 13.9102Z" fill="white"/>
<path opacity="0.51" d="M46.251 13.003C46.7521 13.003 47.1583 12.5968 47.1583 12.0957C47.1583 11.5946 46.7521 11.1884 46.251 11.1884C45.7499 11.1884 45.3438 11.5946 45.3438 12.0957C45.3438 12.5968 45.7499 13.003 46.251 13.003Z" fill="white"/>
<path opacity="0.51" d="M54.2647 18.1362C54.7658 18.1362 55.172 17.73 55.172 17.2289C55.172 16.7278 54.7658 16.3216 54.2647 16.3216C53.7637 16.3216 53.3574 16.7278 53.3574 17.2289C53.3574 17.73 53.7637 18.1362 54.2647 18.1362Z" fill="white"/>
<path opacity="0.51" d="M58.1776 23.0763C58.6786 23.0763 59.0848 22.6701 59.0848 22.1691C59.0848 21.668 58.6786 21.2618 58.1776 21.2618C57.6765 21.2618 57.2703 21.668 57.2703 22.1691C57.2703 22.6701 57.6765 23.0763 58.1776 23.0763Z" fill="white"/>
<path opacity="0.51" d="M53.5953 15.0611C54.0963 15.0611 54.5025 14.6549 54.5025 14.1538C54.5025 13.6527 54.0963 13.2465 53.5953 13.2465C53.0942 13.2465 52.688 13.6527 52.688 14.1538C52.688 14.6549 53.0942 15.0611 53.5953 15.0611Z" fill="white"/>
<path d="M36.1816 9.98927C34.8198 10.0956 31.1133 11.2711 30.5515 11.453C29.0957 11.9269 27.2468 13.0575 23.5333 15.2905C21.5763 16.4668 20.5864 17.0655 20.6549 17.2088C20.7947 17.5016 24.6832 14.545 30.7027 13.5736C33.4026 13.1375 36.0067 13.2078 37.5188 11.3018C37.9663 10.7374 38.7469 9.46002 38.5456 9.28243C38.463 9.20947 38.2546 9.35716 37.8476 9.53475C37.2155 9.81168 36.8102 9.94004 36.1816 9.98927Z" fill="#D29336"/>
<path d="M45.3193 11.7818C45.6973 11.5207 47.9436 10.5466 50.2671 11.7818C51.1296 12.2398 51.8777 13.1814 53.3723 15.0636C54.1521 16.0448 55.0813 17.3072 54.9882 17.3864C54.8739 17.4831 53.7002 15.4083 51.1762 14.0034C50.0588 13.3818 47.4582 12.2134 46.0006 12.2108C45.8547 12.2108 45.1593 12.2214 45.1171 12.0341C45.096 11.9365 45.2604 11.8222 45.3193 11.7818Z" fill="#D29336"/>
<path d="M50.8433 55.906C51.0736 57.841 51.1967 58.8309 51.5537 59.9254C52.5005 62.8266 54.2421 65.0051 54.2922 64.977C54.3115 64.9656 54.1049 64.5963 54.148 64.5691C54.1999 64.5366 54.548 65.0561 54.7353 65.2698C55.9854 66.6975 59.8221 65.6417 59.8098 65.4966C59.8054 65.4491 59.3816 65.4843 59.364 65.3788C59.3438 65.2575 59.8889 65.1098 60.3566 64.9076C61.7553 64.3027 62.5975 63.1449 62.5483 63.086C62.5219 63.0534 62.1905 63.2943 62.1571 63.2504C62.1254 63.2082 62.3988 62.955 62.376 62.9304C62.3593 62.9119 62.1975 63.0402 62.1905 63.0315C62.1667 63.0033 63.0406 62.2534 63.0406 62.2534C64.6873 60.8406 68.7542 51.0961 65.9945 49.1893C65.8908 49.1181 65.3791 48.7822 64.7831 48.886C62.9553 49.206 63.0397 53.1832 61.5513 53.4558C60.455 53.6562 59.0484 51.7485 58.4462 50.3506C57.6022 48.3928 58.2554 47.2472 57.1081 45.0116C56.9006 44.6071 56.3107 43.5363 56.389 43.488C56.4259 43.4651 56.5806 43.684 56.5956 43.6735C56.6308 43.648 56.098 42.215 54.8874 41.7165C54.0249 41.3622 53.1757 41.6277 52.8038 41.7438C52.5515 41.8229 51.6003 42.135 50.9488 43.059C50.7897 43.2849 50.5277 43.7192 50.3202 44.979C49.9712 47.1066 50.2068 48.9879 50.2666 48.9871C50.3026 48.9862 50.293 48.3312 50.3264 48.3303C50.4011 48.3295 50.3483 51.7546 50.8433 55.906Z" fill="#9A582C"/>
<path d="M31.418 73.4976C33.5535 73.2567 36.38 73.0281 36.3747 72.956C36.3738 72.9393 36.2173 72.9296 36.2182 72.9112C36.22 72.8795 36.6754 72.8865 36.6762 72.8663C36.6771 72.8435 36.0749 72.8189 36.0749 72.7925C36.0749 72.7301 39.4227 72.6668 39.4218 72.6017C39.4218 72.5885 39.2908 72.5745 39.2917 72.5569C39.2935 72.5358 39.4904 72.541 39.4913 72.5252C39.4913 72.5164 39.4297 72.5103 39.3383 72.4865C39.2548 72.4646 39.1554 72.4312 39.1572 72.4206C39.1616 72.3995 39.5845 72.4813 39.5906 72.4523C39.5941 72.4355 39.457 72.3951 39.4623 72.3758C39.4658 72.3626 39.5344 72.3687 39.5388 72.3696C39.7647 72.3898 42.2641 71.9327 43.145 71.8061C44.7301 71.5784 45.829 71.7612 45.8317 71.6874C45.8334 71.6382 45.3385 71.5327 44.8154 71.5511C44.4532 71.5643 44.2334 71.6311 44.222 71.5942C44.2026 71.5318 44.8172 71.3058 45.5082 70.9946C45.5082 70.9946 45.9926 70.7766 47.0089 70.2333C47.9838 69.7128 49.8846 68.4512 52.2248 66.6367C52.9282 66.3765 56.7868 64.9505 59.979 67.0956C60.4414 67.4059 62.394 68.8029 62.8863 71.3806C63.4516 74.338 61.6687 76.6159 61.2361 77.1311C59.5569 79.1303 56.9081 79.9487 56.9177 79.9681C56.9186 79.9698 57.4092 79.7298 57.3942 79.6964C57.3696 79.6419 56.0465 80.1703 56.0342 80.1386C56.0307 80.1299 56.1432 80.0859 56.298 79.969C56.407 79.8854 56.5204 79.7782 56.5107 79.765C56.4878 79.7342 55.854 80.1764 55.8364 80.1518C55.8258 80.1369 56.0676 79.9655 56.0509 79.9391C56.0316 79.9074 55.6685 80.2028 55.1296 80.3804C54.5062 80.5861 54.1511 80.4692 53.5102 80.6846C53.4776 80.6951 53.3387 80.7426 53.3308 80.725C53.3132 80.6872 53.9023 80.3874 53.8917 80.3681C53.8812 80.3479 53.2649 80.6547 53.2368 80.6063C53.2183 80.5747 53.4917 80.398 53.4785 80.3769C53.4627 80.3514 53.0662 80.5738 53.0662 80.5738C52.0297 81.1541 49.3307 81.2402 49.3246 81.1611C49.3219 81.1277 49.7966 81.0741 49.7931 81.0486C49.7887 81.016 49.0036 81.0978 48.7707 81.1207C46.4049 81.3545 43.9362 81.1523 43.9354 81.0741C43.9354 81.0547 44.0822 81.06 44.331 80.9589C44.5815 80.8569 44.7908 80.7066 44.7776 80.6784C44.7538 80.6301 44.0822 80.9237 44.0637 80.8824C44.0488 80.8499 44.4734 80.6776 44.4523 80.5888C44.425 80.4727 43.6611 80.5809 42.8769 80.6529C41.1476 80.8121 39.7972 80.7549 39.7946 80.7127C39.7937 80.7031 39.8623 80.6978 40.0398 80.638C40.1497 80.6011 40.2992 80.5439 40.2965 80.5334C40.2886 80.5061 39.2328 80.8165 39.217 80.7672C39.2082 80.7417 39.493 80.6336 39.4851 80.6099C39.4763 80.5844 39.1405 80.682 39.1405 80.682C38.773 80.7892 36.605 80.5123 30.6461 79.3826C26.6513 78.6072 23.9312 77.6243 23.8152 77.1566C23.7396 76.8541 23.7862 76.5104 23.9787 76.1192C23.9928 76.091 24.0068 76.0629 24.0209 76.0348C24.9756 74.2061 31.418 73.4976 31.418 73.4976Z" fill="#9A582C"/>
<path d="M24.7948 77.8827C24.7948 77.8827 23.8049 78.0541 23.3354 77.7306C22.866 77.4071 22.1327 76.9051 22.1477 76.716C22.1626 76.5279 22.917 77.087 23.433 77.1108C23.9491 77.1354 24.7253 76.9121 25.0471 77.1759C25.3689 77.4396 24.7948 77.8827 24.7948 77.8827Z" fill="#9A582C"/>
<path d="M24.8617 77.0077C24.8617 77.0077 23.8718 77.1791 23.4023 76.8556C22.9329 76.5321 22.1996 76.0301 22.2146 75.841C22.2295 75.6529 22.9838 76.212 23.4999 76.2358C24.016 76.2604 24.7922 76.0371 25.114 76.3008C25.4358 76.5646 24.8617 77.0077 24.8617 77.0077Z" fill="#9A582C"/>
<path d="M24.9286 76.1788C24.9286 76.1788 23.9387 76.3503 23.4692 76.0267C22.9998 75.7032 22.2665 75.2012 22.2815 75.0122C22.2964 74.8241 23.0507 75.3832 23.5668 75.4069C24.0829 75.4316 24.8591 75.2082 25.1809 75.472C25.5027 75.7357 24.9286 76.1788 24.9286 76.1788Z" fill="#9A582C"/>
<path d="M70.5791 42.8062L61.6232 43.8208L61.6514 43.8533L50.1917 53.6417C51.0726 54.9244 51.9306 56.2607 53.1913 57.1759C54.4793 56.0814 62.9587 48.875 64.724 47.3505L70.8446 43.4471L70.5791 42.8062Z" fill="#B55827"/>
<path d="M53.2052 57.3326C53.1683 57.3361 53.1314 57.3265 53.0997 57.3036C51.9164 56.4447 51.0803 55.22 50.2715 54.0349L50.064 53.7308C50.0183 53.6648 50.0306 53.576 50.0913 53.5242L61.4692 43.8052C61.471 43.7911 61.4745 43.7779 61.4789 43.7647C61.5 43.7102 61.5492 43.6724 61.6064 43.6663L70.5622 42.6517C70.6282 42.6429 70.6976 42.6825 70.724 42.7476L70.9886 43.3885C71.0177 43.4588 70.993 43.5397 70.928 43.5801L64.8073 47.4835C62.9559 49.0853 53.6861 56.9608 53.2923 57.2966C53.2668 57.3168 53.2369 57.3291 53.2052 57.3326ZM50.4007 53.6701L50.5291 53.8591C51.3001 54.9879 52.0966 56.1537 53.185 56.9775C54.2444 56.0763 62.831 48.7803 64.6219 47.2339L70.651 43.3867L70.4805 42.9753L61.7646 43.9634C61.7611 43.9669 61.7576 43.9705 61.7541 43.9731L50.4007 53.6701Z" fill="#5C3010"/>
<path d="M50.6972 54.474C50.6533 54.4758 50.6093 54.4582 50.5794 54.4054L50.3315 53.9571C50.3078 53.914 50.3043 53.8709 50.3148 53.8322C49.7654 53.4093 49.3056 53.2291 48.6286 53.0137C47.2114 52.5618 45.7969 52.83 44.4228 53.8102C43.272 54.6322 42.7831 55.5158 42.3541 56.2965C41.7185 57.4508 41.2147 58.3616 38.8999 58.577C36.8788 58.7651 35.0335 59.2539 33.5644 59.9915C33.0413 60.2544 32.5771 60.548 32.1578 60.8663C32.1472 60.8742 32.1376 60.883 32.1261 60.8909C31.9881 60.9964 31.8544 61.1054 31.7278 61.2179C31.7059 61.2373 31.6848 61.2575 31.6637 61.2768C31.5476 61.3815 31.4351 61.4887 31.3287 61.5986C31.3023 61.6267 31.2786 61.6558 31.2523 61.6839C30.7564 62.221 30.3731 62.8136 30.1182 63.465C29.5133 65.0097 28.977 68.2054 32.1789 72.2486C35.3781 76.2918 38.6116 76.5019 40.2547 76.2681C41.7853 76.0492 43.1885 75.1894 44.4263 73.7106C45.4804 72.4508 46.3789 70.7672 47.0268 68.8437C47.7679 66.6388 48.7702 66.3592 50.0388 66.0049C50.8959 65.7649 51.8682 65.4924 52.9338 64.5605C54.2024 63.4492 54.7888 62.1331 54.6736 60.6491C54.6033 59.7269 54.5681 59.2952 53.9976 58.3176C52.4476 56.1479 51.6696 55.8727 50.6972 54.474Z" fill="#B55827"/>
<path d="M39.9287 76.4623C38.3172 76.6038 35.1514 76.2566 32.0559 72.3444C28.8057 68.2405 29.3551 64.9841 29.9732 63.4078C30.229 62.7537 30.6202 62.1375 31.1381 61.5774L31.1671 61.5449C31.1829 61.5265 31.1996 61.508 31.2163 61.4895C31.3244 61.377 31.4396 61.268 31.5583 61.1599L31.6242 61.0992C31.7535 60.9849 31.8889 60.8741 32.0304 60.7651L32.1526 60.868L32.0559 60.7449C32.5051 60.4047 32.9869 60.1049 33.4942 59.8499C34.98 59.1044 36.8438 58.6086 38.8843 58.4195C41.1182 58.2121 41.5788 57.376 42.2162 56.2199C42.6532 55.426 43.149 54.5267 44.3315 53.6818C45.7399 52.6761 47.2186 52.3991 48.6762 52.8633C49.398 53.0928 49.8639 53.2862 50.4099 53.7064C50.46 53.7451 50.4811 53.8093 50.4661 53.87L50.7167 54.328C50.7712 54.3254 50.7949 54.3385 50.8257 54.3834C51.2591 55.0067 51.6504 55.3997 52.1031 55.8542C52.6508 56.4045 53.2715 57.0287 54.126 58.2235C54.7247 59.2486 54.7599 59.7119 54.8302 60.6341C54.9498 62.1691 54.3458 63.5292 53.0376 64.6756C51.9457 65.6303 50.9567 65.9073 50.0837 66.1517C48.8089 66.5086 47.8911 66.7653 47.1764 68.8902C46.5214 70.8349 45.6124 72.5352 44.5468 73.8082C43.2835 75.3168 41.8461 76.1959 40.2777 76.4201C40.1678 76.4386 40.0518 76.4518 39.9287 76.4623ZM46.9434 52.9723C46.1284 53.0436 45.3108 53.368 44.5134 53.9376C43.389 54.7412 42.9116 55.6072 42.4905 56.372C41.8584 57.5184 41.3125 58.5092 38.9141 58.7325C36.9106 58.9189 35.0855 59.4024 33.6349 60.1312C33.1443 60.3774 32.6801 60.6667 32.2528 60.9902L32.2194 61.0157C32.0867 61.1177 31.9557 61.224 31.8317 61.3339L31.7675 61.3928C31.6559 61.4948 31.5451 61.5994 31.4422 61.7067L31.3684 61.7893C30.8778 62.3212 30.5069 62.9032 30.2651 63.5221C29.6725 65.036 29.1494 68.1693 32.3021 72.151C35.307 75.948 38.3532 76.2865 39.9023 76.1511C40.0192 76.1405 40.1291 76.1282 40.2329 76.1133C41.7239 75.8997 43.0945 75.0583 44.3068 73.6095C45.3477 72.3664 46.2374 70.7004 46.8801 68.7926C47.6467 66.5104 48.7351 66.2062 49.9967 65.8536C50.8407 65.6171 51.7937 65.3507 52.8319 64.4426C54.0619 63.3648 54.6307 62.0926 54.519 60.6605C54.4496 59.7585 54.4188 59.3462 53.864 58.3949C53.0324 57.2327 52.4214 56.6191 51.8816 56.0766C51.4323 55.6247 51.0429 55.2326 50.6086 54.619C50.5409 54.5979 50.4828 54.5513 50.4442 54.4818L50.1963 54.0335C50.1743 53.9939 50.1611 53.9517 50.1567 53.9086C49.6723 53.5482 49.2547 53.3776 48.583 53.164C48.0371 52.989 47.4858 52.9249 46.9434 52.9723Z" fill="#5C3010"/>
<path d="M29.6914 65.2748C29.5261 66.9989 29.9331 69.4148 32.1776 72.2491C34.4062 75.065 36.6507 76.0207 38.3633 76.2633C35.252 72.7757 32.2901 69.1554 29.6914 65.2748Z" fill="#B55827"/>
<path d="M46.4602 60.5229C45.2039 58.9149 43.9423 57.3113 42.6921 55.699C42.5691 55.9029 42.4592 56.1034 42.3519 56.2968C41.7163 57.4511 41.2125 58.3619 38.8977 58.5773C38.4291 58.6204 37.972 58.6819 37.5254 58.7575C39.1439 60.6336 40.853 62.435 42.4099 64.3665C43.8166 66.1125 45.3349 67.7662 46.8057 69.4568C46.8813 69.2546 46.956 69.0515 47.0255 68.844C47.7666 66.6391 48.7688 66.3595 50.0374 66.0052C50.2414 65.9481 50.4515 65.8892 50.6678 65.8197C49.2611 64.0562 47.8475 62.2987 46.4602 60.5229Z" fill="#B55827"/>
<path d="M50.5823 58.7134C51.7498 60.1922 52.9675 61.634 54.1253 63.1215C54.5543 62.3619 54.7416 61.5355 54.673 60.6484C54.6027 59.7262 54.5675 59.2945 53.997 58.3169C52.447 56.1481 51.6681 55.8729 50.6966 54.4742C50.6527 54.4759 50.6087 54.4584 50.5788 54.4056L50.3309 53.9572C50.3071 53.9142 50.3036 53.8711 50.3142 53.8324C49.7647 53.4095 49.3049 53.2293 48.628 53.0139C47.7479 52.7326 46.8679 52.7308 45.9976 53.0042C47.5343 54.9014 49.0693 56.7986 50.5823 58.7134Z" fill="#B55827"/>
<path d="M64.7841 46.4271C64.7841 46.4271 62.123 43.4996 61.6772 42.9668L49.9045 53.0225C48.9621 52.0862 48.4443 51.8638 47.4965 51.5622C46.0793 51.1103 44.6648 51.3785 43.2907 52.3587C42.1399 53.1807 41.6511 54.0643 41.222 54.845C40.5864 55.9993 40.0836 56.9101 37.7679 57.1255C35.7467 57.3136 33.9014 57.8024 32.4323 58.54C30.7101 59.4051 29.5487 60.5735 28.9861 62.0135C28.3812 63.5582 27.8449 66.7539 31.0468 70.7971C34.246 74.8403 37.4795 75.0504 39.1226 74.8166C40.6532 74.5977 42.0564 73.7379 43.2942 72.2591C44.3483 70.9993 45.2468 69.3158 45.8948 67.3922C46.6359 65.1873 47.6381 64.9077 48.9067 64.5534C49.7639 64.3134 50.7362 64.0409 51.8017 63.109C53.0704 61.9977 53.6567 60.6825 53.5416 59.1976C53.4669 58.2165 53.4396 57.7989 52.7582 56.6815C52.7582 56.6798 64.8026 46.4473 64.7841 46.4271Z" fill="#FABC72"/>
<path d="M38.7962 75.0099C37.1847 75.1514 34.0189 74.8041 30.9234 70.8919C27.6732 66.7881 28.2236 63.5317 28.8407 61.9554C29.4166 60.4802 30.6016 59.2836 32.3617 58.3992C33.8466 57.6537 35.7113 57.1579 37.7518 56.9689C39.9857 56.7614 40.4463 55.9253 41.0837 54.7692C41.5207 53.9754 42.0165 53.076 43.199 52.2311C44.6074 51.2263 46.0861 50.9476 47.5437 51.4126C48.4923 51.7142 49.0198 51.9445 49.9113 52.8105L61.5758 42.848C61.6074 42.8207 61.6488 42.8075 61.6901 42.811C61.7314 42.8146 61.7701 42.8348 61.7965 42.8664C62.2352 43.3904 64.8717 46.2925 64.899 46.3215C64.9271 46.3531 64.9412 46.3936 64.9385 46.4358C64.9332 46.5307 64.9324 46.5413 52.9593 56.713C53.5879 57.7706 53.6221 58.2181 53.6942 59.1606C53.8147 60.7193 53.2116 62.0793 51.9025 63.2257C50.8106 64.1805 49.8216 64.4574 48.9486 64.7018C47.6738 65.0579 46.756 65.3155 46.0412 67.4404C45.3863 69.3851 44.4772 71.0853 43.4117 72.3583C42.1484 73.867 40.711 74.7461 39.1426 74.9703C39.0344 74.9861 38.9193 74.9993 38.7962 75.0099ZM45.81 51.5199C44.9951 51.5911 44.1775 51.9155 43.3801 52.4852C42.2556 53.2879 41.7782 54.1547 41.3571 54.9196C40.725 56.066 40.1791 57.0568 37.7808 57.2801C35.7772 57.4664 33.9521 57.95 32.5015 58.6788C30.8117 59.5272 29.6777 60.6683 29.1308 62.0697C28.5383 63.5836 28.0152 66.7168 31.1678 70.6985C34.1727 74.4956 37.219 74.834 38.7681 74.6986C38.885 74.6881 38.9949 74.6758 39.0986 74.6608C40.5896 74.4472 41.9603 73.6059 43.1726 72.157C44.2135 70.9139 45.1032 69.2479 45.7459 67.3402C46.5125 65.0579 47.6008 64.7537 48.8624 64.4012C49.7064 64.1647 50.6594 63.8983 51.6977 62.9901C52.9276 61.9123 53.4964 60.6402 53.3848 59.208C53.31 58.2313 53.2802 57.8374 52.6234 56.7614C52.583 56.6954 52.597 56.611 52.6559 56.5609C56.4908 53.3028 63.5925 47.2631 64.5614 46.4156C64.0875 45.8933 62.229 43.8449 61.6585 43.1864L50.0045 53.141C49.942 53.1938 49.8506 53.1903 49.7934 53.1322C48.8826 52.2276 48.4026 52.014 47.4479 51.7107C46.9037 51.5366 46.3525 51.4724 45.81 51.5199Z" fill="#5C3010"/>
<path d="M28.8628 64.8688C28.9823 63.4841 29.4588 62.0695 30.4153 61.0304C31.4984 59.8541 32.9367 59.2563 34.4656 58.8888C36.1184 58.4914 37.9742 58.5046 39.5092 57.723C40.4701 57.2351 41.0688 56.6004 41.5436 55.6412C41.8583 55.0056 42.203 54.3928 42.6601 53.846C43.9041 52.3576 45.5692 51.4951 47.3196 51.5171C45.9604 51.14 44.6048 51.4178 43.2878 52.3585C42.137 53.1805 41.6482 54.064 41.2192 54.8447C40.5836 55.999 40.0807 56.9098 37.765 57.1252C35.7438 57.3134 33.8985 57.8022 32.4295 58.5398C30.7072 59.4048 29.5458 60.5732 28.9832 62.0133C28.4909 63.2722 28.0434 65.6275 29.6276 68.6438C29.0773 67.4614 28.7494 66.1884 28.8628 64.8688Z" fill="#FABC72"/>
<path opacity="0.3" d="M30.5387 68.2423C31.2402 67.3482 32.1247 66.2255 32.2627 65.0536C32.4904 63.1177 30.1791 64.0593 28.5369 64.8312C28.5465 65.0597 28.5633 65.2945 28.5976 65.5406C28.9141 65.3692 29.2376 65.2127 29.5743 65.0861C30.0394 64.912 31.3941 64.5955 31.2499 65.5573C31.1014 66.5508 30.1132 67.5073 29.4064 68.1957C29.5391 68.477 29.6947 68.7662 29.8644 69.0607C30.1 68.79 30.3251 68.5148 30.5387 68.2423Z" fill="#FABC72"/>
<path opacity="0.3" d="M37.8809 63.7433C38.4426 62.8299 39.8334 60.9494 39.2875 59.8206C38.3424 57.8689 34.9761 59.1542 33.5044 59.6693C32.0538 60.1775 30.6586 60.8887 29.2291 61.4778C29.1386 61.6518 29.0577 61.8294 28.9856 62.0123C28.9311 62.1521 28.8775 62.305 28.8274 62.4703C29.5799 62.0492 30.3536 61.6659 31.1519 61.352C32.3967 60.8632 34.5401 60.1441 35.3858 61.6536C35.7867 62.3701 35.4395 63.3451 35.1115 64.0176C34.6245 65.0154 33.9766 65.9183 33.3189 66.8089C32.4442 67.9931 31.6398 69.2292 30.7738 70.4213C30.7712 70.424 30.7703 70.4275 30.7677 70.4301C30.8573 70.5506 30.9497 70.6719 31.0472 70.7941C31.369 71.2011 31.6925 71.5686 32.0134 71.9009C32.9559 70.5163 33.8983 69.1325 34.9287 67.8129C35.9573 66.4951 37 65.1711 37.8809 63.7433Z" fill="#FABC72"/>
<path opacity="0.3" d="M45.8592 67.2408C45.9252 67.1423 45.992 67.0438 46.0579 66.9445C46.3736 66.1612 46.7305 65.6697 47.1314 65.3365C48.2857 63.5694 49.3626 61.7232 49.9631 59.7126C50.6699 57.3442 51.0225 54.0949 48.7244 52.4517C47.5323 51.599 46.2469 51.446 44.93 51.5357C44.3779 51.7001 43.8293 51.9717 43.2877 52.3585C42.9976 52.566 42.7497 52.777 42.5334 52.9898C43.4372 52.8131 44.3445 52.6812 45.2658 52.7243C46.6118 52.7867 48.0896 53.1682 48.9213 54.3234C50.7429 56.8536 49.1666 60.4748 47.7327 62.7923C45.7133 66.0548 42.9835 68.8751 40.5896 71.8624C39.787 72.8629 38.9948 73.8713 38.1992 74.877C38.543 74.8779 38.8533 74.8542 39.1197 74.8164C40.0349 74.6863 40.9026 74.3214 41.7185 73.7368C42.9607 71.4844 44.4253 69.3727 45.8592 67.2408Z" fill="#FABC72"/>
<path opacity="0.3" d="M52.4044 62.4941C52.7349 60.8351 52.9564 59.1454 53.1859 57.4838C53.1859 57.4812 53.1859 57.4794 53.1868 57.4768C53.0831 57.2464 52.9477 56.9924 52.7586 56.6803C52.7586 56.6803 52.9723 56.4992 53.3406 56.1862C53.5516 54.1378 53.5921 52.0788 53.4127 50.026L51.5094 51.6524C52.603 53.7694 51.9876 56.8473 51.5876 58.988C51.2588 60.7516 50.7753 62.4941 50.1045 64.1601C50.639 63.942 51.2052 63.6308 51.8021 63.1086C52.0254 62.9099 52.2215 62.7042 52.4044 62.4941Z" fill="#FABC72"/>
<path opacity="0.3" d="M62.1791 45.2146C62.9079 45.859 63.2024 46.7047 63.4433 47.583C64.2671 46.8779 64.7866 46.4304 64.7822 46.426C64.7822 46.426 62.1211 43.4985 61.6753 42.9657L59.3491 44.9526C60.2837 44.5614 61.3562 44.4875 62.1791 45.2146Z" fill="#FABC72"/>
<path opacity="0.3" d="M56.4585 48.8544C56.6625 48.0895 56.9297 47.3317 57.3394 46.6697L56.1253 47.7071C56.0638 48.8667 55.9864 50.0254 55.9275 51.185C56.0629 50.3885 56.2589 49.6034 56.4585 48.8544Z" fill="#FABC72"/>
<path opacity="0.3" d="M62.152 45.6073C60.8439 44.4512 58.9959 45.0772 57.9655 46.3185C57.0635 47.4069 56.7769 48.7907 56.4859 50.1402C56.223 51.3587 55.9927 52.6 56.0965 53.8405C56.384 53.5952 56.6793 53.3447 56.9844 53.0853C56.9554 52.0928 57.0222 51.0897 57.2332 50.1305C57.5013 48.9138 58.0086 47.4843 59.1612 46.8293C60.7384 45.9335 61.7397 47.1986 62.1811 48.6588C62.5582 48.337 62.909 48.0381 63.222 47.77C63.0189 46.9454 62.7622 46.1471 62.152 45.6073Z" fill="#FABC72"/>
<path opacity="0.3" d="M59.7206 48.471C58.8783 49.242 58.3913 50.6724 58.3157 51.9542C59.3548 51.0698 60.4098 50.1722 61.3602 49.3616C61.0709 48.4306 60.5883 47.6763 59.7206 48.471Z" fill="#FABC72"/>
<path opacity="0.3" d="M52.8291 61.9344C53.3742 61.1027 53.6177 60.1884 53.5404 59.1959C53.5078 58.773 53.4815 58.4547 53.4102 58.14C53.2379 59.4034 53.0603 60.6755 52.8291 61.9344Z" fill="#FABC72"/>
<path opacity="0.3" d="M42.3621 73.2235C42.6812 72.9378 42.9924 72.6169 43.2922 72.2582C44.2048 71.1672 45.0004 69.7588 45.6184 68.1517C44.4922 69.8168 43.3652 71.4828 42.3621 73.2235Z" fill="#FABC72"/>
<path opacity="0.3" d="M38.5921 70.8437C40.4638 68.506 42.4858 66.1771 44.1219 63.6663C45.3325 61.8095 47.9119 57.1852 44.6749 55.8893C43.4265 55.39 42.0234 55.4841 40.6985 55.7109C40.4928 56.001 40.2537 56.2595 39.9328 56.4757C41.8994 56.3579 44.5202 56.6823 43.8072 59.1C43.3061 60.8003 42.1236 62.3854 41.0739 63.785C39.7095 65.603 38.2677 67.3666 36.8725 69.1618C35.7973 70.5456 34.7063 71.9197 33.6416 73.3132C34.3388 73.809 35.0149 74.1572 35.6514 74.3972C36.6343 73.2165 37.6303 72.0446 38.5921 70.8437Z" fill="#FABC72"/>
<path d="M31.4854 59.0876C30.8225 59.5219 30.2669 60.0125 29.8291 60.5602C30.339 60.0195 30.8858 59.514 31.4854 59.0876Z" fill="#FABC72"/>
<path d="M66.0781 37.6384L61.3579 43.1806L64.4587 46.7112L70.5793 42.8069L66.0781 37.6384Z" fill="#FABC72"/>
<path d="M64.4726 46.8665C64.4242 46.8709 64.375 46.8524 64.3416 46.8137L61.2417 43.2839C61.1907 43.225 61.1898 43.1389 61.2399 43.08L65.9592 37.537C65.9891 37.5027 66.0313 37.4833 66.077 37.4816C66.1227 37.4816 66.1658 37.5009 66.1957 37.5352L70.6969 42.7046C70.726 42.7389 70.74 42.7846 70.7339 42.8294C70.7277 42.8743 70.7014 42.9147 70.6635 42.9384L64.5429 46.8427C64.5201 46.8559 64.4963 46.8638 64.4726 46.8665ZM61.5644 43.1784L64.4875 46.5069L70.3426 42.7732L66.0797 37.8772L61.5644 43.1784Z" fill="#5C3010"/>
<path d="M45.3503 61.4536C45.4962 63.1223 44.2619 64.594 42.5933 64.7399C40.9246 64.8858 39.4538 63.6515 39.3079 61.9829C39.1619 60.3151 40.3954 58.8434 42.064 58.6975C43.7326 58.5516 45.2044 59.7859 45.3503 61.4536Z" fill="#3C2110"/>
<path d="M42.6068 64.8954C40.8555 65.0484 39.3056 63.7482 39.1518 61.9969C38.9979 60.2456 40.299 58.6957 42.0503 58.5418C43.8024 58.388 45.3524 59.6891 45.5053 61.4404C45.6592 63.1925 44.3589 64.7425 42.6068 64.8954ZM42.0775 58.8531C40.4977 58.9911 39.3249 60.3898 39.4629 61.9696C39.601 63.5503 40.9997 64.7231 42.5795 64.5851C44.1594 64.4471 45.333 63.0484 45.195 61.4676C45.0561 59.8869 43.6574 58.7142 42.0775 58.8531Z" fill="#854D45"/>
<path d="M63.6818 42.482C63.7117 42.8205 63.4612 43.1185 63.1227 43.1484C62.7842 43.1783 62.4862 42.9278 62.4563 42.5893C62.4264 42.2508 62.677 41.9519 63.0145 41.9229C63.3539 41.893 63.6528 42.1436 63.6818 42.482Z" fill="#ED715D"/>
<path d="M63.137 43.3039C62.7132 43.3408 62.3387 43.0269 62.3018 42.6032C62.2649 42.1794 62.5787 41.8049 63.0025 41.7671C63.4262 41.7302 63.8007 42.044 63.8385 42.4687C63.8746 42.8915 63.5607 43.2669 63.137 43.3039ZM63.0288 42.0783C62.7765 42.1003 62.5902 42.3236 62.6121 42.5759C62.6341 42.8282 62.8565 43.0146 63.1089 42.9926C63.3612 42.9707 63.5484 42.7482 63.5264 42.4959C63.5045 42.2436 63.2812 42.0564 63.0288 42.0783Z" fill="#5C3010"/>
<path d="M63.3799 42.5094C63.3948 42.6782 63.2691 42.8277 63.1003 42.8426C62.9315 42.8576 62.782 42.7318 62.7671 42.5631C62.7521 42.3934 62.8779 42.2439 63.0467 42.2299C63.2155 42.2149 63.3649 42.3397 63.3799 42.5094Z" fill="#ED715D"/>
<path d="M63.1129 42.998C62.8579 43.02 62.6328 42.831 62.6109 42.5769C62.5889 42.322 62.7779 42.0969 63.032 42.0741C63.2869 42.0521 63.5129 42.2411 63.5349 42.4961C63.5569 42.7501 63.3678 42.9752 63.1129 42.998ZM63.0592 42.3844C62.9757 42.3914 62.9142 42.4653 62.9221 42.5488C62.9291 42.6314 63.003 42.6939 63.0856 42.6859C63.1682 42.678 63.2307 42.6051 63.2237 42.5224C63.2166 42.4398 63.1428 42.3774 63.0592 42.3844Z" fill="#854D45"/>
<path d="M65.7016 44.9657C65.7315 45.3042 65.4809 45.6022 65.1425 45.6321C64.804 45.662 64.5051 45.4115 64.4761 45.073C64.4462 44.7345 64.6967 44.4365 65.0352 44.4066C65.3737 44.3767 65.6717 44.6264 65.7016 44.9657Z" fill="#ED715D"/>
<path d="M65.1559 45.7867C64.7321 45.8236 64.3576 45.5098 64.3198 45.086C64.2829 44.6623 64.5976 44.2877 65.0214 44.2508C65.4451 44.2139 65.8196 44.5277 65.8574 44.9515C65.8944 45.3752 65.5796 45.7498 65.1559 45.7867ZM65.0487 44.562C64.7963 44.584 64.6091 44.8073 64.6311 45.0596C64.653 45.3119 64.8763 45.4992 65.1286 45.4763C65.3809 45.4544 65.5682 45.2311 65.5462 44.9788C65.5242 44.7264 65.301 44.5401 65.0487 44.562Z" fill="#5C3010"/>
<path d="M65.3977 44.9924C65.4126 45.1612 65.2878 45.3107 65.1181 45.3256C64.9484 45.3406 64.7999 45.2158 64.7849 45.0461C64.77 44.8773 64.8948 44.7278 65.0645 44.7129C65.2342 44.6979 65.3827 44.8236 65.3977 44.9924Z" fill="#ED715D"/>
<path d="M65.1324 45.4811C64.8774 45.5031 64.6524 45.314 64.6304 45.06C64.6084 44.805 64.7974 44.58 65.0515 44.5571C65.3065 44.5351 65.5315 44.7241 65.5535 44.9791C65.5755 45.2332 65.3865 45.4591 65.1324 45.4811ZM65.0788 44.8683C64.9953 44.8753 64.9337 44.9492 64.9416 45.0327C64.9487 45.1154 65.0225 45.1778 65.1051 45.1699C65.1887 45.1628 65.2502 45.089 65.2423 45.0063C65.2353 44.9228 65.1614 44.8613 65.0788 44.8683Z" fill="#854D45"/>
<path d="M38.2594 63.3469C38.2102 63.3513 38.1592 63.3319 38.1258 63.2915C38.0713 63.2256 38.0801 63.1262 38.146 63.0708L62.9732 42.4144C63.04 42.359 63.1384 42.3687 63.1929 42.4346C63.2483 42.5014 63.2395 42.599 63.1727 42.6544L38.3456 63.3108C38.3201 63.3328 38.2893 63.3443 38.2594 63.3469Z" fill="#5C3010"/>
<path d="M40.4787 65.9174C40.4295 65.9218 40.3794 65.9025 40.3451 65.8621C40.2897 65.7961 40.2985 65.6977 40.3636 65.6423L64.9929 44.8996C65.0588 44.8434 65.1573 44.8522 65.2127 44.9181C65.2681 44.9841 65.2593 45.0825 65.1934 45.1379L40.5649 65.8805C40.5394 65.9025 40.5086 65.9148 40.4787 65.9174Z" fill="#5C3010"/>
<path d="M38.9001 64.2494C38.8508 64.2538 38.7998 64.2353 38.7664 64.194C38.711 64.1281 38.7198 64.0296 38.7857 63.9742L66.2758 40.9362C66.3426 40.8808 66.4411 40.8896 66.4956 40.9555C66.551 41.0214 66.5422 41.1199 66.4763 41.1753L38.9862 64.2142C38.9607 64.2353 38.9308 64.2468 38.9001 64.2494Z" fill="#5C3010"/>
<path d="M39.7196 65.1913C39.6704 65.1957 39.6203 65.1764 39.586 65.1359C39.5306 65.07 39.5394 64.9715 39.6053 64.9161L67.2713 41.7303C67.3381 41.675 67.4365 41.6837 67.491 41.7497C67.5464 41.8156 67.5376 41.9141 67.4717 41.9695L39.8049 65.1561C39.7812 65.1764 39.7504 65.1887 39.7196 65.1913Z" fill="#5C3010"/>
<path d="M67.9964 41.9354C68.0263 42.2739 67.7757 42.5728 67.4381 42.6018C67.1005 42.6308 66.8007 42.3811 66.7717 42.0427C66.7418 41.7042 66.9924 41.4062 67.3308 41.3763C67.6693 41.3464 67.9665 41.5969 67.9964 41.9354Z" fill="#ED715D"/>
<path d="M67.4515 42.7572C67.0278 42.7941 66.6533 42.4794 66.6155 42.0557C66.5786 41.6319 66.8924 41.2574 67.3171 41.2205C67.7408 41.1835 68.1153 41.4983 68.1522 41.9212C68.1892 42.3449 67.8753 42.7203 67.4515 42.7572ZM67.3443 41.5317C67.092 41.5537 66.9047 41.777 66.9267 42.0293C66.9487 42.2816 67.172 42.4689 67.4243 42.4469C67.6766 42.4249 67.863 42.2016 67.841 41.9493C67.819 41.6961 67.5966 41.5097 67.3443 41.5317Z" fill="#854D45"/>
<path d="M67.6916 41.9619C67.7066 42.1315 67.5808 42.2801 67.412 42.2951C67.2424 42.31 67.0929 42.1852 67.0788 42.0155C67.0639 41.8467 67.1896 41.6972 67.3593 41.6823C67.5272 41.6682 67.6767 41.7931 67.6916 41.9619Z" fill="#ED715D"/>
<path d="M67.4255 42.4505C67.1706 42.4725 66.9446 42.2835 66.9226 42.0294C66.9007 41.7745 67.0897 41.5494 67.3447 41.5274C67.5996 41.5055 67.8247 41.6945 67.8466 41.9485C67.8686 42.2026 67.6796 42.4277 67.4255 42.4505ZM67.3719 41.8378C67.2884 41.8448 67.2268 41.9187 67.2339 42.0013C67.2409 42.0848 67.3148 42.1464 67.3983 42.1384C67.4818 42.1314 67.5433 42.0576 67.5354 41.9749C67.5284 41.8923 67.4545 41.8307 67.3719 41.8378Z" fill="#5C3010"/>
<path d="M36.4641 62.4575L41.1175 67.5742L41.9254 66.9623L37.338 61.7023L36.4641 62.4575Z" fill="#B55827"/>
<path d="M41.1307 67.73C41.0841 67.7344 41.0348 67.7168 41.0014 67.6799L36.3481 62.5632C36.32 62.5325 36.305 62.4903 36.3077 62.4489C36.3112 62.4067 36.3296 62.3681 36.3621 62.3399L37.2361 61.5847C37.3011 61.5285 37.3987 61.5355 37.4549 61.6006L42.0432 66.8596C42.0713 66.8922 42.0854 66.9352 42.0801 66.9783C42.0757 67.0214 42.0538 67.061 42.0195 67.0864L41.2115 67.6992C41.1869 67.7177 41.1597 67.7273 41.1307 67.73ZM36.6866 62.4718L41.1359 67.3634L41.6968 66.9388L37.3222 61.9223L36.6866 62.4718Z" fill="#5C3010"/>
<path d="M67.0107 40.7868C67.0406 41.1253 66.79 41.4233 66.4515 41.4532C66.1131 41.4831 65.8141 41.2326 65.7851 40.8941C65.7552 40.5556 66.0058 40.2567 66.3443 40.2277C66.6819 40.1978 66.9808 40.4484 67.0107 40.7868Z" fill="#ED715D"/>
<path d="M66.465 41.6081C66.0412 41.645 65.6667 41.3303 65.6289 40.9074C65.592 40.4837 65.9067 40.1092 66.3305 40.0714C66.7542 40.0344 67.1287 40.3492 67.1665 40.7729C67.2035 41.1967 66.8878 41.5712 66.465 41.6081ZM66.3577 40.3826C66.1054 40.4046 65.9182 40.6279 65.9401 40.8802C65.9621 41.1325 66.1854 41.3198 66.4377 41.2969C66.69 41.2749 66.8773 41.0516 66.8553 40.7993C66.8333 40.5479 66.6092 40.3606 66.3577 40.3826Z" fill="#854D45"/>
<path d="M66.7053 40.8131C66.7203 40.9819 66.5954 41.1314 66.4257 41.1463C66.256 41.1613 66.1075 41.0364 66.0925 40.8668C66.0776 40.6971 66.2024 40.5485 66.3721 40.5336C66.5418 40.5186 66.6904 40.6435 66.7053 40.8131Z" fill="#ED715D"/>
<path d="M66.4383 41.302C66.1833 41.324 65.9583 41.135 65.9363 40.8809C65.9143 40.6259 66.1034 40.4009 66.3574 40.378C66.6124 40.356 66.8374 40.5451 66.8594 40.8C66.8823 41.0541 66.6933 41.2791 66.4383 41.302ZM66.3847 40.6892C66.3012 40.6963 66.2396 40.7701 66.2475 40.8536C66.2554 40.9372 66.3284 40.9987 66.411 40.9908C66.4946 40.9838 66.5561 40.9099 66.5482 40.8273C66.5412 40.7437 66.4682 40.6822 66.3847 40.6892Z" fill="#5C3010"/>
<path d="M40.4015 73.4934C40.4463 73.3493 38.6616 72.7497 38.7135 72.5545C38.7451 72.4323 39.4626 72.6055 40.7619 72.6802C42.2961 72.769 42.74 72.6108 43.8161 72.8684C44.0561 72.9255 44.5405 73.0547 45.0231 73.2728C46.8905 74.1168 48.4422 76.166 48.0597 76.7428C47.7327 77.2369 46.2302 76.29 42.7171 75.5032C38.5368 74.5669 35.7517 74.8078 35.7095 74.2592C35.6831 73.9128 36.7715 73.4987 37.5794 73.3519C39.103 73.075 40.3637 73.6165 40.4015 73.4934Z" fill="#774420"/>
<path d="M34.8243 80.3106C36.1579 81.0543 38.9114 79.0552 39.8688 78.9083C40.3005 78.8424 40.6548 78.8011 40.915 78.773C41.4187 78.7184 48.0959 77.9975 48.2884 78.9549C48.4053 79.5352 46.1539 80.7546 44.0975 81.2117C42.2909 81.6135 40.3761 81.4834 40.3726 81.4333C40.3726 81.4306 40.3778 81.4289 40.5176 81.3858C40.8297 81.2891 40.8921 81.2706 40.8913 81.2671C40.8877 81.2513 39.7756 81.5229 39.7589 81.4649C39.7501 81.435 40.0332 81.3365 40.0244 81.3102C40.0174 81.2882 39.8178 81.3524 39.6112 81.3823C39.3123 81.4262 39.2376 81.3638 38.5325 81.275C38.078 81.2179 37.9725 81.2267 37.8397 81.1194C37.6463 80.9647 37.6077 80.7387 37.5769 80.6394C37.2929 79.7136 34.5192 79.2574 34.3486 79.6961C34.2871 79.8525 34.5412 80.1532 34.8243 80.3106Z" fill="#774420"/>
<path d="M43.1398 73.1209C43.153 73.0849 43.3068 73.0972 43.3068 73.0813C43.3068 73.0479 42.8241 73.0339 42.8241 73.0128C42.8241 72.9882 43.4615 72.9899 43.4633 72.9618C43.4659 72.8958 39.9291 72.6743 39.9327 72.6048C39.9335 72.5908 40.0724 72.582 40.0716 72.5635C40.0707 72.5415 39.8614 72.5372 39.8614 72.5204C39.8614 72.5108 39.9274 72.5081 40.0249 72.487C40.1146 72.4677 40.221 72.4369 40.2192 72.4255C40.2157 72.4035 39.7647 72.4695 39.7594 72.4387C39.7559 72.4211 39.9027 72.3842 39.8992 72.364C39.8966 72.3499 39.8236 72.3534 39.8183 72.3534C39.5783 72.3648 36.9567 71.7653 36.031 71.5912C34.3659 71.2765 33.1957 71.4189 33.1957 71.3406C33.1957 71.2879 33.7241 71.2 34.2762 71.2439C34.6586 71.2747 34.8881 71.3556 34.9021 71.3169C34.9259 71.2518 34.2859 70.9846 33.5693 70.6233C33.5693 70.6233 33.0674 70.3701 32.0177 69.7494C31.011 69.1542 29.0593 67.7317 26.6689 65.7053C25.9375 65.3976 21.9233 63.7105 18.4489 65.8319C17.946 66.1387 15.8167 67.5251 15.1758 70.2285C14.4409 73.3293 16.2202 75.8208 16.6545 76.3861C18.3372 78.5778 21.1004 79.5651 21.089 79.5853C21.0881 79.5879 20.5808 79.311 20.5984 79.2758C20.6266 79.2196 22.0015 79.8394 22.0165 79.806C22.0209 79.7963 21.9039 79.7453 21.7457 79.6143C21.6341 79.5211 21.5189 79.4024 21.5303 79.3884C21.5558 79.3567 22.2055 79.8534 22.2249 79.8288C22.2372 79.8139 21.9892 79.6213 22.0077 79.5941C22.0297 79.5615 22.3998 79.8904 22.9616 80.104C23.6113 80.3501 23.9919 80.2429 24.6601 80.5005C24.6935 80.5137 24.8385 80.5699 24.8482 80.5515C24.8684 80.5119 24.2601 80.1682 24.2715 80.1479C24.2829 80.1268 24.9212 80.4803 24.9528 80.4301C24.9739 80.3976 24.6926 80.1981 24.7075 80.1761C24.7251 80.1506 25.1339 80.4038 25.1339 80.4038C26.203 81.0658 29.0532 81.2812 29.0637 81.1985C29.0681 81.1634 28.5688 81.0842 28.574 81.0579C28.5802 81.0236 29.4066 81.1467 29.6519 81.1818C32.1425 81.5388 34.7633 81.4394 34.7677 81.3559C34.7685 81.3357 34.6129 81.3339 34.3553 81.2161C34.0951 81.0974 33.8806 80.9277 33.8964 80.8987C33.9237 80.8486 34.6208 81.1897 34.6419 81.1475C34.6586 81.1141 34.2182 80.9119 34.2445 80.8196C34.2788 80.6983 35.0815 80.8477 35.907 80.9603C37.7277 81.2082 39.159 81.2108 39.1634 81.166C39.1643 81.1554 39.0922 81.1467 38.9076 81.0763C38.7924 81.0324 38.6377 80.9647 38.6412 80.9541C38.6509 80.926 39.7533 81.3023 39.7718 81.2513C39.7814 81.224 39.486 81.0974 39.4957 81.0728C39.5062 81.0464 39.8562 81.1651 39.8562 81.1651C40.8355 81.29 42.3881 81.3612 44.1719 80.8609C45.4994 80.489 46.5271 80.2007 47.0634 79.282C47.8872 77.8709 47.1452 75.674 45.9179 74.5838C44.8471 73.6308 43.0958 73.2449 43.1398 73.1209Z" fill="#9A582C"/>
<path d="M46.9243 75.7554C47.2495 75.6447 47.5985 75.7765 48.2825 76.0447C49.5151 76.5282 50.1323 76.77 50.3406 77.2878C50.5771 77.8742 50.0883 78.0526 49.9309 79.5701C49.9142 79.7265 49.8773 80.0096 49.6795 80.167C49.5309 80.2848 49.3832 80.2646 48.9305 80.2865C48.5858 80.3033 48.5208 80.3217 48.3652 80.3375C48.3652 80.3375 48.2447 80.349 48.1243 80.3542C47.1959 80.3912 46.5656 79.8821 46.5656 79.8821C46.3449 79.5841 45.8139 78.7753 45.8939 77.7027C45.9044 77.5586 46.0346 76.057 46.9243 75.7554Z" fill="#5E351E"/>
<path d="M48.8418 79.6267C48.8418 79.6267 49.5266 79.7771 49.8634 79.5652C50.2001 79.3542 50.7267 79.0263 50.7223 78.8944C50.7179 78.7625 50.1755 79.1291 49.815 79.1309C49.4546 79.1327 48.92 78.9533 48.6879 79.1265C48.4549 79.3006 48.8418 79.6267 48.8418 79.6267Z" fill="#FFDFB5"/>
<path d="M48.8042 78.7517C48.8042 78.7517 49.489 78.9021 49.8258 78.6902C50.1625 78.4792 50.6891 78.1513 50.6847 78.0194C50.6803 77.8875 50.1378 78.2541 49.7774 78.2559C49.4169 78.2576 48.8824 78.0783 48.6503 78.2515C48.4173 78.4256 48.8042 78.7517 48.8042 78.7517Z" fill="#FFDFB5"/>
<path d="M48.8386 77.9704C48.8386 77.9704 49.5234 78.1207 49.8601 77.9088C50.1969 77.6978 50.7235 77.3699 50.7191 77.238C50.7147 77.1062 50.1723 77.4728 49.8118 77.4745C49.4513 77.4763 48.9168 77.2969 48.6847 77.4701C48.4518 77.6442 48.8386 77.9704 48.8386 77.9704Z" fill="#FFDFB5"/>
<path d="M29.2841 54.5921C29.619 55.5187 30.2089 57.0871 31.7078 58.0005C33.118 58.8603 34.5027 58.6344 36.4729 58.5377C39.6501 58.3812 44.3438 58.1491 44.8291 59.3157C45.6476 61.2842 35.584 69.8541 29.0317 67.4171C27.0009 66.6619 24.309 64.4772 24.069 64.7893C23.9529 64.9405 24.5243 65.534 24.4962 65.5559C24.4382 65.6008 22.8504 64.2056 22.301 62.34C22.235 62.1167 22.0214 61.3316 21.9704 61.3431C21.9405 61.3501 21.9977 61.6314 21.9581 61.6428C21.8948 61.6604 21.6302 61.0011 21.4394 60.3391C21.2944 59.8344 21.129 59.2604 21.1036 58.4937C21.0904 58.099 21.1141 57.6454 21.0851 57.6427C21.0596 57.641 21.0288 58.0005 20.9937 57.9997C20.9268 57.9979 20.9427 56.7073 20.853 56.702C20.7968 56.6994 20.7334 57.2005 20.6983 57.1961C20.6517 57.1908 20.744 56.3249 20.6675 56.3117C20.6051 56.3011 20.5207 56.8708 20.4486 56.8664C20.1515 56.8515 21.319 47.1993 21.4623 46.7844C21.5563 46.5109 21.661 46.2472 21.661 46.2472V46.2463C21.7858 45.9342 21.9669 45.5166 22.2755 44.9373C22.5207 44.4784 22.8047 43.9456 23.2469 43.3223C23.9089 42.3886 24.2465 41.9262 24.7916 41.6712C25.4246 41.375 26.2993 41.2985 27.0062 41.6668C27.8 42.08 28.1315 42.9152 28.3109 43.4691C29.5118 47.1844 27.8554 50.6385 29.2841 54.5921Z" fill="#9A582C"/>
<path d="M32.85 58.1665C33.068 57.9652 29.8539 55.1229 28.9818 51.6371C28.8314 51.0349 28.7321 50.3404 28.6653 50.3491C28.5729 50.3606 28.5993 51.6969 28.864 53.0385C28.9897 53.6723 29.1462 54.1937 29.2842 54.5919C29.4609 55.1009 29.6745 55.7023 30.1159 56.3915C30.4447 56.905 30.7295 57.2012 30.8447 57.3164C30.9809 57.4527 31.2183 57.6742 31.5252 57.8817C31.5252 57.8817 31.7687 58.047 32.0219 58.1736C32.0465 58.1859 32.0984 58.2105 32.203 58.2588C32.3744 58.3388 32.3885 58.3432 32.4122 58.3441C32.4614 58.3468 32.4852 58.3327 32.6795 58.2439C32.8483 58.1674 32.8465 58.17 32.85 58.1665Z" fill="#6B3E27"/>
<path d="M43.4707 61.3741C43.8461 61.6493 45.1956 60.7323 45.5798 59.8391C45.6237 59.7362 45.8725 59.1305 45.8725 59.1305C44.8457 60.0677 44.7525 60.1292 44.7525 60.1292C44.0008 60.6259 43.4505 60.5881 43.3661 60.9776C43.3388 61.1059 43.359 61.2914 43.4707 61.3741Z" fill="#FFDFB5"/>
<path d="M43.0002 60.6936C43.2086 60.9618 44.3312 60.5829 44.9045 59.9297C45.0293 59.7872 45.2253 59.5639 45.3256 59.2272C45.3801 59.0435 45.4486 58.6857 45.4486 58.6857C45.4486 58.6857 45.0768 59.0646 44.9027 59.2158C44.2134 59.8163 43.5848 59.505 43.169 60.0615C43.0336 60.2426 42.8921 60.5539 43.0002 60.6936Z" fill="#FFDFB5"/>
<path d="M42.4549 59.7082C42.7432 60.0959 43.9442 59.935 44.5948 59.309C44.84 59.0725 45.2321 58.5538 45.2321 58.5538C45.2321 58.5538 44.8506 58.8264 44.4743 58.9266C44.2827 58.9776 44.2167 58.9512 43.8167 58.9494C43.0176 58.9451 42.614 58.9477 42.4558 59.1789C42.3582 59.3222 42.345 59.5613 42.4549 59.7082Z" fill="#FFDFB5"/>
<path d="M65.9065 49.163C66.2335 48.6478 64.9165 46.9668 63.7165 46.5431C63.5785 46.4947 62.7661 46.2231 62.7661 46.2231C64.0796 47.482 64.1684 47.5981 64.1684 47.5981C64.8822 48.5361 64.8813 49.2579 65.3983 49.3344C65.568 49.359 65.8089 49.3168 65.9065 49.163Z" fill="#FFDFB5"/>
<path d="M65.0337 49.672C65.3678 49.3784 64.7849 47.941 63.8847 47.2447C63.6886 47.0926 63.3818 46.8552 62.9334 46.7506C62.689 46.6935 62.2161 46.6328 62.2161 46.6328C62.2161 46.6328 62.74 47.0891 62.9519 47.3045C63.7906 48.1573 63.4337 49.003 64.1941 49.5023C64.4421 49.6641 64.8605 49.8241 65.0337 49.672Z" fill="#FFDFB5"/>
<path d="M64.2329 50.0138C64.6092 49.5066 63.9525 48.0621 62.9221 47.4845C62.5327 47.2665 61.7344 46.972 61.7344 46.972C61.7344 46.972 62.2206 47.3465 62.4887 47.7799C62.625 48.0006 62.6171 48.0929 62.7665 48.5958C63.0645 49.5989 63.2201 50.1026 63.57 50.2134C63.7854 50.2811 64.0896 50.2072 64.2329 50.0138Z" fill="#FFDFB5"/>
</svg>
