<svg width="141" height="177" viewBox="0 0 141 177" fill="none" xmlns="http://www.w3.org/2000/svg">
<path d="M40.4123 79.4927C39.9434 79.6943 39.2811 80.0028 38.5222 80.4368C30.9781 84.7621 28.5327 93.2687 27.7737 95.9095C25.2275 104.766 27.0621 112.83 27.2431 112.83C27.3233 112.83 27.3562 111.236 27.5084 111.236C27.6791 111.234 27.7079 113.221 28.0987 115.666C28.6211 118.935 29.5857 121.767 29.812 121.719C29.9888 121.684 29.742 119.87 29.8407 119.858C29.9127 119.85 30.0834 120.831 30.2253 121.571C30.2253 121.571 30.4845 122.918 31.2003 125.637C32.1875 129.387 34.0694 132.711 34.3491 132.606C34.4828 132.556 34.2134 131.732 34.3882 131.662C34.635 131.563 35.4186 133.085 36.2495 134.506C38.2836 137.99 40.1429 140.104 39.9269 140.304C39.8262 140.399 39.1577 139.8 39.1145 139.851C39.057 139.917 40.1717 140.937 41.3584 142.095C42.975 143.673 44.098 144.893 44.1782 144.821C44.2358 144.769 43.7236 144.09 43.7586 144.066C43.7915 144.041 44.2461 144.646 44.3119 144.603C44.3571 144.572 44.1556 144.261 44.1926 144.222C44.3695 144.037 49.9596 149.738 53.3265 152.136C61.901 158.241 76.6004 157.521 85.9318 151.398C94.3603 145.869 99.4445 135.232 99.8846 135.608C100.016 135.722 99.5308 136.624 99.6419 136.696C99.8188 136.81 101.372 134.512 102.818 131.779C104.198 129.173 105.207 126.693 105.388 126.779C105.473 126.818 105.323 127.396 105.378 127.412C105.475 127.441 105.929 125.67 106.061 125.703C106.172 125.73 105.896 126.991 106.018 127.032C106.332 127.143 109.276 119.029 109.066 114.434C109.056 114.192 108.994 113.046 109.049 113.04C109.14 113.03 109.457 115.457 109.409 115.467C109.321 115.485 109.483 113.723 109.479 113.433C109.251 97.4315 100.648 87.7587 100.648 87.7587C99.9792 87.008 98.8316 85.7904 97.2088 84.4392C94.5701 81.2286 91.9744 79.5935 90.3023 78.7297C76.9521 71.8355 53.3327 78.4602 48.1744 78.2875C48.1003 78.2854 47.9831 78.2813 47.8289 78.2772C45.116 78.2093 43.7606 78.1682 42.5163 78.5569C42.1338 78.6803 41.5599 78.9518 40.4123 79.4927Z" fill="#FDCB98"/>
<path d="M49.8589 155.567C54.8547 155.003 61.4671 154.469 61.4547 154.3C61.4527 154.261 61.0866 154.238 61.0886 154.195C61.0927 154.121 62.1581 154.137 62.1602 154.09C62.1622 154.037 60.7534 153.979 60.7534 153.917C60.7534 153.771 68.5854 153.623 68.5833 153.471C68.5833 153.44 68.2769 153.407 68.281 153.366C68.2851 153.317 68.7458 153.329 68.7479 153.292C68.7479 153.272 68.6039 153.257 68.39 153.202C68.1946 153.15 67.9622 153.072 67.9663 153.047C67.9766 152.998 68.9659 153.189 68.9803 153.121C68.9885 153.082 68.6677 152.988 68.68 152.943C68.6883 152.912 68.8486 152.926 68.8589 152.928C69.3875 152.975 75.2348 151.906 77.2956 151.61C81.0039 151.077 83.5748 151.505 83.581 151.332C83.5851 151.217 82.4272 150.97 81.2034 151.013C80.356 151.044 79.8419 151.2 79.8151 151.114C79.7699 150.968 81.2076 150.439 82.8241 149.711C82.8241 149.711 83.9574 149.201 86.3349 147.93C88.6158 146.713 93.0625 143.761 98.5375 139.516C100.183 138.907 109.21 135.571 116.678 140.59C117.76 141.316 122.328 144.584 123.479 150.614C124.802 157.533 120.631 162.862 119.619 164.067C115.691 168.744 109.494 170.659 109.516 170.704C109.518 170.709 110.666 170.147 110.631 170.069C110.573 169.941 107.478 171.177 107.449 171.103C107.441 171.083 107.704 170.98 108.066 170.706C108.321 170.511 108.587 170.26 108.564 170.229C108.511 170.157 107.028 171.192 106.987 171.134C106.962 171.099 107.527 170.698 107.488 170.637C107.443 170.563 106.594 171.254 105.333 171.669C103.875 172.15 103.044 171.877 101.544 172.381C101.468 172.405 101.143 172.516 101.125 172.475C101.084 172.387 102.462 171.685 102.437 171.64C102.412 171.593 100.971 172.311 100.905 172.198C100.862 172.124 101.501 171.71 101.47 171.661C101.433 171.601 100.506 172.122 100.506 172.122C98.0809 173.479 91.7668 173.68 91.7524 173.495C91.7462 173.417 92.8548 173.292 92.8486 173.232C92.8383 173.156 91.0017 173.347 90.4566 173.401C84.922 173.948 79.1467 173.475 79.1446 173.292C79.1446 173.247 79.4881 173.259 80.0702 173.022C80.6563 172.784 81.1458 172.432 81.115 172.366C81.0595 172.253 79.4881 172.94 79.4449 172.843C79.4099 172.767 80.4034 172.364 80.354 172.156C80.2902 171.885 78.5029 172.138 76.6683 172.307C72.6227 172.679 69.4636 172.545 69.4574 172.446C69.4554 172.424 69.6158 172.412 70.0313 172.274C70.2883 172.187 70.638 172.054 70.6319 172.029C70.6133 171.965 68.1432 172.691 68.1062 172.576C68.0856 172.516 68.752 172.263 68.7335 172.208C68.7129 172.148 67.9272 172.377 67.9272 172.377C67.0675 172.627 61.9957 171.98 48.0552 169.337C38.7094 167.523 32.3459 165.223 32.0744 164.129C31.8975 163.422 32.0065 162.617 32.4569 161.702C32.4898 161.636 32.5227 161.57 32.5556 161.505C34.7851 157.223 49.8589 155.567 49.8589 155.567Z" fill="#9A582C"/>
<path d="M34.3571 165.826C34.3571 165.826 32.0413 166.227 30.943 165.47C29.8447 164.713 28.1294 163.539 28.1643 163.097C28.1993 162.656 29.964 163.965 31.1713 164.02C32.3786 164.078 34.1947 163.555 34.9474 164.172C35.7002 164.789 34.3571 165.826 34.3571 165.826Z" fill="#9A582C"/>
<path d="M34.5134 163.777C34.5134 163.777 32.1975 164.178 31.0992 163.421C30.0009 162.665 28.2856 161.49 28.3206 161.048C28.3556 160.606 30.1202 161.916 31.3275 161.971C32.5348 162.029 34.3509 161.507 35.1037 162.124C35.8564 162.741 34.5134 163.777 34.5134 163.777Z" fill="#9A582C"/>
<path d="M34.6699 161.838C34.6699 161.838 32.354 162.239 31.2557 161.482C30.1574 160.725 28.4421 159.551 28.4771 159.108C28.5121 158.668 30.2767 159.976 31.484 160.032C32.6913 160.087 34.5075 159.567 35.2602 160.184C36.013 160.803 34.6699 161.838 34.6699 161.838Z" fill="#9A582C"/>
<path d="M71.4838 156.717C71.5743 156.375 67.3416 155.156 67.4424 154.695C67.5041 154.407 69.1967 154.736 72.2427 154.779C75.8379 154.829 76.858 154.415 79.4001 154.905C79.9678 155.014 81.1134 155.265 82.2631 155.725C86.7138 157.506 90.5496 162.136 89.7167 163.524C89.003 164.713 85.3935 162.652 77.1028 161.174C67.2367 159.413 60.7518 160.26 60.5976 158.983C60.4988 158.177 63.0019 157.097 64.8735 156.671C68.4049 155.871 71.4056 157.007 71.4838 156.717Z" fill="#774420"/>
<path d="M59.1435 173.22C62.3356 174.822 68.5675 169.867 70.7887 169.425C71.7904 169.226 72.6151 169.094 73.2198 169.002C74.39 168.823 89.9225 166.455 90.4716 168.672C90.8048 170.016 85.6671 173.096 80.9078 174.376C76.7265 175.499 72.2387 175.392 72.2264 175.275C72.2264 175.268 72.2387 175.264 72.5596 175.149C73.2794 174.892 73.4234 174.843 73.4193 174.832C73.409 174.795 70.8381 175.546 70.7929 175.41C70.7702 175.342 71.4201 175.081 71.3975 175.022C71.379 174.97 70.9183 175.141 70.4391 175.231C69.7459 175.363 69.565 175.225 67.9073 175.092C66.8378 175.005 66.595 175.036 66.2721 174.799C65.8052 174.456 65.6901 173.934 65.6099 173.705C64.8509 171.57 58.3229 170.787 57.9671 171.832C57.8416 172.204 58.4669 172.881 59.1435 173.22Z" fill="#774420"/>
<path d="M77.8431 155.565C77.8699 155.479 78.2319 155.493 78.2298 155.454C78.2257 155.376 77.0965 155.392 77.0945 155.343C77.0924 155.285 78.5835 155.226 78.5835 155.16C78.5835 155.006 70.2949 154.849 70.2949 154.687C70.2949 154.654 70.6199 154.619 70.6158 154.576C70.6117 154.524 70.1222 154.537 70.1201 154.498C70.1181 154.475 70.2723 154.461 70.4985 154.403C70.7063 154.349 70.9511 154.265 70.9469 154.24C70.9367 154.189 69.8897 154.391 69.8733 154.319C69.8651 154.277 70.2044 154.177 70.1921 154.129C70.1839 154.096 70.0132 154.113 70.0029 154.113C69.4435 154.164 63.2548 153.031 61.0747 152.718C57.1504 152.155 54.4294 152.607 54.4211 152.424C54.415 152.301 55.6428 152.042 56.9365 152.087C57.8332 152.12 58.3782 152.285 58.407 152.192C58.4564 152.038 56.9324 151.478 55.2212 150.707C55.2212 150.707 54.0221 150.166 51.5047 148.823C49.0901 147.533 44.3822 144.409 38.5885 139.917C36.8464 139.274 27.2929 135.742 19.3889 141.055C18.2453 141.824 13.41 145.281 12.1883 151.665C10.7877 158.987 15.2035 164.629 16.275 165.904C20.4337 170.855 26.9926 172.881 26.9679 172.928C26.9659 172.934 25.7524 172.338 25.7894 172.253C25.8491 172.118 29.1275 173.426 29.1583 173.347C29.1666 173.325 28.8889 173.218 28.5064 172.926C28.2349 172.72 27.9552 172.455 27.9798 172.42C28.0354 172.344 29.6067 173.438 29.6479 173.378C29.6746 173.341 29.0761 172.918 29.1152 172.852C29.1625 172.774 30.0613 173.506 31.3981 173.946C32.9407 174.456 33.821 174.164 35.4088 174.699C35.489 174.725 35.8324 174.843 35.853 174.799C35.8962 174.705 34.438 173.964 34.4626 173.915C34.4873 173.866 36.0155 174.625 36.0834 174.505C36.1286 174.427 35.4519 173.989 35.4828 173.938C35.5219 173.876 36.5029 174.425 36.5029 174.425C39.0697 175.863 45.752 176.075 45.7685 175.879C45.7746 175.797 44.6003 175.663 44.6085 175.6C44.6188 175.519 46.5624 175.721 47.1403 175.779C52.9979 176.359 59.1125 175.857 59.1146 175.663C59.1146 175.616 58.7505 175.628 58.1356 175.379C57.5145 175.129 56.9961 174.754 57.0311 174.684C57.0887 174.565 58.7547 175.291 58.7999 175.19C58.8369 175.11 57.7838 174.684 57.8373 174.464C57.9052 174.178 59.7974 174.444 61.7369 174.623C66.019 175.015 69.3632 174.876 69.3694 174.771C69.3715 174.746 69.2008 174.734 68.7627 174.588C68.4891 174.495 68.1189 174.355 68.1271 174.328C68.1477 174.263 70.7618 175.03 70.8009 174.906C70.8214 174.843 70.116 174.575 70.1386 174.518C70.1612 174.454 70.9922 174.697 70.9922 174.697C73.2937 174.888 76.9299 174.896 81.0475 173.545C84.112 172.539 86.4835 171.762 87.6455 169.559C89.4266 166.178 87.4686 161.118 84.4884 158.695C81.8846 156.581 77.7526 155.859 77.8431 155.565Z" fill="#9A582C"/>
<path d="M86.9566 161.336C87.7053 161.044 88.5341 161.318 90.161 161.875C93.0918 162.879 94.5583 163.381 95.0992 164.569C95.7121 165.916 94.5871 166.383 94.3752 169.946C94.3526 170.314 94.295 170.978 93.8487 171.367C93.5135 171.657 93.1659 171.626 92.1108 171.725C91.3087 171.799 91.1585 171.85 90.7945 171.902C90.7945 171.902 90.5127 171.941 90.233 171.965C88.0672 172.146 86.5412 171.021 86.5412 171.021C85.9961 170.347 84.6695 168.51 84.7477 165.997C84.758 165.655 84.9081 162.132 86.9566 161.336Z" fill="#5E351E"/>
<path d="M91.8372 170.186C91.8372 170.186 93.4517 170.466 94.2189 169.937C94.9861 169.409 96.181 168.59 96.1563 168.282C96.1316 167.973 94.9017 168.886 94.0585 168.928C93.2152 168.967 91.9482 168.603 91.4238 169.033C90.8993 169.464 91.8372 170.186 91.8372 170.186Z" fill="#FFDFB5"/>
<path d="M91.6579 168.146C91.6579 168.146 93.2724 168.426 94.0396 167.897C94.8067 167.369 96.0017 166.55 95.977 166.242C95.9523 165.933 94.7224 166.846 93.8792 166.887C93.0359 166.926 91.769 166.562 91.2445 166.992C90.7221 167.422 91.6579 168.146 91.6579 168.146Z" fill="#FFDFB5"/>
<path d="M91.6581 166.316C91.6581 166.316 93.2726 166.595 94.0398 166.067C94.807 165.538 96.0019 164.719 95.9773 164.411C95.9526 164.102 94.7227 165.016 93.8794 165.057C93.0362 165.096 91.7692 164.732 91.2447 165.162C90.7223 165.592 91.6581 166.316 91.6581 166.316Z" fill="#FFDFB5"/>
<path d="M119.679 108.785C121.228 111.718 122.546 113.507 122.863 113.916C124.695 116.29 126.371 117.602 128.393 120.107C128.393 120.107 130.542 122.709 132.628 126.606C134.504 130.111 139.432 145.392 135.043 148C132.554 149.479 126.869 147.001 124.802 145.588C124.576 145.434 123.126 144.426 123.023 144.553C122.947 144.65 123.708 145.285 123.644 145.38C123.365 145.791 108.268 135.526 107.754 136.223C107.583 136.454 109.111 137.745 109.037 137.826C108.92 137.951 104.716 135.347 102.727 131.256C102.489 130.767 101.691 129.037 101.58 129.085C101.514 129.111 101.754 129.739 101.666 129.78C101.528 129.846 100.66 128.426 99.9651 126.974C99.4345 125.866 98.8319 124.605 98.4761 122.847C98.293 121.942 98.1716 120.884 98.1038 120.891C98.0441 120.897 98.1141 121.738 98.0318 121.75C97.8776 121.771 97.4127 118.789 97.205 118.811C97.0754 118.826 97.1227 120.006 97.0405 120.012C96.9315 120.019 96.808 117.984 96.6271 117.984C96.479 117.984 96.5057 119.33 96.3371 119.35C95.646 119.43 94.5971 96.7097 94.7678 95.6977C94.8788 95.0293 95.0166 94.3814 95.0166 94.3814V94.3794C95.1832 93.6102 95.4383 92.5756 95.9278 91.1215C96.3145 89.9677 96.7648 88.6267 97.5423 87.0184C98.7085 84.6079 99.307 83.4088 100.467 82.6087C101.812 81.6791 103.801 81.1649 105.576 81.7408C107.666 82.4175 108.741 84.3713 109.284 85.3935C113.513 93.3531 115.876 101.584 119.679 108.785Z" fill="#9A582C"/>
<path d="M118.717 140.609C120.352 139.638 117.982 132.7 117.415 130.969C115.047 123.758 112.96 123.464 109.583 115.656C108.026 112.057 107.547 109.967 104.348 102.573C102.503 98.3078 101.091 95.6341 99.5706 95.7348C99.2107 95.7595 98.244 95.9796 97.0943 98.7685C94.2766 105.597 96.8043 113.124 99.4246 120.728C101.103 125.599 102.584 128.348 104.527 130.757C106.551 133.264 108.676 134.895 109.066 135.193C109.404 135.448 109.856 135.779 113.244 137.824C117.995 140.689 118.381 140.808 118.717 140.609Z" fill="#6B3E27"/>
<path d="M131.882 146.555C131.832 147.643 135.368 149.08 137.606 148.673C137.863 148.626 139.364 148.325 139.364 148.325C136.207 147.542 135.966 147.439 135.966 147.439C134.025 146.618 133.385 145.499 132.515 145.839C132.231 145.95 131.896 146.23 131.882 146.555Z" fill="#FFDFB5"/>
<path d="M133.004 144.109C132.747 144.862 134.929 146.571 136.943 146.853C137.381 146.915 138.07 147.011 138.858 146.775C139.288 146.645 140.075 146.32 140.075 146.32C140.075 146.32 138.856 146.08 138.337 145.934C136.279 145.356 136.079 143.727 134.458 143.628C133.93 143.595 133.138 143.718 133.004 144.109Z" fill="#FFDFB5"/>
<path d="M134.298 141.783C134.167 142.904 136.468 144.56 138.58 144.541C139.378 144.533 140.878 144.28 140.878 144.28C140.878 144.28 139.79 144.132 138.99 143.698C138.583 143.478 138.513 143.326 137.834 142.68C136.481 141.388 135.792 140.746 135.15 140.886C134.753 140.971 134.348 141.357 134.298 141.783Z" fill="#FFDFB5"/>
<path d="M20.6146 108.126C18.9034 111.09 17.4719 112.884 17.1305 113.295C15.1478 115.671 13.3688 116.958 11.1866 119.461C11.1866 119.461 8.45937 122.522 6.56718 125.997C2.37351 133.694 2.76018 145.623 7.23767 147.733C8.09739 148.138 9.29436 148.263 14.2922 145.987C17.3012 144.615 19.0268 143.342 19.1769 143.552C19.2921 143.712 18.3152 144.469 18.4304 144.642C18.6237 144.934 21.8178 143.393 25.0983 141.219C30.1043 137.9 33.3396 134.407 33.6646 134.72C33.8723 134.917 32.6814 136.433 32.8377 136.557C33.0578 136.727 35.3984 133.963 35.6143 134.132C35.7562 134.243 34.8245 135.51 34.9253 135.588C35.1433 135.759 39.5509 129.969 41.7536 127.075C41.7536 127.075 42.8807 125.596 42.7429 125.477C42.6648 125.409 42.1979 125.901 42.1053 125.827C41.9243 125.683 43.7261 123.807 44.4089 121.01C44.6146 120.169 44.7338 119.179 44.6495 119.161C44.5672 119.14 44.306 120.07 44.2423 120.055C44.1477 120.031 44.7812 117.96 45.0691 115.418C45.3344 113.063 45.2377 110.864 45.4126 110.858C45.4928 110.854 45.5709 111.304 45.6306 111.294C45.719 111.277 45.6018 110.344 45.6676 110.333C45.7334 110.323 45.863 111.288 45.9926 111.286C46.336 111.284 46.4388 104.441 46.7885 104.435C46.9407 104.433 47.0065 105.737 47.1155 105.732C47.3644 105.722 47.2575 99.0378 46.8214 95.6051C46.733 94.9141 46.6219 94.2703 46.6158 94.2374C46.4738 93.4373 46.2517 92.3617 45.8034 90.8418C45.4496 89.6365 45.0382 88.2379 44.2978 86.5473C43.1337 83.8838 42.5496 82.5531 41.4554 81.8868C39.3822 80.626 36.8175 81.4919 36.1367 81.7202C34.0759 82.4153 32.8007 83.7872 32.2536 84.4124C27.3154 90.0787 25.8222 99.1118 20.6146 108.126Z" fill="#9A582C"/>
<path d="M9.56984 145.127C9.86189 146.213 6.61638 148.447 4.27171 148.533C4.00228 148.543 2.42271 148.572 2.42065 148.572C5.42759 147.081 5.64765 146.925 5.64765 146.925C7.4226 145.668 7.81753 144.395 8.76979 144.547C9.08242 144.597 9.48346 144.804 9.56984 145.127Z" fill="#FFDFB5"/>
<path d="M7.89369 142.912C8.31943 143.613 6.50126 145.82 4.53298 146.552C4.10312 146.711 3.43264 146.962 2.58732 146.898C2.12456 146.863 1.26074 146.709 1.26074 146.709C1.26074 146.709 2.4351 146.195 2.92666 145.931C4.87232 144.893 4.7119 143.206 6.32438 142.747C6.84884 142.599 7.67156 142.548 7.89369 142.912Z" fill="#FFDFB5"/>
<path d="M6.07558 140.855C6.45813 141.956 4.5063 144.136 2.37347 144.584C1.56723 144.753 0 144.831 0 144.831C0 144.831 1.0613 144.44 1.77292 143.825C2.13491 143.513 2.17194 143.344 2.7108 142.542C3.78853 140.94 4.33972 140.14 5.01638 140.138C5.4339 140.14 5.92955 140.436 6.07558 140.855Z" fill="#FFDFB5"/>
<path d="M22.0604 140.835C20.3739 139.833 22.8173 132.674 23.4034 130.886C25.8468 123.445 28.0002 123.143 31.4864 115.084C33.0927 111.37 33.5863 109.213 36.8874 101.584C38.7919 97.1807 40.2501 94.4226 41.8173 94.5275C42.1875 94.5522 43.185 94.7805 44.3738 97.6578C47.282 104.704 44.6741 112.472 41.9675 120.319C40.2336 125.345 38.7076 128.184 36.7023 130.668C34.6126 133.254 32.4222 134.938 32.0191 135.247C31.6715 135.51 31.2025 135.853 27.7082 137.961C22.807 140.917 22.4059 141.04 22.0604 140.835Z" fill="#6B3E27"/>
<path d="M38.1009 81.8046C37.8129 82.0863 39.1766 83.7914 39.0038 83.9292C38.8228 84.0752 37.1589 82.2406 34.699 79.9432C31.8525 77.2839 31.4927 77.3209 31.4042 77.3929C31.1224 77.6253 32.2433 79.3735 32.0952 79.4661C31.8793 79.6018 29.4997 75.7454 28.8004 76.0642C28.3911 76.2514 28.7757 77.7754 28.5885 77.8186C28.2718 77.8906 27.1036 73.6126 26.8362 73.6743C26.6285 73.7216 27.1879 76.3542 26.8897 76.4365C26.6305 76.5085 25.8634 74.6225 25.0304 72.5575C24.1193 70.3013 23.6236 68.8533 23.4899 68.8904C23.3068 68.9418 24.1234 71.7143 23.8107 71.8274C23.5146 71.9343 22.1119 69.7028 21.3468 67.029C20.9725 65.7189 20.8491 64.6494 20.6023 64.6556C20.2033 64.6638 20.1169 67.4815 19.7528 67.4897C19.4546 67.4959 19.1811 65.6099 18.9425 63.9213C18.1198 58.1049 17.8668 55.8939 17.6509 55.9001C17.3423 55.9063 17.3218 60.3817 17.0606 60.3879C16.8282 60.392 16.2338 56.8853 16.3695 53.4258C16.785 42.916 23.9074 34.3908 23.3768 34.0679C23.2267 33.9754 22.7125 34.7014 22.5849 34.615C22.2744 34.4052 24.6479 29.6604 28.0517 25.5387C30.3964 22.7004 32.7822 20.6992 34.5901 19.3706C35.0919 19.1279 36.4349 18.4779 36.3671 18.2579C36.3259 18.1221 35.783 18.2373 35.7501 18.116C35.7069 17.9514 36.6715 17.6162 36.6427 17.5154C36.5974 17.357 34.1828 18.007 34.115 17.8074C34.0656 17.6594 35.2544 17.139 35.2996 17.1205C38.2593 15.8289 59.0836 5.11539 65.6096 3.13476C65.9037 3.04632 66.7552 2.7954 66.9053 3.04838C67.2015 3.54405 64.4928 5.5473 64.645 5.73652C64.7849 5.91134 66.3192 4.99404 67.6643 3.99447C70.6342 1.79172 71.8765 -0.190964 72.2138 0.0147087C72.804 0.372579 69.394 6.73609 69.9225 7.04666C70.2825 7.2585 72.405 4.4017 72.6621 4.58681C72.8349 4.71021 71.9094 6.00595 72.3063 6.45843C72.5449 6.72992 73.1455 6.55921 73.4129 6.48928C75.8974 5.84347 78.7747 6.43581 78.7912 6.61474C78.8097 6.80808 75.5312 7.05488 75.5292 7.42921C75.5251 8.00303 83.1761 7.25438 91.257 9.93636C99.1528 12.5566 104.819 17.575 104.718 17.7416C104.657 17.8445 102.168 16.4253 102.065 16.5981C101.952 16.7853 104.895 18.3957 108.036 21.526C109.733 23.2187 111.195 25.0615 111.006 25.261C110.851 25.4235 109.597 24.4939 109.554 24.5576C109.513 24.6193 110.644 25.4379 110.588 25.5202C110.555 25.5695 110.191 25.2693 110.074 25.3392C109.572 25.6395 114.913 31.9721 116.532 40.3512C117.347 44.5655 116.703 46.6304 118.552 50.7932C119.309 52.4983 120.699 55.0424 120.438 55.2029C120.22 55.3365 119.05 53.7117 118.844 53.8475C118.546 54.0449 120.722 57.6689 120.331 57.9383C120.129 58.0782 119.409 57.2143 119.214 57.3542C118.893 57.5866 120.417 60.2974 120.356 60.3303C120.325 60.3467 119.967 59.5734 119.169 58.9358C118.924 58.7404 118.465 58.3743 118.284 58.4957C118.042 58.6602 118.562 59.5199 118.92 60.9679C119.05 61.4964 119.132 62.5145 119.292 64.5281C119.446 66.4655 119.444 66.8707 119.292 66.92C118.895 67.0455 117.964 64.5733 117.591 64.6885C117.242 64.7975 117.972 67.0208 117.803 70.0545C117.674 72.4115 117.04 74.5443 116.74 74.5176C116.328 74.4806 116.489 70.3897 116.156 70.3733C115.987 70.365 115.829 71.3934 115.572 72.7118C114.975 75.7619 114.13 78.9149 113.871 78.8758C113.63 78.8388 113.994 76.0684 113.659 76.0067C113.41 75.9614 113.069 77.469 112.135 79.6018C111.1 81.965 109.881 83.8551 109.726 83.7811C109.556 83.7009 110.615 81.241 110.434 81.1588C110.36 81.1258 110.138 81.5084 109.938 81.7963C109.22 82.8268 108.365 83.2381 107.174 83.9209C104.669 85.3606 103.604 86.3294 103.49 86.1874C103.314 85.9694 105.901 83.7399 105.757 83.5651C105.642 83.4253 103.768 85.2825 101.452 86.4795C97.2729 88.637 95.4938 86.6543 89.9859 87.9809C84.8441 89.2211 80.5024 92.37 80.3831 92.1458C80.3481 92.08 80.741 91.8414 80.6916 91.7427C80.5291 91.4218 75.9899 93.421 75.9015 93.2297C75.8706 93.1598 76.4444 92.8512 76.4115 92.7854C76.3478 92.6558 74.1183 93.7089 74.0113 93.5115C73.9394 93.3798 74.8711 92.8142 74.795 92.6723C74.7292 92.5489 73.9641 92.8492 72.4318 93.3839C71.0785 93.857 70.3956 94.0688 70.3627 93.9927C70.3236 93.9043 71.1895 93.5094 71.1402 93.3757C71.0764 93.2009 69.6511 93.9701 67.8988 93.7788C66.4961 93.6266 65.3484 92.9088 65.2455 93.1001C65.188 93.205 65.5212 93.458 65.4821 93.5115C65.3669 93.6657 62.3785 91.5205 62.1975 91.7427C62.0988 91.8619 62.8762 92.6044 62.7981 92.6908C62.6829 92.8142 60.9203 91.3354 60.8401 91.428C60.7845 91.4917 61.6607 92.1849 61.564 92.3453C61.3604 92.6826 56.5744 90.9755 52.4054 87.3845C51.2948 86.4281 49.6967 84.8814 49.6103 84.9678C49.5322 85.046 50.7539 86.3211 50.6058 86.4836C50.505 86.5926 49.8428 86.134 49.6577 86.0106C47.2533 84.3981 44.8387 85.3627 41.6344 83.9107C39.5221 82.9625 38.3641 81.5454 38.1009 81.8046Z" fill="#9A582C"/>
<path d="M21.6263 54.3863C21.0649 48.9668 22.3339 44.9212 23.2162 43.7386C23.2162 43.7386 23.9093 42.809 23.8332 42.7432C23.7921 42.7082 23.5658 42.9324 23.5329 42.9015C23.463 42.8378 24.3844 41.793 24.3063 41.7169C24.2466 41.6593 23.6563 42.2167 23.5946 42.1591C23.5082 42.0768 24.5921 40.8284 24.5263 40.7687C24.4954 40.7399 24.2363 41.0196 24.187 40.9826C24.0553 40.8839 25.5115 38.7264 25.4662 38.6955C25.4518 38.6852 25.3058 38.895 25.2688 38.8724C25.2092 38.8374 25.5444 38.241 25.4662 38.1855C25.3655 38.1155 24.695 39.0308 24.6024 38.9752C24.4523 38.8847 25.5691 36.1637 27.4818 33.4385C30.5525 29.0639 34.2505 26.711 33.8782 26.168C33.6911 25.8924 32.7121 26.4457 32.5743 26.2215C32.2699 25.7258 36.3813 21.927 41.9509 19.097C45.0648 17.5133 47.8722 16.6207 47.7632 16.2546C47.6727 15.9481 45.6777 16.4088 45.6592 16.3204C45.618 16.1127 56.3953 12.0938 61.9135 15.2427C65.7719 17.4454 66.7633 18.4018 66.7633 18.4018C67.7999 19.4034 68.2852 20.1583 69.2025 20.2015C70.3646 20.257 70.9014 19.0415 72.5283 17.8012C73.7788 16.8469 74.8544 16.487 76.7919 15.8432C80.5783 14.5825 86.3597 15.1522 91.481 17.0115C91.6969 17.0896 93.8154 17.6737 93.764 17.9576C93.7084 18.2661 91.1437 17.9514 91.1005 18.2105C91.0614 18.4471 93.1819 18.9386 94.3851 19.2842C100.619 21.0714 105.162 25.4914 104.953 25.8389C104.837 26.0282 103.217 25.1499 103.104 25.3494C102.982 25.5675 104.895 26.6267 106.261 27.8134C110.798 31.7541 112.17 38.0086 111.789 38.2019C111.649 38.2739 111.199 37.5623 111.067 37.6445C110.911 37.7433 111.47 38.8169 112.153 40.3862C113.068 42.4902 113.696 44.3186 113.578 44.3721C113.521 44.3988 113.295 43.9834 113.243 44.0122C113.153 44.0595 113.751 45.3202 113.669 45.3634C113.624 45.3861 113.416 45.0076 113.36 45.0323C113.28 45.0693 113.618 45.8982 113.881 46.7373C114.025 47.196 114.193 47.9817 114.52 49.5324C114.845 51.0688 114.977 51.7969 114.872 51.8298C114.786 51.8565 114.607 51.4185 114.537 51.4431C114.401 51.4925 114.884 53.1173 114.884 53.1173C115.45 55.0136 116.108 61.8131 112.805 68.3042C111.034 71.7842 108.517 74.4085 108.342 74.2954C108.256 74.2399 108.677 73.4953 108.55 73.4131C108.418 73.3287 107.863 74.0424 106.845 75.1181C106.598 75.3793 105.051 77.0144 104.897 76.8889C104.796 76.8067 105.352 76.0231 105.282 75.9716C105.171 75.8894 103.607 77.8268 103.577 77.868C99.8642 82.473 88.4268 85.05 88.2725 84.5955C88.2211 84.4474 89.3646 83.997 89.3152 83.8839C89.1548 83.5219 80.023 87.2055 79.9181 86.9484C79.8852 86.8682 80.7593 86.4815 80.712 86.3602C80.6133 86.1031 76.4587 87.1952 73.1576 87.769C73.0754 87.7834 72.0964 87.95 72.0573 87.8102C72.0141 87.66 73.1 87.3124 73.063 87.1376C73.0157 86.9134 71.212 87.3227 69.2334 87.3124C66.1648 87.298 63.6 86.28 62.4174 85.811C60.7041 85.1302 59.1596 84.2644 59.0691 84.4207C58.995 84.5482 59.9843 85.1961 59.9061 85.3277C59.7992 85.5066 57.8453 84.5585 57.3003 84.2932C55.6137 83.4746 54.5915 82.8576 54.3941 83.092C54.2748 83.2339 54.5977 83.5157 54.4887 83.6926C54.1782 84.1965 50.8421 82.9583 47.9504 81.3705C47.3251 81.0271 46.5765 80.589 46.5292 80.6589C46.4407 80.7906 48.9273 82.4997 48.8327 82.6478C48.7422 82.7897 46.4099 81.3418 42.4548 79.2377C39.9497 77.905 39.9086 77.9667 38.3804 77.0905C35.5113 75.4451 34.051 74.5916 32.6936 73.0778C32.0046 72.3086 30.9803 70.9861 30.861 71.0725C30.7932 71.1198 31.042 71.5908 31.0029 71.6093C30.9721 71.6237 30.8199 71.3317 30.6081 71.0417C30.2461 70.546 29.7771 70.1347 29.7134 70.184C29.6249 70.254 30.3674 71.2432 30.3243 71.2782C30.2235 71.3563 25.2688 66.9262 22.9015 60.2253C22.085 57.9136 21.7641 55.8589 21.6263 54.3863Z" fill="#FFDFB5"/>
<path d="M17.6959 51.4101C17.9941 50.2563 18.7304 48.4608 26.3033 43.1215C32.7223 38.5947 35.9308 36.3323 39.5877 35.7893C41.6382 35.4849 47.5698 34.6026 51.7039 38.5515C55.3114 41.9965 55.2188 46.8977 55.2106 47.1589C55.1365 49.3246 54.4022 50.9001 53.7235 52.3665C52.8782 54.1888 51.5805 56.9818 48.8697 58.3537C48.121 58.7321 46.8438 59.2175 43.1314 58.9912C36.194 58.5696 34.7399 56.5191 29.1025 56.7247C24.6764 56.8852 23.2017 58.2364 22.6547 58.8493C21.5235 60.1163 21.5893 61.3339 20.9537 61.3997C19.5778 61.5416 16.4783 56.1098 17.6959 51.4101Z" fill="#9A582C"/>
<path d="M116.956 64.3758C116.914 60.651 115.164 58.0925 112.706 54.5014C109.845 50.3201 107.04 46.3259 101.703 44.0533C99.7962 43.2408 94.278 40.89 89.2822 43.6686C84.922 46.0935 83.7743 50.8569 83.7167 51.1119C83.1902 53.4525 83.5975 55.3776 83.8422 56.5273C84.1363 57.9156 84.7574 60.8382 87.0589 62.8888C87.9515 63.6847 89.0704 64.3244 92.5853 65.1553C96.8654 66.1672 99.788 66.2988 105.905 67.14C110.228 67.7323 112.069 68.119 112.918 69.6204C113.907 71.3645 112.879 73.411 113.268 73.5405C113.85 73.7318 117.011 69.46 116.956 64.3758Z" fill="#9A582C"/>
<path d="M31.9821 44.4564C31.832 44.5119 31.9945 45.8261 32.2104 46.7907C32.2968 47.1795 32.3873 47.4818 32.2474 47.8191C32.2104 47.9075 32.0829 48.1811 31.1924 48.6562C30.6309 48.9544 29.8287 49.3719 28.9484 49.3205C28.5885 49.3 28.3685 49.2074 28.3006 49.1786C27.8646 48.9873 27.7021 48.687 27.6527 48.72C27.5705 48.7755 27.7864 49.7751 28.6153 50.1741C29.2076 50.4579 29.8431 50.3057 30.1948 50.1268C30.2195 50.1144 30.3861 50.0034 30.7152 49.7792C31.2417 49.4234 31.505 49.2465 31.5523 49.2115C31.9965 48.8742 32.0891 48.7261 32.2989 48.7426C32.4984 48.757 32.6382 48.9071 32.7452 49.0244C32.7657 49.047 33.1421 49.4665 33.064 49.9828C33.0372 50.1679 32.955 50.3365 32.4038 50.8692C31.6674 51.5809 31.289 51.9387 30.7131 52.1177C30.5239 52.1753 30.2195 52.2678 29.8287 52.2287C29.1336 52.1588 28.7222 51.7331 28.7078 51.7557C28.6852 51.7886 29.5511 52.817 30.6658 52.7511C31.0833 52.7265 31.3919 52.5558 31.5502 52.4673C32.5148 51.9243 32.8809 50.7993 33.3478 50.8877C33.3622 50.8898 33.3766 50.8939 33.3869 50.898C33.4691 50.9268 33.5843 51.0194 33.9607 51.4472C34.3515 51.8914 34.333 51.8338 34.3885 52.0066C34.5037 52.3665 34.3145 52.7162 34.0615 53.181C33.9134 53.4525 33.7406 53.761 33.3828 54.0181C33.2902 54.0839 33.1092 54.2114 32.846 54.2875C32.2722 54.452 31.8361 54.2217 31.8196 54.2711C31.7949 54.3451 32.702 54.8305 33.3684 54.666C33.5596 54.6186 33.7633 54.524 33.7633 54.524C33.897 54.4788 34.082 54.3924 34.2363 54.2238C34.3823 54.0654 34.4235 53.9152 34.5839 53.4648C34.8245 52.7882 34.8636 52.745 34.913 52.7265C35.2112 52.6133 35.75 53.3908 35.9351 53.6273C37.2165 55.2809 40.2111 55.2768 41.6549 55.2891C42.7285 55.2974 44.8963 55.2871 47.0744 53.9132C49.1126 52.6277 50.0319 50.8631 50.5358 49.8964C51.3297 48.3744 51.7514 46.7373 51.5478 46.6427C51.3483 46.5501 50.7621 48.0001 49.3882 49.5015C48.8494 50.0897 47.313 51.7495 44.8284 52.5907C43.9564 52.8848 40.7418 53.9749 37.7739 52.3583C36.4967 51.6631 35.8035 50.6985 34.7752 49.302C32.9344 46.7928 32.1919 44.3782 31.9821 44.4564Z" fill="#231F1C"/>
<path d="M107.199 52.4468C107.337 52.5291 106.944 53.7919 106.561 54.7051C106.407 55.0712 106.265 55.353 106.343 55.7109C106.364 55.8034 106.44 56.0975 107.234 56.7207C107.734 57.1136 108.449 57.6668 109.323 57.7696C109.681 57.8128 109.916 57.7614 109.986 57.745C110.448 57.6339 110.662 57.3686 110.703 57.4077C110.773 57.4755 110.385 58.4216 109.498 58.6684C108.865 58.8433 108.266 58.58 107.952 58.3435C107.929 58.327 107.787 58.1872 107.499 57.9095C107.042 57.4673 106.816 57.2452 106.775 57.202C106.397 56.7907 106.333 56.6302 106.123 56.6076C105.924 56.587 105.761 56.7104 105.634 56.8071C105.609 56.8256 105.165 57.1732 105.15 57.6936C105.144 57.8807 105.196 58.0617 105.644 58.6828C106.242 59.5117 106.553 59.9333 107.088 60.2089C107.265 60.2994 107.548 60.4434 107.939 60.4743C108.634 60.5277 109.116 60.1822 109.126 60.2069C109.142 60.2439 108.108 61.1036 107.022 60.8403C106.617 60.7416 106.343 60.5195 106.201 60.4043C105.348 59.6989 105.185 58.5265 104.712 58.5306C104.698 58.5306 104.681 58.5327 104.671 58.5327C104.585 58.545 104.455 58.617 104.009 58.9708C103.544 59.3389 103.575 59.2855 103.488 59.4459C103.312 59.7791 103.435 60.1575 103.602 60.6594C103.698 60.9514 103.813 61.2867 104.122 61.6034C104.2 61.6836 104.356 61.842 104.603 61.9633C105.14 62.2266 105.609 62.0764 105.617 62.1299C105.627 62.206 104.65 62.5248 104.023 62.2451C103.842 62.1649 103.659 62.0353 103.659 62.0353C103.536 61.9674 103.369 61.8502 103.246 61.6569C103.131 61.4738 103.116 61.3196 103.038 60.8486C102.921 60.1411 102.89 60.0917 102.845 60.0629C102.571 59.8984 101.903 60.5689 101.679 60.7684C100.124 62.169 97.1784 61.6363 95.7552 61.3936C94.6959 61.2126 92.5652 60.8198 90.6648 59.0818C88.8877 57.455 88.2934 55.5566 87.9664 54.5159C87.4542 52.8767 87.3288 51.1922 87.5468 51.1347C87.7586 51.0791 88.0794 52.6093 89.1675 54.3308C89.5932 55.0054 90.8128 56.912 93.1102 58.1789C93.9164 58.6232 96.8884 60.2645 100.095 59.197C101.475 58.7384 102.328 57.9116 103.587 56.7187C105.85 54.5756 107.007 52.3317 107.199 52.4468Z" fill="#231F1C"/>
<path d="M58.8825 56.441C58.6274 57.5002 59.154 58.4339 59.5201 59.0633C59.773 59.4973 60.3119 60.3056 62.2123 61.6856C63.7445 62.7983 64.5117 63.3557 65.4722 63.6704C67.8539 64.4499 70.0238 63.6457 70.9267 63.3166C72.1833 62.858 75.2334 61.7453 75.8504 59.1003C75.8916 58.9214 76.2515 57.2698 75.3198 55.8054C74.6658 54.7791 73.7176 54.3801 72.3437 53.8042C71.558 53.4752 70.1698 52.9816 68.3126 52.8108C65.6532 52.5681 63.6911 53.1358 62.6195 53.4587C61.2744 53.8639 60.4312 54.3143 59.7504 55.0259C59.4439 55.3427 59.0429 55.7725 58.8825 56.441Z" fill="#5E351E"/>
<path d="M59.9807 56.1921C59.8943 56.0399 61.2764 54.9251 62.7963 54.2258C64.7091 53.3476 66.4264 53.3126 67.2244 53.3044C68.2816 53.2941 71.5251 53.2633 73.8656 55.3591C74.6307 56.044 75.4781 57.1155 75.3526 57.2533C75.2868 57.3274 74.9598 57.1135 74.5546 56.8996C73.8018 56.5006 73.1663 56.3196 71.8973 55.9617C68.804 55.0855 64.4972 55.32 62.9177 55.573C61.4903 55.8013 60.8445 55.9802 60.8445 55.9802C60.2706 56.1407 60.0136 56.2538 59.9807 56.1921Z" fill="#6E4F3F"/>
<path d="M67.3623 64.2299C67.1731 64.2196 66.8564 67.315 66.698 69.4766C66.5109 72.0249 66.4122 75.0833 66.5644 75.0956C66.6569 75.1038 66.8132 74.0076 66.9428 73.0965C67.134 71.7534 67.1094 71.4614 67.3212 69.1846C67.4631 67.6564 67.566 66.805 67.5063 65.464C67.4857 64.958 67.4528 64.234 67.3623 64.2299Z" fill="#5E351E"/>
<path d="M54.0366 61.9305C54.0325 61.9572 53.8906 61.951 53.7714 61.9572C53.068 61.9901 52.5229 62.4714 52.309 62.6585C52.1486 62.8004 51.5295 63.3455 51.3814 64.162C51.3485 64.3409 51.3341 64.5589 51.2889 64.561C51.2292 64.5631 51.1326 64.1826 51.1428 63.8309C51.1614 63.146 51.5748 62.6503 51.7146 62.4899C51.908 62.2636 52.3069 61.8029 52.963 61.7186C53.5183 61.6487 54.0449 61.877 54.0366 61.9305Z" fill="#5E351E"/>
<path d="M79.9557 64.3575C79.9639 64.3801 80.0791 64.3534 80.1778 64.341C80.762 64.267 81.2782 64.5837 81.4818 64.7092C81.634 64.8038 82.2222 65.1617 82.4608 65.8116C82.5122 65.9535 82.5575 66.1304 82.5945 66.1263C82.6439 66.1201 82.6686 65.7931 82.6089 65.5052C82.4958 64.9437 82.0844 64.5961 81.9466 64.483C81.7554 64.3246 81.3605 64.0017 80.8093 64.0284C80.3403 64.051 79.9413 64.3143 79.9557 64.3575Z" fill="#5E351E"/>
<path d="M52.2763 62.9589C52.3956 64.5631 53.0723 65.9966 53.1792 66.2188C53.7037 67.3047 54.331 68.6066 55.5876 70.0628C58.1791 73.0677 61.3177 74.2668 62.4078 74.6678C63.6994 75.145 66.7063 76.2124 70.573 75.6057C71.9037 75.398 74.493 74.9599 77.0208 72.9669C77.0208 72.9669 80.4658 70.252 81.4839 66.0584C81.5312 65.8671 81.8212 64.6433 81.7492 64.6228C81.6834 64.6042 81.3502 65.612 81.2186 65.9864C81.2186 65.9864 80.2642 68.6992 78.226 71.087C75.5214 74.2565 71.0748 74.9496 70.2912 75.073C63.6932 76.1034 58.7879 72.1565 57.9467 71.4778C57.3605 71.0068 55.4539 69.4705 54.1911 67.1566C53.2244 65.3837 52.7926 63.9152 52.7926 63.9152C52.5931 63.2386 52.3832 62.3419 52.2969 62.3563C52.231 62.3665 52.266 62.819 52.2763 62.9589Z" fill="#5E351E"/>
</svg>
