<svg width="24" height="26" viewBox="0 0 24 26" fill="none" xmlns="http://www.w3.org/2000/svg">
<path d="M8.25195 19.25H4.00746C2.43442 19.25 1.64791 19.25 1.48243 19.1279C1.29651 18.9906 1.25108 18.9097 1.23095 18.6795C1.21303 18.4746 1.69509 17.6858 2.65921 16.1082C3.65465 14.4794 4.49989 12.1078 4.49989 8.75C4.49989 6.89348 5.29007 5.11301 6.69659 3.80025C8.10312 2.4875 10.0108 1.75 11.9999 1.75C13.989 1.75 15.8967 2.4875 17.3032 3.80025C18.7097 5.11301 19.4999 6.89348 19.4999 8.75C19.4999 12.1078 20.3451 14.4794 21.3406 16.1082C22.3047 17.6858 22.7868 18.4746 22.7688 18.6795C22.7487 18.9097 22.7033 18.9906 22.5174 19.1279C22.3519 19.25 21.5654 19.25 19.9923 19.25H15.7499M8.25195 19.25L8.24989 20.5C8.24989 22.5711 9.92883 24.25 11.9999 24.25C14.071 24.25 15.7499 22.5711 15.7499 20.5V19.25M8.25195 19.25H15.7499" stroke="#394B42" stroke-width="2" stroke-linecap="round" stroke-linejoin="round"/>
</svg>
