<svg width="26" height="26" viewBox="0 0 26 26" fill="none" xmlns="http://www.w3.org/2000/svg">
<path d="M9.25 14.875L16.75 18.625M16.75 7.375L9.25 11.125M20.5 24.25C18.4289 24.25 16.75 22.5711 16.75 20.5C16.75 18.4289 18.4289 16.75 20.5 16.75C22.5711 16.75 24.25 18.4289 24.25 20.5C24.25 22.5711 22.5711 24.25 20.5 24.25ZM5.5 16.75C3.42893 16.75 1.75 15.0711 1.75 13C1.75 10.9289 3.42893 9.25 5.5 9.25C7.57107 9.25 9.25 10.9289 9.25 13C9.25 15.0711 7.57107 16.75 5.5 16.75ZM20.5 9.25C18.4289 9.25 16.75 7.57107 16.75 5.5C16.75 3.42893 18.4289 1.75 20.5 1.75C22.5711 1.75 24.25 3.42893 24.25 5.5C24.25 7.57107 22.5711 9.25 20.5 9.25Z" stroke="#394B42" stroke-width="2" stroke-linecap="round" stroke-linejoin="round"/>
</svg>
