<svg width="30" height="30" viewBox="0 0 30 30" fill="none" xmlns="http://www.w3.org/2000/svg">
<path d="M17.3457 11.8765C18.6803 12.9442 19.3476 13.4781 19.5892 14.123C19.801 14.6885 19.801 15.3115 19.5892 15.877C19.3476 16.5219 18.6803 17.0558 17.3457 18.1235L11.9994 22.4005C10.9592 23.2327 10.4391 23.6487 10.0013 23.6492C9.62067 23.6496 9.26056 23.4765 9.02307 23.179C8.75 22.8369 8.75 22.1709 8.75 20.8388V9.16125C8.75 7.82912 8.75 7.16306 9.02307 6.82097C9.26056 6.52345 9.62067 6.35037 10.0013 6.35078C10.4391 6.35125 10.9592 6.76734 11.9994 7.59951L17.3457 11.8765Z" fill="#394B42"/>
<path d="M21.25 6.25V23.75M8.75 9.16125V20.8388C8.75 22.1709 8.75 22.8369 9.02307 23.179C9.26056 23.4765 9.62067 23.6496 10.0013 23.6492C10.4391 23.6487 10.9592 23.2327 11.9994 22.4005L17.3457 18.1235C18.6803 17.0558 19.3476 16.5219 19.5892 15.877C19.801 15.3115 19.801 14.6885 19.5892 14.123C19.3476 13.4781 18.6803 12.9442 17.3457 11.8765L11.9994 7.59951C10.9592 6.76734 10.4391 6.35125 10.0013 6.35078C9.62067 6.35037 9.26056 6.52345 9.02307 6.82097C8.75 7.16306 8.75 7.82912 8.75 9.16125Z" stroke="#394B42" stroke-width="2" stroke-linecap="round" stroke-linejoin="round"/>
</svg>
