<svg width="27" height="31" viewBox="0 0 27 31" fill="none" xmlns="http://www.w3.org/2000/svg">
<path d="M16.2699 29.0334C21.8338 30.2431 26.1613 29.6382 26.1613 26.6139C26.1613 24.1945 21.2156 24.7993 18.7428 26.0091C14.8275 27.8237 6.25493 31.0899 3.28752 29.6382C-0.421746 27.8237 1.99978 25.0001 3.90573 24.7993C6.5466 24.5212 11.1184 25.2026 13.1792 26.0091C15.2398 25.001 19.7319 21.896 21.2156 17.541C23.0703 12.0972 20.5974 10.8875 19.361 10.2827C18.3719 9.79877 14.0032 9.6778 11.9425 9.6778C8.85141 9.6778 4.09107 10.8875 5.76064 15.7264C6.34147 17.4098 8.41855 20.5653 13.1792 22.9848C15.2398 21.5734 19.2374 17.9039 18.7428 14.5167C18.1246 10.2827 13.7971 12.7021 13.1789 13.307C12.5607 12.7021 10.9533 11.6134 9.46963 12.0972C7.61499 12.7021 6.99678 15.1216 8.85142 16.9361" stroke="#394B42" stroke-linecap="round" stroke-linejoin="round"/>
<path d="M17.0064 3.62917C17.0064 5.34713 15.5799 6.75835 13.7972 6.75835C12.0144 6.75835 10.5879 5.34713 10.5879 3.62917C10.5879 1.91121 12.0144 0.5 13.7972 0.5C15.5799 0.5 17.0064 1.91121 17.0064 3.62917Z" stroke="#394B42"/>
</svg>
