<svg width="32" height="26" viewBox="0 0 32 26" fill="none" xmlns="http://www.w3.org/2000/svg">
<path d="M12.8325 4.98328C12.4811 4.98328 12.1235 5.01077 11.7666 5.07406M12.8325 4.98328L12.8323 4.48328M12.8325 4.98328V4.48328C12.8325 4.48328 12.8324 4.48328 12.8323 4.48328M12.8325 4.98328C13.8901 4.98274 14.8901 5.2341 15.6212 5.48763M11.7666 5.07406L11.6773 4.5821L11.6793 4.58175M11.7666 5.07406C11.7595 5.07535 11.7525 5.07565 11.7454 5.07595M11.7666 5.07406L11.7454 5.07595M12.8323 4.48328C12.4718 4.48329 12.1024 4.51024 11.7311 4.57279M12.8323 4.48328L15.6212 5.48763M11.7311 4.57279C11.7486 4.58136 11.7656 4.59097 11.7821 4.60158C11.7583 4.58621 11.7314 4.5785 11.7058 4.57795C11.702 4.57837 11.6975 4.57892 11.6925 4.57963C11.6923 4.57966 11.6921 4.5797 11.6918 4.57973C11.6879 4.58029 11.6837 4.58096 11.6793 4.58175M11.7311 4.57279C11.7219 4.57434 11.7127 4.57591 11.7035 4.5775M11.7311 4.57279C11.6839 4.54965 11.6332 4.53405 11.5809 4.52669C11.2982 4.48688 11.0127 4.46592 10.7266 4.46592C10.6503 4.46592 10.5734 4.46724 10.4961 4.47021M11.6793 4.58175C11.6835 4.58101 11.6876 4.58027 11.6918 4.57954C11.692 4.5795 11.6923 4.57946 11.6925 4.57942C11.6953 4.57892 11.6982 4.57843 11.701 4.57793M11.6793 4.58175L11.701 4.57793M11.7035 4.5775L10.5404 4.5148L10.5402 4.51458L10.4961 4.47021M11.7035 4.5775C11.7001 4.57773 11.6964 4.578 11.6924 4.57833C11.6953 4.57811 11.6981 4.57797 11.701 4.57793M11.7035 4.5775L11.701 4.57793M10.4961 4.47021L9.9774 3.94874L9.97738 3.94873L6.69341 0.647376C6.59956 0.553036 6.47198 0.499995 6.33892 0.499995C6.20585 0.499995 6.07828 0.553038 5.98443 0.647378L0.645513 6.01461C0.451497 6.20965 0.451496 6.52479 0.64551 6.71984L3.92952 10.0213M10.4961 4.47021C10.4746 4.47103 10.4532 4.47198 10.4317 4.47307L10.4388 4.61541L10.4389 4.6157L10.4569 4.97243L10.4396 4.61496L10.4396 4.61466L10.4328 4.47301L3.92952 10.0213M3.92952 10.0213C4.1614 10.2545 4.35243 10.5168 4.51829 10.7993C4.68497 11.0833 4.82501 11.3845 4.95845 11.7006C5.03313 11.8781 5.10739 12.0647 5.18328 12.2555C5.36791 12.7196 5.56216 13.2079 5.79554 13.6471C6.02208 14.0739 6.29631 14.4843 6.66284 14.8529L6.66285 14.8529L7.24672 15.4401C7.43893 15.6334 7.75058 15.6371 7.94734 15.4484L11.9406 11.619C11.9644 11.6023 11.9867 11.5835 12.0073 11.5628L13.6874 9.87381C13.8398 9.72056 13.8765 9.48669 13.7783 9.2941C13.7649 9.26766 13.7493 9.24282 13.7318 9.21973C14.1116 9.13278 14.4419 9.01942 14.7171 8.90433L14.7172 8.90429C15.1615 8.71834 15.4644 8.52636 15.6001 8.43229L20.845 11.2571L20.8453 11.2573C21.0869 11.3872 21.346 11.4491 21.6034 11.4491M3.92952 10.0213L21.6034 10.9491M3.92952 10.0213L4.28407 9.66876L3.92958 10.0214L3.92952 10.0213ZM21.6034 11.4491V10.9491M21.6034 11.4491C21.6032 11.4491 21.6031 11.4491 21.6029 11.4491L21.6034 10.9491M21.6034 11.4491C21.8905 11.4493 22.1732 11.3714 22.4194 11.2262L22.1653 10.7955C21.9955 10.8957 21.8005 10.9493 21.6034 10.9491M23.2112 9.83829C23.2112 9.83814 23.2112 9.83799 23.2112 9.83784H22.7112L23.2112 9.83829ZM23.2112 9.83829C23.2115 9.55105 23.1346 9.26788 22.9907 9.021L22.9903 9.02031C22.8457 8.77313 22.6351 8.56206 22.3649 8.41601L22.3643 8.41569L17.0408 5.54835C17.0404 5.54813 17.04 5.54791 17.0396 5.5477L17.0343 5.5447L17.0342 5.54482L17.0204 5.53741L17.014 5.53398L17.0139 5.53403C17.0023 5.528 16.9799 5.51634 16.951 5.50174L16.7252 5.94786L23.2112 9.83829ZM15.6212 5.48763L15.7848 5.01517C15.7849 5.01519 15.7849 5.01521 15.785 5.01524L15.6212 5.48763ZM11.7454 5.07595C11.7416 5.07612 11.7379 5.07628 11.7341 5.07659L11.7454 5.07595ZM22.5587 9.27273C22.4589 9.10202 22.3142 8.95698 22.1272 8.8559L22.5587 9.27273Z" stroke="#394B42" stroke-linejoin="round"/>
<path d="M21.2975 18.1787C21.2977 17.8389 21.3773 17.5276 21.512 17.2697C21.6474 17.0112 21.8336 16.8146 22.0487 16.6968C22.1736 16.6284 22.3114 16.5874 22.4528 16.5795C22.6023 16.5712 22.7401 16.4963 22.8284 16.3755C22.9168 16.2547 22.9464 16.1007 22.9091 15.9557C22.8671 15.7926 22.8439 15.6199 22.8438 15.4405C22.844 15.1008 22.9235 14.7894 23.0582 14.5315C23.194 14.2729 23.38 14.0764 23.5948 13.9588C23.735 13.882 23.891 13.8396 24.0503 13.8397L24.0513 13.8397C24.132 13.8396 24.2129 13.8509 24.2928 13.8726C24.5253 13.9356 24.7697 13.824 24.8742 13.6069C24.8786 13.5978 24.8829 13.5889 24.887 13.5802C24.9103 13.5317 24.9305 13.4898 24.9519 13.448C25.1537 13.0536 25.3895 12.6917 25.6989 12.3808L25.699 12.3807L31.3545 6.69524C31.4522 6.59703 31.5048 6.46269 31.4997 6.32426C31.4946 6.18583 31.4323 6.05571 31.3277 5.96493L25.5937 0.990845C25.3867 0.811312 25.0738 0.831772 24.892 1.03673C24.8861 1.04345 24.8808 1.04966 24.8765 1.05499L19.6512 6.3079L19.651 6.3081L19.4998 6.45998C19.3884 6.57184 19.3364 6.72973 19.3594 6.8859C19.3825 7.04206 19.478 7.17816 19.617 7.25301L22.2292 8.65992L22.2292 8.65996C22.4516 8.77971 22.6271 8.95522 22.7458 9.15927L22.7461 9.1598C22.8657 9.36496 22.9293 9.59926 22.9293 9.83784V9.83814C22.9295 10.048 22.8796 10.2624 22.7751 10.4611C22.7738 10.4633 22.7726 10.4655 22.7714 10.4678C22.6522 10.6917 22.4772 10.8682 22.2747 10.9874L22.2745 10.9876C22.0712 11.1073 21.8394 11.1708 21.6031 11.171C21.3933 11.1709 21.1788 11.12 20.9804 11.013L20.9801 11.0129L15.8487 8.24931C15.6891 8.16332 15.4954 8.17052 15.3425 8.26813C15.2017 8.35808 14.971 8.4916 14.6594 8.62578L14.6582 8.62629C14.6221 8.64195 14.5833 8.658 14.5415 8.67492C14.479 8.70023 14.4223 8.73793 14.3747 8.78575L11.8139 11.3602C11.7937 11.3744 11.7745 11.3903 11.7565 11.4076L6.92165 16.044L6.9212 16.0445C6.81294 16.1485 6.73483 16.2701 6.68211 16.4058L6.68176 16.4067C6.62931 16.5426 6.60455 16.6898 6.60455 16.8402H7.10455M21.2975 18.1787L7.73872 18.5054C7.52396 18.4054 7.31616 18.2572 7.135 18.0663L7.1348 18.0661C6.96252 17.8844 6.8297 17.6805 6.74063 17.4715C6.65166 17.2637 6.60427 17.0459 6.60455 16.8395L7.10455 16.8402M21.2975 18.1787C21.2977 18.2742 21.3053 18.3702 21.3189 18.4677C21.3424 18.6375 21.2774 18.8075 21.1465 18.9182C21.0156 19.0289 20.8372 19.0648 20.6737 19.0134C20.5829 18.9849 20.4901 18.97 20.3968 18.9701L20.3959 18.9701C20.2366 18.97 20.0807 19.0123 19.9405 19.089C19.8453 19.1412 19.7549 19.2104 19.6701 19.2958L19.6698 19.2961C19.5673 19.3991 19.4772 19.5223 19.404 19.6619L21.2975 18.1787ZM7.10455 16.8402C7.10437 16.9715 7.13504 17.1225 7.20043 17.2751M7.10455 16.8402C7.10455 16.7442 7.1204 16.6588 7.14819 16.5868C7.17622 16.5147 7.21505 16.4556 7.26772 16.4049L11.7417 12.1145L11.7379 12.1106L12.1024 11.7686L7.20043 17.2751M7.20043 17.2751C7.26553 17.4279 7.365 17.5822 7.49768 17.7221M7.20043 17.2751L7.49768 17.7221M14.7292 9.13836L12.4604 11.4192L14.7292 9.13836ZM14.7292 9.13836C14.773 9.12064 14.8158 9.10292 14.8571 9.08501M14.7292 9.13836L14.8571 9.08501M14.8571 9.08501C15.1968 8.93872 15.4514 8.79188 15.6116 8.68952L14.8571 9.08501ZM22.4663 8.21971C22.7722 8.38445 23.0143 8.62641 23.178 8.90797C23.3421 9.18936 23.4293 9.51052 23.4293 9.83784C23.4295 10.1301 23.3593 10.4279 23.2129 10.7026L23.2127 10.7028L22.4663 8.21971ZM22.4663 8.21971L20.3134 7.06018M22.4663 8.21971L20.3134 7.06018M20.3134 7.06018L20.2084 7.16562L19.8541 6.8128L19.9602 6.61567L20.3134 7.06018ZM18.7129 20.2203C18.7516 19.9348 18.8369 19.6674 18.961 19.4301L19.4038 19.6622C19.4039 19.6621 19.4039 19.662 19.404 19.6619M18.7129 20.2203L19.404 19.6619M18.7129 20.2203C18.7242 20.2214 18.7354 20.2224 18.7462 20.2235L18.7108 20.571L18.7129 20.2203ZM19.404 19.6619C19.2691 19.9198 19.1895 20.2312 19.1894 20.571L19.404 19.6619ZM13.2821 22.8872C13.3589 22.855 13.4189 22.8112 13.468 22.7528L13.2821 22.8872ZM13.2821 22.8872C13.2056 22.9192 13.1118 22.9378 13.0051 22.9378M13.2821 22.8872L11.6879 21.475M11.6879 21.475C11.6687 21.532 11.6581 21.5971 11.6581 21.6696M11.6879 21.475C11.7071 21.4179 11.7343 21.3687 11.7716 21.3239L11.6879 21.475ZM11.6581 21.6696C11.6578 21.8051 11.6966 21.9664 11.78 22.1289M11.6581 21.6696L11.1581 21.6686M11.6581 21.6696L11.1581 21.6691L11.1581 21.6686M11.78 22.1289C11.8631 22.2917 11.9899 22.4544 12.1562 22.5944C12.4322 22.8282 12.7526 22.9391 13.0051 22.9378M11.78 22.1289L11.3347 22.3563C11.3348 22.3564 11.3349 22.3566 11.335 22.3568C11.4493 22.5806 11.6185 22.7952 11.8336 22.9765C12.1884 23.2768 12.6212 23.4397 13.0076 23.4378L13.0051 22.9378M11.78 22.1289L14.0044 22.8902M13.0051 22.9378V23.4378C13.1686 23.4378 13.3293 23.4094 13.475 23.3485L13.4754 23.3483C13.6209 23.2874 13.7473 23.1976 13.8507 23.0745L13.852 23.073L13.852 23.073L14.0044 22.8902M14.0044 22.8902C13.9696 23.0098 13.9527 23.1343 13.9523 23.2608M14.0044 22.8902L14.4523 23.2624M13.9523 23.2608L14.4523 23.2624M13.9523 23.2608C13.9523 23.2606 13.9523 23.2604 13.9523 23.2602L14.4523 23.2624M13.9523 23.2608C13.9505 23.7292 14.1888 24.223 14.6128 24.5619M14.4523 23.2624C14.451 23.5657 14.6099 23.9198 14.9254 24.1717M14.6128 24.5619C14.6126 24.5617 14.6124 24.5616 14.6122 24.5614L14.9254 24.1717M14.6128 24.5619C14.9391 24.8239 15.3279 24.9571 15.6962 24.9567M14.6128 24.5619C14.613 24.5621 14.6132 24.5622 14.6135 24.5624L14.9254 24.1717M14.9254 24.1717L17.344 22.8138M15.6962 24.9567C15.6961 24.9567 15.696 24.9567 15.6958 24.9567V24.4567L15.6966 24.9567C15.6964 24.9567 15.6963 24.9567 15.6962 24.9567ZM15.6962 24.9567C15.8961 24.9566 16.0924 24.9178 16.2706 24.8381L16.271 24.8379C16.4493 24.758 16.6063 24.6401 16.7326 24.4821L16.7339 24.4806L16.7339 24.4806L17.3131 23.7504C17.4098 23.6284 17.4442 23.4684 17.4062 23.3175C17.3661 23.1584 17.3442 22.9896 17.344 22.8138M17.344 22.8138C17.344 22.8139 17.344 22.814 17.344 22.8142L16.844 22.8139M17.344 22.8138L16.844 22.8139M17.344 22.8138C17.3442 22.4739 17.4237 22.1628 17.5584 21.9049M17.344 22.8138L19.1894 20.5712C19.1894 20.6013 19.1911 20.6313 19.1939 20.6793L19.1946 20.6921C19.2031 20.8383 19.147 20.9809 19.0412 21.0822C18.9354 21.1834 18.7904 21.2332 18.6447 21.2184C18.6078 21.2146 18.5776 21.2128 18.5509 21.2128L18.5505 21.2128C18.3913 21.2127 18.2354 21.255 18.095 21.3319L18.0949 21.332C17.8801 21.4496 17.6939 21.6461 17.5584 21.9049M17.344 22.8138C17.344 22.8137 17.344 22.8136 17.344 22.8135L16.844 22.8139M17.344 22.8138L16.844 22.8139M17.5584 21.9049C17.5584 21.9049 17.5584 21.905 17.5584 21.905L17.1154 21.673L17.5586 21.9046C17.5585 21.9047 17.5585 21.9048 17.5584 21.9049ZM11.1581 21.6686C11.1582 21.5479 11.1759 21.4289 11.2139 21.3159L11.2141 21.3152C11.2522 21.2023 11.3088 21.0983 11.3873 21.004C11.3884 21.0027 11.3895 21.0014 11.3906 21.0001L13.0929 18.9581M11.1581 21.6686L13.0929 18.9581M13.0929 18.9581L11.1486 20.9856L11.1485 20.9858C11.0511 21.0872 10.9374 21.1598 10.8104 21.2085L10.6312 20.7418L10.8111 21.2082C10.6837 21.2574 10.5458 21.28 10.4059 21.2801M13.0929 18.9581L9.76773 21.1372C9.9773 21.2298 10.1979 21.2805 10.4059 21.2801M10.4059 21.2801C10.4061 21.2801 10.4063 21.2801 10.4066 21.2801L10.4052 20.7801V21.2801C10.4054 21.2801 10.4056 21.2801 10.4059 21.2801ZM9.19429 19.0956C9.15371 19.1379 9.12383 19.1864 9.10208 19.2457C9.08051 19.305 9.06799 19.3753 9.06799 19.4558L8.568 19.4545C8.56799 19.4549 8.56799 19.4554 8.56799 19.4558C8.56766 19.6693 8.62252 19.8968 8.72263 20.1118C8.82317 20.3285 8.97242 20.5401 9.16425 20.7258L9.19438 19.0954L9.19429 19.0956ZM9.19429 19.0956L8.7459 18.8743L8.74599 18.8742C8.76695 18.8317 8.79382 18.7924 8.8258 18.7575M9.19429 19.0956L9.1938 19.0951L8.83341 18.7495C8.83086 18.7522 8.82832 18.7548 8.8258 18.7575M8.8258 18.7575C8.82833 18.7548 8.8309 18.752 8.83349 18.7493L9.76809 17.7747M8.8258 18.7575L9.76809 17.7747M9.76809 17.7747L9.14152 18.3756L9.14097 18.3761C9.04015 18.4725 8.92504 18.5425 8.79782 18.5897L8.79691 18.59C8.67005 18.6368 8.53407 18.659 8.39509 18.659C8.3952 18.659 8.39531 18.659 8.39542 18.659L9.76809 17.7747ZM7.49768 17.7221C7.63703 17.869 7.79392 17.9796 7.95016 18.0523L7.49768 17.7221ZM24.8593 1.07698L24.8595 1.07673L24.8593 1.07698ZM13.9763 13.7392L13.9761 13.7393L13.9763 13.7392Z" stroke="#394B42" stroke-linejoin="round"/>
<path d="M23.3807 14.432L22.9854 14.1259C23.1175 13.9553 23.2776 13.8139 23.4578 13.7155L23.4583 13.7152C23.6397 13.6165 23.8377 13.5618 24.0499 13.5615L24.0513 13.5615C24.2642 13.5618 24.4618 13.617 24.6423 13.7149L24.6426 13.7151C24.9131 13.862 25.1386 14.1074 25.2936 14.4039C25.4494 14.7014 25.5397 15.0596 25.5396 15.4404M23.3807 14.432L22.9861 14.1251C22.7221 14.4645 22.5611 14.9345 22.5616 15.4409M23.3807 14.432C23.1906 14.6765 23.0611 15.0362 23.0616 15.4407M23.3807 14.432C23.4755 14.3096 23.5844 14.2161 23.6973 14.1544C23.8107 14.0928 23.9272 14.0616 24.0506 14.0615C24.1742 14.0616 24.2906 14.0929 24.4039 14.1544C24.5733 14.2465 24.7338 14.4121 24.8507 14.636L23.0616 15.4407M22.5616 15.4409C22.5615 15.8211 22.6514 16.1786 22.8069 16.4758C22.8242 16.5093 22.8424 16.5405 22.8533 16.5591C22.8546 16.5613 22.8557 16.5632 22.8567 16.565L22.9181 16.6703L23.021 16.7356C23.1407 16.8116 23.2485 16.9093 23.3404 17.0264L23.3458 17.0344C23.3496 17.0398 23.3551 17.0477 23.3619 17.0567L23.4411 17.163L23.5626 17.216C23.7134 17.2818 23.8758 17.3193 24.0488 17.3199L24.0521 17.32C24.264 17.3193 24.4615 17.2647 24.6429 17.166L24.6435 17.1657C24.8234 17.0675 24.9835 16.9264 25.1158 16.7555L24.7205 16.4494M22.5616 15.4409C22.5616 15.4407 22.5616 15.4406 22.5616 15.4404L23.0616 15.4407M22.5616 15.4409C22.5616 15.4411 22.5616 15.4412 22.5616 15.4414L23.0616 15.4407M24.7205 16.4494L25.115 16.7565C25.3794 16.4169 25.5402 15.9467 25.5396 15.4404M24.7205 16.4494C24.6257 16.5718 24.5169 16.6652 24.4039 16.7268C24.2906 16.7885 24.1742 16.8196 24.0506 16.8199M24.7205 16.4494L24.0506 16.8199M25.5396 15.4404C25.5396 15.4406 25.5396 15.4408 25.5396 15.441L25.0396 15.4407L25.5396 15.44C25.5396 15.4402 25.5396 15.4403 25.5396 15.4404ZM24.0506 16.8199C23.9506 16.8196 23.8554 16.7982 23.7626 16.7577M24.0506 16.8199L23.7626 16.7577M23.7626 16.7577C23.7592 16.7531 23.7559 16.7483 23.7527 16.7436C23.7488 16.7378 23.7449 16.7321 23.7407 16.7266M23.7626 16.7577L23.7407 16.7266M23.7407 16.7266C23.6133 16.5623 23.461 16.4226 23.2888 16.3134L23.7407 16.7266Z" stroke="#394B42"/>
<path d="M21.9127 16.4528L21.911 16.4537C21.7315 16.5519 21.5714 16.6929 21.439 16.8638L21.8343 17.17L21.4396 16.8631C21.1755 17.2027 21.0148 17.6727 21.0154 18.1789M21.9127 16.4528L23.0966 16.4533C23.3665 16.6001 23.5922 16.8452 23.7471 17.1417C23.9033 17.4396 23.9933 17.7979 23.9933 18.1784M21.9127 16.4528C22.0933 16.355 22.2907 16.2998 22.5036 16.2995L22.5051 16.2995M21.9127 16.4528L22.5051 16.2995M21.0154 18.1789C21.0152 18.56 21.1055 18.9182 21.2614 19.2157M21.0154 18.1789C21.0154 18.1788 21.0154 18.1786 21.0154 18.1784L21.5154 18.1787L21.0154 18.1794C21.0154 18.1792 21.0154 18.1791 21.0154 18.1789ZM21.2614 19.2157L21.7043 18.9836L21.2611 19.2153C21.2612 19.2154 21.2613 19.2156 21.2614 19.2157ZM21.2614 19.2157C21.4164 19.5122 21.6421 19.7573 21.9118 19.9042L21.9127 19.9047L21.9127 19.9047C22.0933 20.0025 22.2907 20.0577 22.5036 20.058L22.5051 20.058C22.718 20.0577 22.9155 20.0025 23.0961 19.9045L23.0972 19.9039L23.0972 19.9039C23.2774 19.8056 23.4375 19.6642 23.5696 19.4936L23.1742 19.1874M23.1742 19.1874L23.5689 19.4944C23.8329 19.1549 23.9939 18.6849 23.9933 18.1784M23.1742 19.1874C23.3643 18.943 23.4939 18.5833 23.4933 18.1787M23.1742 19.1874C23.0794 19.3099 22.9706 19.4034 22.8576 19.465C22.7443 19.5265 22.6279 19.5578 22.5044 19.558C22.3808 19.5578 22.2644 19.5265 22.1509 19.465L23.4933 18.1787M23.9933 18.1784C23.9933 18.1785 23.9933 18.1786 23.9933 18.1787H23.4933M23.9933 18.1784C23.9933 18.1783 23.9933 18.1782 23.9933 18.1781L23.4933 18.1787M22.5051 16.2995C22.7175 16.2998 22.9152 16.3546 23.0965 16.4532L22.5051 16.2995Z" stroke="#394B42"/>
<path d="M19.0285 21.3328L19.16 21.4359C19.2473 21.5044 19.325 21.5817 19.3917 21.6679L19.7871 21.3618C19.905 21.5143 20.0023 21.687 20.0778 21.8738L19.0285 21.3328ZM19.0285 21.3328L18.9855 21.1714M19.0285 21.3328L18.9855 21.1714M18.9855 21.1714C18.9355 20.9843 18.9072 20.7824 18.9074 20.5711L18.9855 21.1714Z" stroke="#394B42"/>
<path d="M17.0618 22.8141C17.0613 22.308 17.2219 21.8377 17.4862 21.4981L17.8808 21.8052L17.4857 21.4987C17.6178 21.3285 17.7777 21.1872 17.9575 21.0889L17.9586 21.0883C18.1399 20.9898 18.3376 20.935 18.5501 20.9347L18.5515 20.9347C18.7639 20.935 18.9616 20.9897 19.1428 21.0883C19.4131 21.2351 19.6387 21.4806 19.7935 21.7767C19.9498 22.0746 20.0397 22.433 20.0398 22.8136M17.0618 22.8141C17.0617 23.195 17.152 23.5534 17.3081 23.851L17.7509 23.6187L17.3076 23.85C17.4624 24.1466 17.6883 24.3925 17.9586 24.5394L17.9586 24.5394C18.1399 24.6379 18.3376 24.6927 18.5501 24.693L18.5515 24.693C18.7644 24.6927 18.9619 24.6375 19.1425 24.5395L19.1437 24.5389L19.1437 24.5389C19.3234 24.4408 19.4834 24.2999 19.6157 24.1289C19.8796 23.7896 20.0404 23.3197 20.0398 22.8136M17.0618 22.8141C17.0618 22.814 17.0618 22.8138 17.0618 22.8136L17.5618 22.8139L17.0618 22.8146C17.0618 22.8144 17.0618 22.8143 17.0618 22.8141ZM20.0398 22.8136C20.0398 22.8137 20.0398 22.8138 20.0398 22.8139H19.5398L20.0398 22.8133C20.0398 22.8134 20.0398 22.8135 20.0398 22.8136Z" stroke="#394B42"/>
</svg>
