<svg width="30" height="25" viewBox="0 0 30 25" fill="none" xmlns="http://www.w3.org/2000/svg">
<rect x="0.5" y="0.5" width="29" height="23.1463" rx="7.5" stroke="#394B42"/>
<path d="M22.4255 10.6976L22.4255 10.6977C23.0476 11.0567 23.4308 11.7206 23.4308 12.4388C23.4308 13.157 23.0476 13.8207 22.4255 14.18C22.4254 14.18 22.4254 14.18 22.4254 14.18L11.5638 20.4508L11.5637 20.4508C11.2504 20.6317 10.9047 20.7194 10.5609 20.7194L22.4255 10.6976ZM22.4255 10.6976L11.5638 4.42689L11.8138 3.99387M22.4255 10.6976L11.8138 3.99387M11.8138 3.99387L11.5638 4.42688C10.7493 3.95662 9.71243 4.11596 9.07675 4.80921M11.8138 3.99387L9.07675 4.80921M9.07675 4.80921C8.44118 5.50235 8.3719 6.54895 8.91053 7.31971M9.07675 4.80921L8.91053 7.31971M8.91053 7.31971C9.8655 8.68392 10.4642 10.4681 10.4634 12.4386C10.4634 12.4387 10.4634 12.4389 10.4634 12.439L8.91053 7.31971ZM8.91081 17.5576C8.37196 18.3285 8.44115 19.3751 9.07662 20.0683L8.91081 17.5576ZM9.07668 20.0684C9.46737 20.4944 10.01 20.7193 10.5609 20.7194L9.07668 20.0684Z" stroke="#394B42"/>
</svg>
